G04 #@! TF.GenerationSoftware,KiCad,Pcbnew,(5.1.6)-1*
G04 #@! TF.CreationDate,2020-07-21T12:12:18+05:30*
G04 #@! TF.ProjectId,WeatherStationPCB,57656174-6865-4725-9374-6174696f6e50,rev?*
G04 #@! TF.SameCoordinates,Original*
G04 #@! TF.FileFunction,Copper,L2,Bot*
G04 #@! TF.FilePolarity,Positive*
%FSLAX46Y46*%
G04 Gerber Fmt 4.6, Leading zero omitted, Abs format (unit mm)*
G04 Created by KiCad (PCBNEW (5.1.6)-1) date 2020-07-21 12:12:18*
%MOMM*%
%LPD*%
G01*
G04 APERTURE LIST*
G04 #@! TA.AperFunction,ComponentPad*
%ADD10O,1.700000X1.700000*%
G04 #@! TD*
G04 #@! TA.AperFunction,ComponentPad*
%ADD11R,1.700000X1.700000*%
G04 #@! TD*
G04 #@! TA.AperFunction,ComponentPad*
%ADD12C,3.800000*%
G04 #@! TD*
G04 #@! TA.AperFunction,ComponentPad*
%ADD13O,1.600000X1.600000*%
G04 #@! TD*
G04 #@! TA.AperFunction,ComponentPad*
%ADD14C,1.600000*%
G04 #@! TD*
G04 #@! TA.AperFunction,ComponentPad*
%ADD15R,1.560000X1.560000*%
G04 #@! TD*
G04 #@! TA.AperFunction,ComponentPad*
%ADD16C,1.560000*%
G04 #@! TD*
G04 #@! TA.AperFunction,ComponentPad*
%ADD17C,1.500000*%
G04 #@! TD*
G04 #@! TA.AperFunction,ComponentPad*
%ADD18R,1.500000X1.500000*%
G04 #@! TD*
G04 #@! TA.AperFunction,ComponentPad*
%ADD19R,3.500000X3.500000*%
G04 #@! TD*
G04 #@! TA.AperFunction,ComponentPad*
%ADD20O,1.500000X1.050000*%
G04 #@! TD*
G04 #@! TA.AperFunction,ComponentPad*
%ADD21R,1.500000X1.050000*%
G04 #@! TD*
G04 #@! TA.AperFunction,ViaPad*
%ADD22C,0.800000*%
G04 #@! TD*
G04 #@! TA.AperFunction,Conductor*
%ADD23C,0.500000*%
G04 #@! TD*
G04 #@! TA.AperFunction,Conductor*
%ADD24C,0.200000*%
G04 #@! TD*
G04 #@! TA.AperFunction,Conductor*
%ADD25C,0.254000*%
G04 #@! TD*
G04 APERTURE END LIST*
D10*
X156337000Y-99758000D03*
X156337000Y-102298000D03*
D11*
X156337000Y-104838000D03*
D12*
X74930000Y-123190000D03*
X74930000Y-77470000D03*
X157861000Y-91567000D03*
X157480000Y-123190000D03*
D13*
X117538000Y-103060000D03*
D14*
X125158000Y-103060000D03*
D13*
X150812000Y-107315000D03*
D14*
X143192000Y-107315000D03*
D13*
X150686000Y-87693500D03*
D14*
X143066000Y-87693500D03*
D13*
X150749000Y-96456500D03*
D14*
X143129000Y-96456500D03*
D13*
X150749000Y-77089000D03*
D14*
X143129000Y-77089000D03*
D10*
X113602000Y-78740000D03*
X116142000Y-78740000D03*
X118682000Y-78740000D03*
D11*
X121222000Y-78740000D03*
D10*
X156337000Y-112522000D03*
X156337000Y-115062000D03*
D11*
X156337000Y-117602000D03*
D10*
X156337000Y-80645000D03*
X156337000Y-83185000D03*
D11*
X156337000Y-85725000D03*
D10*
X129540000Y-78740000D03*
X132080000Y-78740000D03*
X134620000Y-78740000D03*
D11*
X137160000Y-78740000D03*
D15*
X105791000Y-125170000D03*
D16*
X105791000Y-122630000D03*
X105791000Y-79450000D03*
X105791000Y-120090000D03*
X105791000Y-117550000D03*
X105791000Y-115010000D03*
X105791000Y-112470000D03*
X105791000Y-109930000D03*
X105791000Y-107390000D03*
X105791000Y-104850000D03*
X105791000Y-102310000D03*
X105791000Y-99770000D03*
X105791000Y-97230000D03*
X105791000Y-94690000D03*
X105791000Y-92150000D03*
X105791000Y-89610000D03*
X105791000Y-87070000D03*
X105791000Y-84530000D03*
X105791000Y-81990000D03*
X80391000Y-125170000D03*
X80391000Y-122630000D03*
X80391000Y-120090000D03*
X80391000Y-117550000D03*
X80391000Y-115010000D03*
X80391000Y-112470000D03*
X80391000Y-109930000D03*
X80391000Y-107390000D03*
X80391000Y-104850000D03*
X80391000Y-102310000D03*
X80391000Y-99770000D03*
X80391000Y-97230000D03*
X80391000Y-94690000D03*
X80391000Y-92150000D03*
X80391000Y-89610000D03*
X80391000Y-87070000D03*
X80391000Y-84530000D03*
X80391000Y-81990000D03*
X80391000Y-79450000D03*
D17*
X132016000Y-89725500D03*
X132016000Y-92265500D03*
X132016000Y-94805500D03*
D18*
X132016000Y-97345500D03*
D14*
X136588000Y-92559500D03*
X136588000Y-95059500D03*
D19*
X115126000Y-116904000D03*
G04 #@! TA.AperFunction,ComponentPad*
G36*
G01*
X116126000Y-124404000D02*
X114126000Y-124404000D01*
G75*
G02*
X113376000Y-123654000I0J750000D01*
G01*
X113376000Y-122154000D01*
G75*
G02*
X114126000Y-121404000I750000J0D01*
G01*
X116126000Y-121404000D01*
G75*
G02*
X116876000Y-122154000I0J-750000D01*
G01*
X116876000Y-123654000D01*
G75*
G02*
X116126000Y-124404000I-750000J0D01*
G01*
G37*
G04 #@! TD.AperFunction*
G04 #@! TA.AperFunction,ComponentPad*
G36*
G01*
X120701000Y-121654000D02*
X118951000Y-121654000D01*
G75*
G02*
X118076000Y-120779000I0J875000D01*
G01*
X118076000Y-119029000D01*
G75*
G02*
X118951000Y-118154000I875000J0D01*
G01*
X120701000Y-118154000D01*
G75*
G02*
X121576000Y-119029000I0J-875000D01*
G01*
X121576000Y-120779000D01*
G75*
G02*
X120701000Y-121654000I-875000J0D01*
G01*
G37*
G04 #@! TD.AperFunction*
D20*
X147892000Y-82296000D03*
X147892000Y-83566000D03*
D21*
X147892000Y-81026000D03*
X147828000Y-100584000D03*
D20*
X147828000Y-103124000D03*
X147828000Y-101854000D03*
D22*
X87630000Y-96393000D03*
D23*
X156337000Y-85725000D02*
X156337000Y-87125300D01*
X156337000Y-104838000D02*
X154936700Y-103437700D01*
X154936700Y-103437700D02*
X154936700Y-88525600D01*
X154936700Y-88525600D02*
X156337000Y-87125300D01*
X121222000Y-78740000D02*
X122622300Y-78740000D01*
X137160000Y-78740000D02*
X135759700Y-80140300D01*
X135759700Y-80140300D02*
X124022600Y-80140300D01*
X124022600Y-80140300D02*
X122622300Y-78740000D01*
X149192300Y-93549500D02*
X150749000Y-95106200D01*
X136588000Y-95059500D02*
X138098000Y-93549500D01*
X132016000Y-97345500D02*
X134302000Y-97345500D01*
X134302000Y-97345500D02*
X136588000Y-95059500D01*
X150749000Y-96456500D02*
X150749000Y-95106200D01*
X149128400Y-101854000D02*
X149128400Y-99427400D01*
X149128400Y-99427400D02*
X150749000Y-97806800D01*
X149084900Y-101854000D02*
X149128400Y-101854000D01*
X149128400Y-101854000D02*
X149128400Y-110393400D01*
X149128400Y-110393400D02*
X156337000Y-117602000D01*
X150749000Y-96456500D02*
X150749000Y-97806800D01*
X150749000Y-77089000D02*
X150749000Y-78439300D01*
X147828000Y-101854000D02*
X149084900Y-101854000D01*
X105791000Y-125170000D02*
X107964500Y-122996500D01*
X107964500Y-122996500D02*
X107964500Y-119723700D01*
X107964500Y-119723700D02*
X124628200Y-103060000D01*
X124628200Y-103060000D02*
X125158000Y-103060000D01*
X147892000Y-82296000D02*
X149606000Y-82296000D01*
X150749000Y-81153000D02*
X150749000Y-78439300D01*
X149606000Y-82296000D02*
X150749000Y-81153000D01*
X144956500Y-93549500D02*
X147828000Y-90678000D01*
X144956500Y-93549500D02*
X149192300Y-93549500D01*
X138098000Y-93549500D02*
X144956500Y-93549500D01*
X147828000Y-90678000D02*
X147828000Y-85598000D01*
X149192010Y-84233990D02*
X147828000Y-85598000D01*
X148367293Y-82296000D02*
X149192010Y-83120717D01*
X149192010Y-83120717D02*
X149192010Y-84233990D01*
X147892000Y-82296000D02*
X148367293Y-82296000D01*
X125158000Y-103060000D02*
X125158000Y-99632000D01*
X127444500Y-97345500D02*
X132016000Y-97345500D01*
X125158000Y-99632000D02*
X127444500Y-97345500D01*
D24*
X80391000Y-120090000D02*
X103833900Y-96647100D01*
X103833900Y-96647100D02*
X103833900Y-92432900D01*
X103833900Y-92432900D02*
X105470000Y-90796800D01*
X105470000Y-90796800D02*
X106082300Y-90796800D01*
X106082300Y-90796800D02*
X116142000Y-80737100D01*
X116142000Y-80737100D02*
X116142000Y-78740000D01*
X80391000Y-112470000D02*
X104521000Y-88340000D01*
X104521000Y-88340000D02*
X105983600Y-88340000D01*
X105983600Y-88340000D02*
X113602000Y-80721600D01*
X113602000Y-80721600D02*
X113602000Y-78740000D01*
X127189300Y-77489600D02*
X128439700Y-78740000D01*
X113602000Y-78740000D02*
X114852400Y-77489600D01*
X128439700Y-78740000D02*
X129540000Y-78740000D01*
X114852400Y-77489600D02*
X127189300Y-77489600D01*
X117538000Y-103060000D02*
X118588300Y-103060000D01*
X132016000Y-94805500D02*
X126842800Y-94805500D01*
X126842800Y-94805500D02*
X118588300Y-103060000D01*
X151828500Y-87693500D02*
X156337000Y-83185000D01*
X150686000Y-87693500D02*
X151828500Y-87693500D01*
X143129000Y-77139200D02*
X103021800Y-77139200D01*
X103021800Y-77139200D02*
X80391000Y-99770000D01*
X143129000Y-77139200D02*
X143129000Y-77089000D01*
X146891700Y-83566000D02*
X143129000Y-79803300D01*
X143129000Y-79803300D02*
X143129000Y-77139200D01*
X147892000Y-83566000D02*
X146891700Y-83566000D01*
X147828000Y-103124000D02*
X146827700Y-103124000D01*
X146827700Y-103124000D02*
X143129000Y-99425300D01*
X143129000Y-99425300D02*
X143129000Y-96456500D01*
D25*
G36*
X160605000Y-75154606D02*
G01*
X160605001Y-125505393D01*
X159795394Y-126315000D01*
X107188000Y-126315000D01*
X107188000Y-126238000D01*
X107185560Y-126213224D01*
X107178333Y-126189399D01*
X107167883Y-126169849D01*
X107196812Y-126074482D01*
X107209072Y-125950000D01*
X107209072Y-125003506D01*
X107808578Y-124404000D01*
X112737928Y-124404000D01*
X112750188Y-124528482D01*
X112786498Y-124648180D01*
X112845463Y-124758494D01*
X112924815Y-124855185D01*
X113021506Y-124934537D01*
X113131820Y-124993502D01*
X113251518Y-125029812D01*
X113376000Y-125042072D01*
X114840250Y-125039000D01*
X114999000Y-124880250D01*
X114999000Y-123031000D01*
X115253000Y-123031000D01*
X115253000Y-124880250D01*
X115411750Y-125039000D01*
X116876000Y-125042072D01*
X117000482Y-125029812D01*
X117120180Y-124993502D01*
X117170978Y-124966349D01*
X155883256Y-124966349D01*
X156087362Y-125322867D01*
X156530223Y-125553575D01*
X157009583Y-125693452D01*
X157507021Y-125737123D01*
X158003422Y-125682909D01*
X158479707Y-125532894D01*
X158872638Y-125322867D01*
X159076744Y-124966349D01*
X157480000Y-123369605D01*
X155883256Y-124966349D01*
X117170978Y-124966349D01*
X117230494Y-124934537D01*
X117327185Y-124855185D01*
X117406537Y-124758494D01*
X117465502Y-124648180D01*
X117501812Y-124528482D01*
X117514072Y-124404000D01*
X117511069Y-123217021D01*
X154932877Y-123217021D01*
X154987091Y-123713422D01*
X155137106Y-124189707D01*
X155347133Y-124582638D01*
X155703651Y-124786744D01*
X157300395Y-123190000D01*
X157659605Y-123190000D01*
X159256349Y-124786744D01*
X159612867Y-124582638D01*
X159843575Y-124139777D01*
X159983452Y-123660417D01*
X160027123Y-123162979D01*
X159972909Y-122666578D01*
X159822894Y-122190293D01*
X159612867Y-121797362D01*
X159256349Y-121593256D01*
X157659605Y-123190000D01*
X157300395Y-123190000D01*
X155703651Y-121593256D01*
X155347133Y-121797362D01*
X155116425Y-122240223D01*
X154976548Y-122719583D01*
X154932877Y-123217021D01*
X117511069Y-123217021D01*
X117511000Y-123189750D01*
X117352250Y-123031000D01*
X115253000Y-123031000D01*
X114999000Y-123031000D01*
X112899750Y-123031000D01*
X112741000Y-123189750D01*
X112737928Y-124404000D01*
X107808578Y-124404000D01*
X108559550Y-123653029D01*
X108593317Y-123625317D01*
X108703911Y-123490559D01*
X108786089Y-123336813D01*
X108836695Y-123169990D01*
X108849500Y-123039977D01*
X108849500Y-123039967D01*
X108853781Y-122996501D01*
X108849500Y-122953035D01*
X108849500Y-121404000D01*
X112737928Y-121404000D01*
X112741000Y-122618250D01*
X112899750Y-122777000D01*
X114999000Y-122777000D01*
X114999000Y-120927750D01*
X115253000Y-120927750D01*
X115253000Y-122777000D01*
X117352250Y-122777000D01*
X117511000Y-122618250D01*
X117514072Y-121404000D01*
X117501812Y-121279518D01*
X117465502Y-121159820D01*
X117406537Y-121049506D01*
X117327185Y-120952815D01*
X117230494Y-120873463D01*
X117120180Y-120814498D01*
X117000482Y-120778188D01*
X116876000Y-120765928D01*
X115411750Y-120769000D01*
X115253000Y-120927750D01*
X114999000Y-120927750D01*
X114840250Y-120769000D01*
X113376000Y-120765928D01*
X113251518Y-120778188D01*
X113131820Y-120814498D01*
X113021506Y-120873463D01*
X112924815Y-120952815D01*
X112845463Y-121049506D01*
X112786498Y-121159820D01*
X112750188Y-121279518D01*
X112737928Y-121404000D01*
X108849500Y-121404000D01*
X108849500Y-120090278D01*
X112737928Y-116201850D01*
X112737928Y-118654000D01*
X112750188Y-118778482D01*
X112786498Y-118898180D01*
X112845463Y-119008494D01*
X112924815Y-119105185D01*
X113021506Y-119184537D01*
X113131820Y-119243502D01*
X113251518Y-119279812D01*
X113376000Y-119292072D01*
X116876000Y-119292072D01*
X117000482Y-119279812D01*
X117120180Y-119243502D01*
X117230494Y-119184537D01*
X117327185Y-119105185D01*
X117406537Y-119008494D01*
X117447494Y-118931869D01*
X117437928Y-119029000D01*
X117437928Y-120779000D01*
X117467001Y-121074186D01*
X117553104Y-121358028D01*
X117692927Y-121619618D01*
X117881097Y-121848903D01*
X118110382Y-122037073D01*
X118371972Y-122176896D01*
X118655814Y-122262999D01*
X118951000Y-122292072D01*
X120701000Y-122292072D01*
X120996186Y-122262999D01*
X121280028Y-122176896D01*
X121541618Y-122037073D01*
X121770903Y-121848903D01*
X121959073Y-121619618D01*
X122069164Y-121413651D01*
X155883256Y-121413651D01*
X157480000Y-123010395D01*
X159076744Y-121413651D01*
X158872638Y-121057133D01*
X158429777Y-120826425D01*
X157950417Y-120686548D01*
X157452979Y-120642877D01*
X156956578Y-120697091D01*
X156480293Y-120847106D01*
X156087362Y-121057133D01*
X155883256Y-121413651D01*
X122069164Y-121413651D01*
X122098896Y-121358028D01*
X122184999Y-121074186D01*
X122214072Y-120779000D01*
X122214072Y-119029000D01*
X122184999Y-118733814D01*
X122098896Y-118449972D01*
X121959073Y-118188382D01*
X121770903Y-117959097D01*
X121541618Y-117770927D01*
X121280028Y-117631104D01*
X120996186Y-117545001D01*
X120701000Y-117515928D01*
X118951000Y-117515928D01*
X118655814Y-117545001D01*
X118371972Y-117631104D01*
X118110382Y-117770927D01*
X117881097Y-117959097D01*
X117692927Y-118188382D01*
X117553104Y-118449972D01*
X117514072Y-118578643D01*
X117514072Y-115154000D01*
X117501812Y-115029518D01*
X117465502Y-114909820D01*
X117406537Y-114799506D01*
X117327185Y-114702815D01*
X117230494Y-114623463D01*
X117120180Y-114564498D01*
X117000482Y-114528188D01*
X116876000Y-114515928D01*
X114423850Y-114515928D01*
X121766113Y-107173665D01*
X141757000Y-107173665D01*
X141757000Y-107456335D01*
X141812147Y-107733574D01*
X141920320Y-107994727D01*
X142077363Y-108229759D01*
X142277241Y-108429637D01*
X142512273Y-108586680D01*
X142773426Y-108694853D01*
X143050665Y-108750000D01*
X143333335Y-108750000D01*
X143610574Y-108694853D01*
X143871727Y-108586680D01*
X144106759Y-108429637D01*
X144306637Y-108229759D01*
X144463680Y-107994727D01*
X144571853Y-107733574D01*
X144627000Y-107456335D01*
X144627000Y-107173665D01*
X144571853Y-106896426D01*
X144463680Y-106635273D01*
X144306637Y-106400241D01*
X144106759Y-106200363D01*
X143871727Y-106043320D01*
X143610574Y-105935147D01*
X143333335Y-105880000D01*
X143050665Y-105880000D01*
X142773426Y-105935147D01*
X142512273Y-106043320D01*
X142277241Y-106200363D01*
X142077363Y-106400241D01*
X141920320Y-106635273D01*
X141812147Y-106896426D01*
X141757000Y-107173665D01*
X121766113Y-107173665D01*
X124570074Y-104369705D01*
X124739426Y-104439853D01*
X125016665Y-104495000D01*
X125299335Y-104495000D01*
X125576574Y-104439853D01*
X125837727Y-104331680D01*
X126072759Y-104174637D01*
X126272637Y-103974759D01*
X126429680Y-103739727D01*
X126537853Y-103478574D01*
X126593000Y-103201335D01*
X126593000Y-102918665D01*
X126537853Y-102641426D01*
X126429680Y-102380273D01*
X126272637Y-102145241D01*
X126072759Y-101945363D01*
X126043000Y-101925479D01*
X126043000Y-99998578D01*
X127811079Y-98230500D01*
X130643379Y-98230500D01*
X130676498Y-98339680D01*
X130735463Y-98449994D01*
X130814815Y-98546685D01*
X130911506Y-98626037D01*
X131021820Y-98685002D01*
X131141518Y-98721312D01*
X131266000Y-98733572D01*
X132766000Y-98733572D01*
X132890482Y-98721312D01*
X133010180Y-98685002D01*
X133120494Y-98626037D01*
X133217185Y-98546685D01*
X133296537Y-98449994D01*
X133355502Y-98339680D01*
X133388621Y-98230500D01*
X134258531Y-98230500D01*
X134302000Y-98234781D01*
X134345469Y-98230500D01*
X134345477Y-98230500D01*
X134475490Y-98217695D01*
X134642313Y-98167089D01*
X134796059Y-98084911D01*
X134930817Y-97974317D01*
X134958534Y-97940544D01*
X136411561Y-96487517D01*
X136446665Y-96494500D01*
X136729335Y-96494500D01*
X137006574Y-96439353D01*
X137267727Y-96331180D01*
X137502759Y-96174137D01*
X137702637Y-95974259D01*
X137859680Y-95739227D01*
X137967853Y-95478074D01*
X138023000Y-95200835D01*
X138023000Y-94918165D01*
X138016017Y-94883061D01*
X138464579Y-94434500D01*
X144913031Y-94434500D01*
X144956500Y-94438781D01*
X144999969Y-94434500D01*
X148825722Y-94434500D01*
X149783663Y-95392441D01*
X149634363Y-95541741D01*
X149477320Y-95776773D01*
X149369147Y-96037926D01*
X149314000Y-96315165D01*
X149314000Y-96597835D01*
X149369147Y-96875074D01*
X149477320Y-97136227D01*
X149634363Y-97371259D01*
X149783663Y-97520559D01*
X148533351Y-98770871D01*
X148499584Y-98798583D01*
X148471871Y-98832351D01*
X148471868Y-98832354D01*
X148388990Y-98933341D01*
X148306812Y-99087087D01*
X148256205Y-99253910D01*
X148239756Y-99420928D01*
X147078000Y-99420928D01*
X146953518Y-99433188D01*
X146833820Y-99469498D01*
X146723506Y-99528463D01*
X146626815Y-99607815D01*
X146547463Y-99704506D01*
X146488498Y-99814820D01*
X146452188Y-99934518D01*
X146439928Y-100059000D01*
X146439928Y-101109000D01*
X146452188Y-101233482D01*
X146488498Y-101353180D01*
X146523093Y-101417902D01*
X146459785Y-101626600D01*
X146451712Y-101708565D01*
X143864000Y-99120854D01*
X143864000Y-97691248D01*
X144043759Y-97571137D01*
X144243637Y-97371259D01*
X144400680Y-97136227D01*
X144508853Y-96875074D01*
X144564000Y-96597835D01*
X144564000Y-96315165D01*
X144508853Y-96037926D01*
X144400680Y-95776773D01*
X144243637Y-95541741D01*
X144043759Y-95341863D01*
X143808727Y-95184820D01*
X143547574Y-95076647D01*
X143270335Y-95021500D01*
X142987665Y-95021500D01*
X142710426Y-95076647D01*
X142449273Y-95184820D01*
X142214241Y-95341863D01*
X142014363Y-95541741D01*
X141857320Y-95776773D01*
X141749147Y-96037926D01*
X141694000Y-96315165D01*
X141694000Y-96597835D01*
X141749147Y-96875074D01*
X141857320Y-97136227D01*
X142014363Y-97371259D01*
X142214241Y-97571137D01*
X142394001Y-97691248D01*
X142394000Y-99389195D01*
X142390444Y-99425300D01*
X142394000Y-99461404D01*
X142404635Y-99569384D01*
X142446663Y-99707932D01*
X142514913Y-99835619D01*
X142606762Y-99947537D01*
X142634808Y-99970554D01*
X146282446Y-103618193D01*
X146305462Y-103646238D01*
X146402569Y-103725932D01*
X146417380Y-103738087D01*
X146545066Y-103806337D01*
X146683615Y-103848365D01*
X146698009Y-103849783D01*
X146778788Y-103948212D01*
X146955421Y-104093171D01*
X147156940Y-104200885D01*
X147375600Y-104267215D01*
X147546021Y-104284000D01*
X148109979Y-104284000D01*
X148243400Y-104270859D01*
X148243401Y-110349921D01*
X148239119Y-110393400D01*
X148256205Y-110566890D01*
X148306812Y-110733713D01*
X148388990Y-110887459D01*
X148471868Y-110988446D01*
X148471871Y-110988449D01*
X148499584Y-111022217D01*
X148533352Y-111049930D01*
X154848928Y-117365507D01*
X154848928Y-118452000D01*
X154861188Y-118576482D01*
X154897498Y-118696180D01*
X154956463Y-118806494D01*
X155035815Y-118903185D01*
X155132506Y-118982537D01*
X155242820Y-119041502D01*
X155362518Y-119077812D01*
X155487000Y-119090072D01*
X157187000Y-119090072D01*
X157311482Y-119077812D01*
X157431180Y-119041502D01*
X157541494Y-118982537D01*
X157638185Y-118903185D01*
X157717537Y-118806494D01*
X157776502Y-118696180D01*
X157812812Y-118576482D01*
X157825072Y-118452000D01*
X157825072Y-116752000D01*
X157812812Y-116627518D01*
X157776502Y-116507820D01*
X157717537Y-116397506D01*
X157638185Y-116300815D01*
X157541494Y-116221463D01*
X157431180Y-116162498D01*
X157358620Y-116140487D01*
X157490475Y-116008632D01*
X157652990Y-115765411D01*
X157764932Y-115495158D01*
X157822000Y-115208260D01*
X157822000Y-114915740D01*
X157764932Y-114628842D01*
X157652990Y-114358589D01*
X157490475Y-114115368D01*
X157283632Y-113908525D01*
X157101466Y-113786805D01*
X157218355Y-113717178D01*
X157434588Y-113522269D01*
X157608641Y-113288920D01*
X157733825Y-113026099D01*
X157778476Y-112878890D01*
X157657155Y-112649000D01*
X156464000Y-112649000D01*
X156464000Y-112669000D01*
X156210000Y-112669000D01*
X156210000Y-112649000D01*
X155016845Y-112649000D01*
X154895524Y-112878890D01*
X154940175Y-113026099D01*
X155065359Y-113288920D01*
X155239412Y-113522269D01*
X155455645Y-113717178D01*
X155572534Y-113786805D01*
X155390368Y-113908525D01*
X155183525Y-114115368D01*
X155021010Y-114358589D01*
X154909068Y-114628842D01*
X154860348Y-114873770D01*
X152151688Y-112165110D01*
X154895524Y-112165110D01*
X155016845Y-112395000D01*
X156210000Y-112395000D01*
X156210000Y-111201186D01*
X156464000Y-111201186D01*
X156464000Y-112395000D01*
X157657155Y-112395000D01*
X157778476Y-112165110D01*
X157733825Y-112017901D01*
X157608641Y-111755080D01*
X157434588Y-111521731D01*
X157218355Y-111326822D01*
X156968252Y-111177843D01*
X156693891Y-111080519D01*
X156464000Y-111201186D01*
X156210000Y-111201186D01*
X155980109Y-111080519D01*
X155705748Y-111177843D01*
X155455645Y-111326822D01*
X155239412Y-111521731D01*
X155065359Y-111755080D01*
X154940175Y-112017901D01*
X154895524Y-112165110D01*
X152151688Y-112165110D01*
X150013400Y-110026822D01*
X150013400Y-108507252D01*
X150132273Y-108586680D01*
X150393426Y-108694853D01*
X150670665Y-108750000D01*
X150953335Y-108750000D01*
X151230574Y-108694853D01*
X151491727Y-108586680D01*
X151726759Y-108429637D01*
X151926637Y-108229759D01*
X152083680Y-107994727D01*
X152191853Y-107733574D01*
X152247000Y-107456335D01*
X152247000Y-107173665D01*
X152191853Y-106896426D01*
X152083680Y-106635273D01*
X151926637Y-106400241D01*
X151726759Y-106200363D01*
X151491727Y-106043320D01*
X151230574Y-105935147D01*
X150953335Y-105880000D01*
X150670665Y-105880000D01*
X150393426Y-105935147D01*
X150132273Y-106043320D01*
X150013400Y-106122748D01*
X150013400Y-101897476D01*
X150017682Y-101854000D01*
X150013400Y-101810523D01*
X150013400Y-99793978D01*
X151344049Y-98463330D01*
X151377817Y-98435617D01*
X151488411Y-98300859D01*
X151570589Y-98147113D01*
X151621195Y-97980290D01*
X151634000Y-97850277D01*
X151634000Y-97850267D01*
X151638281Y-97806801D01*
X151634000Y-97763335D01*
X151634000Y-97591021D01*
X151663759Y-97571137D01*
X151863637Y-97371259D01*
X152020680Y-97136227D01*
X152128853Y-96875074D01*
X152184000Y-96597835D01*
X152184000Y-96315165D01*
X152128853Y-96037926D01*
X152020680Y-95776773D01*
X151863637Y-95541741D01*
X151663759Y-95341863D01*
X151634000Y-95321979D01*
X151634000Y-95149665D01*
X151638281Y-95106199D01*
X151634000Y-95062733D01*
X151634000Y-95062723D01*
X151621195Y-94932710D01*
X151570589Y-94765887D01*
X151488411Y-94612141D01*
X151377817Y-94477383D01*
X151344049Y-94449670D01*
X149848832Y-92954454D01*
X149821117Y-92920683D01*
X149686359Y-92810089D01*
X149532613Y-92727911D01*
X149365790Y-92677305D01*
X149235777Y-92664500D01*
X149235769Y-92664500D01*
X149192300Y-92660219D01*
X149148831Y-92664500D01*
X147093079Y-92664500D01*
X148423050Y-91334529D01*
X148456817Y-91306817D01*
X148498607Y-91255897D01*
X148567410Y-91172060D01*
X148567411Y-91172059D01*
X148649589Y-91018313D01*
X148700195Y-90851490D01*
X148713000Y-90721477D01*
X148713000Y-90721467D01*
X148717281Y-90678001D01*
X148713000Y-90634535D01*
X148713000Y-87552165D01*
X149251000Y-87552165D01*
X149251000Y-87834835D01*
X149306147Y-88112074D01*
X149414320Y-88373227D01*
X149571363Y-88608259D01*
X149771241Y-88808137D01*
X150006273Y-88965180D01*
X150267426Y-89073353D01*
X150544665Y-89128500D01*
X150827335Y-89128500D01*
X151104574Y-89073353D01*
X151365727Y-88965180D01*
X151600759Y-88808137D01*
X151800637Y-88608259D01*
X151924703Y-88422581D01*
X151972585Y-88417865D01*
X152111133Y-88375837D01*
X152238820Y-88307587D01*
X152350738Y-88215738D01*
X152373759Y-88187687D01*
X154848928Y-85712519D01*
X154848928Y-86575000D01*
X154861188Y-86699482D01*
X154897498Y-86819180D01*
X154956463Y-86929494D01*
X155035815Y-87026185D01*
X155117500Y-87093222D01*
X154341651Y-87869071D01*
X154307884Y-87896783D01*
X154280171Y-87930551D01*
X154280168Y-87930554D01*
X154197290Y-88031541D01*
X154115112Y-88185287D01*
X154064505Y-88352110D01*
X154047419Y-88525600D01*
X154051701Y-88569079D01*
X154051700Y-103394231D01*
X154047419Y-103437700D01*
X154051700Y-103481169D01*
X154051700Y-103481176D01*
X154059853Y-103563957D01*
X154064505Y-103611190D01*
X154071275Y-103633506D01*
X154115111Y-103778012D01*
X154197289Y-103931758D01*
X154307883Y-104066517D01*
X154341656Y-104094234D01*
X154848928Y-104601506D01*
X154848928Y-105688000D01*
X154861188Y-105812482D01*
X154897498Y-105932180D01*
X154956463Y-106042494D01*
X155035815Y-106139185D01*
X155132506Y-106218537D01*
X155242820Y-106277502D01*
X155362518Y-106313812D01*
X155487000Y-106326072D01*
X157187000Y-106326072D01*
X157311482Y-106313812D01*
X157431180Y-106277502D01*
X157541494Y-106218537D01*
X157638185Y-106139185D01*
X157717537Y-106042494D01*
X157776502Y-105932180D01*
X157812812Y-105812482D01*
X157825072Y-105688000D01*
X157825072Y-103988000D01*
X157812812Y-103863518D01*
X157776502Y-103743820D01*
X157717537Y-103633506D01*
X157638185Y-103536815D01*
X157541494Y-103457463D01*
X157431180Y-103398498D01*
X157358620Y-103376487D01*
X157490475Y-103244632D01*
X157652990Y-103001411D01*
X157764932Y-102731158D01*
X157822000Y-102444260D01*
X157822000Y-102151740D01*
X157764932Y-101864842D01*
X157652990Y-101594589D01*
X157490475Y-101351368D01*
X157283632Y-101144525D01*
X157101466Y-101022805D01*
X157218355Y-100953178D01*
X157434588Y-100758269D01*
X157608641Y-100524920D01*
X157733825Y-100262099D01*
X157778476Y-100114890D01*
X157657155Y-99885000D01*
X156464000Y-99885000D01*
X156464000Y-99905000D01*
X156210000Y-99905000D01*
X156210000Y-99885000D01*
X156190000Y-99885000D01*
X156190000Y-99631000D01*
X156210000Y-99631000D01*
X156210000Y-98437186D01*
X156464000Y-98437186D01*
X156464000Y-99631000D01*
X157657155Y-99631000D01*
X157778476Y-99401110D01*
X157733825Y-99253901D01*
X157608641Y-98991080D01*
X157434588Y-98757731D01*
X157218355Y-98562822D01*
X156968252Y-98413843D01*
X156693891Y-98316519D01*
X156464000Y-98437186D01*
X156210000Y-98437186D01*
X155980109Y-98316519D01*
X155821700Y-98372711D01*
X155821700Y-93343349D01*
X156264256Y-93343349D01*
X156468362Y-93699867D01*
X156911223Y-93930575D01*
X157390583Y-94070452D01*
X157888021Y-94114123D01*
X158384422Y-94059909D01*
X158860707Y-93909894D01*
X159253638Y-93699867D01*
X159457744Y-93343349D01*
X157861000Y-91746605D01*
X156264256Y-93343349D01*
X155821700Y-93343349D01*
X155821700Y-93013205D01*
X156084651Y-93163744D01*
X157681395Y-91567000D01*
X158040605Y-91567000D01*
X159637349Y-93163744D01*
X159993867Y-92959638D01*
X160224575Y-92516777D01*
X160364452Y-92037417D01*
X160408123Y-91539979D01*
X160353909Y-91043578D01*
X160203894Y-90567293D01*
X159993867Y-90174362D01*
X159637349Y-89970256D01*
X158040605Y-91567000D01*
X157681395Y-91567000D01*
X156084651Y-89970256D01*
X155821700Y-90120795D01*
X155821700Y-89790651D01*
X156264256Y-89790651D01*
X157861000Y-91387395D01*
X159457744Y-89790651D01*
X159253638Y-89434133D01*
X158810777Y-89203425D01*
X158331417Y-89063548D01*
X157833979Y-89019877D01*
X157337578Y-89074091D01*
X156861293Y-89224106D01*
X156468362Y-89434133D01*
X156264256Y-89790651D01*
X155821700Y-89790651D01*
X155821700Y-88892178D01*
X156932049Y-87781830D01*
X156965817Y-87754117D01*
X157006939Y-87704011D01*
X157076410Y-87619360D01*
X157076411Y-87619359D01*
X157158589Y-87465613D01*
X157209195Y-87298790D01*
X157217937Y-87210025D01*
X157311482Y-87200812D01*
X157431180Y-87164502D01*
X157541494Y-87105537D01*
X157638185Y-87026185D01*
X157717537Y-86929494D01*
X157776502Y-86819180D01*
X157812812Y-86699482D01*
X157825072Y-86575000D01*
X157825072Y-84875000D01*
X157812812Y-84750518D01*
X157776502Y-84630820D01*
X157717537Y-84520506D01*
X157638185Y-84423815D01*
X157541494Y-84344463D01*
X157431180Y-84285498D01*
X157358620Y-84263487D01*
X157490475Y-84131632D01*
X157652990Y-83888411D01*
X157764932Y-83618158D01*
X157822000Y-83331260D01*
X157822000Y-83038740D01*
X157764932Y-82751842D01*
X157652990Y-82481589D01*
X157490475Y-82238368D01*
X157283632Y-82031525D01*
X157101466Y-81909805D01*
X157218355Y-81840178D01*
X157434588Y-81645269D01*
X157608641Y-81411920D01*
X157733825Y-81149099D01*
X157778476Y-81001890D01*
X157657155Y-80772000D01*
X156464000Y-80772000D01*
X156464000Y-80792000D01*
X156210000Y-80792000D01*
X156210000Y-80772000D01*
X155016845Y-80772000D01*
X154895524Y-81001890D01*
X154940175Y-81149099D01*
X155065359Y-81411920D01*
X155239412Y-81645269D01*
X155455645Y-81840178D01*
X155572534Y-81909805D01*
X155390368Y-82031525D01*
X155183525Y-82238368D01*
X155021010Y-82481589D01*
X154909068Y-82751842D01*
X154852000Y-83038740D01*
X154852000Y-83331260D01*
X154901656Y-83580897D01*
X151752225Y-86730329D01*
X151600759Y-86578863D01*
X151365727Y-86421820D01*
X151104574Y-86313647D01*
X150827335Y-86258500D01*
X150544665Y-86258500D01*
X150267426Y-86313647D01*
X150006273Y-86421820D01*
X149771241Y-86578863D01*
X149571363Y-86778741D01*
X149414320Y-87013773D01*
X149306147Y-87274926D01*
X149251000Y-87552165D01*
X148713000Y-87552165D01*
X148713000Y-85964578D01*
X149787059Y-84890520D01*
X149820827Y-84862807D01*
X149931421Y-84728049D01*
X150013599Y-84574303D01*
X150064205Y-84407480D01*
X150077010Y-84277467D01*
X150077010Y-84277457D01*
X150081291Y-84233991D01*
X150077010Y-84190525D01*
X150077010Y-83164186D01*
X150081291Y-83120717D01*
X150077010Y-83077248D01*
X150077010Y-83077240D01*
X150074249Y-83049207D01*
X150100059Y-83035411D01*
X150234817Y-82924817D01*
X150262534Y-82891044D01*
X151344050Y-81809529D01*
X151377817Y-81781817D01*
X151488411Y-81647059D01*
X151570589Y-81493313D01*
X151621195Y-81326490D01*
X151634000Y-81196477D01*
X151634000Y-81196467D01*
X151638281Y-81153001D01*
X151634000Y-81109535D01*
X151634000Y-80288110D01*
X154895524Y-80288110D01*
X155016845Y-80518000D01*
X156210000Y-80518000D01*
X156210000Y-79324186D01*
X156464000Y-79324186D01*
X156464000Y-80518000D01*
X157657155Y-80518000D01*
X157778476Y-80288110D01*
X157733825Y-80140901D01*
X157608641Y-79878080D01*
X157434588Y-79644731D01*
X157218355Y-79449822D01*
X156968252Y-79300843D01*
X156693891Y-79203519D01*
X156464000Y-79324186D01*
X156210000Y-79324186D01*
X155980109Y-79203519D01*
X155705748Y-79300843D01*
X155455645Y-79449822D01*
X155239412Y-79644731D01*
X155065359Y-79878080D01*
X154940175Y-80140901D01*
X154895524Y-80288110D01*
X151634000Y-80288110D01*
X151634000Y-78223521D01*
X151663759Y-78203637D01*
X151863637Y-78003759D01*
X152020680Y-77768727D01*
X152128853Y-77507574D01*
X152184000Y-77230335D01*
X152184000Y-76947665D01*
X152128853Y-76670426D01*
X152020680Y-76409273D01*
X151863637Y-76174241D01*
X151663759Y-75974363D01*
X151428727Y-75817320D01*
X151167574Y-75709147D01*
X150890335Y-75654000D01*
X150607665Y-75654000D01*
X150330426Y-75709147D01*
X150069273Y-75817320D01*
X149834241Y-75974363D01*
X149634363Y-76174241D01*
X149477320Y-76409273D01*
X149369147Y-76670426D01*
X149314000Y-76947665D01*
X149314000Y-77230335D01*
X149369147Y-77507574D01*
X149477320Y-77768727D01*
X149634363Y-78003759D01*
X149834241Y-78203637D01*
X149864001Y-78223522D01*
X149864001Y-78395823D01*
X149864000Y-80786421D01*
X149280072Y-81370350D01*
X149280072Y-80501000D01*
X149267812Y-80376518D01*
X149231502Y-80256820D01*
X149172537Y-80146506D01*
X149093185Y-80049815D01*
X148996494Y-79970463D01*
X148886180Y-79911498D01*
X148766482Y-79875188D01*
X148642000Y-79862928D01*
X147142000Y-79862928D01*
X147017518Y-79875188D01*
X146897820Y-79911498D01*
X146787506Y-79970463D01*
X146690815Y-80049815D01*
X146611463Y-80146506D01*
X146552498Y-80256820D01*
X146516188Y-80376518D01*
X146503928Y-80501000D01*
X146503928Y-81551000D01*
X146516188Y-81675482D01*
X146552498Y-81795180D01*
X146587093Y-81859902D01*
X146523785Y-82068600D01*
X146515712Y-82150565D01*
X143864000Y-79498854D01*
X143864000Y-78323748D01*
X144043759Y-78203637D01*
X144243637Y-78003759D01*
X144400680Y-77768727D01*
X144508853Y-77507574D01*
X144564000Y-77230335D01*
X144564000Y-76947665D01*
X144508853Y-76670426D01*
X144400680Y-76409273D01*
X144243637Y-76174241D01*
X144043759Y-75974363D01*
X143808727Y-75817320D01*
X143547574Y-75709147D01*
X143270335Y-75654000D01*
X142987665Y-75654000D01*
X142710426Y-75709147D01*
X142449273Y-75817320D01*
X142214241Y-75974363D01*
X142014363Y-76174241D01*
X141860710Y-76404200D01*
X103057894Y-76404200D01*
X103021799Y-76400645D01*
X102985704Y-76404200D01*
X102985695Y-76404200D01*
X102877715Y-76414835D01*
X102739167Y-76456863D01*
X102611480Y-76525113D01*
X102499562Y-76616962D01*
X102476546Y-76645007D01*
X81806000Y-97315554D01*
X81806000Y-97090635D01*
X81751623Y-96817260D01*
X81644957Y-96559746D01*
X81490103Y-96327990D01*
X81293010Y-96130897D01*
X81061254Y-95976043D01*
X81022523Y-95960000D01*
X81061254Y-95943957D01*
X81293010Y-95789103D01*
X81490103Y-95592010D01*
X81644957Y-95360254D01*
X81751623Y-95102740D01*
X81806000Y-94829365D01*
X81806000Y-94550635D01*
X81751623Y-94277260D01*
X81644957Y-94019746D01*
X81490103Y-93787990D01*
X81293010Y-93590897D01*
X81061254Y-93436043D01*
X81022523Y-93420000D01*
X81061254Y-93403957D01*
X81293010Y-93249103D01*
X81490103Y-93052010D01*
X81644957Y-92820254D01*
X81751623Y-92562740D01*
X81806000Y-92289365D01*
X81806000Y-92010635D01*
X81751623Y-91737260D01*
X81644957Y-91479746D01*
X81490103Y-91247990D01*
X81293010Y-91050897D01*
X81061254Y-90896043D01*
X81022523Y-90880000D01*
X81061254Y-90863957D01*
X81293010Y-90709103D01*
X81490103Y-90512010D01*
X81644957Y-90280254D01*
X81751623Y-90022740D01*
X81806000Y-89749365D01*
X81806000Y-89470635D01*
X81751623Y-89197260D01*
X81644957Y-88939746D01*
X81490103Y-88707990D01*
X81293010Y-88510897D01*
X81061254Y-88356043D01*
X81022523Y-88340000D01*
X81061254Y-88323957D01*
X81293010Y-88169103D01*
X81490103Y-87972010D01*
X81644957Y-87740254D01*
X81751623Y-87482740D01*
X81806000Y-87209365D01*
X81806000Y-86930635D01*
X81751623Y-86657260D01*
X81644957Y-86399746D01*
X81490103Y-86167990D01*
X81293010Y-85970897D01*
X81061254Y-85816043D01*
X81022523Y-85800000D01*
X81061254Y-85783957D01*
X81293010Y-85629103D01*
X81490103Y-85432010D01*
X81644957Y-85200254D01*
X81751623Y-84942740D01*
X81806000Y-84669365D01*
X81806000Y-84390635D01*
X81751623Y-84117260D01*
X81644957Y-83859746D01*
X81490103Y-83627990D01*
X81293010Y-83430897D01*
X81061254Y-83276043D01*
X81022523Y-83260000D01*
X81061254Y-83243957D01*
X81293010Y-83089103D01*
X81490103Y-82892010D01*
X81644957Y-82660254D01*
X81751623Y-82402740D01*
X81806000Y-82129365D01*
X81806000Y-81850635D01*
X81751623Y-81577260D01*
X81644957Y-81319746D01*
X81490103Y-81087990D01*
X81293010Y-80890897D01*
X81061254Y-80736043D01*
X81022523Y-80720000D01*
X81061254Y-80703957D01*
X81293010Y-80549103D01*
X81490103Y-80352010D01*
X81644957Y-80120254D01*
X81751623Y-79862740D01*
X81806000Y-79589365D01*
X81806000Y-79310635D01*
X81751623Y-79037260D01*
X81644957Y-78779746D01*
X81490103Y-78547990D01*
X81293010Y-78350897D01*
X81061254Y-78196043D01*
X80803740Y-78089377D01*
X80530365Y-78035000D01*
X80251635Y-78035000D01*
X79978260Y-78089377D01*
X79720746Y-78196043D01*
X79488990Y-78350897D01*
X79291897Y-78547990D01*
X79137043Y-78779746D01*
X79030377Y-79037260D01*
X78976000Y-79310635D01*
X78976000Y-79589365D01*
X79030377Y-79862740D01*
X79137043Y-80120254D01*
X79291897Y-80352010D01*
X79488990Y-80549103D01*
X79720746Y-80703957D01*
X79759477Y-80720000D01*
X79720746Y-80736043D01*
X79488990Y-80890897D01*
X79291897Y-81087990D01*
X79137043Y-81319746D01*
X79030377Y-81577260D01*
X78976000Y-81850635D01*
X78976000Y-82129365D01*
X79030377Y-82402740D01*
X79137043Y-82660254D01*
X79291897Y-82892010D01*
X79488990Y-83089103D01*
X79720746Y-83243957D01*
X79759477Y-83260000D01*
X79720746Y-83276043D01*
X79488990Y-83430897D01*
X79291897Y-83627990D01*
X79137043Y-83859746D01*
X79030377Y-84117260D01*
X78976000Y-84390635D01*
X78976000Y-84669365D01*
X79030377Y-84942740D01*
X79137043Y-85200254D01*
X79291897Y-85432010D01*
X79488990Y-85629103D01*
X79720746Y-85783957D01*
X79759477Y-85800000D01*
X79720746Y-85816043D01*
X79488990Y-85970897D01*
X79291897Y-86167990D01*
X79137043Y-86399746D01*
X79030377Y-86657260D01*
X78976000Y-86930635D01*
X78976000Y-87209365D01*
X79030377Y-87482740D01*
X79137043Y-87740254D01*
X79291897Y-87972010D01*
X79488990Y-88169103D01*
X79720746Y-88323957D01*
X79759477Y-88340000D01*
X79720746Y-88356043D01*
X79488990Y-88510897D01*
X79291897Y-88707990D01*
X79137043Y-88939746D01*
X79030377Y-89197260D01*
X78976000Y-89470635D01*
X78976000Y-89749365D01*
X79030377Y-90022740D01*
X79137043Y-90280254D01*
X79291897Y-90512010D01*
X79488990Y-90709103D01*
X79720746Y-90863957D01*
X79759477Y-90880000D01*
X79720746Y-90896043D01*
X79488990Y-91050897D01*
X79291897Y-91247990D01*
X79137043Y-91479746D01*
X79030377Y-91737260D01*
X78976000Y-92010635D01*
X78976000Y-92289365D01*
X79030377Y-92562740D01*
X79137043Y-92820254D01*
X79291897Y-93052010D01*
X79488990Y-93249103D01*
X79720746Y-93403957D01*
X79759477Y-93420000D01*
X79720746Y-93436043D01*
X79488990Y-93590897D01*
X79291897Y-93787990D01*
X79137043Y-94019746D01*
X79030377Y-94277260D01*
X78976000Y-94550635D01*
X78976000Y-94829365D01*
X79030377Y-95102740D01*
X79137043Y-95360254D01*
X79291897Y-95592010D01*
X79488990Y-95789103D01*
X79720746Y-95943957D01*
X79759477Y-95960000D01*
X79720746Y-95976043D01*
X79488990Y-96130897D01*
X79291897Y-96327990D01*
X79137043Y-96559746D01*
X79030377Y-96817260D01*
X78976000Y-97090635D01*
X78976000Y-97369365D01*
X79030377Y-97642740D01*
X79137043Y-97900254D01*
X79291897Y-98132010D01*
X79488990Y-98329103D01*
X79720746Y-98483957D01*
X79759477Y-98500000D01*
X79720746Y-98516043D01*
X79488990Y-98670897D01*
X79291897Y-98867990D01*
X79137043Y-99099746D01*
X79030377Y-99357260D01*
X78976000Y-99630635D01*
X78976000Y-99909365D01*
X79030377Y-100182740D01*
X79137043Y-100440254D01*
X79291897Y-100672010D01*
X79488990Y-100869103D01*
X79720746Y-101023957D01*
X79759477Y-101040000D01*
X79720746Y-101056043D01*
X79488990Y-101210897D01*
X79291897Y-101407990D01*
X79137043Y-101639746D01*
X79030377Y-101897260D01*
X78976000Y-102170635D01*
X78976000Y-102449365D01*
X79030377Y-102722740D01*
X79137043Y-102980254D01*
X79291897Y-103212010D01*
X79488990Y-103409103D01*
X79720746Y-103563957D01*
X79759477Y-103580000D01*
X79720746Y-103596043D01*
X79488990Y-103750897D01*
X79291897Y-103947990D01*
X79137043Y-104179746D01*
X79030377Y-104437260D01*
X78976000Y-104710635D01*
X78976000Y-104989365D01*
X79030377Y-105262740D01*
X79137043Y-105520254D01*
X79291897Y-105752010D01*
X79488990Y-105949103D01*
X79720746Y-106103957D01*
X79759477Y-106120000D01*
X79720746Y-106136043D01*
X79488990Y-106290897D01*
X79291897Y-106487990D01*
X79137043Y-106719746D01*
X79030377Y-106977260D01*
X78976000Y-107250635D01*
X78976000Y-107529365D01*
X79030377Y-107802740D01*
X79137043Y-108060254D01*
X79291897Y-108292010D01*
X79488990Y-108489103D01*
X79720746Y-108643957D01*
X79756525Y-108658777D01*
X79661345Y-108709651D01*
X79592184Y-108951579D01*
X80391000Y-109750395D01*
X81189816Y-108951579D01*
X81120655Y-108709651D01*
X81018721Y-108661575D01*
X81061254Y-108643957D01*
X81293010Y-108489103D01*
X81490103Y-108292010D01*
X81644957Y-108060254D01*
X81751623Y-107802740D01*
X81806000Y-107529365D01*
X81806000Y-107250635D01*
X81751623Y-106977260D01*
X81644957Y-106719746D01*
X81490103Y-106487990D01*
X81293010Y-106290897D01*
X81061254Y-106136043D01*
X81022523Y-106120000D01*
X81061254Y-106103957D01*
X81293010Y-105949103D01*
X81490103Y-105752010D01*
X81644957Y-105520254D01*
X81751623Y-105262740D01*
X81806000Y-104989365D01*
X81806000Y-104710635D01*
X81751623Y-104437260D01*
X81644957Y-104179746D01*
X81490103Y-103947990D01*
X81293010Y-103750897D01*
X81061254Y-103596043D01*
X81022523Y-103580000D01*
X81061254Y-103563957D01*
X81293010Y-103409103D01*
X81490103Y-103212010D01*
X81644957Y-102980254D01*
X81751623Y-102722740D01*
X81806000Y-102449365D01*
X81806000Y-102170635D01*
X81751623Y-101897260D01*
X81644957Y-101639746D01*
X81490103Y-101407990D01*
X81293010Y-101210897D01*
X81061254Y-101056043D01*
X81022523Y-101040000D01*
X81061254Y-101023957D01*
X81293010Y-100869103D01*
X81490103Y-100672010D01*
X81644957Y-100440254D01*
X81751623Y-100182740D01*
X81806000Y-99909365D01*
X81806000Y-99630635D01*
X81766814Y-99433632D01*
X103326247Y-77874200D01*
X112394515Y-77874200D01*
X112286010Y-78036589D01*
X112174068Y-78306842D01*
X112117000Y-78593740D01*
X112117000Y-78886260D01*
X112174068Y-79173158D01*
X112286010Y-79443411D01*
X112448525Y-79686632D01*
X112655368Y-79893475D01*
X112867000Y-80034883D01*
X112867000Y-80417153D01*
X106980650Y-86303504D01*
X106890103Y-86167990D01*
X106693010Y-85970897D01*
X106461254Y-85816043D01*
X106422523Y-85800000D01*
X106461254Y-85783957D01*
X106693010Y-85629103D01*
X106890103Y-85432010D01*
X107044957Y-85200254D01*
X107151623Y-84942740D01*
X107206000Y-84669365D01*
X107206000Y-84390635D01*
X107151623Y-84117260D01*
X107044957Y-83859746D01*
X106890103Y-83627990D01*
X106693010Y-83430897D01*
X106461254Y-83276043D01*
X106422523Y-83260000D01*
X106461254Y-83243957D01*
X106693010Y-83089103D01*
X106890103Y-82892010D01*
X107044957Y-82660254D01*
X107151623Y-82402740D01*
X107206000Y-82129365D01*
X107206000Y-81850635D01*
X107151623Y-81577260D01*
X107044957Y-81319746D01*
X106890103Y-81087990D01*
X106693010Y-80890897D01*
X106461254Y-80736043D01*
X106422523Y-80720000D01*
X106461254Y-80703957D01*
X106693010Y-80549103D01*
X106890103Y-80352010D01*
X107044957Y-80120254D01*
X107151623Y-79862740D01*
X107206000Y-79589365D01*
X107206000Y-79310635D01*
X107151623Y-79037260D01*
X107044957Y-78779746D01*
X106890103Y-78547990D01*
X106693010Y-78350897D01*
X106461254Y-78196043D01*
X106203740Y-78089377D01*
X105930365Y-78035000D01*
X105651635Y-78035000D01*
X105378260Y-78089377D01*
X105120746Y-78196043D01*
X104888990Y-78350897D01*
X104691897Y-78547990D01*
X104537043Y-78779746D01*
X104430377Y-79037260D01*
X104376000Y-79310635D01*
X104376000Y-79589365D01*
X104430377Y-79862740D01*
X104537043Y-80120254D01*
X104691897Y-80352010D01*
X104888990Y-80549103D01*
X105120746Y-80703957D01*
X105159477Y-80720000D01*
X105120746Y-80736043D01*
X104888990Y-80890897D01*
X104691897Y-81087990D01*
X104537043Y-81319746D01*
X104430377Y-81577260D01*
X104376000Y-81850635D01*
X104376000Y-82129365D01*
X104430377Y-82402740D01*
X104537043Y-82660254D01*
X104691897Y-82892010D01*
X104888990Y-83089103D01*
X105120746Y-83243957D01*
X105159477Y-83260000D01*
X105120746Y-83276043D01*
X104888990Y-83430897D01*
X104691897Y-83627990D01*
X104537043Y-83859746D01*
X104430377Y-84117260D01*
X104376000Y-84390635D01*
X104376000Y-84669365D01*
X104430377Y-84942740D01*
X104537043Y-85200254D01*
X104691897Y-85432010D01*
X104888990Y-85629103D01*
X105120746Y-85783957D01*
X105159477Y-85800000D01*
X105120746Y-85816043D01*
X104888990Y-85970897D01*
X104691897Y-86167990D01*
X104537043Y-86399746D01*
X104430377Y-86657260D01*
X104376000Y-86930635D01*
X104376000Y-87209365D01*
X104430377Y-87482740D01*
X104481171Y-87605367D01*
X104376915Y-87615635D01*
X104238367Y-87657663D01*
X104110680Y-87725913D01*
X103998762Y-87817762D01*
X103975746Y-87845807D01*
X81803396Y-110018158D01*
X81811057Y-109858697D01*
X81769860Y-109583028D01*
X81675675Y-109320692D01*
X81611349Y-109200345D01*
X81369421Y-109131184D01*
X80570605Y-109930000D01*
X80584748Y-109944143D01*
X80405143Y-110123748D01*
X80391000Y-110109605D01*
X79592184Y-110908421D01*
X79661345Y-111150349D01*
X79763279Y-111198425D01*
X79720746Y-111216043D01*
X79488990Y-111370897D01*
X79291897Y-111567990D01*
X79137043Y-111799746D01*
X79030377Y-112057260D01*
X78976000Y-112330635D01*
X78976000Y-112609365D01*
X79030377Y-112882740D01*
X79137043Y-113140254D01*
X79291897Y-113372010D01*
X79488990Y-113569103D01*
X79720746Y-113723957D01*
X79759477Y-113740000D01*
X79720746Y-113756043D01*
X79488990Y-113910897D01*
X79291897Y-114107990D01*
X79137043Y-114339746D01*
X79030377Y-114597260D01*
X78976000Y-114870635D01*
X78976000Y-115149365D01*
X79030377Y-115422740D01*
X79137043Y-115680254D01*
X79291897Y-115912010D01*
X79488990Y-116109103D01*
X79720746Y-116263957D01*
X79759477Y-116280000D01*
X79720746Y-116296043D01*
X79488990Y-116450897D01*
X79291897Y-116647990D01*
X79137043Y-116879746D01*
X79030377Y-117137260D01*
X78976000Y-117410635D01*
X78976000Y-117689365D01*
X79030377Y-117962740D01*
X79137043Y-118220254D01*
X79291897Y-118452010D01*
X79488990Y-118649103D01*
X79720746Y-118803957D01*
X79759477Y-118820000D01*
X79720746Y-118836043D01*
X79488990Y-118990897D01*
X79291897Y-119187990D01*
X79137043Y-119419746D01*
X79030377Y-119677260D01*
X78976000Y-119950635D01*
X78976000Y-120229365D01*
X79030377Y-120502740D01*
X79137043Y-120760254D01*
X79291897Y-120992010D01*
X79488990Y-121189103D01*
X79720746Y-121343957D01*
X79759477Y-121360000D01*
X79720746Y-121376043D01*
X79488990Y-121530897D01*
X79291897Y-121727990D01*
X79137043Y-121959746D01*
X79030377Y-122217260D01*
X78976000Y-122490635D01*
X78976000Y-122769365D01*
X79030377Y-123042740D01*
X79137043Y-123300254D01*
X79291897Y-123532010D01*
X79488990Y-123729103D01*
X79720746Y-123883957D01*
X79756525Y-123898777D01*
X79661345Y-123949651D01*
X79592184Y-124191579D01*
X80391000Y-124990395D01*
X81189816Y-124191579D01*
X81120655Y-123949651D01*
X81018721Y-123901575D01*
X81061254Y-123883957D01*
X81293010Y-123729103D01*
X81490103Y-123532010D01*
X81644957Y-123300254D01*
X81751623Y-123042740D01*
X81806000Y-122769365D01*
X81806000Y-122490635D01*
X81751623Y-122217260D01*
X81644957Y-121959746D01*
X81490103Y-121727990D01*
X81293010Y-121530897D01*
X81061254Y-121376043D01*
X81022523Y-121360000D01*
X81061254Y-121343957D01*
X81293010Y-121189103D01*
X81490103Y-120992010D01*
X81644957Y-120760254D01*
X81751623Y-120502740D01*
X81806000Y-120229365D01*
X81806000Y-119950635D01*
X81766814Y-119753632D01*
X104328098Y-97192349D01*
X104356137Y-97169338D01*
X104376000Y-97145135D01*
X104376000Y-97369365D01*
X104430377Y-97642740D01*
X104537043Y-97900254D01*
X104691897Y-98132010D01*
X104888990Y-98329103D01*
X105120746Y-98483957D01*
X105159477Y-98500000D01*
X105120746Y-98516043D01*
X104888990Y-98670897D01*
X104691897Y-98867990D01*
X104537043Y-99099746D01*
X104430377Y-99357260D01*
X104376000Y-99630635D01*
X104376000Y-99909365D01*
X104430377Y-100182740D01*
X104537043Y-100440254D01*
X104691897Y-100672010D01*
X104888990Y-100869103D01*
X105120746Y-101023957D01*
X105159477Y-101040000D01*
X105120746Y-101056043D01*
X104888990Y-101210897D01*
X104691897Y-101407990D01*
X104537043Y-101639746D01*
X104430377Y-101897260D01*
X104376000Y-102170635D01*
X104376000Y-102449365D01*
X104430377Y-102722740D01*
X104537043Y-102980254D01*
X104691897Y-103212010D01*
X104888990Y-103409103D01*
X105120746Y-103563957D01*
X105159477Y-103580000D01*
X105120746Y-103596043D01*
X104888990Y-103750897D01*
X104691897Y-103947990D01*
X104537043Y-104179746D01*
X104430377Y-104437260D01*
X104376000Y-104710635D01*
X104376000Y-104989365D01*
X104430377Y-105262740D01*
X104537043Y-105520254D01*
X104691897Y-105752010D01*
X104888990Y-105949103D01*
X105120746Y-106103957D01*
X105159477Y-106120000D01*
X105120746Y-106136043D01*
X104888990Y-106290897D01*
X104691897Y-106487990D01*
X104537043Y-106719746D01*
X104430377Y-106977260D01*
X104376000Y-107250635D01*
X104376000Y-107529365D01*
X104430377Y-107802740D01*
X104537043Y-108060254D01*
X104691897Y-108292010D01*
X104888990Y-108489103D01*
X105120746Y-108643957D01*
X105159477Y-108660000D01*
X105120746Y-108676043D01*
X104888990Y-108830897D01*
X104691897Y-109027990D01*
X104537043Y-109259746D01*
X104430377Y-109517260D01*
X104376000Y-109790635D01*
X104376000Y-110069365D01*
X104430377Y-110342740D01*
X104537043Y-110600254D01*
X104691897Y-110832010D01*
X104888990Y-111029103D01*
X105120746Y-111183957D01*
X105159477Y-111200000D01*
X105120746Y-111216043D01*
X104888990Y-111370897D01*
X104691897Y-111567990D01*
X104537043Y-111799746D01*
X104430377Y-112057260D01*
X104376000Y-112330635D01*
X104376000Y-112609365D01*
X104430377Y-112882740D01*
X104537043Y-113140254D01*
X104691897Y-113372010D01*
X104888990Y-113569103D01*
X105120746Y-113723957D01*
X105159477Y-113740000D01*
X105120746Y-113756043D01*
X104888990Y-113910897D01*
X104691897Y-114107990D01*
X104537043Y-114339746D01*
X104430377Y-114597260D01*
X104376000Y-114870635D01*
X104376000Y-115149365D01*
X104430377Y-115422740D01*
X104537043Y-115680254D01*
X104691897Y-115912010D01*
X104888990Y-116109103D01*
X105120746Y-116263957D01*
X105159477Y-116280000D01*
X105120746Y-116296043D01*
X104888990Y-116450897D01*
X104691897Y-116647990D01*
X104537043Y-116879746D01*
X104430377Y-117137260D01*
X104376000Y-117410635D01*
X104376000Y-117689365D01*
X104430377Y-117962740D01*
X104537043Y-118220254D01*
X104691897Y-118452010D01*
X104888990Y-118649103D01*
X105120746Y-118803957D01*
X105159477Y-118820000D01*
X105120746Y-118836043D01*
X104888990Y-118990897D01*
X104691897Y-119187990D01*
X104537043Y-119419746D01*
X104430377Y-119677260D01*
X104376000Y-119950635D01*
X104376000Y-120229365D01*
X104430377Y-120502740D01*
X104537043Y-120760254D01*
X104691897Y-120992010D01*
X104888990Y-121189103D01*
X105120746Y-121343957D01*
X105159477Y-121360000D01*
X105120746Y-121376043D01*
X104888990Y-121530897D01*
X104691897Y-121727990D01*
X104537043Y-121959746D01*
X104430377Y-122217260D01*
X104376000Y-122490635D01*
X104376000Y-122769365D01*
X104430377Y-123042740D01*
X104537043Y-123300254D01*
X104691897Y-123532010D01*
X104888990Y-123729103D01*
X104934436Y-123759469D01*
X104886518Y-123764188D01*
X104766820Y-123800498D01*
X104656506Y-123859463D01*
X104559815Y-123938815D01*
X104480463Y-124035506D01*
X104421498Y-124145820D01*
X104385188Y-124265518D01*
X104372928Y-124390000D01*
X104372928Y-125950000D01*
X104385188Y-126074482D01*
X104396266Y-126111000D01*
X81459926Y-126111000D01*
X81485767Y-126085159D01*
X81369423Y-125968815D01*
X81611349Y-125899655D01*
X81730248Y-125647557D01*
X81797681Y-125377106D01*
X81811057Y-125098697D01*
X81769860Y-124823028D01*
X81675675Y-124560692D01*
X81611349Y-124440345D01*
X81369421Y-124371184D01*
X80570605Y-125170000D01*
X80584748Y-125184143D01*
X80405143Y-125363748D01*
X80391000Y-125349605D01*
X80376858Y-125363748D01*
X80197253Y-125184143D01*
X80211395Y-125170000D01*
X79412579Y-124371184D01*
X79170651Y-124440345D01*
X79051752Y-124692443D01*
X78984319Y-124962894D01*
X78970943Y-125241303D01*
X79012140Y-125516972D01*
X79106325Y-125779308D01*
X79170651Y-125899655D01*
X79412577Y-125968815D01*
X79296233Y-126085159D01*
X79322074Y-126111000D01*
X79121000Y-126111000D01*
X79096224Y-126113440D01*
X79072399Y-126120667D01*
X79050443Y-126132403D01*
X79031197Y-126148197D01*
X79015403Y-126167443D01*
X79003667Y-126189399D01*
X78996440Y-126213224D01*
X78994000Y-126238000D01*
X78994000Y-126315000D01*
X72614606Y-126315000D01*
X71805000Y-125505394D01*
X71805000Y-124966349D01*
X73333256Y-124966349D01*
X73537362Y-125322867D01*
X73980223Y-125553575D01*
X74459583Y-125693452D01*
X74957021Y-125737123D01*
X75453422Y-125682909D01*
X75929707Y-125532894D01*
X76322638Y-125322867D01*
X76526744Y-124966349D01*
X74930000Y-123369605D01*
X73333256Y-124966349D01*
X71805000Y-124966349D01*
X71805000Y-123217021D01*
X72382877Y-123217021D01*
X72437091Y-123713422D01*
X72587106Y-124189707D01*
X72797133Y-124582638D01*
X73153651Y-124786744D01*
X74750395Y-123190000D01*
X75109605Y-123190000D01*
X76706349Y-124786744D01*
X77062867Y-124582638D01*
X77293575Y-124139777D01*
X77433452Y-123660417D01*
X77477123Y-123162979D01*
X77422909Y-122666578D01*
X77272894Y-122190293D01*
X77062867Y-121797362D01*
X76706349Y-121593256D01*
X75109605Y-123190000D01*
X74750395Y-123190000D01*
X73153651Y-121593256D01*
X72797133Y-121797362D01*
X72566425Y-122240223D01*
X72426548Y-122719583D01*
X72382877Y-123217021D01*
X71805000Y-123217021D01*
X71805000Y-121413651D01*
X73333256Y-121413651D01*
X74930000Y-123010395D01*
X76526744Y-121413651D01*
X76322638Y-121057133D01*
X75879777Y-120826425D01*
X75400417Y-120686548D01*
X74902979Y-120642877D01*
X74406578Y-120697091D01*
X73930293Y-120847106D01*
X73537362Y-121057133D01*
X73333256Y-121413651D01*
X71805000Y-121413651D01*
X71805000Y-110001303D01*
X78970943Y-110001303D01*
X79012140Y-110276972D01*
X79106325Y-110539308D01*
X79170651Y-110659655D01*
X79412579Y-110728816D01*
X80211395Y-109930000D01*
X79412579Y-109131184D01*
X79170651Y-109200345D01*
X79051752Y-109452443D01*
X78984319Y-109722894D01*
X78970943Y-110001303D01*
X71805000Y-110001303D01*
X71805000Y-79246349D01*
X73333256Y-79246349D01*
X73537362Y-79602867D01*
X73980223Y-79833575D01*
X74459583Y-79973452D01*
X74957021Y-80017123D01*
X75453422Y-79962909D01*
X75929707Y-79812894D01*
X76322638Y-79602867D01*
X76526744Y-79246349D01*
X74930000Y-77649605D01*
X73333256Y-79246349D01*
X71805000Y-79246349D01*
X71805000Y-77497021D01*
X72382877Y-77497021D01*
X72437091Y-77993422D01*
X72587106Y-78469707D01*
X72797133Y-78862638D01*
X73153651Y-79066744D01*
X74750395Y-77470000D01*
X75109605Y-77470000D01*
X76706349Y-79066744D01*
X77062867Y-78862638D01*
X77293575Y-78419777D01*
X77433452Y-77940417D01*
X77477123Y-77442979D01*
X77422909Y-76946578D01*
X77272894Y-76470293D01*
X77062867Y-76077362D01*
X76706349Y-75873256D01*
X75109605Y-77470000D01*
X74750395Y-77470000D01*
X73153651Y-75873256D01*
X72797133Y-76077362D01*
X72566425Y-76520223D01*
X72426548Y-76999583D01*
X72382877Y-77497021D01*
X71805000Y-77497021D01*
X71805000Y-75693651D01*
X73333256Y-75693651D01*
X74930000Y-77290395D01*
X76526744Y-75693651D01*
X76322638Y-75337133D01*
X75879777Y-75106425D01*
X75400417Y-74966548D01*
X74902979Y-74922877D01*
X74406578Y-74977091D01*
X73930293Y-75127106D01*
X73537362Y-75337133D01*
X73333256Y-75693651D01*
X71805000Y-75693651D01*
X71805000Y-75154606D01*
X72614606Y-74345000D01*
X159795394Y-74345000D01*
X160605000Y-75154606D01*
G37*
X160605000Y-75154606D02*
X160605001Y-125505393D01*
X159795394Y-126315000D01*
X107188000Y-126315000D01*
X107188000Y-126238000D01*
X107185560Y-126213224D01*
X107178333Y-126189399D01*
X107167883Y-126169849D01*
X107196812Y-126074482D01*
X107209072Y-125950000D01*
X107209072Y-125003506D01*
X107808578Y-124404000D01*
X112737928Y-124404000D01*
X112750188Y-124528482D01*
X112786498Y-124648180D01*
X112845463Y-124758494D01*
X112924815Y-124855185D01*
X113021506Y-124934537D01*
X113131820Y-124993502D01*
X113251518Y-125029812D01*
X113376000Y-125042072D01*
X114840250Y-125039000D01*
X114999000Y-124880250D01*
X114999000Y-123031000D01*
X115253000Y-123031000D01*
X115253000Y-124880250D01*
X115411750Y-125039000D01*
X116876000Y-125042072D01*
X117000482Y-125029812D01*
X117120180Y-124993502D01*
X117170978Y-124966349D01*
X155883256Y-124966349D01*
X156087362Y-125322867D01*
X156530223Y-125553575D01*
X157009583Y-125693452D01*
X157507021Y-125737123D01*
X158003422Y-125682909D01*
X158479707Y-125532894D01*
X158872638Y-125322867D01*
X159076744Y-124966349D01*
X157480000Y-123369605D01*
X155883256Y-124966349D01*
X117170978Y-124966349D01*
X117230494Y-124934537D01*
X117327185Y-124855185D01*
X117406537Y-124758494D01*
X117465502Y-124648180D01*
X117501812Y-124528482D01*
X117514072Y-124404000D01*
X117511069Y-123217021D01*
X154932877Y-123217021D01*
X154987091Y-123713422D01*
X155137106Y-124189707D01*
X155347133Y-124582638D01*
X155703651Y-124786744D01*
X157300395Y-123190000D01*
X157659605Y-123190000D01*
X159256349Y-124786744D01*
X159612867Y-124582638D01*
X159843575Y-124139777D01*
X159983452Y-123660417D01*
X160027123Y-123162979D01*
X159972909Y-122666578D01*
X159822894Y-122190293D01*
X159612867Y-121797362D01*
X159256349Y-121593256D01*
X157659605Y-123190000D01*
X157300395Y-123190000D01*
X155703651Y-121593256D01*
X155347133Y-121797362D01*
X155116425Y-122240223D01*
X154976548Y-122719583D01*
X154932877Y-123217021D01*
X117511069Y-123217021D01*
X117511000Y-123189750D01*
X117352250Y-123031000D01*
X115253000Y-123031000D01*
X114999000Y-123031000D01*
X112899750Y-123031000D01*
X112741000Y-123189750D01*
X112737928Y-124404000D01*
X107808578Y-124404000D01*
X108559550Y-123653029D01*
X108593317Y-123625317D01*
X108703911Y-123490559D01*
X108786089Y-123336813D01*
X108836695Y-123169990D01*
X108849500Y-123039977D01*
X108849500Y-123039967D01*
X108853781Y-122996501D01*
X108849500Y-122953035D01*
X108849500Y-121404000D01*
X112737928Y-121404000D01*
X112741000Y-122618250D01*
X112899750Y-122777000D01*
X114999000Y-122777000D01*
X114999000Y-120927750D01*
X115253000Y-120927750D01*
X115253000Y-122777000D01*
X117352250Y-122777000D01*
X117511000Y-122618250D01*
X117514072Y-121404000D01*
X117501812Y-121279518D01*
X117465502Y-121159820D01*
X117406537Y-121049506D01*
X117327185Y-120952815D01*
X117230494Y-120873463D01*
X117120180Y-120814498D01*
X117000482Y-120778188D01*
X116876000Y-120765928D01*
X115411750Y-120769000D01*
X115253000Y-120927750D01*
X114999000Y-120927750D01*
X114840250Y-120769000D01*
X113376000Y-120765928D01*
X113251518Y-120778188D01*
X113131820Y-120814498D01*
X113021506Y-120873463D01*
X112924815Y-120952815D01*
X112845463Y-121049506D01*
X112786498Y-121159820D01*
X112750188Y-121279518D01*
X112737928Y-121404000D01*
X108849500Y-121404000D01*
X108849500Y-120090278D01*
X112737928Y-116201850D01*
X112737928Y-118654000D01*
X112750188Y-118778482D01*
X112786498Y-118898180D01*
X112845463Y-119008494D01*
X112924815Y-119105185D01*
X113021506Y-119184537D01*
X113131820Y-119243502D01*
X113251518Y-119279812D01*
X113376000Y-119292072D01*
X116876000Y-119292072D01*
X117000482Y-119279812D01*
X117120180Y-119243502D01*
X117230494Y-119184537D01*
X117327185Y-119105185D01*
X117406537Y-119008494D01*
X117447494Y-118931869D01*
X117437928Y-119029000D01*
X117437928Y-120779000D01*
X117467001Y-121074186D01*
X117553104Y-121358028D01*
X117692927Y-121619618D01*
X117881097Y-121848903D01*
X118110382Y-122037073D01*
X118371972Y-122176896D01*
X118655814Y-122262999D01*
X118951000Y-122292072D01*
X120701000Y-122292072D01*
X120996186Y-122262999D01*
X121280028Y-122176896D01*
X121541618Y-122037073D01*
X121770903Y-121848903D01*
X121959073Y-121619618D01*
X122069164Y-121413651D01*
X155883256Y-121413651D01*
X157480000Y-123010395D01*
X159076744Y-121413651D01*
X158872638Y-121057133D01*
X158429777Y-120826425D01*
X157950417Y-120686548D01*
X157452979Y-120642877D01*
X156956578Y-120697091D01*
X156480293Y-120847106D01*
X156087362Y-121057133D01*
X155883256Y-121413651D01*
X122069164Y-121413651D01*
X122098896Y-121358028D01*
X122184999Y-121074186D01*
X122214072Y-120779000D01*
X122214072Y-119029000D01*
X122184999Y-118733814D01*
X122098896Y-118449972D01*
X121959073Y-118188382D01*
X121770903Y-117959097D01*
X121541618Y-117770927D01*
X121280028Y-117631104D01*
X120996186Y-117545001D01*
X120701000Y-117515928D01*
X118951000Y-117515928D01*
X118655814Y-117545001D01*
X118371972Y-117631104D01*
X118110382Y-117770927D01*
X117881097Y-117959097D01*
X117692927Y-118188382D01*
X117553104Y-118449972D01*
X117514072Y-118578643D01*
X117514072Y-115154000D01*
X117501812Y-115029518D01*
X117465502Y-114909820D01*
X117406537Y-114799506D01*
X117327185Y-114702815D01*
X117230494Y-114623463D01*
X117120180Y-114564498D01*
X117000482Y-114528188D01*
X116876000Y-114515928D01*
X114423850Y-114515928D01*
X121766113Y-107173665D01*
X141757000Y-107173665D01*
X141757000Y-107456335D01*
X141812147Y-107733574D01*
X141920320Y-107994727D01*
X142077363Y-108229759D01*
X142277241Y-108429637D01*
X142512273Y-108586680D01*
X142773426Y-108694853D01*
X143050665Y-108750000D01*
X143333335Y-108750000D01*
X143610574Y-108694853D01*
X143871727Y-108586680D01*
X144106759Y-108429637D01*
X144306637Y-108229759D01*
X144463680Y-107994727D01*
X144571853Y-107733574D01*
X144627000Y-107456335D01*
X144627000Y-107173665D01*
X144571853Y-106896426D01*
X144463680Y-106635273D01*
X144306637Y-106400241D01*
X144106759Y-106200363D01*
X143871727Y-106043320D01*
X143610574Y-105935147D01*
X143333335Y-105880000D01*
X143050665Y-105880000D01*
X142773426Y-105935147D01*
X142512273Y-106043320D01*
X142277241Y-106200363D01*
X142077363Y-106400241D01*
X141920320Y-106635273D01*
X141812147Y-106896426D01*
X141757000Y-107173665D01*
X121766113Y-107173665D01*
X124570074Y-104369705D01*
X124739426Y-104439853D01*
X125016665Y-104495000D01*
X125299335Y-104495000D01*
X125576574Y-104439853D01*
X125837727Y-104331680D01*
X126072759Y-104174637D01*
X126272637Y-103974759D01*
X126429680Y-103739727D01*
X126537853Y-103478574D01*
X126593000Y-103201335D01*
X126593000Y-102918665D01*
X126537853Y-102641426D01*
X126429680Y-102380273D01*
X126272637Y-102145241D01*
X126072759Y-101945363D01*
X126043000Y-101925479D01*
X126043000Y-99998578D01*
X127811079Y-98230500D01*
X130643379Y-98230500D01*
X130676498Y-98339680D01*
X130735463Y-98449994D01*
X130814815Y-98546685D01*
X130911506Y-98626037D01*
X131021820Y-98685002D01*
X131141518Y-98721312D01*
X131266000Y-98733572D01*
X132766000Y-98733572D01*
X132890482Y-98721312D01*
X133010180Y-98685002D01*
X133120494Y-98626037D01*
X133217185Y-98546685D01*
X133296537Y-98449994D01*
X133355502Y-98339680D01*
X133388621Y-98230500D01*
X134258531Y-98230500D01*
X134302000Y-98234781D01*
X134345469Y-98230500D01*
X134345477Y-98230500D01*
X134475490Y-98217695D01*
X134642313Y-98167089D01*
X134796059Y-98084911D01*
X134930817Y-97974317D01*
X134958534Y-97940544D01*
X136411561Y-96487517D01*
X136446665Y-96494500D01*
X136729335Y-96494500D01*
X137006574Y-96439353D01*
X137267727Y-96331180D01*
X137502759Y-96174137D01*
X137702637Y-95974259D01*
X137859680Y-95739227D01*
X137967853Y-95478074D01*
X138023000Y-95200835D01*
X138023000Y-94918165D01*
X138016017Y-94883061D01*
X138464579Y-94434500D01*
X144913031Y-94434500D01*
X144956500Y-94438781D01*
X144999969Y-94434500D01*
X148825722Y-94434500D01*
X149783663Y-95392441D01*
X149634363Y-95541741D01*
X149477320Y-95776773D01*
X149369147Y-96037926D01*
X149314000Y-96315165D01*
X149314000Y-96597835D01*
X149369147Y-96875074D01*
X149477320Y-97136227D01*
X149634363Y-97371259D01*
X149783663Y-97520559D01*
X148533351Y-98770871D01*
X148499584Y-98798583D01*
X148471871Y-98832351D01*
X148471868Y-98832354D01*
X148388990Y-98933341D01*
X148306812Y-99087087D01*
X148256205Y-99253910D01*
X148239756Y-99420928D01*
X147078000Y-99420928D01*
X146953518Y-99433188D01*
X146833820Y-99469498D01*
X146723506Y-99528463D01*
X146626815Y-99607815D01*
X146547463Y-99704506D01*
X146488498Y-99814820D01*
X146452188Y-99934518D01*
X146439928Y-100059000D01*
X146439928Y-101109000D01*
X146452188Y-101233482D01*
X146488498Y-101353180D01*
X146523093Y-101417902D01*
X146459785Y-101626600D01*
X146451712Y-101708565D01*
X143864000Y-99120854D01*
X143864000Y-97691248D01*
X144043759Y-97571137D01*
X144243637Y-97371259D01*
X144400680Y-97136227D01*
X144508853Y-96875074D01*
X144564000Y-96597835D01*
X144564000Y-96315165D01*
X144508853Y-96037926D01*
X144400680Y-95776773D01*
X144243637Y-95541741D01*
X144043759Y-95341863D01*
X143808727Y-95184820D01*
X143547574Y-95076647D01*
X143270335Y-95021500D01*
X142987665Y-95021500D01*
X142710426Y-95076647D01*
X142449273Y-95184820D01*
X142214241Y-95341863D01*
X142014363Y-95541741D01*
X141857320Y-95776773D01*
X141749147Y-96037926D01*
X141694000Y-96315165D01*
X141694000Y-96597835D01*
X141749147Y-96875074D01*
X141857320Y-97136227D01*
X142014363Y-97371259D01*
X142214241Y-97571137D01*
X142394001Y-97691248D01*
X142394000Y-99389195D01*
X142390444Y-99425300D01*
X142394000Y-99461404D01*
X142404635Y-99569384D01*
X142446663Y-99707932D01*
X142514913Y-99835619D01*
X142606762Y-99947537D01*
X142634808Y-99970554D01*
X146282446Y-103618193D01*
X146305462Y-103646238D01*
X146402569Y-103725932D01*
X146417380Y-103738087D01*
X146545066Y-103806337D01*
X146683615Y-103848365D01*
X146698009Y-103849783D01*
X146778788Y-103948212D01*
X146955421Y-104093171D01*
X147156940Y-104200885D01*
X147375600Y-104267215D01*
X147546021Y-104284000D01*
X148109979Y-104284000D01*
X148243400Y-104270859D01*
X148243401Y-110349921D01*
X148239119Y-110393400D01*
X148256205Y-110566890D01*
X148306812Y-110733713D01*
X148388990Y-110887459D01*
X148471868Y-110988446D01*
X148471871Y-110988449D01*
X148499584Y-111022217D01*
X148533352Y-111049930D01*
X154848928Y-117365507D01*
X154848928Y-118452000D01*
X154861188Y-118576482D01*
X154897498Y-118696180D01*
X154956463Y-118806494D01*
X155035815Y-118903185D01*
X155132506Y-118982537D01*
X155242820Y-119041502D01*
X155362518Y-119077812D01*
X155487000Y-119090072D01*
X157187000Y-119090072D01*
X157311482Y-119077812D01*
X157431180Y-119041502D01*
X157541494Y-118982537D01*
X157638185Y-118903185D01*
X157717537Y-118806494D01*
X157776502Y-118696180D01*
X157812812Y-118576482D01*
X157825072Y-118452000D01*
X157825072Y-116752000D01*
X157812812Y-116627518D01*
X157776502Y-116507820D01*
X157717537Y-116397506D01*
X157638185Y-116300815D01*
X157541494Y-116221463D01*
X157431180Y-116162498D01*
X157358620Y-116140487D01*
X157490475Y-116008632D01*
X157652990Y-115765411D01*
X157764932Y-115495158D01*
X157822000Y-115208260D01*
X157822000Y-114915740D01*
X157764932Y-114628842D01*
X157652990Y-114358589D01*
X157490475Y-114115368D01*
X157283632Y-113908525D01*
X157101466Y-113786805D01*
X157218355Y-113717178D01*
X157434588Y-113522269D01*
X157608641Y-113288920D01*
X157733825Y-113026099D01*
X157778476Y-112878890D01*
X157657155Y-112649000D01*
X156464000Y-112649000D01*
X156464000Y-112669000D01*
X156210000Y-112669000D01*
X156210000Y-112649000D01*
X155016845Y-112649000D01*
X154895524Y-112878890D01*
X154940175Y-113026099D01*
X155065359Y-113288920D01*
X155239412Y-113522269D01*
X155455645Y-113717178D01*
X155572534Y-113786805D01*
X155390368Y-113908525D01*
X155183525Y-114115368D01*
X155021010Y-114358589D01*
X154909068Y-114628842D01*
X154860348Y-114873770D01*
X152151688Y-112165110D01*
X154895524Y-112165110D01*
X155016845Y-112395000D01*
X156210000Y-112395000D01*
X156210000Y-111201186D01*
X156464000Y-111201186D01*
X156464000Y-112395000D01*
X157657155Y-112395000D01*
X157778476Y-112165110D01*
X157733825Y-112017901D01*
X157608641Y-111755080D01*
X157434588Y-111521731D01*
X157218355Y-111326822D01*
X156968252Y-111177843D01*
X156693891Y-111080519D01*
X156464000Y-111201186D01*
X156210000Y-111201186D01*
X155980109Y-111080519D01*
X155705748Y-111177843D01*
X155455645Y-111326822D01*
X155239412Y-111521731D01*
X155065359Y-111755080D01*
X154940175Y-112017901D01*
X154895524Y-112165110D01*
X152151688Y-112165110D01*
X150013400Y-110026822D01*
X150013400Y-108507252D01*
X150132273Y-108586680D01*
X150393426Y-108694853D01*
X150670665Y-108750000D01*
X150953335Y-108750000D01*
X151230574Y-108694853D01*
X151491727Y-108586680D01*
X151726759Y-108429637D01*
X151926637Y-108229759D01*
X152083680Y-107994727D01*
X152191853Y-107733574D01*
X152247000Y-107456335D01*
X152247000Y-107173665D01*
X152191853Y-106896426D01*
X152083680Y-106635273D01*
X151926637Y-106400241D01*
X151726759Y-106200363D01*
X151491727Y-106043320D01*
X151230574Y-105935147D01*
X150953335Y-105880000D01*
X150670665Y-105880000D01*
X150393426Y-105935147D01*
X150132273Y-106043320D01*
X150013400Y-106122748D01*
X150013400Y-101897476D01*
X150017682Y-101854000D01*
X150013400Y-101810523D01*
X150013400Y-99793978D01*
X151344049Y-98463330D01*
X151377817Y-98435617D01*
X151488411Y-98300859D01*
X151570589Y-98147113D01*
X151621195Y-97980290D01*
X151634000Y-97850277D01*
X151634000Y-97850267D01*
X151638281Y-97806801D01*
X151634000Y-97763335D01*
X151634000Y-97591021D01*
X151663759Y-97571137D01*
X151863637Y-97371259D01*
X152020680Y-97136227D01*
X152128853Y-96875074D01*
X152184000Y-96597835D01*
X152184000Y-96315165D01*
X152128853Y-96037926D01*
X152020680Y-95776773D01*
X151863637Y-95541741D01*
X151663759Y-95341863D01*
X151634000Y-95321979D01*
X151634000Y-95149665D01*
X151638281Y-95106199D01*
X151634000Y-95062733D01*
X151634000Y-95062723D01*
X151621195Y-94932710D01*
X151570589Y-94765887D01*
X151488411Y-94612141D01*
X151377817Y-94477383D01*
X151344049Y-94449670D01*
X149848832Y-92954454D01*
X149821117Y-92920683D01*
X149686359Y-92810089D01*
X149532613Y-92727911D01*
X149365790Y-92677305D01*
X149235777Y-92664500D01*
X149235769Y-92664500D01*
X149192300Y-92660219D01*
X149148831Y-92664500D01*
X147093079Y-92664500D01*
X148423050Y-91334529D01*
X148456817Y-91306817D01*
X148498607Y-91255897D01*
X148567410Y-91172060D01*
X148567411Y-91172059D01*
X148649589Y-91018313D01*
X148700195Y-90851490D01*
X148713000Y-90721477D01*
X148713000Y-90721467D01*
X148717281Y-90678001D01*
X148713000Y-90634535D01*
X148713000Y-87552165D01*
X149251000Y-87552165D01*
X149251000Y-87834835D01*
X149306147Y-88112074D01*
X149414320Y-88373227D01*
X149571363Y-88608259D01*
X149771241Y-88808137D01*
X150006273Y-88965180D01*
X150267426Y-89073353D01*
X150544665Y-89128500D01*
X150827335Y-89128500D01*
X151104574Y-89073353D01*
X151365727Y-88965180D01*
X151600759Y-88808137D01*
X151800637Y-88608259D01*
X151924703Y-88422581D01*
X151972585Y-88417865D01*
X152111133Y-88375837D01*
X152238820Y-88307587D01*
X152350738Y-88215738D01*
X152373759Y-88187687D01*
X154848928Y-85712519D01*
X154848928Y-86575000D01*
X154861188Y-86699482D01*
X154897498Y-86819180D01*
X154956463Y-86929494D01*
X155035815Y-87026185D01*
X155117500Y-87093222D01*
X154341651Y-87869071D01*
X154307884Y-87896783D01*
X154280171Y-87930551D01*
X154280168Y-87930554D01*
X154197290Y-88031541D01*
X154115112Y-88185287D01*
X154064505Y-88352110D01*
X154047419Y-88525600D01*
X154051701Y-88569079D01*
X154051700Y-103394231D01*
X154047419Y-103437700D01*
X154051700Y-103481169D01*
X154051700Y-103481176D01*
X154059853Y-103563957D01*
X154064505Y-103611190D01*
X154071275Y-103633506D01*
X154115111Y-103778012D01*
X154197289Y-103931758D01*
X154307883Y-104066517D01*
X154341656Y-104094234D01*
X154848928Y-104601506D01*
X154848928Y-105688000D01*
X154861188Y-105812482D01*
X154897498Y-105932180D01*
X154956463Y-106042494D01*
X155035815Y-106139185D01*
X155132506Y-106218537D01*
X155242820Y-106277502D01*
X155362518Y-106313812D01*
X155487000Y-106326072D01*
X157187000Y-106326072D01*
X157311482Y-106313812D01*
X157431180Y-106277502D01*
X157541494Y-106218537D01*
X157638185Y-106139185D01*
X157717537Y-106042494D01*
X157776502Y-105932180D01*
X157812812Y-105812482D01*
X157825072Y-105688000D01*
X157825072Y-103988000D01*
X157812812Y-103863518D01*
X157776502Y-103743820D01*
X157717537Y-103633506D01*
X157638185Y-103536815D01*
X157541494Y-103457463D01*
X157431180Y-103398498D01*
X157358620Y-103376487D01*
X157490475Y-103244632D01*
X157652990Y-103001411D01*
X157764932Y-102731158D01*
X157822000Y-102444260D01*
X157822000Y-102151740D01*
X157764932Y-101864842D01*
X157652990Y-101594589D01*
X157490475Y-101351368D01*
X157283632Y-101144525D01*
X157101466Y-101022805D01*
X157218355Y-100953178D01*
X157434588Y-100758269D01*
X157608641Y-100524920D01*
X157733825Y-100262099D01*
X157778476Y-100114890D01*
X157657155Y-99885000D01*
X156464000Y-99885000D01*
X156464000Y-99905000D01*
X156210000Y-99905000D01*
X156210000Y-99885000D01*
X156190000Y-99885000D01*
X156190000Y-99631000D01*
X156210000Y-99631000D01*
X156210000Y-98437186D01*
X156464000Y-98437186D01*
X156464000Y-99631000D01*
X157657155Y-99631000D01*
X157778476Y-99401110D01*
X157733825Y-99253901D01*
X157608641Y-98991080D01*
X157434588Y-98757731D01*
X157218355Y-98562822D01*
X156968252Y-98413843D01*
X156693891Y-98316519D01*
X156464000Y-98437186D01*
X156210000Y-98437186D01*
X155980109Y-98316519D01*
X155821700Y-98372711D01*
X155821700Y-93343349D01*
X156264256Y-93343349D01*
X156468362Y-93699867D01*
X156911223Y-93930575D01*
X157390583Y-94070452D01*
X157888021Y-94114123D01*
X158384422Y-94059909D01*
X158860707Y-93909894D01*
X159253638Y-93699867D01*
X159457744Y-93343349D01*
X157861000Y-91746605D01*
X156264256Y-93343349D01*
X155821700Y-93343349D01*
X155821700Y-93013205D01*
X156084651Y-93163744D01*
X157681395Y-91567000D01*
X158040605Y-91567000D01*
X159637349Y-93163744D01*
X159993867Y-92959638D01*
X160224575Y-92516777D01*
X160364452Y-92037417D01*
X160408123Y-91539979D01*
X160353909Y-91043578D01*
X160203894Y-90567293D01*
X159993867Y-90174362D01*
X159637349Y-89970256D01*
X158040605Y-91567000D01*
X157681395Y-91567000D01*
X156084651Y-89970256D01*
X155821700Y-90120795D01*
X155821700Y-89790651D01*
X156264256Y-89790651D01*
X157861000Y-91387395D01*
X159457744Y-89790651D01*
X159253638Y-89434133D01*
X158810777Y-89203425D01*
X158331417Y-89063548D01*
X157833979Y-89019877D01*
X157337578Y-89074091D01*
X156861293Y-89224106D01*
X156468362Y-89434133D01*
X156264256Y-89790651D01*
X155821700Y-89790651D01*
X155821700Y-88892178D01*
X156932049Y-87781830D01*
X156965817Y-87754117D01*
X157006939Y-87704011D01*
X157076410Y-87619360D01*
X157076411Y-87619359D01*
X157158589Y-87465613D01*
X157209195Y-87298790D01*
X157217937Y-87210025D01*
X157311482Y-87200812D01*
X157431180Y-87164502D01*
X157541494Y-87105537D01*
X157638185Y-87026185D01*
X157717537Y-86929494D01*
X157776502Y-86819180D01*
X157812812Y-86699482D01*
X157825072Y-86575000D01*
X157825072Y-84875000D01*
X157812812Y-84750518D01*
X157776502Y-84630820D01*
X157717537Y-84520506D01*
X157638185Y-84423815D01*
X157541494Y-84344463D01*
X157431180Y-84285498D01*
X157358620Y-84263487D01*
X157490475Y-84131632D01*
X157652990Y-83888411D01*
X157764932Y-83618158D01*
X157822000Y-83331260D01*
X157822000Y-83038740D01*
X157764932Y-82751842D01*
X157652990Y-82481589D01*
X157490475Y-82238368D01*
X157283632Y-82031525D01*
X157101466Y-81909805D01*
X157218355Y-81840178D01*
X157434588Y-81645269D01*
X157608641Y-81411920D01*
X157733825Y-81149099D01*
X157778476Y-81001890D01*
X157657155Y-80772000D01*
X156464000Y-80772000D01*
X156464000Y-80792000D01*
X156210000Y-80792000D01*
X156210000Y-80772000D01*
X155016845Y-80772000D01*
X154895524Y-81001890D01*
X154940175Y-81149099D01*
X155065359Y-81411920D01*
X155239412Y-81645269D01*
X155455645Y-81840178D01*
X155572534Y-81909805D01*
X155390368Y-82031525D01*
X155183525Y-82238368D01*
X155021010Y-82481589D01*
X154909068Y-82751842D01*
X154852000Y-83038740D01*
X154852000Y-83331260D01*
X154901656Y-83580897D01*
X151752225Y-86730329D01*
X151600759Y-86578863D01*
X151365727Y-86421820D01*
X151104574Y-86313647D01*
X150827335Y-86258500D01*
X150544665Y-86258500D01*
X150267426Y-86313647D01*
X150006273Y-86421820D01*
X149771241Y-86578863D01*
X149571363Y-86778741D01*
X149414320Y-87013773D01*
X149306147Y-87274926D01*
X149251000Y-87552165D01*
X148713000Y-87552165D01*
X148713000Y-85964578D01*
X149787059Y-84890520D01*
X149820827Y-84862807D01*
X149931421Y-84728049D01*
X150013599Y-84574303D01*
X150064205Y-84407480D01*
X150077010Y-84277467D01*
X150077010Y-84277457D01*
X150081291Y-84233991D01*
X150077010Y-84190525D01*
X150077010Y-83164186D01*
X150081291Y-83120717D01*
X150077010Y-83077248D01*
X150077010Y-83077240D01*
X150074249Y-83049207D01*
X150100059Y-83035411D01*
X150234817Y-82924817D01*
X150262534Y-82891044D01*
X151344050Y-81809529D01*
X151377817Y-81781817D01*
X151488411Y-81647059D01*
X151570589Y-81493313D01*
X151621195Y-81326490D01*
X151634000Y-81196477D01*
X151634000Y-81196467D01*
X151638281Y-81153001D01*
X151634000Y-81109535D01*
X151634000Y-80288110D01*
X154895524Y-80288110D01*
X155016845Y-80518000D01*
X156210000Y-80518000D01*
X156210000Y-79324186D01*
X156464000Y-79324186D01*
X156464000Y-80518000D01*
X157657155Y-80518000D01*
X157778476Y-80288110D01*
X157733825Y-80140901D01*
X157608641Y-79878080D01*
X157434588Y-79644731D01*
X157218355Y-79449822D01*
X156968252Y-79300843D01*
X156693891Y-79203519D01*
X156464000Y-79324186D01*
X156210000Y-79324186D01*
X155980109Y-79203519D01*
X155705748Y-79300843D01*
X155455645Y-79449822D01*
X155239412Y-79644731D01*
X155065359Y-79878080D01*
X154940175Y-80140901D01*
X154895524Y-80288110D01*
X151634000Y-80288110D01*
X151634000Y-78223521D01*
X151663759Y-78203637D01*
X151863637Y-78003759D01*
X152020680Y-77768727D01*
X152128853Y-77507574D01*
X152184000Y-77230335D01*
X152184000Y-76947665D01*
X152128853Y-76670426D01*
X152020680Y-76409273D01*
X151863637Y-76174241D01*
X151663759Y-75974363D01*
X151428727Y-75817320D01*
X151167574Y-75709147D01*
X150890335Y-75654000D01*
X150607665Y-75654000D01*
X150330426Y-75709147D01*
X150069273Y-75817320D01*
X149834241Y-75974363D01*
X149634363Y-76174241D01*
X149477320Y-76409273D01*
X149369147Y-76670426D01*
X149314000Y-76947665D01*
X149314000Y-77230335D01*
X149369147Y-77507574D01*
X149477320Y-77768727D01*
X149634363Y-78003759D01*
X149834241Y-78203637D01*
X149864001Y-78223522D01*
X149864001Y-78395823D01*
X149864000Y-80786421D01*
X149280072Y-81370350D01*
X149280072Y-80501000D01*
X149267812Y-80376518D01*
X149231502Y-80256820D01*
X149172537Y-80146506D01*
X149093185Y-80049815D01*
X148996494Y-79970463D01*
X148886180Y-79911498D01*
X148766482Y-79875188D01*
X148642000Y-79862928D01*
X147142000Y-79862928D01*
X147017518Y-79875188D01*
X146897820Y-79911498D01*
X146787506Y-79970463D01*
X146690815Y-80049815D01*
X146611463Y-80146506D01*
X146552498Y-80256820D01*
X146516188Y-80376518D01*
X146503928Y-80501000D01*
X146503928Y-81551000D01*
X146516188Y-81675482D01*
X146552498Y-81795180D01*
X146587093Y-81859902D01*
X146523785Y-82068600D01*
X146515712Y-82150565D01*
X143864000Y-79498854D01*
X143864000Y-78323748D01*
X144043759Y-78203637D01*
X144243637Y-78003759D01*
X144400680Y-77768727D01*
X144508853Y-77507574D01*
X144564000Y-77230335D01*
X144564000Y-76947665D01*
X144508853Y-76670426D01*
X144400680Y-76409273D01*
X144243637Y-76174241D01*
X144043759Y-75974363D01*
X143808727Y-75817320D01*
X143547574Y-75709147D01*
X143270335Y-75654000D01*
X142987665Y-75654000D01*
X142710426Y-75709147D01*
X142449273Y-75817320D01*
X142214241Y-75974363D01*
X142014363Y-76174241D01*
X141860710Y-76404200D01*
X103057894Y-76404200D01*
X103021799Y-76400645D01*
X102985704Y-76404200D01*
X102985695Y-76404200D01*
X102877715Y-76414835D01*
X102739167Y-76456863D01*
X102611480Y-76525113D01*
X102499562Y-76616962D01*
X102476546Y-76645007D01*
X81806000Y-97315554D01*
X81806000Y-97090635D01*
X81751623Y-96817260D01*
X81644957Y-96559746D01*
X81490103Y-96327990D01*
X81293010Y-96130897D01*
X81061254Y-95976043D01*
X81022523Y-95960000D01*
X81061254Y-95943957D01*
X81293010Y-95789103D01*
X81490103Y-95592010D01*
X81644957Y-95360254D01*
X81751623Y-95102740D01*
X81806000Y-94829365D01*
X81806000Y-94550635D01*
X81751623Y-94277260D01*
X81644957Y-94019746D01*
X81490103Y-93787990D01*
X81293010Y-93590897D01*
X81061254Y-93436043D01*
X81022523Y-93420000D01*
X81061254Y-93403957D01*
X81293010Y-93249103D01*
X81490103Y-93052010D01*
X81644957Y-92820254D01*
X81751623Y-92562740D01*
X81806000Y-92289365D01*
X81806000Y-92010635D01*
X81751623Y-91737260D01*
X81644957Y-91479746D01*
X81490103Y-91247990D01*
X81293010Y-91050897D01*
X81061254Y-90896043D01*
X81022523Y-90880000D01*
X81061254Y-90863957D01*
X81293010Y-90709103D01*
X81490103Y-90512010D01*
X81644957Y-90280254D01*
X81751623Y-90022740D01*
X81806000Y-89749365D01*
X81806000Y-89470635D01*
X81751623Y-89197260D01*
X81644957Y-88939746D01*
X81490103Y-88707990D01*
X81293010Y-88510897D01*
X81061254Y-88356043D01*
X81022523Y-88340000D01*
X81061254Y-88323957D01*
X81293010Y-88169103D01*
X81490103Y-87972010D01*
X81644957Y-87740254D01*
X81751623Y-87482740D01*
X81806000Y-87209365D01*
X81806000Y-86930635D01*
X81751623Y-86657260D01*
X81644957Y-86399746D01*
X81490103Y-86167990D01*
X81293010Y-85970897D01*
X81061254Y-85816043D01*
X81022523Y-85800000D01*
X81061254Y-85783957D01*
X81293010Y-85629103D01*
X81490103Y-85432010D01*
X81644957Y-85200254D01*
X81751623Y-84942740D01*
X81806000Y-84669365D01*
X81806000Y-84390635D01*
X81751623Y-84117260D01*
X81644957Y-83859746D01*
X81490103Y-83627990D01*
X81293010Y-83430897D01*
X81061254Y-83276043D01*
X81022523Y-83260000D01*
X81061254Y-83243957D01*
X81293010Y-83089103D01*
X81490103Y-82892010D01*
X81644957Y-82660254D01*
X81751623Y-82402740D01*
X81806000Y-82129365D01*
X81806000Y-81850635D01*
X81751623Y-81577260D01*
X81644957Y-81319746D01*
X81490103Y-81087990D01*
X81293010Y-80890897D01*
X81061254Y-80736043D01*
X81022523Y-80720000D01*
X81061254Y-80703957D01*
X81293010Y-80549103D01*
X81490103Y-80352010D01*
X81644957Y-80120254D01*
X81751623Y-79862740D01*
X81806000Y-79589365D01*
X81806000Y-79310635D01*
X81751623Y-79037260D01*
X81644957Y-78779746D01*
X81490103Y-78547990D01*
X81293010Y-78350897D01*
X81061254Y-78196043D01*
X80803740Y-78089377D01*
X80530365Y-78035000D01*
X80251635Y-78035000D01*
X79978260Y-78089377D01*
X79720746Y-78196043D01*
X79488990Y-78350897D01*
X79291897Y-78547990D01*
X79137043Y-78779746D01*
X79030377Y-79037260D01*
X78976000Y-79310635D01*
X78976000Y-79589365D01*
X79030377Y-79862740D01*
X79137043Y-80120254D01*
X79291897Y-80352010D01*
X79488990Y-80549103D01*
X79720746Y-80703957D01*
X79759477Y-80720000D01*
X79720746Y-80736043D01*
X79488990Y-80890897D01*
X79291897Y-81087990D01*
X79137043Y-81319746D01*
X79030377Y-81577260D01*
X78976000Y-81850635D01*
X78976000Y-82129365D01*
X79030377Y-82402740D01*
X79137043Y-82660254D01*
X79291897Y-82892010D01*
X79488990Y-83089103D01*
X79720746Y-83243957D01*
X79759477Y-83260000D01*
X79720746Y-83276043D01*
X79488990Y-83430897D01*
X79291897Y-83627990D01*
X79137043Y-83859746D01*
X79030377Y-84117260D01*
X78976000Y-84390635D01*
X78976000Y-84669365D01*
X79030377Y-84942740D01*
X79137043Y-85200254D01*
X79291897Y-85432010D01*
X79488990Y-85629103D01*
X79720746Y-85783957D01*
X79759477Y-85800000D01*
X79720746Y-85816043D01*
X79488990Y-85970897D01*
X79291897Y-86167990D01*
X79137043Y-86399746D01*
X79030377Y-86657260D01*
X78976000Y-86930635D01*
X78976000Y-87209365D01*
X79030377Y-87482740D01*
X79137043Y-87740254D01*
X79291897Y-87972010D01*
X79488990Y-88169103D01*
X79720746Y-88323957D01*
X79759477Y-88340000D01*
X79720746Y-88356043D01*
X79488990Y-88510897D01*
X79291897Y-88707990D01*
X79137043Y-88939746D01*
X79030377Y-89197260D01*
X78976000Y-89470635D01*
X78976000Y-89749365D01*
X79030377Y-90022740D01*
X79137043Y-90280254D01*
X79291897Y-90512010D01*
X79488990Y-90709103D01*
X79720746Y-90863957D01*
X79759477Y-90880000D01*
X79720746Y-90896043D01*
X79488990Y-91050897D01*
X79291897Y-91247990D01*
X79137043Y-91479746D01*
X79030377Y-91737260D01*
X78976000Y-92010635D01*
X78976000Y-92289365D01*
X79030377Y-92562740D01*
X79137043Y-92820254D01*
X79291897Y-93052010D01*
X79488990Y-93249103D01*
X79720746Y-93403957D01*
X79759477Y-93420000D01*
X79720746Y-93436043D01*
X79488990Y-93590897D01*
X79291897Y-93787990D01*
X79137043Y-94019746D01*
X79030377Y-94277260D01*
X78976000Y-94550635D01*
X78976000Y-94829365D01*
X79030377Y-95102740D01*
X79137043Y-95360254D01*
X79291897Y-95592010D01*
X79488990Y-95789103D01*
X79720746Y-95943957D01*
X79759477Y-95960000D01*
X79720746Y-95976043D01*
X79488990Y-96130897D01*
X79291897Y-96327990D01*
X79137043Y-96559746D01*
X79030377Y-96817260D01*
X78976000Y-97090635D01*
X78976000Y-97369365D01*
X79030377Y-97642740D01*
X79137043Y-97900254D01*
X79291897Y-98132010D01*
X79488990Y-98329103D01*
X79720746Y-98483957D01*
X79759477Y-98500000D01*
X79720746Y-98516043D01*
X79488990Y-98670897D01*
X79291897Y-98867990D01*
X79137043Y-99099746D01*
X79030377Y-99357260D01*
X78976000Y-99630635D01*
X78976000Y-99909365D01*
X79030377Y-100182740D01*
X79137043Y-100440254D01*
X79291897Y-100672010D01*
X79488990Y-100869103D01*
X79720746Y-101023957D01*
X79759477Y-101040000D01*
X79720746Y-101056043D01*
X79488990Y-101210897D01*
X79291897Y-101407990D01*
X79137043Y-101639746D01*
X79030377Y-101897260D01*
X78976000Y-102170635D01*
X78976000Y-102449365D01*
X79030377Y-102722740D01*
X79137043Y-102980254D01*
X79291897Y-103212010D01*
X79488990Y-103409103D01*
X79720746Y-103563957D01*
X79759477Y-103580000D01*
X79720746Y-103596043D01*
X79488990Y-103750897D01*
X79291897Y-103947990D01*
X79137043Y-104179746D01*
X79030377Y-104437260D01*
X78976000Y-104710635D01*
X78976000Y-104989365D01*
X79030377Y-105262740D01*
X79137043Y-105520254D01*
X79291897Y-105752010D01*
X79488990Y-105949103D01*
X79720746Y-106103957D01*
X79759477Y-106120000D01*
X79720746Y-106136043D01*
X79488990Y-106290897D01*
X79291897Y-106487990D01*
X79137043Y-106719746D01*
X79030377Y-106977260D01*
X78976000Y-107250635D01*
X78976000Y-107529365D01*
X79030377Y-107802740D01*
X79137043Y-108060254D01*
X79291897Y-108292010D01*
X79488990Y-108489103D01*
X79720746Y-108643957D01*
X79756525Y-108658777D01*
X79661345Y-108709651D01*
X79592184Y-108951579D01*
X80391000Y-109750395D01*
X81189816Y-108951579D01*
X81120655Y-108709651D01*
X81018721Y-108661575D01*
X81061254Y-108643957D01*
X81293010Y-108489103D01*
X81490103Y-108292010D01*
X81644957Y-108060254D01*
X81751623Y-107802740D01*
X81806000Y-107529365D01*
X81806000Y-107250635D01*
X81751623Y-106977260D01*
X81644957Y-106719746D01*
X81490103Y-106487990D01*
X81293010Y-106290897D01*
X81061254Y-106136043D01*
X81022523Y-106120000D01*
X81061254Y-106103957D01*
X81293010Y-105949103D01*
X81490103Y-105752010D01*
X81644957Y-105520254D01*
X81751623Y-105262740D01*
X81806000Y-104989365D01*
X81806000Y-104710635D01*
X81751623Y-104437260D01*
X81644957Y-104179746D01*
X81490103Y-103947990D01*
X81293010Y-103750897D01*
X81061254Y-103596043D01*
X81022523Y-103580000D01*
X81061254Y-103563957D01*
X81293010Y-103409103D01*
X81490103Y-103212010D01*
X81644957Y-102980254D01*
X81751623Y-102722740D01*
X81806000Y-102449365D01*
X81806000Y-102170635D01*
X81751623Y-101897260D01*
X81644957Y-101639746D01*
X81490103Y-101407990D01*
X81293010Y-101210897D01*
X81061254Y-101056043D01*
X81022523Y-101040000D01*
X81061254Y-101023957D01*
X81293010Y-100869103D01*
X81490103Y-100672010D01*
X81644957Y-100440254D01*
X81751623Y-100182740D01*
X81806000Y-99909365D01*
X81806000Y-99630635D01*
X81766814Y-99433632D01*
X103326247Y-77874200D01*
X112394515Y-77874200D01*
X112286010Y-78036589D01*
X112174068Y-78306842D01*
X112117000Y-78593740D01*
X112117000Y-78886260D01*
X112174068Y-79173158D01*
X112286010Y-79443411D01*
X112448525Y-79686632D01*
X112655368Y-79893475D01*
X112867000Y-80034883D01*
X112867000Y-80417153D01*
X106980650Y-86303504D01*
X106890103Y-86167990D01*
X106693010Y-85970897D01*
X106461254Y-85816043D01*
X106422523Y-85800000D01*
X106461254Y-85783957D01*
X106693010Y-85629103D01*
X106890103Y-85432010D01*
X107044957Y-85200254D01*
X107151623Y-84942740D01*
X107206000Y-84669365D01*
X107206000Y-84390635D01*
X107151623Y-84117260D01*
X107044957Y-83859746D01*
X106890103Y-83627990D01*
X106693010Y-83430897D01*
X106461254Y-83276043D01*
X106422523Y-83260000D01*
X106461254Y-83243957D01*
X106693010Y-83089103D01*
X106890103Y-82892010D01*
X107044957Y-82660254D01*
X107151623Y-82402740D01*
X107206000Y-82129365D01*
X107206000Y-81850635D01*
X107151623Y-81577260D01*
X107044957Y-81319746D01*
X106890103Y-81087990D01*
X106693010Y-80890897D01*
X106461254Y-80736043D01*
X106422523Y-80720000D01*
X106461254Y-80703957D01*
X106693010Y-80549103D01*
X106890103Y-80352010D01*
X107044957Y-80120254D01*
X107151623Y-79862740D01*
X107206000Y-79589365D01*
X107206000Y-79310635D01*
X107151623Y-79037260D01*
X107044957Y-78779746D01*
X106890103Y-78547990D01*
X106693010Y-78350897D01*
X106461254Y-78196043D01*
X106203740Y-78089377D01*
X105930365Y-78035000D01*
X105651635Y-78035000D01*
X105378260Y-78089377D01*
X105120746Y-78196043D01*
X104888990Y-78350897D01*
X104691897Y-78547990D01*
X104537043Y-78779746D01*
X104430377Y-79037260D01*
X104376000Y-79310635D01*
X104376000Y-79589365D01*
X104430377Y-79862740D01*
X104537043Y-80120254D01*
X104691897Y-80352010D01*
X104888990Y-80549103D01*
X105120746Y-80703957D01*
X105159477Y-80720000D01*
X105120746Y-80736043D01*
X104888990Y-80890897D01*
X104691897Y-81087990D01*
X104537043Y-81319746D01*
X104430377Y-81577260D01*
X104376000Y-81850635D01*
X104376000Y-82129365D01*
X104430377Y-82402740D01*
X104537043Y-82660254D01*
X104691897Y-82892010D01*
X104888990Y-83089103D01*
X105120746Y-83243957D01*
X105159477Y-83260000D01*
X105120746Y-83276043D01*
X104888990Y-83430897D01*
X104691897Y-83627990D01*
X104537043Y-83859746D01*
X104430377Y-84117260D01*
X104376000Y-84390635D01*
X104376000Y-84669365D01*
X104430377Y-84942740D01*
X104537043Y-85200254D01*
X104691897Y-85432010D01*
X104888990Y-85629103D01*
X105120746Y-85783957D01*
X105159477Y-85800000D01*
X105120746Y-85816043D01*
X104888990Y-85970897D01*
X104691897Y-86167990D01*
X104537043Y-86399746D01*
X104430377Y-86657260D01*
X104376000Y-86930635D01*
X104376000Y-87209365D01*
X104430377Y-87482740D01*
X104481171Y-87605367D01*
X104376915Y-87615635D01*
X104238367Y-87657663D01*
X104110680Y-87725913D01*
X103998762Y-87817762D01*
X103975746Y-87845807D01*
X81803396Y-110018158D01*
X81811057Y-109858697D01*
X81769860Y-109583028D01*
X81675675Y-109320692D01*
X81611349Y-109200345D01*
X81369421Y-109131184D01*
X80570605Y-109930000D01*
X80584748Y-109944143D01*
X80405143Y-110123748D01*
X80391000Y-110109605D01*
X79592184Y-110908421D01*
X79661345Y-111150349D01*
X79763279Y-111198425D01*
X79720746Y-111216043D01*
X79488990Y-111370897D01*
X79291897Y-111567990D01*
X79137043Y-111799746D01*
X79030377Y-112057260D01*
X78976000Y-112330635D01*
X78976000Y-112609365D01*
X79030377Y-112882740D01*
X79137043Y-113140254D01*
X79291897Y-113372010D01*
X79488990Y-113569103D01*
X79720746Y-113723957D01*
X79759477Y-113740000D01*
X79720746Y-113756043D01*
X79488990Y-113910897D01*
X79291897Y-114107990D01*
X79137043Y-114339746D01*
X79030377Y-114597260D01*
X78976000Y-114870635D01*
X78976000Y-115149365D01*
X79030377Y-115422740D01*
X79137043Y-115680254D01*
X79291897Y-115912010D01*
X79488990Y-116109103D01*
X79720746Y-116263957D01*
X79759477Y-116280000D01*
X79720746Y-116296043D01*
X79488990Y-116450897D01*
X79291897Y-116647990D01*
X79137043Y-116879746D01*
X79030377Y-117137260D01*
X78976000Y-117410635D01*
X78976000Y-117689365D01*
X79030377Y-117962740D01*
X79137043Y-118220254D01*
X79291897Y-118452010D01*
X79488990Y-118649103D01*
X79720746Y-118803957D01*
X79759477Y-118820000D01*
X79720746Y-118836043D01*
X79488990Y-118990897D01*
X79291897Y-119187990D01*
X79137043Y-119419746D01*
X79030377Y-119677260D01*
X78976000Y-119950635D01*
X78976000Y-120229365D01*
X79030377Y-120502740D01*
X79137043Y-120760254D01*
X79291897Y-120992010D01*
X79488990Y-121189103D01*
X79720746Y-121343957D01*
X79759477Y-121360000D01*
X79720746Y-121376043D01*
X79488990Y-121530897D01*
X79291897Y-121727990D01*
X79137043Y-121959746D01*
X79030377Y-122217260D01*
X78976000Y-122490635D01*
X78976000Y-122769365D01*
X79030377Y-123042740D01*
X79137043Y-123300254D01*
X79291897Y-123532010D01*
X79488990Y-123729103D01*
X79720746Y-123883957D01*
X79756525Y-123898777D01*
X79661345Y-123949651D01*
X79592184Y-124191579D01*
X80391000Y-124990395D01*
X81189816Y-124191579D01*
X81120655Y-123949651D01*
X81018721Y-123901575D01*
X81061254Y-123883957D01*
X81293010Y-123729103D01*
X81490103Y-123532010D01*
X81644957Y-123300254D01*
X81751623Y-123042740D01*
X81806000Y-122769365D01*
X81806000Y-122490635D01*
X81751623Y-122217260D01*
X81644957Y-121959746D01*
X81490103Y-121727990D01*
X81293010Y-121530897D01*
X81061254Y-121376043D01*
X81022523Y-121360000D01*
X81061254Y-121343957D01*
X81293010Y-121189103D01*
X81490103Y-120992010D01*
X81644957Y-120760254D01*
X81751623Y-120502740D01*
X81806000Y-120229365D01*
X81806000Y-119950635D01*
X81766814Y-119753632D01*
X104328098Y-97192349D01*
X104356137Y-97169338D01*
X104376000Y-97145135D01*
X104376000Y-97369365D01*
X104430377Y-97642740D01*
X104537043Y-97900254D01*
X104691897Y-98132010D01*
X104888990Y-98329103D01*
X105120746Y-98483957D01*
X105159477Y-98500000D01*
X105120746Y-98516043D01*
X104888990Y-98670897D01*
X104691897Y-98867990D01*
X104537043Y-99099746D01*
X104430377Y-99357260D01*
X104376000Y-99630635D01*
X104376000Y-99909365D01*
X104430377Y-100182740D01*
X104537043Y-100440254D01*
X104691897Y-100672010D01*
X104888990Y-100869103D01*
X105120746Y-101023957D01*
X105159477Y-101040000D01*
X105120746Y-101056043D01*
X104888990Y-101210897D01*
X104691897Y-101407990D01*
X104537043Y-101639746D01*
X104430377Y-101897260D01*
X104376000Y-102170635D01*
X104376000Y-102449365D01*
X104430377Y-102722740D01*
X104537043Y-102980254D01*
X104691897Y-103212010D01*
X104888990Y-103409103D01*
X105120746Y-103563957D01*
X105159477Y-103580000D01*
X105120746Y-103596043D01*
X104888990Y-103750897D01*
X104691897Y-103947990D01*
X104537043Y-104179746D01*
X104430377Y-104437260D01*
X104376000Y-104710635D01*
X104376000Y-104989365D01*
X104430377Y-105262740D01*
X104537043Y-105520254D01*
X104691897Y-105752010D01*
X104888990Y-105949103D01*
X105120746Y-106103957D01*
X105159477Y-106120000D01*
X105120746Y-106136043D01*
X104888990Y-106290897D01*
X104691897Y-106487990D01*
X104537043Y-106719746D01*
X104430377Y-106977260D01*
X104376000Y-107250635D01*
X104376000Y-107529365D01*
X104430377Y-107802740D01*
X104537043Y-108060254D01*
X104691897Y-108292010D01*
X104888990Y-108489103D01*
X105120746Y-108643957D01*
X105159477Y-108660000D01*
X105120746Y-108676043D01*
X104888990Y-108830897D01*
X104691897Y-109027990D01*
X104537043Y-109259746D01*
X104430377Y-109517260D01*
X104376000Y-109790635D01*
X104376000Y-110069365D01*
X104430377Y-110342740D01*
X104537043Y-110600254D01*
X104691897Y-110832010D01*
X104888990Y-111029103D01*
X105120746Y-111183957D01*
X105159477Y-111200000D01*
X105120746Y-111216043D01*
X104888990Y-111370897D01*
X104691897Y-111567990D01*
X104537043Y-111799746D01*
X104430377Y-112057260D01*
X104376000Y-112330635D01*
X104376000Y-112609365D01*
X104430377Y-112882740D01*
X104537043Y-113140254D01*
X104691897Y-113372010D01*
X104888990Y-113569103D01*
X105120746Y-113723957D01*
X105159477Y-113740000D01*
X105120746Y-113756043D01*
X104888990Y-113910897D01*
X104691897Y-114107990D01*
X104537043Y-114339746D01*
X104430377Y-114597260D01*
X104376000Y-114870635D01*
X104376000Y-115149365D01*
X104430377Y-115422740D01*
X104537043Y-115680254D01*
X104691897Y-115912010D01*
X104888990Y-116109103D01*
X105120746Y-116263957D01*
X105159477Y-116280000D01*
X105120746Y-116296043D01*
X104888990Y-116450897D01*
X104691897Y-116647990D01*
X104537043Y-116879746D01*
X104430377Y-117137260D01*
X104376000Y-117410635D01*
X104376000Y-117689365D01*
X104430377Y-117962740D01*
X104537043Y-118220254D01*
X104691897Y-118452010D01*
X104888990Y-118649103D01*
X105120746Y-118803957D01*
X105159477Y-118820000D01*
X105120746Y-118836043D01*
X104888990Y-118990897D01*
X104691897Y-119187990D01*
X104537043Y-119419746D01*
X104430377Y-119677260D01*
X104376000Y-119950635D01*
X104376000Y-120229365D01*
X104430377Y-120502740D01*
X104537043Y-120760254D01*
X104691897Y-120992010D01*
X104888990Y-121189103D01*
X105120746Y-121343957D01*
X105159477Y-121360000D01*
X105120746Y-121376043D01*
X104888990Y-121530897D01*
X104691897Y-121727990D01*
X104537043Y-121959746D01*
X104430377Y-122217260D01*
X104376000Y-122490635D01*
X104376000Y-122769365D01*
X104430377Y-123042740D01*
X104537043Y-123300254D01*
X104691897Y-123532010D01*
X104888990Y-123729103D01*
X104934436Y-123759469D01*
X104886518Y-123764188D01*
X104766820Y-123800498D01*
X104656506Y-123859463D01*
X104559815Y-123938815D01*
X104480463Y-124035506D01*
X104421498Y-124145820D01*
X104385188Y-124265518D01*
X104372928Y-124390000D01*
X104372928Y-125950000D01*
X104385188Y-126074482D01*
X104396266Y-126111000D01*
X81459926Y-126111000D01*
X81485767Y-126085159D01*
X81369423Y-125968815D01*
X81611349Y-125899655D01*
X81730248Y-125647557D01*
X81797681Y-125377106D01*
X81811057Y-125098697D01*
X81769860Y-124823028D01*
X81675675Y-124560692D01*
X81611349Y-124440345D01*
X81369421Y-124371184D01*
X80570605Y-125170000D01*
X80584748Y-125184143D01*
X80405143Y-125363748D01*
X80391000Y-125349605D01*
X80376858Y-125363748D01*
X80197253Y-125184143D01*
X80211395Y-125170000D01*
X79412579Y-124371184D01*
X79170651Y-124440345D01*
X79051752Y-124692443D01*
X78984319Y-124962894D01*
X78970943Y-125241303D01*
X79012140Y-125516972D01*
X79106325Y-125779308D01*
X79170651Y-125899655D01*
X79412577Y-125968815D01*
X79296233Y-126085159D01*
X79322074Y-126111000D01*
X79121000Y-126111000D01*
X79096224Y-126113440D01*
X79072399Y-126120667D01*
X79050443Y-126132403D01*
X79031197Y-126148197D01*
X79015403Y-126167443D01*
X79003667Y-126189399D01*
X78996440Y-126213224D01*
X78994000Y-126238000D01*
X78994000Y-126315000D01*
X72614606Y-126315000D01*
X71805000Y-125505394D01*
X71805000Y-124966349D01*
X73333256Y-124966349D01*
X73537362Y-125322867D01*
X73980223Y-125553575D01*
X74459583Y-125693452D01*
X74957021Y-125737123D01*
X75453422Y-125682909D01*
X75929707Y-125532894D01*
X76322638Y-125322867D01*
X76526744Y-124966349D01*
X74930000Y-123369605D01*
X73333256Y-124966349D01*
X71805000Y-124966349D01*
X71805000Y-123217021D01*
X72382877Y-123217021D01*
X72437091Y-123713422D01*
X72587106Y-124189707D01*
X72797133Y-124582638D01*
X73153651Y-124786744D01*
X74750395Y-123190000D01*
X75109605Y-123190000D01*
X76706349Y-124786744D01*
X77062867Y-124582638D01*
X77293575Y-124139777D01*
X77433452Y-123660417D01*
X77477123Y-123162979D01*
X77422909Y-122666578D01*
X77272894Y-122190293D01*
X77062867Y-121797362D01*
X76706349Y-121593256D01*
X75109605Y-123190000D01*
X74750395Y-123190000D01*
X73153651Y-121593256D01*
X72797133Y-121797362D01*
X72566425Y-122240223D01*
X72426548Y-122719583D01*
X72382877Y-123217021D01*
X71805000Y-123217021D01*
X71805000Y-121413651D01*
X73333256Y-121413651D01*
X74930000Y-123010395D01*
X76526744Y-121413651D01*
X76322638Y-121057133D01*
X75879777Y-120826425D01*
X75400417Y-120686548D01*
X74902979Y-120642877D01*
X74406578Y-120697091D01*
X73930293Y-120847106D01*
X73537362Y-121057133D01*
X73333256Y-121413651D01*
X71805000Y-121413651D01*
X71805000Y-110001303D01*
X78970943Y-110001303D01*
X79012140Y-110276972D01*
X79106325Y-110539308D01*
X79170651Y-110659655D01*
X79412579Y-110728816D01*
X80211395Y-109930000D01*
X79412579Y-109131184D01*
X79170651Y-109200345D01*
X79051752Y-109452443D01*
X78984319Y-109722894D01*
X78970943Y-110001303D01*
X71805000Y-110001303D01*
X71805000Y-79246349D01*
X73333256Y-79246349D01*
X73537362Y-79602867D01*
X73980223Y-79833575D01*
X74459583Y-79973452D01*
X74957021Y-80017123D01*
X75453422Y-79962909D01*
X75929707Y-79812894D01*
X76322638Y-79602867D01*
X76526744Y-79246349D01*
X74930000Y-77649605D01*
X73333256Y-79246349D01*
X71805000Y-79246349D01*
X71805000Y-77497021D01*
X72382877Y-77497021D01*
X72437091Y-77993422D01*
X72587106Y-78469707D01*
X72797133Y-78862638D01*
X73153651Y-79066744D01*
X74750395Y-77470000D01*
X75109605Y-77470000D01*
X76706349Y-79066744D01*
X77062867Y-78862638D01*
X77293575Y-78419777D01*
X77433452Y-77940417D01*
X77477123Y-77442979D01*
X77422909Y-76946578D01*
X77272894Y-76470293D01*
X77062867Y-76077362D01*
X76706349Y-75873256D01*
X75109605Y-77470000D01*
X74750395Y-77470000D01*
X73153651Y-75873256D01*
X72797133Y-76077362D01*
X72566425Y-76520223D01*
X72426548Y-76999583D01*
X72382877Y-77497021D01*
X71805000Y-77497021D01*
X71805000Y-75693651D01*
X73333256Y-75693651D01*
X74930000Y-77290395D01*
X76526744Y-75693651D01*
X76322638Y-75337133D01*
X75879777Y-75106425D01*
X75400417Y-74966548D01*
X74902979Y-74922877D01*
X74406578Y-74977091D01*
X73930293Y-75127106D01*
X73537362Y-75337133D01*
X73333256Y-75693651D01*
X71805000Y-75693651D01*
X71805000Y-75154606D01*
X72614606Y-74345000D01*
X159795394Y-74345000D01*
X160605000Y-75154606D01*
G36*
X142014363Y-78003759D02*
G01*
X142214241Y-78203637D01*
X142394001Y-78323748D01*
X142394000Y-79767195D01*
X142390444Y-79803300D01*
X142404350Y-79944494D01*
X142404635Y-79947384D01*
X142446663Y-80085932D01*
X142514913Y-80213619D01*
X142606762Y-80325537D01*
X142634808Y-80348554D01*
X146346446Y-84060193D01*
X146369462Y-84088238D01*
X146481380Y-84180087D01*
X146609067Y-84248337D01*
X146747615Y-84290365D01*
X146762009Y-84291783D01*
X146842788Y-84390212D01*
X147019421Y-84535171D01*
X147220940Y-84642885D01*
X147439600Y-84709215D01*
X147462911Y-84711511D01*
X147232951Y-84941471D01*
X147199184Y-84969183D01*
X147171471Y-85002951D01*
X147171468Y-85002954D01*
X147088590Y-85103941D01*
X147006412Y-85257687D01*
X146955805Y-85424510D01*
X146938719Y-85598000D01*
X146943001Y-85641479D01*
X146943000Y-90311421D01*
X144589922Y-92664500D01*
X138141465Y-92664500D01*
X138097999Y-92660219D01*
X138054533Y-92664500D01*
X138054523Y-92664500D01*
X138019395Y-92667960D01*
X138028217Y-92488988D01*
X137986787Y-92209370D01*
X137891603Y-91943208D01*
X137824671Y-91817986D01*
X137580702Y-91746403D01*
X136767605Y-92559500D01*
X136781748Y-92573643D01*
X136602143Y-92753248D01*
X136588000Y-92739105D01*
X135774903Y-93552202D01*
X135846486Y-93796171D01*
X135875341Y-93809824D01*
X135673241Y-93944863D01*
X135473363Y-94144741D01*
X135316320Y-94379773D01*
X135208147Y-94640926D01*
X135153000Y-94918165D01*
X135153000Y-95200835D01*
X135159983Y-95235939D01*
X133935422Y-96460500D01*
X133388621Y-96460500D01*
X133355502Y-96351320D01*
X133296537Y-96241006D01*
X133217185Y-96144315D01*
X133120494Y-96064963D01*
X133010180Y-96005998D01*
X132890482Y-95969688D01*
X132782517Y-95959055D01*
X132898886Y-95881299D01*
X133091799Y-95688386D01*
X133243371Y-95461543D01*
X133347775Y-95209489D01*
X133401000Y-94941911D01*
X133401000Y-94669089D01*
X133347775Y-94401511D01*
X133243371Y-94149457D01*
X133091799Y-93922614D01*
X132898886Y-93729701D01*
X132672043Y-93578129D01*
X132569127Y-93535500D01*
X132672043Y-93492871D01*
X132898886Y-93341299D01*
X133091799Y-93148386D01*
X133243371Y-92921543D01*
X133347775Y-92669489D01*
X133355627Y-92630012D01*
X135147783Y-92630012D01*
X135189213Y-92909630D01*
X135284397Y-93175792D01*
X135351329Y-93301014D01*
X135595298Y-93372597D01*
X136408395Y-92559500D01*
X135595298Y-91746403D01*
X135351329Y-91817986D01*
X135230429Y-92073496D01*
X135161700Y-92347684D01*
X135147783Y-92630012D01*
X133355627Y-92630012D01*
X133401000Y-92401911D01*
X133401000Y-92129089D01*
X133347775Y-91861511D01*
X133243371Y-91609457D01*
X133214868Y-91566798D01*
X135774903Y-91566798D01*
X136588000Y-92379895D01*
X137401097Y-91566798D01*
X137329514Y-91322829D01*
X137074004Y-91201929D01*
X136799816Y-91133200D01*
X136517488Y-91119283D01*
X136237870Y-91160713D01*
X135971708Y-91255897D01*
X135846486Y-91322829D01*
X135774903Y-91566798D01*
X133214868Y-91566798D01*
X133091799Y-91382614D01*
X132898886Y-91189701D01*
X132672043Y-91038129D01*
X132572721Y-90996989D01*
X132614832Y-90981777D01*
X132727863Y-90921360D01*
X132793388Y-90682493D01*
X132016000Y-89905105D01*
X131238612Y-90682493D01*
X131304137Y-90921360D01*
X131462477Y-90995664D01*
X131359957Y-91038129D01*
X131133114Y-91189701D01*
X130940201Y-91382614D01*
X130788629Y-91609457D01*
X130684225Y-91861511D01*
X130631000Y-92129089D01*
X130631000Y-92401911D01*
X130684225Y-92669489D01*
X130788629Y-92921543D01*
X130940201Y-93148386D01*
X131133114Y-93341299D01*
X131359957Y-93492871D01*
X131462873Y-93535500D01*
X131359957Y-93578129D01*
X131133114Y-93729701D01*
X130940201Y-93922614D01*
X130841387Y-94070500D01*
X126878905Y-94070500D01*
X126842800Y-94066944D01*
X126806695Y-94070500D01*
X126698715Y-94081135D01*
X126560167Y-94123163D01*
X126432480Y-94191413D01*
X126320562Y-94283262D01*
X126297546Y-94311307D01*
X118558125Y-102050729D01*
X118452759Y-101945363D01*
X118217727Y-101788320D01*
X117956574Y-101680147D01*
X117679335Y-101625000D01*
X117396665Y-101625000D01*
X117119426Y-101680147D01*
X116858273Y-101788320D01*
X116623241Y-101945363D01*
X116423363Y-102145241D01*
X116266320Y-102380273D01*
X116158147Y-102641426D01*
X116103000Y-102918665D01*
X116103000Y-103201335D01*
X116158147Y-103478574D01*
X116266320Y-103739727D01*
X116423363Y-103974759D01*
X116623241Y-104174637D01*
X116858273Y-104331680D01*
X117119426Y-104439853D01*
X117396665Y-104495000D01*
X117679335Y-104495000D01*
X117956574Y-104439853D01*
X118217727Y-104331680D01*
X118452759Y-104174637D01*
X118652637Y-103974759D01*
X118791921Y-103766305D01*
X118870933Y-103742337D01*
X118998620Y-103674087D01*
X119110538Y-103582238D01*
X119133559Y-103554187D01*
X127147247Y-95540500D01*
X130841387Y-95540500D01*
X130940201Y-95688386D01*
X131133114Y-95881299D01*
X131249483Y-95959055D01*
X131141518Y-95969688D01*
X131021820Y-96005998D01*
X130911506Y-96064963D01*
X130814815Y-96144315D01*
X130735463Y-96241006D01*
X130676498Y-96351320D01*
X130643379Y-96460500D01*
X127487965Y-96460500D01*
X127444499Y-96456219D01*
X127401033Y-96460500D01*
X127401023Y-96460500D01*
X127271010Y-96473305D01*
X127104187Y-96523911D01*
X126950441Y-96606089D01*
X126950439Y-96606090D01*
X126950440Y-96606090D01*
X126849453Y-96688968D01*
X126849451Y-96688970D01*
X126815683Y-96716683D01*
X126787970Y-96750451D01*
X124562951Y-98975471D01*
X124529184Y-99003183D01*
X124501471Y-99036951D01*
X124501468Y-99036954D01*
X124418590Y-99137941D01*
X124336412Y-99291687D01*
X124285805Y-99458510D01*
X124268719Y-99632000D01*
X124273001Y-99675479D01*
X124273000Y-101925478D01*
X124243241Y-101945363D01*
X124043363Y-102145241D01*
X123886320Y-102380273D01*
X123778147Y-102641426D01*
X123773914Y-102662707D01*
X107369452Y-119067170D01*
X107335684Y-119094883D01*
X107307971Y-119128651D01*
X107307968Y-119128654D01*
X107225090Y-119229641D01*
X107142912Y-119383387D01*
X107095134Y-119540884D01*
X107044957Y-119419746D01*
X106890103Y-119187990D01*
X106693010Y-118990897D01*
X106461254Y-118836043D01*
X106422523Y-118820000D01*
X106461254Y-118803957D01*
X106693010Y-118649103D01*
X106890103Y-118452010D01*
X107044957Y-118220254D01*
X107151623Y-117962740D01*
X107206000Y-117689365D01*
X107206000Y-117410635D01*
X107151623Y-117137260D01*
X107044957Y-116879746D01*
X106890103Y-116647990D01*
X106693010Y-116450897D01*
X106461254Y-116296043D01*
X106422523Y-116280000D01*
X106461254Y-116263957D01*
X106693010Y-116109103D01*
X106890103Y-115912010D01*
X107044957Y-115680254D01*
X107151623Y-115422740D01*
X107206000Y-115149365D01*
X107206000Y-114870635D01*
X107151623Y-114597260D01*
X107044957Y-114339746D01*
X106890103Y-114107990D01*
X106693010Y-113910897D01*
X106461254Y-113756043D01*
X106422523Y-113740000D01*
X106461254Y-113723957D01*
X106693010Y-113569103D01*
X106890103Y-113372010D01*
X107044957Y-113140254D01*
X107151623Y-112882740D01*
X107206000Y-112609365D01*
X107206000Y-112330635D01*
X107151623Y-112057260D01*
X107044957Y-111799746D01*
X106890103Y-111567990D01*
X106693010Y-111370897D01*
X106461254Y-111216043D01*
X106422523Y-111200000D01*
X106461254Y-111183957D01*
X106693010Y-111029103D01*
X106890103Y-110832010D01*
X107044957Y-110600254D01*
X107151623Y-110342740D01*
X107206000Y-110069365D01*
X107206000Y-109790635D01*
X107151623Y-109517260D01*
X107044957Y-109259746D01*
X106890103Y-109027990D01*
X106693010Y-108830897D01*
X106461254Y-108676043D01*
X106422523Y-108660000D01*
X106461254Y-108643957D01*
X106693010Y-108489103D01*
X106890103Y-108292010D01*
X107044957Y-108060254D01*
X107151623Y-107802740D01*
X107206000Y-107529365D01*
X107206000Y-107250635D01*
X107151623Y-106977260D01*
X107044957Y-106719746D01*
X106890103Y-106487990D01*
X106693010Y-106290897D01*
X106461254Y-106136043D01*
X106422523Y-106120000D01*
X106461254Y-106103957D01*
X106693010Y-105949103D01*
X106890103Y-105752010D01*
X107044957Y-105520254D01*
X107151623Y-105262740D01*
X107206000Y-104989365D01*
X107206000Y-104710635D01*
X107151623Y-104437260D01*
X107044957Y-104179746D01*
X106890103Y-103947990D01*
X106693010Y-103750897D01*
X106461254Y-103596043D01*
X106422523Y-103580000D01*
X106461254Y-103563957D01*
X106693010Y-103409103D01*
X106890103Y-103212010D01*
X107044957Y-102980254D01*
X107151623Y-102722740D01*
X107206000Y-102449365D01*
X107206000Y-102170635D01*
X107151623Y-101897260D01*
X107044957Y-101639746D01*
X106890103Y-101407990D01*
X106693010Y-101210897D01*
X106461254Y-101056043D01*
X106422523Y-101040000D01*
X106461254Y-101023957D01*
X106693010Y-100869103D01*
X106890103Y-100672010D01*
X107044957Y-100440254D01*
X107151623Y-100182740D01*
X107206000Y-99909365D01*
X107206000Y-99630635D01*
X107151623Y-99357260D01*
X107044957Y-99099746D01*
X106890103Y-98867990D01*
X106693010Y-98670897D01*
X106461254Y-98516043D01*
X106422523Y-98500000D01*
X106461254Y-98483957D01*
X106693010Y-98329103D01*
X106890103Y-98132010D01*
X107044957Y-97900254D01*
X107151623Y-97642740D01*
X107206000Y-97369365D01*
X107206000Y-97090635D01*
X107151623Y-96817260D01*
X107044957Y-96559746D01*
X106890103Y-96327990D01*
X106693010Y-96130897D01*
X106461254Y-95976043D01*
X106422523Y-95960000D01*
X106461254Y-95943957D01*
X106693010Y-95789103D01*
X106890103Y-95592010D01*
X107044957Y-95360254D01*
X107151623Y-95102740D01*
X107206000Y-94829365D01*
X107206000Y-94550635D01*
X107151623Y-94277260D01*
X107044957Y-94019746D01*
X106890103Y-93787990D01*
X106693010Y-93590897D01*
X106461254Y-93436043D01*
X106425475Y-93421223D01*
X106520655Y-93370349D01*
X106589816Y-93128421D01*
X105791000Y-92329605D01*
X104992184Y-93128421D01*
X105061345Y-93370349D01*
X105163279Y-93418425D01*
X105120746Y-93436043D01*
X104888990Y-93590897D01*
X104691897Y-93787990D01*
X104568900Y-93972069D01*
X104568900Y-92876379D01*
X104570651Y-92879655D01*
X104812579Y-92948816D01*
X105611395Y-92150000D01*
X105970605Y-92150000D01*
X106769421Y-92948816D01*
X107011349Y-92879655D01*
X107130248Y-92627557D01*
X107197681Y-92357106D01*
X107211057Y-92078697D01*
X107169860Y-91803028D01*
X107075675Y-91540692D01*
X107011349Y-91420345D01*
X106769421Y-91351184D01*
X105970605Y-92150000D01*
X105611395Y-92150000D01*
X105597253Y-92135858D01*
X105776858Y-91956253D01*
X105791000Y-91970395D01*
X106246259Y-91515136D01*
X106364933Y-91479137D01*
X106492620Y-91410887D01*
X106604538Y-91319038D01*
X106627559Y-91290987D01*
X108120554Y-89797992D01*
X130626188Y-89797992D01*
X130667035Y-90067738D01*
X130759723Y-90324332D01*
X130820140Y-90437363D01*
X131059007Y-90502888D01*
X131836395Y-89725500D01*
X132195605Y-89725500D01*
X132972993Y-90502888D01*
X133211860Y-90437363D01*
X133327760Y-90190384D01*
X133393250Y-89925540D01*
X133405812Y-89653008D01*
X133364965Y-89383262D01*
X133272277Y-89126668D01*
X133211860Y-89013637D01*
X132972993Y-88948112D01*
X132195605Y-89725500D01*
X131836395Y-89725500D01*
X131059007Y-88948112D01*
X130820140Y-89013637D01*
X130704240Y-89260616D01*
X130638750Y-89525460D01*
X130626188Y-89797992D01*
X108120554Y-89797992D01*
X109150039Y-88768507D01*
X131238612Y-88768507D01*
X132016000Y-89545895D01*
X132793388Y-88768507D01*
X132727863Y-88529640D01*
X132480884Y-88413740D01*
X132216040Y-88348250D01*
X131943508Y-88335688D01*
X131673762Y-88376535D01*
X131417168Y-88469223D01*
X131304137Y-88529640D01*
X131238612Y-88768507D01*
X109150039Y-88768507D01*
X110366381Y-87552165D01*
X141631000Y-87552165D01*
X141631000Y-87834835D01*
X141686147Y-88112074D01*
X141794320Y-88373227D01*
X141951363Y-88608259D01*
X142151241Y-88808137D01*
X142386273Y-88965180D01*
X142647426Y-89073353D01*
X142924665Y-89128500D01*
X143207335Y-89128500D01*
X143484574Y-89073353D01*
X143745727Y-88965180D01*
X143980759Y-88808137D01*
X144180637Y-88608259D01*
X144337680Y-88373227D01*
X144445853Y-88112074D01*
X144501000Y-87834835D01*
X144501000Y-87552165D01*
X144445853Y-87274926D01*
X144337680Y-87013773D01*
X144180637Y-86778741D01*
X143980759Y-86578863D01*
X143745727Y-86421820D01*
X143484574Y-86313647D01*
X143207335Y-86258500D01*
X142924665Y-86258500D01*
X142647426Y-86313647D01*
X142386273Y-86421820D01*
X142151241Y-86578863D01*
X141951363Y-86778741D01*
X141794320Y-87013773D01*
X141686147Y-87274926D01*
X141631000Y-87552165D01*
X110366381Y-87552165D01*
X116636198Y-81282349D01*
X116664237Y-81259338D01*
X116687250Y-81231297D01*
X116687253Y-81231294D01*
X116756086Y-81147421D01*
X116756087Y-81147420D01*
X116824337Y-81019733D01*
X116866365Y-80881185D01*
X116877000Y-80773205D01*
X116877000Y-80773198D01*
X116880555Y-80737101D01*
X116877000Y-80701004D01*
X116877000Y-80034883D01*
X117088632Y-79893475D01*
X117295475Y-79686632D01*
X117417195Y-79504466D01*
X117486822Y-79621355D01*
X117681731Y-79837588D01*
X117915080Y-80011641D01*
X118177901Y-80136825D01*
X118325110Y-80181476D01*
X118555000Y-80060155D01*
X118555000Y-78867000D01*
X118535000Y-78867000D01*
X118535000Y-78613000D01*
X118555000Y-78613000D01*
X118555000Y-78593000D01*
X118809000Y-78593000D01*
X118809000Y-78613000D01*
X118829000Y-78613000D01*
X118829000Y-78867000D01*
X118809000Y-78867000D01*
X118809000Y-80060155D01*
X119038890Y-80181476D01*
X119186099Y-80136825D01*
X119448920Y-80011641D01*
X119682269Y-79837588D01*
X119758034Y-79753534D01*
X119782498Y-79834180D01*
X119841463Y-79944494D01*
X119920815Y-80041185D01*
X120017506Y-80120537D01*
X120127820Y-80179502D01*
X120247518Y-80215812D01*
X120372000Y-80228072D01*
X122072000Y-80228072D01*
X122196482Y-80215812D01*
X122316180Y-80179502D01*
X122426494Y-80120537D01*
X122523185Y-80041185D01*
X122590222Y-79959500D01*
X123366070Y-80735349D01*
X123393783Y-80769117D01*
X123427551Y-80796830D01*
X123427553Y-80796832D01*
X123499052Y-80855510D01*
X123528541Y-80879711D01*
X123682287Y-80961889D01*
X123849110Y-81012495D01*
X123979123Y-81025300D01*
X123979133Y-81025300D01*
X124022599Y-81029581D01*
X124066065Y-81025300D01*
X135716231Y-81025300D01*
X135759700Y-81029581D01*
X135803169Y-81025300D01*
X135803177Y-81025300D01*
X135933190Y-81012495D01*
X136100013Y-80961889D01*
X136253759Y-80879711D01*
X136388517Y-80769117D01*
X136416234Y-80735344D01*
X136923506Y-80228072D01*
X138010000Y-80228072D01*
X138134482Y-80215812D01*
X138254180Y-80179502D01*
X138364494Y-80120537D01*
X138461185Y-80041185D01*
X138540537Y-79944494D01*
X138599502Y-79834180D01*
X138635812Y-79714482D01*
X138648072Y-79590000D01*
X138648072Y-77890000D01*
X138646516Y-77874200D01*
X141927795Y-77874200D01*
X142014363Y-78003759D01*
G37*
X142014363Y-78003759D02*
X142214241Y-78203637D01*
X142394001Y-78323748D01*
X142394000Y-79767195D01*
X142390444Y-79803300D01*
X142404350Y-79944494D01*
X142404635Y-79947384D01*
X142446663Y-80085932D01*
X142514913Y-80213619D01*
X142606762Y-80325537D01*
X142634808Y-80348554D01*
X146346446Y-84060193D01*
X146369462Y-84088238D01*
X146481380Y-84180087D01*
X146609067Y-84248337D01*
X146747615Y-84290365D01*
X146762009Y-84291783D01*
X146842788Y-84390212D01*
X147019421Y-84535171D01*
X147220940Y-84642885D01*
X147439600Y-84709215D01*
X147462911Y-84711511D01*
X147232951Y-84941471D01*
X147199184Y-84969183D01*
X147171471Y-85002951D01*
X147171468Y-85002954D01*
X147088590Y-85103941D01*
X147006412Y-85257687D01*
X146955805Y-85424510D01*
X146938719Y-85598000D01*
X146943001Y-85641479D01*
X146943000Y-90311421D01*
X144589922Y-92664500D01*
X138141465Y-92664500D01*
X138097999Y-92660219D01*
X138054533Y-92664500D01*
X138054523Y-92664500D01*
X138019395Y-92667960D01*
X138028217Y-92488988D01*
X137986787Y-92209370D01*
X137891603Y-91943208D01*
X137824671Y-91817986D01*
X137580702Y-91746403D01*
X136767605Y-92559500D01*
X136781748Y-92573643D01*
X136602143Y-92753248D01*
X136588000Y-92739105D01*
X135774903Y-93552202D01*
X135846486Y-93796171D01*
X135875341Y-93809824D01*
X135673241Y-93944863D01*
X135473363Y-94144741D01*
X135316320Y-94379773D01*
X135208147Y-94640926D01*
X135153000Y-94918165D01*
X135153000Y-95200835D01*
X135159983Y-95235939D01*
X133935422Y-96460500D01*
X133388621Y-96460500D01*
X133355502Y-96351320D01*
X133296537Y-96241006D01*
X133217185Y-96144315D01*
X133120494Y-96064963D01*
X133010180Y-96005998D01*
X132890482Y-95969688D01*
X132782517Y-95959055D01*
X132898886Y-95881299D01*
X133091799Y-95688386D01*
X133243371Y-95461543D01*
X133347775Y-95209489D01*
X133401000Y-94941911D01*
X133401000Y-94669089D01*
X133347775Y-94401511D01*
X133243371Y-94149457D01*
X133091799Y-93922614D01*
X132898886Y-93729701D01*
X132672043Y-93578129D01*
X132569127Y-93535500D01*
X132672043Y-93492871D01*
X132898886Y-93341299D01*
X133091799Y-93148386D01*
X133243371Y-92921543D01*
X133347775Y-92669489D01*
X133355627Y-92630012D01*
X135147783Y-92630012D01*
X135189213Y-92909630D01*
X135284397Y-93175792D01*
X135351329Y-93301014D01*
X135595298Y-93372597D01*
X136408395Y-92559500D01*
X135595298Y-91746403D01*
X135351329Y-91817986D01*
X135230429Y-92073496D01*
X135161700Y-92347684D01*
X135147783Y-92630012D01*
X133355627Y-92630012D01*
X133401000Y-92401911D01*
X133401000Y-92129089D01*
X133347775Y-91861511D01*
X133243371Y-91609457D01*
X133214868Y-91566798D01*
X135774903Y-91566798D01*
X136588000Y-92379895D01*
X137401097Y-91566798D01*
X137329514Y-91322829D01*
X137074004Y-91201929D01*
X136799816Y-91133200D01*
X136517488Y-91119283D01*
X136237870Y-91160713D01*
X135971708Y-91255897D01*
X135846486Y-91322829D01*
X135774903Y-91566798D01*
X133214868Y-91566798D01*
X133091799Y-91382614D01*
X132898886Y-91189701D01*
X132672043Y-91038129D01*
X132572721Y-90996989D01*
X132614832Y-90981777D01*
X132727863Y-90921360D01*
X132793388Y-90682493D01*
X132016000Y-89905105D01*
X131238612Y-90682493D01*
X131304137Y-90921360D01*
X131462477Y-90995664D01*
X131359957Y-91038129D01*
X131133114Y-91189701D01*
X130940201Y-91382614D01*
X130788629Y-91609457D01*
X130684225Y-91861511D01*
X130631000Y-92129089D01*
X130631000Y-92401911D01*
X130684225Y-92669489D01*
X130788629Y-92921543D01*
X130940201Y-93148386D01*
X131133114Y-93341299D01*
X131359957Y-93492871D01*
X131462873Y-93535500D01*
X131359957Y-93578129D01*
X131133114Y-93729701D01*
X130940201Y-93922614D01*
X130841387Y-94070500D01*
X126878905Y-94070500D01*
X126842800Y-94066944D01*
X126806695Y-94070500D01*
X126698715Y-94081135D01*
X126560167Y-94123163D01*
X126432480Y-94191413D01*
X126320562Y-94283262D01*
X126297546Y-94311307D01*
X118558125Y-102050729D01*
X118452759Y-101945363D01*
X118217727Y-101788320D01*
X117956574Y-101680147D01*
X117679335Y-101625000D01*
X117396665Y-101625000D01*
X117119426Y-101680147D01*
X116858273Y-101788320D01*
X116623241Y-101945363D01*
X116423363Y-102145241D01*
X116266320Y-102380273D01*
X116158147Y-102641426D01*
X116103000Y-102918665D01*
X116103000Y-103201335D01*
X116158147Y-103478574D01*
X116266320Y-103739727D01*
X116423363Y-103974759D01*
X116623241Y-104174637D01*
X116858273Y-104331680D01*
X117119426Y-104439853D01*
X117396665Y-104495000D01*
X117679335Y-104495000D01*
X117956574Y-104439853D01*
X118217727Y-104331680D01*
X118452759Y-104174637D01*
X118652637Y-103974759D01*
X118791921Y-103766305D01*
X118870933Y-103742337D01*
X118998620Y-103674087D01*
X119110538Y-103582238D01*
X119133559Y-103554187D01*
X127147247Y-95540500D01*
X130841387Y-95540500D01*
X130940201Y-95688386D01*
X131133114Y-95881299D01*
X131249483Y-95959055D01*
X131141518Y-95969688D01*
X131021820Y-96005998D01*
X130911506Y-96064963D01*
X130814815Y-96144315D01*
X130735463Y-96241006D01*
X130676498Y-96351320D01*
X130643379Y-96460500D01*
X127487965Y-96460500D01*
X127444499Y-96456219D01*
X127401033Y-96460500D01*
X127401023Y-96460500D01*
X127271010Y-96473305D01*
X127104187Y-96523911D01*
X126950441Y-96606089D01*
X126950439Y-96606090D01*
X126950440Y-96606090D01*
X126849453Y-96688968D01*
X126849451Y-96688970D01*
X126815683Y-96716683D01*
X126787970Y-96750451D01*
X124562951Y-98975471D01*
X124529184Y-99003183D01*
X124501471Y-99036951D01*
X124501468Y-99036954D01*
X124418590Y-99137941D01*
X124336412Y-99291687D01*
X124285805Y-99458510D01*
X124268719Y-99632000D01*
X124273001Y-99675479D01*
X124273000Y-101925478D01*
X124243241Y-101945363D01*
X124043363Y-102145241D01*
X123886320Y-102380273D01*
X123778147Y-102641426D01*
X123773914Y-102662707D01*
X107369452Y-119067170D01*
X107335684Y-119094883D01*
X107307971Y-119128651D01*
X107307968Y-119128654D01*
X107225090Y-119229641D01*
X107142912Y-119383387D01*
X107095134Y-119540884D01*
X107044957Y-119419746D01*
X106890103Y-119187990D01*
X106693010Y-118990897D01*
X106461254Y-118836043D01*
X106422523Y-118820000D01*
X106461254Y-118803957D01*
X106693010Y-118649103D01*
X106890103Y-118452010D01*
X107044957Y-118220254D01*
X107151623Y-117962740D01*
X107206000Y-117689365D01*
X107206000Y-117410635D01*
X107151623Y-117137260D01*
X107044957Y-116879746D01*
X106890103Y-116647990D01*
X106693010Y-116450897D01*
X106461254Y-116296043D01*
X106422523Y-116280000D01*
X106461254Y-116263957D01*
X106693010Y-116109103D01*
X106890103Y-115912010D01*
X107044957Y-115680254D01*
X107151623Y-115422740D01*
X107206000Y-115149365D01*
X107206000Y-114870635D01*
X107151623Y-114597260D01*
X107044957Y-114339746D01*
X106890103Y-114107990D01*
X106693010Y-113910897D01*
X106461254Y-113756043D01*
X106422523Y-113740000D01*
X106461254Y-113723957D01*
X106693010Y-113569103D01*
X106890103Y-113372010D01*
X107044957Y-113140254D01*
X107151623Y-112882740D01*
X107206000Y-112609365D01*
X107206000Y-112330635D01*
X107151623Y-112057260D01*
X107044957Y-111799746D01*
X106890103Y-111567990D01*
X106693010Y-111370897D01*
X106461254Y-111216043D01*
X106422523Y-111200000D01*
X106461254Y-111183957D01*
X106693010Y-111029103D01*
X106890103Y-110832010D01*
X107044957Y-110600254D01*
X107151623Y-110342740D01*
X107206000Y-110069365D01*
X107206000Y-109790635D01*
X107151623Y-109517260D01*
X107044957Y-109259746D01*
X106890103Y-109027990D01*
X106693010Y-108830897D01*
X106461254Y-108676043D01*
X106422523Y-108660000D01*
X106461254Y-108643957D01*
X106693010Y-108489103D01*
X106890103Y-108292010D01*
X107044957Y-108060254D01*
X107151623Y-107802740D01*
X107206000Y-107529365D01*
X107206000Y-107250635D01*
X107151623Y-106977260D01*
X107044957Y-106719746D01*
X106890103Y-106487990D01*
X106693010Y-106290897D01*
X106461254Y-106136043D01*
X106422523Y-106120000D01*
X106461254Y-106103957D01*
X106693010Y-105949103D01*
X106890103Y-105752010D01*
X107044957Y-105520254D01*
X107151623Y-105262740D01*
X107206000Y-104989365D01*
X107206000Y-104710635D01*
X107151623Y-104437260D01*
X107044957Y-104179746D01*
X106890103Y-103947990D01*
X106693010Y-103750897D01*
X106461254Y-103596043D01*
X106422523Y-103580000D01*
X106461254Y-103563957D01*
X106693010Y-103409103D01*
X106890103Y-103212010D01*
X107044957Y-102980254D01*
X107151623Y-102722740D01*
X107206000Y-102449365D01*
X107206000Y-102170635D01*
X107151623Y-101897260D01*
X107044957Y-101639746D01*
X106890103Y-101407990D01*
X106693010Y-101210897D01*
X106461254Y-101056043D01*
X106422523Y-101040000D01*
X106461254Y-101023957D01*
X106693010Y-100869103D01*
X106890103Y-100672010D01*
X107044957Y-100440254D01*
X107151623Y-100182740D01*
X107206000Y-99909365D01*
X107206000Y-99630635D01*
X107151623Y-99357260D01*
X107044957Y-99099746D01*
X106890103Y-98867990D01*
X106693010Y-98670897D01*
X106461254Y-98516043D01*
X106422523Y-98500000D01*
X106461254Y-98483957D01*
X106693010Y-98329103D01*
X106890103Y-98132010D01*
X107044957Y-97900254D01*
X107151623Y-97642740D01*
X107206000Y-97369365D01*
X107206000Y-97090635D01*
X107151623Y-96817260D01*
X107044957Y-96559746D01*
X106890103Y-96327990D01*
X106693010Y-96130897D01*
X106461254Y-95976043D01*
X106422523Y-95960000D01*
X106461254Y-95943957D01*
X106693010Y-95789103D01*
X106890103Y-95592010D01*
X107044957Y-95360254D01*
X107151623Y-95102740D01*
X107206000Y-94829365D01*
X107206000Y-94550635D01*
X107151623Y-94277260D01*
X107044957Y-94019746D01*
X106890103Y-93787990D01*
X106693010Y-93590897D01*
X106461254Y-93436043D01*
X106425475Y-93421223D01*
X106520655Y-93370349D01*
X106589816Y-93128421D01*
X105791000Y-92329605D01*
X104992184Y-93128421D01*
X105061345Y-93370349D01*
X105163279Y-93418425D01*
X105120746Y-93436043D01*
X104888990Y-93590897D01*
X104691897Y-93787990D01*
X104568900Y-93972069D01*
X104568900Y-92876379D01*
X104570651Y-92879655D01*
X104812579Y-92948816D01*
X105611395Y-92150000D01*
X105970605Y-92150000D01*
X106769421Y-92948816D01*
X107011349Y-92879655D01*
X107130248Y-92627557D01*
X107197681Y-92357106D01*
X107211057Y-92078697D01*
X107169860Y-91803028D01*
X107075675Y-91540692D01*
X107011349Y-91420345D01*
X106769421Y-91351184D01*
X105970605Y-92150000D01*
X105611395Y-92150000D01*
X105597253Y-92135858D01*
X105776858Y-91956253D01*
X105791000Y-91970395D01*
X106246259Y-91515136D01*
X106364933Y-91479137D01*
X106492620Y-91410887D01*
X106604538Y-91319038D01*
X106627559Y-91290987D01*
X108120554Y-89797992D01*
X130626188Y-89797992D01*
X130667035Y-90067738D01*
X130759723Y-90324332D01*
X130820140Y-90437363D01*
X131059007Y-90502888D01*
X131836395Y-89725500D01*
X132195605Y-89725500D01*
X132972993Y-90502888D01*
X133211860Y-90437363D01*
X133327760Y-90190384D01*
X133393250Y-89925540D01*
X133405812Y-89653008D01*
X133364965Y-89383262D01*
X133272277Y-89126668D01*
X133211860Y-89013637D01*
X132972993Y-88948112D01*
X132195605Y-89725500D01*
X131836395Y-89725500D01*
X131059007Y-88948112D01*
X130820140Y-89013637D01*
X130704240Y-89260616D01*
X130638750Y-89525460D01*
X130626188Y-89797992D01*
X108120554Y-89797992D01*
X109150039Y-88768507D01*
X131238612Y-88768507D01*
X132016000Y-89545895D01*
X132793388Y-88768507D01*
X132727863Y-88529640D01*
X132480884Y-88413740D01*
X132216040Y-88348250D01*
X131943508Y-88335688D01*
X131673762Y-88376535D01*
X131417168Y-88469223D01*
X131304137Y-88529640D01*
X131238612Y-88768507D01*
X109150039Y-88768507D01*
X110366381Y-87552165D01*
X141631000Y-87552165D01*
X141631000Y-87834835D01*
X141686147Y-88112074D01*
X141794320Y-88373227D01*
X141951363Y-88608259D01*
X142151241Y-88808137D01*
X142386273Y-88965180D01*
X142647426Y-89073353D01*
X142924665Y-89128500D01*
X143207335Y-89128500D01*
X143484574Y-89073353D01*
X143745727Y-88965180D01*
X143980759Y-88808137D01*
X144180637Y-88608259D01*
X144337680Y-88373227D01*
X144445853Y-88112074D01*
X144501000Y-87834835D01*
X144501000Y-87552165D01*
X144445853Y-87274926D01*
X144337680Y-87013773D01*
X144180637Y-86778741D01*
X143980759Y-86578863D01*
X143745727Y-86421820D01*
X143484574Y-86313647D01*
X143207335Y-86258500D01*
X142924665Y-86258500D01*
X142647426Y-86313647D01*
X142386273Y-86421820D01*
X142151241Y-86578863D01*
X141951363Y-86778741D01*
X141794320Y-87013773D01*
X141686147Y-87274926D01*
X141631000Y-87552165D01*
X110366381Y-87552165D01*
X116636198Y-81282349D01*
X116664237Y-81259338D01*
X116687250Y-81231297D01*
X116687253Y-81231294D01*
X116756086Y-81147421D01*
X116756087Y-81147420D01*
X116824337Y-81019733D01*
X116866365Y-80881185D01*
X116877000Y-80773205D01*
X116877000Y-80773198D01*
X116880555Y-80737101D01*
X116877000Y-80701004D01*
X116877000Y-80034883D01*
X117088632Y-79893475D01*
X117295475Y-79686632D01*
X117417195Y-79504466D01*
X117486822Y-79621355D01*
X117681731Y-79837588D01*
X117915080Y-80011641D01*
X118177901Y-80136825D01*
X118325110Y-80181476D01*
X118555000Y-80060155D01*
X118555000Y-78867000D01*
X118535000Y-78867000D01*
X118535000Y-78613000D01*
X118555000Y-78613000D01*
X118555000Y-78593000D01*
X118809000Y-78593000D01*
X118809000Y-78613000D01*
X118829000Y-78613000D01*
X118829000Y-78867000D01*
X118809000Y-78867000D01*
X118809000Y-80060155D01*
X119038890Y-80181476D01*
X119186099Y-80136825D01*
X119448920Y-80011641D01*
X119682269Y-79837588D01*
X119758034Y-79753534D01*
X119782498Y-79834180D01*
X119841463Y-79944494D01*
X119920815Y-80041185D01*
X120017506Y-80120537D01*
X120127820Y-80179502D01*
X120247518Y-80215812D01*
X120372000Y-80228072D01*
X122072000Y-80228072D01*
X122196482Y-80215812D01*
X122316180Y-80179502D01*
X122426494Y-80120537D01*
X122523185Y-80041185D01*
X122590222Y-79959500D01*
X123366070Y-80735349D01*
X123393783Y-80769117D01*
X123427551Y-80796830D01*
X123427553Y-80796832D01*
X123499052Y-80855510D01*
X123528541Y-80879711D01*
X123682287Y-80961889D01*
X123849110Y-81012495D01*
X123979123Y-81025300D01*
X123979133Y-81025300D01*
X124022599Y-81029581D01*
X124066065Y-81025300D01*
X135716231Y-81025300D01*
X135759700Y-81029581D01*
X135803169Y-81025300D01*
X135803177Y-81025300D01*
X135933190Y-81012495D01*
X136100013Y-80961889D01*
X136253759Y-80879711D01*
X136388517Y-80769117D01*
X136416234Y-80735344D01*
X136923506Y-80228072D01*
X138010000Y-80228072D01*
X138134482Y-80215812D01*
X138254180Y-80179502D01*
X138364494Y-80120537D01*
X138461185Y-80041185D01*
X138540537Y-79944494D01*
X138599502Y-79834180D01*
X138635812Y-79714482D01*
X138648072Y-79590000D01*
X138648072Y-77890000D01*
X138646516Y-77874200D01*
X141927795Y-77874200D01*
X142014363Y-78003759D01*
G36*
X134747000Y-78613000D02*
G01*
X134767000Y-78613000D01*
X134767000Y-78867000D01*
X134747000Y-78867000D01*
X134747000Y-78887000D01*
X134493000Y-78887000D01*
X134493000Y-78867000D01*
X134473000Y-78867000D01*
X134473000Y-78613000D01*
X134493000Y-78613000D01*
X134493000Y-78593000D01*
X134747000Y-78593000D01*
X134747000Y-78613000D01*
G37*
X134747000Y-78613000D02*
X134767000Y-78613000D01*
X134767000Y-78867000D01*
X134747000Y-78867000D01*
X134747000Y-78887000D01*
X134493000Y-78887000D01*
X134493000Y-78867000D01*
X134473000Y-78867000D01*
X134473000Y-78613000D01*
X134493000Y-78613000D01*
X134493000Y-78593000D01*
X134747000Y-78593000D01*
X134747000Y-78613000D01*
M02*
