M48
; DRILL file {KiCad (5.1.6)-1} date 07/21/20 12:13:47
; FORMAT={-:-/ absolute / inch / decimal}
; #@! TF.CreationDate,2020-07-21T12:13:47+05:30
; #@! TF.GenerationSoftware,Kicad,Pcbnew,(5.1.6)-1
; #@! TF.FileFunction,Plated,1,2,PTH
FMAT,2
INCH
T1C0.0157
T2C0.0295
T3C0.0315
T4C0.0394
T5C0.0409
T6C0.0866
%
G90
G05
T1
X3.45Y-3.795
T2
X5.82Y-3.96
X5.82Y-4.01
X5.82Y-4.06
X5.8225Y-3.19
X5.8225Y-3.24
X5.8225Y-3.29
T3
X5.3775Y-3.6441
X5.3775Y-3.7425
X5.1975Y-3.5325
X5.1975Y-3.6325
X5.1975Y-3.7325
X5.1975Y-3.8325
X4.6275Y-4.0575
X4.9275Y-4.0575
X5.635Y-3.035
X5.935Y-3.035
X5.6325Y-3.4525
X5.9325Y-3.4525
X5.635Y-3.7975
X5.935Y-3.7975
X5.6375Y-4.225
X5.9375Y-4.225
T4
X6.155Y-3.175
X6.155Y-3.275
X6.155Y-3.375
X4.4725Y-3.1
X4.5725Y-3.1
X4.6725Y-3.1
X4.7725Y-3.1
X6.155Y-3.9275
X6.155Y-4.0275
X6.155Y-4.1275
X5.1Y-3.1
X5.2Y-3.1
X5.3Y-3.1
X5.4Y-3.1
X6.155Y-4.43
X6.155Y-4.53
X6.155Y-4.63
T5
X3.165Y-3.128
X3.165Y-3.228
X3.165Y-3.328
X3.165Y-3.428
X3.165Y-3.528
X3.165Y-3.628
X3.165Y-3.728
X3.165Y-3.828
X3.165Y-3.928
X3.165Y-4.028
X3.165Y-4.128
X3.165Y-4.228
X3.165Y-4.328
X3.165Y-4.428
X3.165Y-4.528
X3.165Y-4.628
X3.165Y-4.728
X3.165Y-4.828
X3.165Y-4.928
X4.165Y-3.128
X4.165Y-3.228
X4.165Y-3.328
X4.165Y-3.428
X4.165Y-3.528
X4.165Y-3.628
X4.165Y-3.728
X4.165Y-3.828
X4.165Y-3.928
X4.165Y-4.028
X4.165Y-4.128
X4.165Y-4.228
X4.165Y-4.328
X4.165Y-4.428
X4.165Y-4.528
X4.165Y-4.628
X4.165Y-4.728
X4.165Y-4.828
X4.165Y-4.928
T6
X6.2Y-4.85
X6.215Y-3.605
X2.95Y-3.05
X2.95Y-4.85
T4
G00X4.4931Y-4.6025
M15
G01X4.5719Y-4.6025
M16
G05
G00X4.4931Y-4.8387
M15
G01X4.5719Y-4.8387
M16
G05
G00X4.7176Y-4.76
M15
G01X4.7176Y-4.6813
M16
G05
T0
M30
