%TF.GenerationSoftware,KiCad,Pcbnew,(5.1.6)-1*%
%TF.CreationDate,2020-09-03T22:55:09+05:30*%
%TF.ProjectId,WeatherStationKit (BareBones),57656174-6865-4725-9374-6174696f6e4b,rev?*%
%TF.SameCoordinates,Original*%
%TF.FileFunction,Copper,L2,Bot*%
%TF.FilePolarity,Positive*%
%FSLAX46Y46*%
G04 Gerber Fmt 4.6, Leading zero omitted, Abs format (unit mm)*
G04 Created by KiCad (PCBNEW (5.1.6)-1) date 2020-09-03 22:55:09*
%MOMM*%
%LPD*%
G01*
G04 APERTURE LIST*
%TA.AperFunction,ComponentPad*%
%ADD10R,3.500000X3.500000*%
%TD*%
%TA.AperFunction,ComponentPad*%
%ADD11R,1.700000X1.700000*%
%TD*%
%TA.AperFunction,ComponentPad*%
%ADD12O,1.700000X1.700000*%
%TD*%
%TA.AperFunction,ComponentPad*%
%ADD13R,1.560000X1.560000*%
%TD*%
%TA.AperFunction,ComponentPad*%
%ADD14C,1.560000*%
%TD*%
%TA.AperFunction,Conductor*%
%ADD15C,0.250000*%
%TD*%
%TA.AperFunction,Conductor*%
%ADD16C,0.254000*%
%TD*%
G04 APERTURE END LIST*
D10*
%TO.P,Barrel Jack,1*%
%TO.N,5V*%
X102870000Y-119380000D03*
%TO.P,Barrel Jack,2*%
%TO.N,GND*%
%TA.AperFunction,ComponentPad*%
G36*
G01*
X110370000Y-118380000D02*
X110370000Y-120380000D01*
G75*
G02*
X109620000Y-121130000I-750000J0D01*
G01*
X108120000Y-121130000D01*
G75*
G02*
X107370000Y-120380000I0J750000D01*
G01*
X107370000Y-118380000D01*
G75*
G02*
X108120000Y-117630000I750000J0D01*
G01*
X109620000Y-117630000D01*
G75*
G02*
X110370000Y-118380000I0J-750000D01*
G01*
G37*
%TD.AperFunction*%
%TO.P,Barrel Jack,3*%
%TO.N,Net-(J2-Pad3)*%
%TA.AperFunction,ComponentPad*%
G36*
G01*
X107620000Y-113805000D02*
X107620000Y-115555000D01*
G75*
G02*
X106745000Y-116430000I-875000J0D01*
G01*
X104995000Y-116430000D01*
G75*
G02*
X104120000Y-115555000I0J875000D01*
G01*
X104120000Y-113805000D01*
G75*
G02*
X104995000Y-112930000I875000J0D01*
G01*
X106745000Y-112930000D01*
G75*
G02*
X107620000Y-113805000I0J-875000D01*
G01*
G37*
%TD.AperFunction*%
%TD*%
D11*
%TO.P,BME280,1*%
%TO.N,3V3*%
X83693000Y-115316000D03*
D12*
%TO.P,BME280,2*%
%TO.N,GND*%
X83693000Y-117856000D03*
%TO.P,BME280,3*%
%TO.N,SCL*%
X83693000Y-120396000D03*
%TO.P,BME280,4*%
%TO.N,SDA*%
X83693000Y-122936000D03*
%TD*%
D13*
%TO.P,ESP32 - Development Board,1*%
%TO.N,3V3*%
X83460000Y-63392600D03*
D14*
%TO.P,ESP32 - Development Board,2*%
%TO.N,Net-(U1-Pad2)*%
X83460000Y-65932600D03*
%TO.P,ESP32 - Development Board,19*%
%TO.N,5V*%
X83460000Y-109112600D03*
%TO.P,ESP32 - Development Board,3*%
%TO.N,Net-(U1-Pad3)*%
X83460000Y-68472600D03*
%TO.P,ESP32 - Development Board,4*%
%TO.N,Net-(U1-Pad4)*%
X83460000Y-71012600D03*
%TO.P,ESP32 - Development Board,5*%
%TO.N,Net-(U1-Pad5)*%
X83460000Y-73552600D03*
%TO.P,ESP32 - Development Board,6*%
%TO.N,Net-(U1-Pad6)*%
X83460000Y-76092600D03*
%TO.P,ESP32 - Development Board,7*%
%TO.N,Net-(U1-Pad7)*%
X83460000Y-78632600D03*
%TO.P,ESP32 - Development Board,8*%
%TO.N,Net-(U1-Pad8)*%
X83460000Y-81172600D03*
%TO.P,ESP32 - Development Board,9*%
%TO.N,Net-(U1-Pad9)*%
X83460000Y-83712600D03*
%TO.P,ESP32 - Development Board,10*%
%TO.N,Net-(U1-Pad10)*%
X83460000Y-86252600D03*
%TO.P,ESP32 - Development Board,11*%
%TO.N,Net-(U1-Pad11)*%
X83460000Y-88792600D03*
%TO.P,ESP32 - Development Board,12*%
%TO.N,Net-(U1-Pad12)*%
X83460000Y-91332600D03*
%TO.P,ESP32 - Development Board,13*%
%TO.N,Net-(U1-Pad13)*%
X83460000Y-93872600D03*
%TO.P,ESP32 - Development Board,14*%
%TO.N,GND*%
X83460000Y-96412600D03*
%TO.P,ESP32 - Development Board,15*%
%TO.N,Net-(U1-Pad15)*%
X83460000Y-98952600D03*
%TO.P,ESP32 - Development Board,16*%
%TO.N,Net-(U1-Pad16)*%
X83460000Y-101492600D03*
%TO.P,ESP32 - Development Board,17*%
%TO.N,Net-(U1-Pad17)*%
X83460000Y-104032600D03*
%TO.P,ESP32 - Development Board,18*%
%TO.N,Net-(U1-Pad18)*%
X83460000Y-106572600D03*
%TO.P,ESP32 - Development Board,20*%
%TO.N,GND*%
X108860000Y-63392600D03*
%TO.P,ESP32 - Development Board,21*%
%TO.N,Net-(U1-Pad21)*%
X108860000Y-65932600D03*
%TO.P,ESP32 - Development Board,22*%
%TO.N,SCL*%
X108860000Y-68472600D03*
%TO.P,ESP32 - Development Board,23*%
%TO.N,Net-(U1-Pad23)*%
X108860000Y-71012600D03*
%TO.P,ESP32 - Development Board,24*%
%TO.N,Net-(U1-Pad24)*%
X108860000Y-73552600D03*
%TO.P,ESP32 - Development Board,25*%
%TO.N,SDA*%
X108860000Y-76092600D03*
%TO.P,ESP32 - Development Board,26*%
%TO.N,GND*%
X108860000Y-78632600D03*
%TO.P,ESP32 - Development Board,27*%
%TO.N,Net-(U1-Pad27)*%
X108860000Y-81172600D03*
%TO.P,ESP32 - Development Board,28*%
%TO.N,Net-(U1-Pad28)*%
X108860000Y-83712600D03*
%TO.P,ESP32 - Development Board,29*%
%TO.N,Net-(U1-Pad29)*%
X108860000Y-86252600D03*
%TO.P,ESP32 - Development Board,30*%
%TO.N,Net-(U1-Pad30)*%
X108860000Y-88792600D03*
%TO.P,ESP32 - Development Board,31*%
%TO.N,Net-(U1-Pad31)*%
X108860000Y-91332600D03*
%TO.P,ESP32 - Development Board,32*%
%TO.N,Net-(U1-Pad32)*%
X108860000Y-93872600D03*
%TO.P,ESP32 - Development Board,33*%
%TO.N,Net-(U1-Pad33)*%
X108860000Y-96412600D03*
%TO.P,ESP32 - Development Board,34*%
%TO.N,Net-(U1-Pad34)*%
X108860000Y-98952600D03*
%TO.P,ESP32 - Development Board,35*%
%TO.N,Net-(U1-Pad35)*%
X108860000Y-101492600D03*
%TO.P,ESP32 - Development Board,36*%
%TO.N,Net-(U1-Pad36)*%
X108860000Y-104032600D03*
%TO.P,ESP32 - Development Board,37*%
%TO.N,Net-(U1-Pad37)*%
X108860000Y-106572600D03*
%TO.P,ESP32 - Development Board,38*%
%TO.N,Net-(U1-Pad38)*%
X108860000Y-109112600D03*
%TD*%
D15*
%TO.N,SCL*%
X107188000Y-108077000D02*
X107188000Y-70144600D01*
X107188000Y-70144600D02*
X108860000Y-68472600D01*
X83693000Y-120396000D02*
X94869000Y-120396000D01*
X94869000Y-120396000D02*
X107188000Y-108077000D01*
%TD*%
D16*
%TO.N,GND*%
G36*
X82090498Y-62368420D02*
G01*
X82054188Y-62488118D01*
X82041928Y-62612600D01*
X82041928Y-64172600D01*
X82054188Y-64297082D01*
X82090498Y-64416780D01*
X82149463Y-64527094D01*
X82228815Y-64623785D01*
X82325506Y-64703137D01*
X82435820Y-64762102D01*
X82555518Y-64798412D01*
X82603436Y-64803131D01*
X82557990Y-64833497D01*
X82360897Y-65030590D01*
X82206043Y-65262346D01*
X82099377Y-65519860D01*
X82045000Y-65793235D01*
X82045000Y-66071965D01*
X82099377Y-66345340D01*
X82206043Y-66602854D01*
X82360897Y-66834610D01*
X82557990Y-67031703D01*
X82789746Y-67186557D01*
X82828477Y-67202600D01*
X82789746Y-67218643D01*
X82557990Y-67373497D01*
X82360897Y-67570590D01*
X82206043Y-67802346D01*
X82099377Y-68059860D01*
X82045000Y-68333235D01*
X82045000Y-68611965D01*
X82099377Y-68885340D01*
X82206043Y-69142854D01*
X82360897Y-69374610D01*
X82557990Y-69571703D01*
X82789746Y-69726557D01*
X82828477Y-69742600D01*
X82789746Y-69758643D01*
X82557990Y-69913497D01*
X82360897Y-70110590D01*
X82206043Y-70342346D01*
X82099377Y-70599860D01*
X82045000Y-70873235D01*
X82045000Y-71151965D01*
X82099377Y-71425340D01*
X82206043Y-71682854D01*
X82360897Y-71914610D01*
X82557990Y-72111703D01*
X82789746Y-72266557D01*
X82828477Y-72282600D01*
X82789746Y-72298643D01*
X82557990Y-72453497D01*
X82360897Y-72650590D01*
X82206043Y-72882346D01*
X82099377Y-73139860D01*
X82045000Y-73413235D01*
X82045000Y-73691965D01*
X82099377Y-73965340D01*
X82206043Y-74222854D01*
X82360897Y-74454610D01*
X82557990Y-74651703D01*
X82789746Y-74806557D01*
X82828477Y-74822600D01*
X82789746Y-74838643D01*
X82557990Y-74993497D01*
X82360897Y-75190590D01*
X82206043Y-75422346D01*
X82099377Y-75679860D01*
X82045000Y-75953235D01*
X82045000Y-76231965D01*
X82099377Y-76505340D01*
X82206043Y-76762854D01*
X82360897Y-76994610D01*
X82557990Y-77191703D01*
X82789746Y-77346557D01*
X82828477Y-77362600D01*
X82789746Y-77378643D01*
X82557990Y-77533497D01*
X82360897Y-77730590D01*
X82206043Y-77962346D01*
X82099377Y-78219860D01*
X82045000Y-78493235D01*
X82045000Y-78771965D01*
X82099377Y-79045340D01*
X82206043Y-79302854D01*
X82360897Y-79534610D01*
X82557990Y-79731703D01*
X82789746Y-79886557D01*
X82828477Y-79902600D01*
X82789746Y-79918643D01*
X82557990Y-80073497D01*
X82360897Y-80270590D01*
X82206043Y-80502346D01*
X82099377Y-80759860D01*
X82045000Y-81033235D01*
X82045000Y-81311965D01*
X82099377Y-81585340D01*
X82206043Y-81842854D01*
X82360897Y-82074610D01*
X82557990Y-82271703D01*
X82789746Y-82426557D01*
X82828477Y-82442600D01*
X82789746Y-82458643D01*
X82557990Y-82613497D01*
X82360897Y-82810590D01*
X82206043Y-83042346D01*
X82099377Y-83299860D01*
X82045000Y-83573235D01*
X82045000Y-83851965D01*
X82099377Y-84125340D01*
X82206043Y-84382854D01*
X82360897Y-84614610D01*
X82557990Y-84811703D01*
X82789746Y-84966557D01*
X82828477Y-84982600D01*
X82789746Y-84998643D01*
X82557990Y-85153497D01*
X82360897Y-85350590D01*
X82206043Y-85582346D01*
X82099377Y-85839860D01*
X82045000Y-86113235D01*
X82045000Y-86391965D01*
X82099377Y-86665340D01*
X82206043Y-86922854D01*
X82360897Y-87154610D01*
X82557990Y-87351703D01*
X82789746Y-87506557D01*
X82828477Y-87522600D01*
X82789746Y-87538643D01*
X82557990Y-87693497D01*
X82360897Y-87890590D01*
X82206043Y-88122346D01*
X82099377Y-88379860D01*
X82045000Y-88653235D01*
X82045000Y-88931965D01*
X82099377Y-89205340D01*
X82206043Y-89462854D01*
X82360897Y-89694610D01*
X82557990Y-89891703D01*
X82789746Y-90046557D01*
X82828477Y-90062600D01*
X82789746Y-90078643D01*
X82557990Y-90233497D01*
X82360897Y-90430590D01*
X82206043Y-90662346D01*
X82099377Y-90919860D01*
X82045000Y-91193235D01*
X82045000Y-91471965D01*
X82099377Y-91745340D01*
X82206043Y-92002854D01*
X82360897Y-92234610D01*
X82557990Y-92431703D01*
X82789746Y-92586557D01*
X82828477Y-92602600D01*
X82789746Y-92618643D01*
X82557990Y-92773497D01*
X82360897Y-92970590D01*
X82206043Y-93202346D01*
X82099377Y-93459860D01*
X82045000Y-93733235D01*
X82045000Y-94011965D01*
X82099377Y-94285340D01*
X82206043Y-94542854D01*
X82360897Y-94774610D01*
X82557990Y-94971703D01*
X82789746Y-95126557D01*
X82825525Y-95141377D01*
X82730345Y-95192251D01*
X82661184Y-95434179D01*
X83460000Y-96232995D01*
X84258816Y-95434179D01*
X84189655Y-95192251D01*
X84087721Y-95144175D01*
X84130254Y-95126557D01*
X84362010Y-94971703D01*
X84559103Y-94774610D01*
X84713957Y-94542854D01*
X84820623Y-94285340D01*
X84875000Y-94011965D01*
X84875000Y-93733235D01*
X84820623Y-93459860D01*
X84713957Y-93202346D01*
X84559103Y-92970590D01*
X84362010Y-92773497D01*
X84130254Y-92618643D01*
X84091523Y-92602600D01*
X84130254Y-92586557D01*
X84362010Y-92431703D01*
X84559103Y-92234610D01*
X84713957Y-92002854D01*
X84820623Y-91745340D01*
X84875000Y-91471965D01*
X84875000Y-91193235D01*
X84820623Y-90919860D01*
X84713957Y-90662346D01*
X84559103Y-90430590D01*
X84362010Y-90233497D01*
X84130254Y-90078643D01*
X84091523Y-90062600D01*
X84130254Y-90046557D01*
X84362010Y-89891703D01*
X84559103Y-89694610D01*
X84713957Y-89462854D01*
X84820623Y-89205340D01*
X84875000Y-88931965D01*
X84875000Y-88653235D01*
X84820623Y-88379860D01*
X84713957Y-88122346D01*
X84559103Y-87890590D01*
X84362010Y-87693497D01*
X84130254Y-87538643D01*
X84091523Y-87522600D01*
X84130254Y-87506557D01*
X84362010Y-87351703D01*
X84559103Y-87154610D01*
X84713957Y-86922854D01*
X84820623Y-86665340D01*
X84875000Y-86391965D01*
X84875000Y-86113235D01*
X84820623Y-85839860D01*
X84713957Y-85582346D01*
X84559103Y-85350590D01*
X84362010Y-85153497D01*
X84130254Y-84998643D01*
X84091523Y-84982600D01*
X84130254Y-84966557D01*
X84362010Y-84811703D01*
X84559103Y-84614610D01*
X84713957Y-84382854D01*
X84820623Y-84125340D01*
X84875000Y-83851965D01*
X84875000Y-83573235D01*
X84820623Y-83299860D01*
X84713957Y-83042346D01*
X84559103Y-82810590D01*
X84362010Y-82613497D01*
X84130254Y-82458643D01*
X84091523Y-82442600D01*
X84130254Y-82426557D01*
X84362010Y-82271703D01*
X84559103Y-82074610D01*
X84713957Y-81842854D01*
X84820623Y-81585340D01*
X84875000Y-81311965D01*
X84875000Y-81033235D01*
X84820623Y-80759860D01*
X84713957Y-80502346D01*
X84559103Y-80270590D01*
X84362010Y-80073497D01*
X84130254Y-79918643D01*
X84091523Y-79902600D01*
X84130254Y-79886557D01*
X84362010Y-79731703D01*
X84559103Y-79534610D01*
X84713957Y-79302854D01*
X84820623Y-79045340D01*
X84875000Y-78771965D01*
X84875000Y-78493235D01*
X84820623Y-78219860D01*
X84713957Y-77962346D01*
X84559103Y-77730590D01*
X84362010Y-77533497D01*
X84130254Y-77378643D01*
X84091523Y-77362600D01*
X84130254Y-77346557D01*
X84362010Y-77191703D01*
X84559103Y-76994610D01*
X84713957Y-76762854D01*
X84820623Y-76505340D01*
X84875000Y-76231965D01*
X84875000Y-75953235D01*
X84820623Y-75679860D01*
X84713957Y-75422346D01*
X84559103Y-75190590D01*
X84362010Y-74993497D01*
X84130254Y-74838643D01*
X84091523Y-74822600D01*
X84130254Y-74806557D01*
X84362010Y-74651703D01*
X84559103Y-74454610D01*
X84713957Y-74222854D01*
X84820623Y-73965340D01*
X84875000Y-73691965D01*
X84875000Y-73413235D01*
X84820623Y-73139860D01*
X84713957Y-72882346D01*
X84559103Y-72650590D01*
X84362010Y-72453497D01*
X84130254Y-72298643D01*
X84091523Y-72282600D01*
X84130254Y-72266557D01*
X84362010Y-72111703D01*
X84559103Y-71914610D01*
X84713957Y-71682854D01*
X84820623Y-71425340D01*
X84875000Y-71151965D01*
X84875000Y-70873235D01*
X84820623Y-70599860D01*
X84713957Y-70342346D01*
X84559103Y-70110590D01*
X84362010Y-69913497D01*
X84130254Y-69758643D01*
X84091523Y-69742600D01*
X84130254Y-69726557D01*
X84362010Y-69571703D01*
X84559103Y-69374610D01*
X84713957Y-69142854D01*
X84820623Y-68885340D01*
X84875000Y-68611965D01*
X84875000Y-68333235D01*
X84820623Y-68059860D01*
X84713957Y-67802346D01*
X84559103Y-67570590D01*
X84362010Y-67373497D01*
X84130254Y-67218643D01*
X84091523Y-67202600D01*
X84130254Y-67186557D01*
X84362010Y-67031703D01*
X84559103Y-66834610D01*
X84713957Y-66602854D01*
X84820623Y-66345340D01*
X84875000Y-66071965D01*
X84875000Y-65793235D01*
X84820623Y-65519860D01*
X84713957Y-65262346D01*
X84559103Y-65030590D01*
X84362010Y-64833497D01*
X84316564Y-64803131D01*
X84364482Y-64798412D01*
X84484180Y-64762102D01*
X84594494Y-64703137D01*
X84691185Y-64623785D01*
X84770537Y-64527094D01*
X84829502Y-64416780D01*
X84865812Y-64297082D01*
X84878072Y-64172600D01*
X84878072Y-63463903D01*
X107439943Y-63463903D01*
X107481140Y-63739572D01*
X107575325Y-64001908D01*
X107639651Y-64122255D01*
X107881579Y-64191416D01*
X108680395Y-63392600D01*
X109039605Y-63392600D01*
X109838421Y-64191416D01*
X110080349Y-64122255D01*
X110199248Y-63870157D01*
X110266681Y-63599706D01*
X110280057Y-63321297D01*
X110238860Y-63045628D01*
X110144675Y-62783292D01*
X110080349Y-62662945D01*
X109838421Y-62593784D01*
X109039605Y-63392600D01*
X108680395Y-63392600D01*
X107881579Y-62593784D01*
X107639651Y-62662945D01*
X107520752Y-62915043D01*
X107453319Y-63185494D01*
X107439943Y-63463903D01*
X84878072Y-63463903D01*
X84878072Y-62612600D01*
X84865812Y-62488118D01*
X84829502Y-62368420D01*
X84823398Y-62357000D01*
X108077530Y-62357000D01*
X108061184Y-62414179D01*
X108860000Y-63212995D01*
X109658816Y-62414179D01*
X109642470Y-62357000D01*
X112345000Y-62357000D01*
X112345001Y-124505393D01*
X110535394Y-126315000D01*
X81869606Y-126315000D01*
X80060000Y-124505394D01*
X80060000Y-120249740D01*
X82208000Y-120249740D01*
X82208000Y-120542260D01*
X82265068Y-120829158D01*
X82377010Y-121099411D01*
X82539525Y-121342632D01*
X82746368Y-121549475D01*
X82920760Y-121666000D01*
X82746368Y-121782525D01*
X82539525Y-121989368D01*
X82377010Y-122232589D01*
X82265068Y-122502842D01*
X82208000Y-122789740D01*
X82208000Y-123082260D01*
X82265068Y-123369158D01*
X82377010Y-123639411D01*
X82539525Y-123882632D01*
X82746368Y-124089475D01*
X82989589Y-124251990D01*
X83259842Y-124363932D01*
X83546740Y-124421000D01*
X83839260Y-124421000D01*
X84126158Y-124363932D01*
X84396411Y-124251990D01*
X84639632Y-124089475D01*
X84846475Y-123882632D01*
X85008990Y-123639411D01*
X85120932Y-123369158D01*
X85178000Y-123082260D01*
X85178000Y-122789740D01*
X85120932Y-122502842D01*
X85008990Y-122232589D01*
X84846475Y-121989368D01*
X84639632Y-121782525D01*
X84465240Y-121666000D01*
X84639632Y-121549475D01*
X84846475Y-121342632D01*
X84971178Y-121156000D01*
X94831678Y-121156000D01*
X94869000Y-121159676D01*
X94906322Y-121156000D01*
X94906333Y-121156000D01*
X95017986Y-121145003D01*
X95161247Y-121101546D01*
X95293276Y-121030974D01*
X95409001Y-120936001D01*
X95432804Y-120906997D01*
X98709801Y-117630000D01*
X100481928Y-117630000D01*
X100481928Y-121130000D01*
X100494188Y-121254482D01*
X100530498Y-121374180D01*
X100589463Y-121484494D01*
X100668815Y-121581185D01*
X100765506Y-121660537D01*
X100875820Y-121719502D01*
X100995518Y-121755812D01*
X101120000Y-121768072D01*
X104620000Y-121768072D01*
X104744482Y-121755812D01*
X104864180Y-121719502D01*
X104974494Y-121660537D01*
X105071185Y-121581185D01*
X105150537Y-121484494D01*
X105209502Y-121374180D01*
X105245812Y-121254482D01*
X105258072Y-121130000D01*
X106731928Y-121130000D01*
X106744188Y-121254482D01*
X106780498Y-121374180D01*
X106839463Y-121484494D01*
X106918815Y-121581185D01*
X107015506Y-121660537D01*
X107125820Y-121719502D01*
X107245518Y-121755812D01*
X107370000Y-121768072D01*
X108584250Y-121765000D01*
X108743000Y-121606250D01*
X108743000Y-119507000D01*
X108997000Y-119507000D01*
X108997000Y-121606250D01*
X109155750Y-121765000D01*
X110370000Y-121768072D01*
X110494482Y-121755812D01*
X110614180Y-121719502D01*
X110724494Y-121660537D01*
X110821185Y-121581185D01*
X110900537Y-121484494D01*
X110959502Y-121374180D01*
X110995812Y-121254482D01*
X111008072Y-121130000D01*
X111005000Y-119665750D01*
X110846250Y-119507000D01*
X108997000Y-119507000D01*
X108743000Y-119507000D01*
X106893750Y-119507000D01*
X106735000Y-119665750D01*
X106731928Y-121130000D01*
X105258072Y-121130000D01*
X105258072Y-117630000D01*
X106731928Y-117630000D01*
X106735000Y-119094250D01*
X106893750Y-119253000D01*
X108743000Y-119253000D01*
X108743000Y-117153750D01*
X108997000Y-117153750D01*
X108997000Y-119253000D01*
X110846250Y-119253000D01*
X111005000Y-119094250D01*
X111008072Y-117630000D01*
X110995812Y-117505518D01*
X110959502Y-117385820D01*
X110900537Y-117275506D01*
X110821185Y-117178815D01*
X110724494Y-117099463D01*
X110614180Y-117040498D01*
X110494482Y-117004188D01*
X110370000Y-116991928D01*
X109155750Y-116995000D01*
X108997000Y-117153750D01*
X108743000Y-117153750D01*
X108584250Y-116995000D01*
X107370000Y-116991928D01*
X107245518Y-117004188D01*
X107125820Y-117040498D01*
X107015506Y-117099463D01*
X106918815Y-117178815D01*
X106839463Y-117275506D01*
X106780498Y-117385820D01*
X106744188Y-117505518D01*
X106731928Y-117630000D01*
X105258072Y-117630000D01*
X105245812Y-117505518D01*
X105209502Y-117385820D01*
X105150537Y-117275506D01*
X105071185Y-117178815D01*
X104974494Y-117099463D01*
X104897869Y-117058506D01*
X104995000Y-117068072D01*
X106745000Y-117068072D01*
X107040186Y-117038999D01*
X107324028Y-116952896D01*
X107585618Y-116813073D01*
X107814903Y-116624903D01*
X108003073Y-116395618D01*
X108142896Y-116134028D01*
X108228999Y-115850186D01*
X108258072Y-115555000D01*
X108258072Y-113805000D01*
X108228999Y-113509814D01*
X108142896Y-113225972D01*
X108003073Y-112964382D01*
X107814903Y-112735097D01*
X107585618Y-112546927D01*
X107324028Y-112407104D01*
X107040186Y-112321001D01*
X106745000Y-112291928D01*
X104995000Y-112291928D01*
X104699814Y-112321001D01*
X104415972Y-112407104D01*
X104154382Y-112546927D01*
X103925097Y-112735097D01*
X103736927Y-112964382D01*
X103597104Y-113225972D01*
X103511001Y-113509814D01*
X103481928Y-113805000D01*
X103481928Y-115555000D01*
X103511001Y-115850186D01*
X103597104Y-116134028D01*
X103736927Y-116395618D01*
X103925097Y-116624903D01*
X104154382Y-116813073D01*
X104415972Y-116952896D01*
X104544643Y-116991928D01*
X101120000Y-116991928D01*
X100995518Y-117004188D01*
X100875820Y-117040498D01*
X100765506Y-117099463D01*
X100668815Y-117178815D01*
X100589463Y-117275506D01*
X100530498Y-117385820D01*
X100494188Y-117505518D01*
X100481928Y-117630000D01*
X98709801Y-117630000D01*
X107464475Y-108875327D01*
X107445000Y-108973235D01*
X107445000Y-109251965D01*
X107499377Y-109525340D01*
X107606043Y-109782854D01*
X107760897Y-110014610D01*
X107957990Y-110211703D01*
X108189746Y-110366557D01*
X108447260Y-110473223D01*
X108720635Y-110527600D01*
X108999365Y-110527600D01*
X109272740Y-110473223D01*
X109530254Y-110366557D01*
X109762010Y-110211703D01*
X109959103Y-110014610D01*
X110113957Y-109782854D01*
X110220623Y-109525340D01*
X110275000Y-109251965D01*
X110275000Y-108973235D01*
X110220623Y-108699860D01*
X110113957Y-108442346D01*
X109959103Y-108210590D01*
X109762010Y-108013497D01*
X109530254Y-107858643D01*
X109491523Y-107842600D01*
X109530254Y-107826557D01*
X109762010Y-107671703D01*
X109959103Y-107474610D01*
X110113957Y-107242854D01*
X110220623Y-106985340D01*
X110275000Y-106711965D01*
X110275000Y-106433235D01*
X110220623Y-106159860D01*
X110113957Y-105902346D01*
X109959103Y-105670590D01*
X109762010Y-105473497D01*
X109530254Y-105318643D01*
X109491523Y-105302600D01*
X109530254Y-105286557D01*
X109762010Y-105131703D01*
X109959103Y-104934610D01*
X110113957Y-104702854D01*
X110220623Y-104445340D01*
X110275000Y-104171965D01*
X110275000Y-103893235D01*
X110220623Y-103619860D01*
X110113957Y-103362346D01*
X109959103Y-103130590D01*
X109762010Y-102933497D01*
X109530254Y-102778643D01*
X109491523Y-102762600D01*
X109530254Y-102746557D01*
X109762010Y-102591703D01*
X109959103Y-102394610D01*
X110113957Y-102162854D01*
X110220623Y-101905340D01*
X110275000Y-101631965D01*
X110275000Y-101353235D01*
X110220623Y-101079860D01*
X110113957Y-100822346D01*
X109959103Y-100590590D01*
X109762010Y-100393497D01*
X109530254Y-100238643D01*
X109491523Y-100222600D01*
X109530254Y-100206557D01*
X109762010Y-100051703D01*
X109959103Y-99854610D01*
X110113957Y-99622854D01*
X110220623Y-99365340D01*
X110275000Y-99091965D01*
X110275000Y-98813235D01*
X110220623Y-98539860D01*
X110113957Y-98282346D01*
X109959103Y-98050590D01*
X109762010Y-97853497D01*
X109530254Y-97698643D01*
X109491523Y-97682600D01*
X109530254Y-97666557D01*
X109762010Y-97511703D01*
X109959103Y-97314610D01*
X110113957Y-97082854D01*
X110220623Y-96825340D01*
X110275000Y-96551965D01*
X110275000Y-96273235D01*
X110220623Y-95999860D01*
X110113957Y-95742346D01*
X109959103Y-95510590D01*
X109762010Y-95313497D01*
X109530254Y-95158643D01*
X109491523Y-95142600D01*
X109530254Y-95126557D01*
X109762010Y-94971703D01*
X109959103Y-94774610D01*
X110113957Y-94542854D01*
X110220623Y-94285340D01*
X110275000Y-94011965D01*
X110275000Y-93733235D01*
X110220623Y-93459860D01*
X110113957Y-93202346D01*
X109959103Y-92970590D01*
X109762010Y-92773497D01*
X109530254Y-92618643D01*
X109491523Y-92602600D01*
X109530254Y-92586557D01*
X109762010Y-92431703D01*
X109959103Y-92234610D01*
X110113957Y-92002854D01*
X110220623Y-91745340D01*
X110275000Y-91471965D01*
X110275000Y-91193235D01*
X110220623Y-90919860D01*
X110113957Y-90662346D01*
X109959103Y-90430590D01*
X109762010Y-90233497D01*
X109530254Y-90078643D01*
X109491523Y-90062600D01*
X109530254Y-90046557D01*
X109762010Y-89891703D01*
X109959103Y-89694610D01*
X110113957Y-89462854D01*
X110220623Y-89205340D01*
X110275000Y-88931965D01*
X110275000Y-88653235D01*
X110220623Y-88379860D01*
X110113957Y-88122346D01*
X109959103Y-87890590D01*
X109762010Y-87693497D01*
X109530254Y-87538643D01*
X109491523Y-87522600D01*
X109530254Y-87506557D01*
X109762010Y-87351703D01*
X109959103Y-87154610D01*
X110113957Y-86922854D01*
X110220623Y-86665340D01*
X110275000Y-86391965D01*
X110275000Y-86113235D01*
X110220623Y-85839860D01*
X110113957Y-85582346D01*
X109959103Y-85350590D01*
X109762010Y-85153497D01*
X109530254Y-84998643D01*
X109491523Y-84982600D01*
X109530254Y-84966557D01*
X109762010Y-84811703D01*
X109959103Y-84614610D01*
X110113957Y-84382854D01*
X110220623Y-84125340D01*
X110275000Y-83851965D01*
X110275000Y-83573235D01*
X110220623Y-83299860D01*
X110113957Y-83042346D01*
X109959103Y-82810590D01*
X109762010Y-82613497D01*
X109530254Y-82458643D01*
X109491523Y-82442600D01*
X109530254Y-82426557D01*
X109762010Y-82271703D01*
X109959103Y-82074610D01*
X110113957Y-81842854D01*
X110220623Y-81585340D01*
X110275000Y-81311965D01*
X110275000Y-81033235D01*
X110220623Y-80759860D01*
X110113957Y-80502346D01*
X109959103Y-80270590D01*
X109762010Y-80073497D01*
X109530254Y-79918643D01*
X109494475Y-79903823D01*
X109589655Y-79852949D01*
X109658816Y-79611021D01*
X108860000Y-78812205D01*
X108845858Y-78826348D01*
X108666253Y-78646743D01*
X108680395Y-78632600D01*
X109039605Y-78632600D01*
X109838421Y-79431416D01*
X110080349Y-79362255D01*
X110199248Y-79110157D01*
X110266681Y-78839706D01*
X110280057Y-78561297D01*
X110238860Y-78285628D01*
X110144675Y-78023292D01*
X110080349Y-77902945D01*
X109838421Y-77833784D01*
X109039605Y-78632600D01*
X108680395Y-78632600D01*
X108666253Y-78618458D01*
X108845858Y-78438853D01*
X108860000Y-78452995D01*
X109658816Y-77654179D01*
X109589655Y-77412251D01*
X109487721Y-77364175D01*
X109530254Y-77346557D01*
X109762010Y-77191703D01*
X109959103Y-76994610D01*
X110113957Y-76762854D01*
X110220623Y-76505340D01*
X110275000Y-76231965D01*
X110275000Y-75953235D01*
X110220623Y-75679860D01*
X110113957Y-75422346D01*
X109959103Y-75190590D01*
X109762010Y-74993497D01*
X109530254Y-74838643D01*
X109491523Y-74822600D01*
X109530254Y-74806557D01*
X109762010Y-74651703D01*
X109959103Y-74454610D01*
X110113957Y-74222854D01*
X110220623Y-73965340D01*
X110275000Y-73691965D01*
X110275000Y-73413235D01*
X110220623Y-73139860D01*
X110113957Y-72882346D01*
X109959103Y-72650590D01*
X109762010Y-72453497D01*
X109530254Y-72298643D01*
X109491523Y-72282600D01*
X109530254Y-72266557D01*
X109762010Y-72111703D01*
X109959103Y-71914610D01*
X110113957Y-71682854D01*
X110220623Y-71425340D01*
X110275000Y-71151965D01*
X110275000Y-70873235D01*
X110220623Y-70599860D01*
X110113957Y-70342346D01*
X109959103Y-70110590D01*
X109762010Y-69913497D01*
X109530254Y-69758643D01*
X109491523Y-69742600D01*
X109530254Y-69726557D01*
X109762010Y-69571703D01*
X109959103Y-69374610D01*
X110113957Y-69142854D01*
X110220623Y-68885340D01*
X110275000Y-68611965D01*
X110275000Y-68333235D01*
X110220623Y-68059860D01*
X110113957Y-67802346D01*
X109959103Y-67570590D01*
X109762010Y-67373497D01*
X109530254Y-67218643D01*
X109491523Y-67202600D01*
X109530254Y-67186557D01*
X109762010Y-67031703D01*
X109959103Y-66834610D01*
X110113957Y-66602854D01*
X110220623Y-66345340D01*
X110275000Y-66071965D01*
X110275000Y-65793235D01*
X110220623Y-65519860D01*
X110113957Y-65262346D01*
X109959103Y-65030590D01*
X109762010Y-64833497D01*
X109530254Y-64678643D01*
X109494475Y-64663823D01*
X109589655Y-64612949D01*
X109658816Y-64371021D01*
X108860000Y-63572205D01*
X108061184Y-64371021D01*
X108130345Y-64612949D01*
X108232279Y-64661025D01*
X108189746Y-64678643D01*
X107957990Y-64833497D01*
X107760897Y-65030590D01*
X107606043Y-65262346D01*
X107499377Y-65519860D01*
X107445000Y-65793235D01*
X107445000Y-66071965D01*
X107499377Y-66345340D01*
X107606043Y-66602854D01*
X107760897Y-66834610D01*
X107957990Y-67031703D01*
X108189746Y-67186557D01*
X108228477Y-67202600D01*
X108189746Y-67218643D01*
X107957990Y-67373497D01*
X107760897Y-67570590D01*
X107606043Y-67802346D01*
X107499377Y-68059860D01*
X107445000Y-68333235D01*
X107445000Y-68611965D01*
X107478320Y-68779478D01*
X106676998Y-69580801D01*
X106648000Y-69604599D01*
X106624202Y-69633597D01*
X106624201Y-69633598D01*
X106553026Y-69720324D01*
X106482454Y-69852354D01*
X106438998Y-69995615D01*
X106424324Y-70144600D01*
X106428001Y-70181933D01*
X106428000Y-107762198D01*
X94554199Y-119636000D01*
X84971178Y-119636000D01*
X84846475Y-119449368D01*
X84639632Y-119242525D01*
X84457466Y-119120805D01*
X84574355Y-119051178D01*
X84790588Y-118856269D01*
X84964641Y-118622920D01*
X85089825Y-118360099D01*
X85134476Y-118212890D01*
X85013155Y-117983000D01*
X83820000Y-117983000D01*
X83820000Y-118003000D01*
X83566000Y-118003000D01*
X83566000Y-117983000D01*
X82372845Y-117983000D01*
X82251524Y-118212890D01*
X82296175Y-118360099D01*
X82421359Y-118622920D01*
X82595412Y-118856269D01*
X82811645Y-119051178D01*
X82928534Y-119120805D01*
X82746368Y-119242525D01*
X82539525Y-119449368D01*
X82377010Y-119692589D01*
X82265068Y-119962842D01*
X82208000Y-120249740D01*
X80060000Y-120249740D01*
X80060000Y-114466000D01*
X82204928Y-114466000D01*
X82204928Y-116166000D01*
X82217188Y-116290482D01*
X82253498Y-116410180D01*
X82312463Y-116520494D01*
X82391815Y-116617185D01*
X82488506Y-116696537D01*
X82598820Y-116755502D01*
X82679466Y-116779966D01*
X82595412Y-116855731D01*
X82421359Y-117089080D01*
X82296175Y-117351901D01*
X82251524Y-117499110D01*
X82372845Y-117729000D01*
X83566000Y-117729000D01*
X83566000Y-117709000D01*
X83820000Y-117709000D01*
X83820000Y-117729000D01*
X85013155Y-117729000D01*
X85134476Y-117499110D01*
X85089825Y-117351901D01*
X84964641Y-117089080D01*
X84790588Y-116855731D01*
X84706534Y-116779966D01*
X84787180Y-116755502D01*
X84897494Y-116696537D01*
X84994185Y-116617185D01*
X85073537Y-116520494D01*
X85132502Y-116410180D01*
X85168812Y-116290482D01*
X85181072Y-116166000D01*
X85181072Y-114466000D01*
X85168812Y-114341518D01*
X85132502Y-114221820D01*
X85073537Y-114111506D01*
X84994185Y-114014815D01*
X84897494Y-113935463D01*
X84787180Y-113876498D01*
X84667482Y-113840188D01*
X84543000Y-113827928D01*
X82843000Y-113827928D01*
X82718518Y-113840188D01*
X82598820Y-113876498D01*
X82488506Y-113935463D01*
X82391815Y-114014815D01*
X82312463Y-114111506D01*
X82253498Y-114221820D01*
X82217188Y-114341518D01*
X82204928Y-114466000D01*
X80060000Y-114466000D01*
X80060000Y-98813235D01*
X82045000Y-98813235D01*
X82045000Y-99091965D01*
X82099377Y-99365340D01*
X82206043Y-99622854D01*
X82360897Y-99854610D01*
X82557990Y-100051703D01*
X82789746Y-100206557D01*
X82828477Y-100222600D01*
X82789746Y-100238643D01*
X82557990Y-100393497D01*
X82360897Y-100590590D01*
X82206043Y-100822346D01*
X82099377Y-101079860D01*
X82045000Y-101353235D01*
X82045000Y-101631965D01*
X82099377Y-101905340D01*
X82206043Y-102162854D01*
X82360897Y-102394610D01*
X82557990Y-102591703D01*
X82789746Y-102746557D01*
X82828477Y-102762600D01*
X82789746Y-102778643D01*
X82557990Y-102933497D01*
X82360897Y-103130590D01*
X82206043Y-103362346D01*
X82099377Y-103619860D01*
X82045000Y-103893235D01*
X82045000Y-104171965D01*
X82099377Y-104445340D01*
X82206043Y-104702854D01*
X82360897Y-104934610D01*
X82557990Y-105131703D01*
X82789746Y-105286557D01*
X82828477Y-105302600D01*
X82789746Y-105318643D01*
X82557990Y-105473497D01*
X82360897Y-105670590D01*
X82206043Y-105902346D01*
X82099377Y-106159860D01*
X82045000Y-106433235D01*
X82045000Y-106711965D01*
X82099377Y-106985340D01*
X82206043Y-107242854D01*
X82360897Y-107474610D01*
X82557990Y-107671703D01*
X82789746Y-107826557D01*
X82828477Y-107842600D01*
X82789746Y-107858643D01*
X82557990Y-108013497D01*
X82360897Y-108210590D01*
X82206043Y-108442346D01*
X82099377Y-108699860D01*
X82045000Y-108973235D01*
X82045000Y-109251965D01*
X82099377Y-109525340D01*
X82206043Y-109782854D01*
X82360897Y-110014610D01*
X82557990Y-110211703D01*
X82789746Y-110366557D01*
X83047260Y-110473223D01*
X83320635Y-110527600D01*
X83599365Y-110527600D01*
X83872740Y-110473223D01*
X84130254Y-110366557D01*
X84362010Y-110211703D01*
X84559103Y-110014610D01*
X84713957Y-109782854D01*
X84820623Y-109525340D01*
X84875000Y-109251965D01*
X84875000Y-108973235D01*
X84820623Y-108699860D01*
X84713957Y-108442346D01*
X84559103Y-108210590D01*
X84362010Y-108013497D01*
X84130254Y-107858643D01*
X84091523Y-107842600D01*
X84130254Y-107826557D01*
X84362010Y-107671703D01*
X84559103Y-107474610D01*
X84713957Y-107242854D01*
X84820623Y-106985340D01*
X84875000Y-106711965D01*
X84875000Y-106433235D01*
X84820623Y-106159860D01*
X84713957Y-105902346D01*
X84559103Y-105670590D01*
X84362010Y-105473497D01*
X84130254Y-105318643D01*
X84091523Y-105302600D01*
X84130254Y-105286557D01*
X84362010Y-105131703D01*
X84559103Y-104934610D01*
X84713957Y-104702854D01*
X84820623Y-104445340D01*
X84875000Y-104171965D01*
X84875000Y-103893235D01*
X84820623Y-103619860D01*
X84713957Y-103362346D01*
X84559103Y-103130590D01*
X84362010Y-102933497D01*
X84130254Y-102778643D01*
X84091523Y-102762600D01*
X84130254Y-102746557D01*
X84362010Y-102591703D01*
X84559103Y-102394610D01*
X84713957Y-102162854D01*
X84820623Y-101905340D01*
X84875000Y-101631965D01*
X84875000Y-101353235D01*
X84820623Y-101079860D01*
X84713957Y-100822346D01*
X84559103Y-100590590D01*
X84362010Y-100393497D01*
X84130254Y-100238643D01*
X84091523Y-100222600D01*
X84130254Y-100206557D01*
X84362010Y-100051703D01*
X84559103Y-99854610D01*
X84713957Y-99622854D01*
X84820623Y-99365340D01*
X84875000Y-99091965D01*
X84875000Y-98813235D01*
X84820623Y-98539860D01*
X84713957Y-98282346D01*
X84559103Y-98050590D01*
X84362010Y-97853497D01*
X84130254Y-97698643D01*
X84094475Y-97683823D01*
X84189655Y-97632949D01*
X84258816Y-97391021D01*
X83460000Y-96592205D01*
X82661184Y-97391021D01*
X82730345Y-97632949D01*
X82832279Y-97681025D01*
X82789746Y-97698643D01*
X82557990Y-97853497D01*
X82360897Y-98050590D01*
X82206043Y-98282346D01*
X82099377Y-98539860D01*
X82045000Y-98813235D01*
X80060000Y-98813235D01*
X80060000Y-96483903D01*
X82039943Y-96483903D01*
X82081140Y-96759572D01*
X82175325Y-97021908D01*
X82239651Y-97142255D01*
X82481579Y-97211416D01*
X83280395Y-96412600D01*
X83639605Y-96412600D01*
X84438421Y-97211416D01*
X84680349Y-97142255D01*
X84799248Y-96890157D01*
X84866681Y-96619706D01*
X84880057Y-96341297D01*
X84838860Y-96065628D01*
X84744675Y-95803292D01*
X84680349Y-95682945D01*
X84438421Y-95613784D01*
X83639605Y-96412600D01*
X83280395Y-96412600D01*
X82481579Y-95613784D01*
X82239651Y-95682945D01*
X82120752Y-95935043D01*
X82053319Y-96205494D01*
X82039943Y-96483903D01*
X80060000Y-96483903D01*
X80060000Y-62357000D01*
X82096602Y-62357000D01*
X82090498Y-62368420D01*
G37*
X82090498Y-62368420D02*
X82054188Y-62488118D01*
X82041928Y-62612600D01*
X82041928Y-64172600D01*
X82054188Y-64297082D01*
X82090498Y-64416780D01*
X82149463Y-64527094D01*
X82228815Y-64623785D01*
X82325506Y-64703137D01*
X82435820Y-64762102D01*
X82555518Y-64798412D01*
X82603436Y-64803131D01*
X82557990Y-64833497D01*
X82360897Y-65030590D01*
X82206043Y-65262346D01*
X82099377Y-65519860D01*
X82045000Y-65793235D01*
X82045000Y-66071965D01*
X82099377Y-66345340D01*
X82206043Y-66602854D01*
X82360897Y-66834610D01*
X82557990Y-67031703D01*
X82789746Y-67186557D01*
X82828477Y-67202600D01*
X82789746Y-67218643D01*
X82557990Y-67373497D01*
X82360897Y-67570590D01*
X82206043Y-67802346D01*
X82099377Y-68059860D01*
X82045000Y-68333235D01*
X82045000Y-68611965D01*
X82099377Y-68885340D01*
X82206043Y-69142854D01*
X82360897Y-69374610D01*
X82557990Y-69571703D01*
X82789746Y-69726557D01*
X82828477Y-69742600D01*
X82789746Y-69758643D01*
X82557990Y-69913497D01*
X82360897Y-70110590D01*
X82206043Y-70342346D01*
X82099377Y-70599860D01*
X82045000Y-70873235D01*
X82045000Y-71151965D01*
X82099377Y-71425340D01*
X82206043Y-71682854D01*
X82360897Y-71914610D01*
X82557990Y-72111703D01*
X82789746Y-72266557D01*
X82828477Y-72282600D01*
X82789746Y-72298643D01*
X82557990Y-72453497D01*
X82360897Y-72650590D01*
X82206043Y-72882346D01*
X82099377Y-73139860D01*
X82045000Y-73413235D01*
X82045000Y-73691965D01*
X82099377Y-73965340D01*
X82206043Y-74222854D01*
X82360897Y-74454610D01*
X82557990Y-74651703D01*
X82789746Y-74806557D01*
X82828477Y-74822600D01*
X82789746Y-74838643D01*
X82557990Y-74993497D01*
X82360897Y-75190590D01*
X82206043Y-75422346D01*
X82099377Y-75679860D01*
X82045000Y-75953235D01*
X82045000Y-76231965D01*
X82099377Y-76505340D01*
X82206043Y-76762854D01*
X82360897Y-76994610D01*
X82557990Y-77191703D01*
X82789746Y-77346557D01*
X82828477Y-77362600D01*
X82789746Y-77378643D01*
X82557990Y-77533497D01*
X82360897Y-77730590D01*
X82206043Y-77962346D01*
X82099377Y-78219860D01*
X82045000Y-78493235D01*
X82045000Y-78771965D01*
X82099377Y-79045340D01*
X82206043Y-79302854D01*
X82360897Y-79534610D01*
X82557990Y-79731703D01*
X82789746Y-79886557D01*
X82828477Y-79902600D01*
X82789746Y-79918643D01*
X82557990Y-80073497D01*
X82360897Y-80270590D01*
X82206043Y-80502346D01*
X82099377Y-80759860D01*
X82045000Y-81033235D01*
X82045000Y-81311965D01*
X82099377Y-81585340D01*
X82206043Y-81842854D01*
X82360897Y-82074610D01*
X82557990Y-82271703D01*
X82789746Y-82426557D01*
X82828477Y-82442600D01*
X82789746Y-82458643D01*
X82557990Y-82613497D01*
X82360897Y-82810590D01*
X82206043Y-83042346D01*
X82099377Y-83299860D01*
X82045000Y-83573235D01*
X82045000Y-83851965D01*
X82099377Y-84125340D01*
X82206043Y-84382854D01*
X82360897Y-84614610D01*
X82557990Y-84811703D01*
X82789746Y-84966557D01*
X82828477Y-84982600D01*
X82789746Y-84998643D01*
X82557990Y-85153497D01*
X82360897Y-85350590D01*
X82206043Y-85582346D01*
X82099377Y-85839860D01*
X82045000Y-86113235D01*
X82045000Y-86391965D01*
X82099377Y-86665340D01*
X82206043Y-86922854D01*
X82360897Y-87154610D01*
X82557990Y-87351703D01*
X82789746Y-87506557D01*
X82828477Y-87522600D01*
X82789746Y-87538643D01*
X82557990Y-87693497D01*
X82360897Y-87890590D01*
X82206043Y-88122346D01*
X82099377Y-88379860D01*
X82045000Y-88653235D01*
X82045000Y-88931965D01*
X82099377Y-89205340D01*
X82206043Y-89462854D01*
X82360897Y-89694610D01*
X82557990Y-89891703D01*
X82789746Y-90046557D01*
X82828477Y-90062600D01*
X82789746Y-90078643D01*
X82557990Y-90233497D01*
X82360897Y-90430590D01*
X82206043Y-90662346D01*
X82099377Y-90919860D01*
X82045000Y-91193235D01*
X82045000Y-91471965D01*
X82099377Y-91745340D01*
X82206043Y-92002854D01*
X82360897Y-92234610D01*
X82557990Y-92431703D01*
X82789746Y-92586557D01*
X82828477Y-92602600D01*
X82789746Y-92618643D01*
X82557990Y-92773497D01*
X82360897Y-92970590D01*
X82206043Y-93202346D01*
X82099377Y-93459860D01*
X82045000Y-93733235D01*
X82045000Y-94011965D01*
X82099377Y-94285340D01*
X82206043Y-94542854D01*
X82360897Y-94774610D01*
X82557990Y-94971703D01*
X82789746Y-95126557D01*
X82825525Y-95141377D01*
X82730345Y-95192251D01*
X82661184Y-95434179D01*
X83460000Y-96232995D01*
X84258816Y-95434179D01*
X84189655Y-95192251D01*
X84087721Y-95144175D01*
X84130254Y-95126557D01*
X84362010Y-94971703D01*
X84559103Y-94774610D01*
X84713957Y-94542854D01*
X84820623Y-94285340D01*
X84875000Y-94011965D01*
X84875000Y-93733235D01*
X84820623Y-93459860D01*
X84713957Y-93202346D01*
X84559103Y-92970590D01*
X84362010Y-92773497D01*
X84130254Y-92618643D01*
X84091523Y-92602600D01*
X84130254Y-92586557D01*
X84362010Y-92431703D01*
X84559103Y-92234610D01*
X84713957Y-92002854D01*
X84820623Y-91745340D01*
X84875000Y-91471965D01*
X84875000Y-91193235D01*
X84820623Y-90919860D01*
X84713957Y-90662346D01*
X84559103Y-90430590D01*
X84362010Y-90233497D01*
X84130254Y-90078643D01*
X84091523Y-90062600D01*
X84130254Y-90046557D01*
X84362010Y-89891703D01*
X84559103Y-89694610D01*
X84713957Y-89462854D01*
X84820623Y-89205340D01*
X84875000Y-88931965D01*
X84875000Y-88653235D01*
X84820623Y-88379860D01*
X84713957Y-88122346D01*
X84559103Y-87890590D01*
X84362010Y-87693497D01*
X84130254Y-87538643D01*
X84091523Y-87522600D01*
X84130254Y-87506557D01*
X84362010Y-87351703D01*
X84559103Y-87154610D01*
X84713957Y-86922854D01*
X84820623Y-86665340D01*
X84875000Y-86391965D01*
X84875000Y-86113235D01*
X84820623Y-85839860D01*
X84713957Y-85582346D01*
X84559103Y-85350590D01*
X84362010Y-85153497D01*
X84130254Y-84998643D01*
X84091523Y-84982600D01*
X84130254Y-84966557D01*
X84362010Y-84811703D01*
X84559103Y-84614610D01*
X84713957Y-84382854D01*
X84820623Y-84125340D01*
X84875000Y-83851965D01*
X84875000Y-83573235D01*
X84820623Y-83299860D01*
X84713957Y-83042346D01*
X84559103Y-82810590D01*
X84362010Y-82613497D01*
X84130254Y-82458643D01*
X84091523Y-82442600D01*
X84130254Y-82426557D01*
X84362010Y-82271703D01*
X84559103Y-82074610D01*
X84713957Y-81842854D01*
X84820623Y-81585340D01*
X84875000Y-81311965D01*
X84875000Y-81033235D01*
X84820623Y-80759860D01*
X84713957Y-80502346D01*
X84559103Y-80270590D01*
X84362010Y-80073497D01*
X84130254Y-79918643D01*
X84091523Y-79902600D01*
X84130254Y-79886557D01*
X84362010Y-79731703D01*
X84559103Y-79534610D01*
X84713957Y-79302854D01*
X84820623Y-79045340D01*
X84875000Y-78771965D01*
X84875000Y-78493235D01*
X84820623Y-78219860D01*
X84713957Y-77962346D01*
X84559103Y-77730590D01*
X84362010Y-77533497D01*
X84130254Y-77378643D01*
X84091523Y-77362600D01*
X84130254Y-77346557D01*
X84362010Y-77191703D01*
X84559103Y-76994610D01*
X84713957Y-76762854D01*
X84820623Y-76505340D01*
X84875000Y-76231965D01*
X84875000Y-75953235D01*
X84820623Y-75679860D01*
X84713957Y-75422346D01*
X84559103Y-75190590D01*
X84362010Y-74993497D01*
X84130254Y-74838643D01*
X84091523Y-74822600D01*
X84130254Y-74806557D01*
X84362010Y-74651703D01*
X84559103Y-74454610D01*
X84713957Y-74222854D01*
X84820623Y-73965340D01*
X84875000Y-73691965D01*
X84875000Y-73413235D01*
X84820623Y-73139860D01*
X84713957Y-72882346D01*
X84559103Y-72650590D01*
X84362010Y-72453497D01*
X84130254Y-72298643D01*
X84091523Y-72282600D01*
X84130254Y-72266557D01*
X84362010Y-72111703D01*
X84559103Y-71914610D01*
X84713957Y-71682854D01*
X84820623Y-71425340D01*
X84875000Y-71151965D01*
X84875000Y-70873235D01*
X84820623Y-70599860D01*
X84713957Y-70342346D01*
X84559103Y-70110590D01*
X84362010Y-69913497D01*
X84130254Y-69758643D01*
X84091523Y-69742600D01*
X84130254Y-69726557D01*
X84362010Y-69571703D01*
X84559103Y-69374610D01*
X84713957Y-69142854D01*
X84820623Y-68885340D01*
X84875000Y-68611965D01*
X84875000Y-68333235D01*
X84820623Y-68059860D01*
X84713957Y-67802346D01*
X84559103Y-67570590D01*
X84362010Y-67373497D01*
X84130254Y-67218643D01*
X84091523Y-67202600D01*
X84130254Y-67186557D01*
X84362010Y-67031703D01*
X84559103Y-66834610D01*
X84713957Y-66602854D01*
X84820623Y-66345340D01*
X84875000Y-66071965D01*
X84875000Y-65793235D01*
X84820623Y-65519860D01*
X84713957Y-65262346D01*
X84559103Y-65030590D01*
X84362010Y-64833497D01*
X84316564Y-64803131D01*
X84364482Y-64798412D01*
X84484180Y-64762102D01*
X84594494Y-64703137D01*
X84691185Y-64623785D01*
X84770537Y-64527094D01*
X84829502Y-64416780D01*
X84865812Y-64297082D01*
X84878072Y-64172600D01*
X84878072Y-63463903D01*
X107439943Y-63463903D01*
X107481140Y-63739572D01*
X107575325Y-64001908D01*
X107639651Y-64122255D01*
X107881579Y-64191416D01*
X108680395Y-63392600D01*
X109039605Y-63392600D01*
X109838421Y-64191416D01*
X110080349Y-64122255D01*
X110199248Y-63870157D01*
X110266681Y-63599706D01*
X110280057Y-63321297D01*
X110238860Y-63045628D01*
X110144675Y-62783292D01*
X110080349Y-62662945D01*
X109838421Y-62593784D01*
X109039605Y-63392600D01*
X108680395Y-63392600D01*
X107881579Y-62593784D01*
X107639651Y-62662945D01*
X107520752Y-62915043D01*
X107453319Y-63185494D01*
X107439943Y-63463903D01*
X84878072Y-63463903D01*
X84878072Y-62612600D01*
X84865812Y-62488118D01*
X84829502Y-62368420D01*
X84823398Y-62357000D01*
X108077530Y-62357000D01*
X108061184Y-62414179D01*
X108860000Y-63212995D01*
X109658816Y-62414179D01*
X109642470Y-62357000D01*
X112345000Y-62357000D01*
X112345001Y-124505393D01*
X110535394Y-126315000D01*
X81869606Y-126315000D01*
X80060000Y-124505394D01*
X80060000Y-120249740D01*
X82208000Y-120249740D01*
X82208000Y-120542260D01*
X82265068Y-120829158D01*
X82377010Y-121099411D01*
X82539525Y-121342632D01*
X82746368Y-121549475D01*
X82920760Y-121666000D01*
X82746368Y-121782525D01*
X82539525Y-121989368D01*
X82377010Y-122232589D01*
X82265068Y-122502842D01*
X82208000Y-122789740D01*
X82208000Y-123082260D01*
X82265068Y-123369158D01*
X82377010Y-123639411D01*
X82539525Y-123882632D01*
X82746368Y-124089475D01*
X82989589Y-124251990D01*
X83259842Y-124363932D01*
X83546740Y-124421000D01*
X83839260Y-124421000D01*
X84126158Y-124363932D01*
X84396411Y-124251990D01*
X84639632Y-124089475D01*
X84846475Y-123882632D01*
X85008990Y-123639411D01*
X85120932Y-123369158D01*
X85178000Y-123082260D01*
X85178000Y-122789740D01*
X85120932Y-122502842D01*
X85008990Y-122232589D01*
X84846475Y-121989368D01*
X84639632Y-121782525D01*
X84465240Y-121666000D01*
X84639632Y-121549475D01*
X84846475Y-121342632D01*
X84971178Y-121156000D01*
X94831678Y-121156000D01*
X94869000Y-121159676D01*
X94906322Y-121156000D01*
X94906333Y-121156000D01*
X95017986Y-121145003D01*
X95161247Y-121101546D01*
X95293276Y-121030974D01*
X95409001Y-120936001D01*
X95432804Y-120906997D01*
X98709801Y-117630000D01*
X100481928Y-117630000D01*
X100481928Y-121130000D01*
X100494188Y-121254482D01*
X100530498Y-121374180D01*
X100589463Y-121484494D01*
X100668815Y-121581185D01*
X100765506Y-121660537D01*
X100875820Y-121719502D01*
X100995518Y-121755812D01*
X101120000Y-121768072D01*
X104620000Y-121768072D01*
X104744482Y-121755812D01*
X104864180Y-121719502D01*
X104974494Y-121660537D01*
X105071185Y-121581185D01*
X105150537Y-121484494D01*
X105209502Y-121374180D01*
X105245812Y-121254482D01*
X105258072Y-121130000D01*
X106731928Y-121130000D01*
X106744188Y-121254482D01*
X106780498Y-121374180D01*
X106839463Y-121484494D01*
X106918815Y-121581185D01*
X107015506Y-121660537D01*
X107125820Y-121719502D01*
X107245518Y-121755812D01*
X107370000Y-121768072D01*
X108584250Y-121765000D01*
X108743000Y-121606250D01*
X108743000Y-119507000D01*
X108997000Y-119507000D01*
X108997000Y-121606250D01*
X109155750Y-121765000D01*
X110370000Y-121768072D01*
X110494482Y-121755812D01*
X110614180Y-121719502D01*
X110724494Y-121660537D01*
X110821185Y-121581185D01*
X110900537Y-121484494D01*
X110959502Y-121374180D01*
X110995812Y-121254482D01*
X111008072Y-121130000D01*
X111005000Y-119665750D01*
X110846250Y-119507000D01*
X108997000Y-119507000D01*
X108743000Y-119507000D01*
X106893750Y-119507000D01*
X106735000Y-119665750D01*
X106731928Y-121130000D01*
X105258072Y-121130000D01*
X105258072Y-117630000D01*
X106731928Y-117630000D01*
X106735000Y-119094250D01*
X106893750Y-119253000D01*
X108743000Y-119253000D01*
X108743000Y-117153750D01*
X108997000Y-117153750D01*
X108997000Y-119253000D01*
X110846250Y-119253000D01*
X111005000Y-119094250D01*
X111008072Y-117630000D01*
X110995812Y-117505518D01*
X110959502Y-117385820D01*
X110900537Y-117275506D01*
X110821185Y-117178815D01*
X110724494Y-117099463D01*
X110614180Y-117040498D01*
X110494482Y-117004188D01*
X110370000Y-116991928D01*
X109155750Y-116995000D01*
X108997000Y-117153750D01*
X108743000Y-117153750D01*
X108584250Y-116995000D01*
X107370000Y-116991928D01*
X107245518Y-117004188D01*
X107125820Y-117040498D01*
X107015506Y-117099463D01*
X106918815Y-117178815D01*
X106839463Y-117275506D01*
X106780498Y-117385820D01*
X106744188Y-117505518D01*
X106731928Y-117630000D01*
X105258072Y-117630000D01*
X105245812Y-117505518D01*
X105209502Y-117385820D01*
X105150537Y-117275506D01*
X105071185Y-117178815D01*
X104974494Y-117099463D01*
X104897869Y-117058506D01*
X104995000Y-117068072D01*
X106745000Y-117068072D01*
X107040186Y-117038999D01*
X107324028Y-116952896D01*
X107585618Y-116813073D01*
X107814903Y-116624903D01*
X108003073Y-116395618D01*
X108142896Y-116134028D01*
X108228999Y-115850186D01*
X108258072Y-115555000D01*
X108258072Y-113805000D01*
X108228999Y-113509814D01*
X108142896Y-113225972D01*
X108003073Y-112964382D01*
X107814903Y-112735097D01*
X107585618Y-112546927D01*
X107324028Y-112407104D01*
X107040186Y-112321001D01*
X106745000Y-112291928D01*
X104995000Y-112291928D01*
X104699814Y-112321001D01*
X104415972Y-112407104D01*
X104154382Y-112546927D01*
X103925097Y-112735097D01*
X103736927Y-112964382D01*
X103597104Y-113225972D01*
X103511001Y-113509814D01*
X103481928Y-113805000D01*
X103481928Y-115555000D01*
X103511001Y-115850186D01*
X103597104Y-116134028D01*
X103736927Y-116395618D01*
X103925097Y-116624903D01*
X104154382Y-116813073D01*
X104415972Y-116952896D01*
X104544643Y-116991928D01*
X101120000Y-116991928D01*
X100995518Y-117004188D01*
X100875820Y-117040498D01*
X100765506Y-117099463D01*
X100668815Y-117178815D01*
X100589463Y-117275506D01*
X100530498Y-117385820D01*
X100494188Y-117505518D01*
X100481928Y-117630000D01*
X98709801Y-117630000D01*
X107464475Y-108875327D01*
X107445000Y-108973235D01*
X107445000Y-109251965D01*
X107499377Y-109525340D01*
X107606043Y-109782854D01*
X107760897Y-110014610D01*
X107957990Y-110211703D01*
X108189746Y-110366557D01*
X108447260Y-110473223D01*
X108720635Y-110527600D01*
X108999365Y-110527600D01*
X109272740Y-110473223D01*
X109530254Y-110366557D01*
X109762010Y-110211703D01*
X109959103Y-110014610D01*
X110113957Y-109782854D01*
X110220623Y-109525340D01*
X110275000Y-109251965D01*
X110275000Y-108973235D01*
X110220623Y-108699860D01*
X110113957Y-108442346D01*
X109959103Y-108210590D01*
X109762010Y-108013497D01*
X109530254Y-107858643D01*
X109491523Y-107842600D01*
X109530254Y-107826557D01*
X109762010Y-107671703D01*
X109959103Y-107474610D01*
X110113957Y-107242854D01*
X110220623Y-106985340D01*
X110275000Y-106711965D01*
X110275000Y-106433235D01*
X110220623Y-106159860D01*
X110113957Y-105902346D01*
X109959103Y-105670590D01*
X109762010Y-105473497D01*
X109530254Y-105318643D01*
X109491523Y-105302600D01*
X109530254Y-105286557D01*
X109762010Y-105131703D01*
X109959103Y-104934610D01*
X110113957Y-104702854D01*
X110220623Y-104445340D01*
X110275000Y-104171965D01*
X110275000Y-103893235D01*
X110220623Y-103619860D01*
X110113957Y-103362346D01*
X109959103Y-103130590D01*
X109762010Y-102933497D01*
X109530254Y-102778643D01*
X109491523Y-102762600D01*
X109530254Y-102746557D01*
X109762010Y-102591703D01*
X109959103Y-102394610D01*
X110113957Y-102162854D01*
X110220623Y-101905340D01*
X110275000Y-101631965D01*
X110275000Y-101353235D01*
X110220623Y-101079860D01*
X110113957Y-100822346D01*
X109959103Y-100590590D01*
X109762010Y-100393497D01*
X109530254Y-100238643D01*
X109491523Y-100222600D01*
X109530254Y-100206557D01*
X109762010Y-100051703D01*
X109959103Y-99854610D01*
X110113957Y-99622854D01*
X110220623Y-99365340D01*
X110275000Y-99091965D01*
X110275000Y-98813235D01*
X110220623Y-98539860D01*
X110113957Y-98282346D01*
X109959103Y-98050590D01*
X109762010Y-97853497D01*
X109530254Y-97698643D01*
X109491523Y-97682600D01*
X109530254Y-97666557D01*
X109762010Y-97511703D01*
X109959103Y-97314610D01*
X110113957Y-97082854D01*
X110220623Y-96825340D01*
X110275000Y-96551965D01*
X110275000Y-96273235D01*
X110220623Y-95999860D01*
X110113957Y-95742346D01*
X109959103Y-95510590D01*
X109762010Y-95313497D01*
X109530254Y-95158643D01*
X109491523Y-95142600D01*
X109530254Y-95126557D01*
X109762010Y-94971703D01*
X109959103Y-94774610D01*
X110113957Y-94542854D01*
X110220623Y-94285340D01*
X110275000Y-94011965D01*
X110275000Y-93733235D01*
X110220623Y-93459860D01*
X110113957Y-93202346D01*
X109959103Y-92970590D01*
X109762010Y-92773497D01*
X109530254Y-92618643D01*
X109491523Y-92602600D01*
X109530254Y-92586557D01*
X109762010Y-92431703D01*
X109959103Y-92234610D01*
X110113957Y-92002854D01*
X110220623Y-91745340D01*
X110275000Y-91471965D01*
X110275000Y-91193235D01*
X110220623Y-90919860D01*
X110113957Y-90662346D01*
X109959103Y-90430590D01*
X109762010Y-90233497D01*
X109530254Y-90078643D01*
X109491523Y-90062600D01*
X109530254Y-90046557D01*
X109762010Y-89891703D01*
X109959103Y-89694610D01*
X110113957Y-89462854D01*
X110220623Y-89205340D01*
X110275000Y-88931965D01*
X110275000Y-88653235D01*
X110220623Y-88379860D01*
X110113957Y-88122346D01*
X109959103Y-87890590D01*
X109762010Y-87693497D01*
X109530254Y-87538643D01*
X109491523Y-87522600D01*
X109530254Y-87506557D01*
X109762010Y-87351703D01*
X109959103Y-87154610D01*
X110113957Y-86922854D01*
X110220623Y-86665340D01*
X110275000Y-86391965D01*
X110275000Y-86113235D01*
X110220623Y-85839860D01*
X110113957Y-85582346D01*
X109959103Y-85350590D01*
X109762010Y-85153497D01*
X109530254Y-84998643D01*
X109491523Y-84982600D01*
X109530254Y-84966557D01*
X109762010Y-84811703D01*
X109959103Y-84614610D01*
X110113957Y-84382854D01*
X110220623Y-84125340D01*
X110275000Y-83851965D01*
X110275000Y-83573235D01*
X110220623Y-83299860D01*
X110113957Y-83042346D01*
X109959103Y-82810590D01*
X109762010Y-82613497D01*
X109530254Y-82458643D01*
X109491523Y-82442600D01*
X109530254Y-82426557D01*
X109762010Y-82271703D01*
X109959103Y-82074610D01*
X110113957Y-81842854D01*
X110220623Y-81585340D01*
X110275000Y-81311965D01*
X110275000Y-81033235D01*
X110220623Y-80759860D01*
X110113957Y-80502346D01*
X109959103Y-80270590D01*
X109762010Y-80073497D01*
X109530254Y-79918643D01*
X109494475Y-79903823D01*
X109589655Y-79852949D01*
X109658816Y-79611021D01*
X108860000Y-78812205D01*
X108845858Y-78826348D01*
X108666253Y-78646743D01*
X108680395Y-78632600D01*
X109039605Y-78632600D01*
X109838421Y-79431416D01*
X110080349Y-79362255D01*
X110199248Y-79110157D01*
X110266681Y-78839706D01*
X110280057Y-78561297D01*
X110238860Y-78285628D01*
X110144675Y-78023292D01*
X110080349Y-77902945D01*
X109838421Y-77833784D01*
X109039605Y-78632600D01*
X108680395Y-78632600D01*
X108666253Y-78618458D01*
X108845858Y-78438853D01*
X108860000Y-78452995D01*
X109658816Y-77654179D01*
X109589655Y-77412251D01*
X109487721Y-77364175D01*
X109530254Y-77346557D01*
X109762010Y-77191703D01*
X109959103Y-76994610D01*
X110113957Y-76762854D01*
X110220623Y-76505340D01*
X110275000Y-76231965D01*
X110275000Y-75953235D01*
X110220623Y-75679860D01*
X110113957Y-75422346D01*
X109959103Y-75190590D01*
X109762010Y-74993497D01*
X109530254Y-74838643D01*
X109491523Y-74822600D01*
X109530254Y-74806557D01*
X109762010Y-74651703D01*
X109959103Y-74454610D01*
X110113957Y-74222854D01*
X110220623Y-73965340D01*
X110275000Y-73691965D01*
X110275000Y-73413235D01*
X110220623Y-73139860D01*
X110113957Y-72882346D01*
X109959103Y-72650590D01*
X109762010Y-72453497D01*
X109530254Y-72298643D01*
X109491523Y-72282600D01*
X109530254Y-72266557D01*
X109762010Y-72111703D01*
X109959103Y-71914610D01*
X110113957Y-71682854D01*
X110220623Y-71425340D01*
X110275000Y-71151965D01*
X110275000Y-70873235D01*
X110220623Y-70599860D01*
X110113957Y-70342346D01*
X109959103Y-70110590D01*
X109762010Y-69913497D01*
X109530254Y-69758643D01*
X109491523Y-69742600D01*
X109530254Y-69726557D01*
X109762010Y-69571703D01*
X109959103Y-69374610D01*
X110113957Y-69142854D01*
X110220623Y-68885340D01*
X110275000Y-68611965D01*
X110275000Y-68333235D01*
X110220623Y-68059860D01*
X110113957Y-67802346D01*
X109959103Y-67570590D01*
X109762010Y-67373497D01*
X109530254Y-67218643D01*
X109491523Y-67202600D01*
X109530254Y-67186557D01*
X109762010Y-67031703D01*
X109959103Y-66834610D01*
X110113957Y-66602854D01*
X110220623Y-66345340D01*
X110275000Y-66071965D01*
X110275000Y-65793235D01*
X110220623Y-65519860D01*
X110113957Y-65262346D01*
X109959103Y-65030590D01*
X109762010Y-64833497D01*
X109530254Y-64678643D01*
X109494475Y-64663823D01*
X109589655Y-64612949D01*
X109658816Y-64371021D01*
X108860000Y-63572205D01*
X108061184Y-64371021D01*
X108130345Y-64612949D01*
X108232279Y-64661025D01*
X108189746Y-64678643D01*
X107957990Y-64833497D01*
X107760897Y-65030590D01*
X107606043Y-65262346D01*
X107499377Y-65519860D01*
X107445000Y-65793235D01*
X107445000Y-66071965D01*
X107499377Y-66345340D01*
X107606043Y-66602854D01*
X107760897Y-66834610D01*
X107957990Y-67031703D01*
X108189746Y-67186557D01*
X108228477Y-67202600D01*
X108189746Y-67218643D01*
X107957990Y-67373497D01*
X107760897Y-67570590D01*
X107606043Y-67802346D01*
X107499377Y-68059860D01*
X107445000Y-68333235D01*
X107445000Y-68611965D01*
X107478320Y-68779478D01*
X106676998Y-69580801D01*
X106648000Y-69604599D01*
X106624202Y-69633597D01*
X106624201Y-69633598D01*
X106553026Y-69720324D01*
X106482454Y-69852354D01*
X106438998Y-69995615D01*
X106424324Y-70144600D01*
X106428001Y-70181933D01*
X106428000Y-107762198D01*
X94554199Y-119636000D01*
X84971178Y-119636000D01*
X84846475Y-119449368D01*
X84639632Y-119242525D01*
X84457466Y-119120805D01*
X84574355Y-119051178D01*
X84790588Y-118856269D01*
X84964641Y-118622920D01*
X85089825Y-118360099D01*
X85134476Y-118212890D01*
X85013155Y-117983000D01*
X83820000Y-117983000D01*
X83820000Y-118003000D01*
X83566000Y-118003000D01*
X83566000Y-117983000D01*
X82372845Y-117983000D01*
X82251524Y-118212890D01*
X82296175Y-118360099D01*
X82421359Y-118622920D01*
X82595412Y-118856269D01*
X82811645Y-119051178D01*
X82928534Y-119120805D01*
X82746368Y-119242525D01*
X82539525Y-119449368D01*
X82377010Y-119692589D01*
X82265068Y-119962842D01*
X82208000Y-120249740D01*
X80060000Y-120249740D01*
X80060000Y-114466000D01*
X82204928Y-114466000D01*
X82204928Y-116166000D01*
X82217188Y-116290482D01*
X82253498Y-116410180D01*
X82312463Y-116520494D01*
X82391815Y-116617185D01*
X82488506Y-116696537D01*
X82598820Y-116755502D01*
X82679466Y-116779966D01*
X82595412Y-116855731D01*
X82421359Y-117089080D01*
X82296175Y-117351901D01*
X82251524Y-117499110D01*
X82372845Y-117729000D01*
X83566000Y-117729000D01*
X83566000Y-117709000D01*
X83820000Y-117709000D01*
X83820000Y-117729000D01*
X85013155Y-117729000D01*
X85134476Y-117499110D01*
X85089825Y-117351901D01*
X84964641Y-117089080D01*
X84790588Y-116855731D01*
X84706534Y-116779966D01*
X84787180Y-116755502D01*
X84897494Y-116696537D01*
X84994185Y-116617185D01*
X85073537Y-116520494D01*
X85132502Y-116410180D01*
X85168812Y-116290482D01*
X85181072Y-116166000D01*
X85181072Y-114466000D01*
X85168812Y-114341518D01*
X85132502Y-114221820D01*
X85073537Y-114111506D01*
X84994185Y-114014815D01*
X84897494Y-113935463D01*
X84787180Y-113876498D01*
X84667482Y-113840188D01*
X84543000Y-113827928D01*
X82843000Y-113827928D01*
X82718518Y-113840188D01*
X82598820Y-113876498D01*
X82488506Y-113935463D01*
X82391815Y-114014815D01*
X82312463Y-114111506D01*
X82253498Y-114221820D01*
X82217188Y-114341518D01*
X82204928Y-114466000D01*
X80060000Y-114466000D01*
X80060000Y-98813235D01*
X82045000Y-98813235D01*
X82045000Y-99091965D01*
X82099377Y-99365340D01*
X82206043Y-99622854D01*
X82360897Y-99854610D01*
X82557990Y-100051703D01*
X82789746Y-100206557D01*
X82828477Y-100222600D01*
X82789746Y-100238643D01*
X82557990Y-100393497D01*
X82360897Y-100590590D01*
X82206043Y-100822346D01*
X82099377Y-101079860D01*
X82045000Y-101353235D01*
X82045000Y-101631965D01*
X82099377Y-101905340D01*
X82206043Y-102162854D01*
X82360897Y-102394610D01*
X82557990Y-102591703D01*
X82789746Y-102746557D01*
X82828477Y-102762600D01*
X82789746Y-102778643D01*
X82557990Y-102933497D01*
X82360897Y-103130590D01*
X82206043Y-103362346D01*
X82099377Y-103619860D01*
X82045000Y-103893235D01*
X82045000Y-104171965D01*
X82099377Y-104445340D01*
X82206043Y-104702854D01*
X82360897Y-104934610D01*
X82557990Y-105131703D01*
X82789746Y-105286557D01*
X82828477Y-105302600D01*
X82789746Y-105318643D01*
X82557990Y-105473497D01*
X82360897Y-105670590D01*
X82206043Y-105902346D01*
X82099377Y-106159860D01*
X82045000Y-106433235D01*
X82045000Y-106711965D01*
X82099377Y-106985340D01*
X82206043Y-107242854D01*
X82360897Y-107474610D01*
X82557990Y-107671703D01*
X82789746Y-107826557D01*
X82828477Y-107842600D01*
X82789746Y-107858643D01*
X82557990Y-108013497D01*
X82360897Y-108210590D01*
X82206043Y-108442346D01*
X82099377Y-108699860D01*
X82045000Y-108973235D01*
X82045000Y-109251965D01*
X82099377Y-109525340D01*
X82206043Y-109782854D01*
X82360897Y-110014610D01*
X82557990Y-110211703D01*
X82789746Y-110366557D01*
X83047260Y-110473223D01*
X83320635Y-110527600D01*
X83599365Y-110527600D01*
X83872740Y-110473223D01*
X84130254Y-110366557D01*
X84362010Y-110211703D01*
X84559103Y-110014610D01*
X84713957Y-109782854D01*
X84820623Y-109525340D01*
X84875000Y-109251965D01*
X84875000Y-108973235D01*
X84820623Y-108699860D01*
X84713957Y-108442346D01*
X84559103Y-108210590D01*
X84362010Y-108013497D01*
X84130254Y-107858643D01*
X84091523Y-107842600D01*
X84130254Y-107826557D01*
X84362010Y-107671703D01*
X84559103Y-107474610D01*
X84713957Y-107242854D01*
X84820623Y-106985340D01*
X84875000Y-106711965D01*
X84875000Y-106433235D01*
X84820623Y-106159860D01*
X84713957Y-105902346D01*
X84559103Y-105670590D01*
X84362010Y-105473497D01*
X84130254Y-105318643D01*
X84091523Y-105302600D01*
X84130254Y-105286557D01*
X84362010Y-105131703D01*
X84559103Y-104934610D01*
X84713957Y-104702854D01*
X84820623Y-104445340D01*
X84875000Y-104171965D01*
X84875000Y-103893235D01*
X84820623Y-103619860D01*
X84713957Y-103362346D01*
X84559103Y-103130590D01*
X84362010Y-102933497D01*
X84130254Y-102778643D01*
X84091523Y-102762600D01*
X84130254Y-102746557D01*
X84362010Y-102591703D01*
X84559103Y-102394610D01*
X84713957Y-102162854D01*
X84820623Y-101905340D01*
X84875000Y-101631965D01*
X84875000Y-101353235D01*
X84820623Y-101079860D01*
X84713957Y-100822346D01*
X84559103Y-100590590D01*
X84362010Y-100393497D01*
X84130254Y-100238643D01*
X84091523Y-100222600D01*
X84130254Y-100206557D01*
X84362010Y-100051703D01*
X84559103Y-99854610D01*
X84713957Y-99622854D01*
X84820623Y-99365340D01*
X84875000Y-99091965D01*
X84875000Y-98813235D01*
X84820623Y-98539860D01*
X84713957Y-98282346D01*
X84559103Y-98050590D01*
X84362010Y-97853497D01*
X84130254Y-97698643D01*
X84094475Y-97683823D01*
X84189655Y-97632949D01*
X84258816Y-97391021D01*
X83460000Y-96592205D01*
X82661184Y-97391021D01*
X82730345Y-97632949D01*
X82832279Y-97681025D01*
X82789746Y-97698643D01*
X82557990Y-97853497D01*
X82360897Y-98050590D01*
X82206043Y-98282346D01*
X82099377Y-98539860D01*
X82045000Y-98813235D01*
X80060000Y-98813235D01*
X80060000Y-96483903D01*
X82039943Y-96483903D01*
X82081140Y-96759572D01*
X82175325Y-97021908D01*
X82239651Y-97142255D01*
X82481579Y-97211416D01*
X83280395Y-96412600D01*
X83639605Y-96412600D01*
X84438421Y-97211416D01*
X84680349Y-97142255D01*
X84799248Y-96890157D01*
X84866681Y-96619706D01*
X84880057Y-96341297D01*
X84838860Y-96065628D01*
X84744675Y-95803292D01*
X84680349Y-95682945D01*
X84438421Y-95613784D01*
X83639605Y-96412600D01*
X83280395Y-96412600D01*
X82481579Y-95613784D01*
X82239651Y-95682945D01*
X82120752Y-95935043D01*
X82053319Y-96205494D01*
X82039943Y-96483903D01*
X80060000Y-96483903D01*
X80060000Y-62357000D01*
X82096602Y-62357000D01*
X82090498Y-62368420D01*
%TD*%
M02*
