M48
; DRILL file {KiCad (5.1.6)-1} date 09/03/20 22:55:25
; FORMAT={-:-/ absolute / inch / decimal}
; #@! TF.CreationDate,2020-09-03T22:55:25+05:30
; #@! TF.GenerationSoftware,Kicad,Pcbnew,(5.1.6)-1
; #@! TF.FileFunction,Plated,1,2,PTH
FMAT,2
INCH
T1C0.0394
T2C0.0409
%
G90
G05
T1
X3.295Y-4.54
X3.295Y-4.64
X3.295Y-4.74
X3.295Y-4.84
T2
X3.2858Y-2.4958
X3.2858Y-2.5958
X3.2858Y-2.6958
X3.2858Y-2.7958
X3.2858Y-2.8958
X3.2858Y-2.9958
X3.2858Y-3.0958
X3.2858Y-3.1958
X3.2858Y-3.2958
X3.2858Y-3.3958
X3.2858Y-3.4958
X3.2858Y-3.5958
X3.2858Y-3.6958
X3.2858Y-3.7958
X3.2858Y-3.8958
X3.2858Y-3.9958
X3.2858Y-4.0958
X3.2858Y-4.1958
X3.2858Y-4.2958
X4.2858Y-2.4958
X4.2858Y-2.5958
X4.2858Y-2.6958
X4.2858Y-2.7958
X4.2858Y-2.8958
X4.2858Y-2.9958
X4.2858Y-3.0958
X4.2858Y-3.1958
X4.2858Y-3.2958
X4.2858Y-3.3958
X4.2858Y-3.4958
X4.2858Y-3.5958
X4.2858Y-3.6958
X4.2858Y-3.7958
X4.2858Y-3.8958
X4.2858Y-3.9958
X4.2858Y-4.0958
X4.2858Y-4.1958
X4.2858Y-4.2958
T1
G00X4.05Y-4.7394
M15
G01X4.05Y-4.6606
M16
G05
G00X4.2075Y-4.515
M15
G01X4.1287Y-4.515
M16
G05
G00X4.2862Y-4.7394
M15
G01X4.2862Y-4.6606
M16
G05
T0
M30
