%TF.GenerationSoftware,KiCad,Pcbnew,(5.1.6)-1*%
%TF.CreationDate,2020-09-03T22:55:09+05:30*%
%TF.ProjectId,WeatherStationKit (BareBones),57656174-6865-4725-9374-6174696f6e4b,rev?*%
%TF.SameCoordinates,Original*%
%TF.FileFunction,Legend,Bot*%
%TF.FilePolarity,Positive*%
%FSLAX46Y46*%
G04 Gerber Fmt 4.6, Leading zero omitted, Abs format (unit mm)*
G04 Created by KiCad (PCBNEW (5.1.6)-1) date 2020-09-03 22:55:09*
%MOMM*%
%LPD*%
G01*
G04 APERTURE LIST*
%ADD10C,0.150000*%
%ADD11C,0.200000*%
%ADD12C,0.010000*%
G04 APERTURE END LIST*
D10*
X101012047Y-53300380D02*
X101012047Y-54014666D01*
X101059666Y-54157523D01*
X101154904Y-54252761D01*
X101297761Y-54300380D01*
X101393000Y-54300380D01*
X100059666Y-54300380D02*
X100535857Y-54300380D01*
X100535857Y-53300380D01*
X99154904Y-54205142D02*
X99202523Y-54252761D01*
X99345380Y-54300380D01*
X99440619Y-54300380D01*
X99583476Y-54252761D01*
X99678714Y-54157523D01*
X99726333Y-54062285D01*
X99773952Y-53871809D01*
X99773952Y-53728952D01*
X99726333Y-53538476D01*
X99678714Y-53443238D01*
X99583476Y-53348000D01*
X99440619Y-53300380D01*
X99345380Y-53300380D01*
X99202523Y-53348000D01*
X99154904Y-53395619D01*
X98440619Y-53300380D02*
X98440619Y-54014666D01*
X98488238Y-54157523D01*
X98583476Y-54252761D01*
X98726333Y-54300380D01*
X98821571Y-54300380D01*
X97488238Y-54300380D02*
X97964428Y-54300380D01*
X97964428Y-53300380D01*
X96583476Y-54205142D02*
X96631095Y-54252761D01*
X96773952Y-54300380D01*
X96869190Y-54300380D01*
X97012047Y-54252761D01*
X97107285Y-54157523D01*
X97154904Y-54062285D01*
X97202523Y-53871809D01*
X97202523Y-53728952D01*
X97154904Y-53538476D01*
X97107285Y-53443238D01*
X97012047Y-53348000D01*
X96869190Y-53300380D01*
X96773952Y-53300380D01*
X96631095Y-53348000D01*
X96583476Y-53395619D01*
X95869190Y-53300380D02*
X95869190Y-54014666D01*
X95916809Y-54157523D01*
X96012047Y-54252761D01*
X96154904Y-54300380D01*
X96250142Y-54300380D01*
X94916809Y-54300380D02*
X95393000Y-54300380D01*
X95393000Y-53300380D01*
X94012047Y-54205142D02*
X94059666Y-54252761D01*
X94202523Y-54300380D01*
X94297761Y-54300380D01*
X94440619Y-54252761D01*
X94535857Y-54157523D01*
X94583476Y-54062285D01*
X94631095Y-53871809D01*
X94631095Y-53728952D01*
X94583476Y-53538476D01*
X94535857Y-53443238D01*
X94440619Y-53348000D01*
X94297761Y-53300380D01*
X94202523Y-53300380D01*
X94059666Y-53348000D01*
X94012047Y-53395619D01*
X93297761Y-53300380D02*
X93297761Y-54014666D01*
X93345380Y-54157523D01*
X93440619Y-54252761D01*
X93583476Y-54300380D01*
X93678714Y-54300380D01*
X92345380Y-54300380D02*
X92821571Y-54300380D01*
X92821571Y-53300380D01*
X91440619Y-54205142D02*
X91488238Y-54252761D01*
X91631095Y-54300380D01*
X91726333Y-54300380D01*
X91869190Y-54252761D01*
X91964428Y-54157523D01*
X92012047Y-54062285D01*
X92059666Y-53871809D01*
X92059666Y-53728952D01*
X92012047Y-53538476D01*
X91964428Y-53443238D01*
X91869190Y-53348000D01*
X91726333Y-53300380D01*
X91631095Y-53300380D01*
X91488238Y-53348000D01*
X91440619Y-53395619D01*
D11*
X104854428Y-67334869D02*
X106187761Y-67549154D01*
X105235380Y-68049154D01*
X106187761Y-68311059D01*
X104854428Y-68858678D01*
X106092523Y-70227726D02*
X106187761Y-70025345D01*
X106187761Y-69644392D01*
X106092523Y-69465821D01*
X105902047Y-69394392D01*
X105140142Y-69489630D01*
X104949666Y-69608678D01*
X104854428Y-69811059D01*
X104854428Y-70192011D01*
X104949666Y-70370583D01*
X105140142Y-70442011D01*
X105330619Y-70418202D01*
X105521095Y-69442011D01*
X106187761Y-72025345D02*
X105140142Y-72156297D01*
X104949666Y-72084869D01*
X104854428Y-71906297D01*
X104854428Y-71525345D01*
X104949666Y-71322964D01*
X106092523Y-72037250D02*
X106187761Y-71834869D01*
X106187761Y-71358678D01*
X106092523Y-71180107D01*
X105902047Y-71108678D01*
X105711571Y-71132488D01*
X105521095Y-71251535D01*
X105425857Y-71453916D01*
X105425857Y-71930107D01*
X105330619Y-72132488D01*
X104854428Y-72858678D02*
X104854428Y-73620583D01*
X104187761Y-73227726D02*
X105902047Y-73013440D01*
X106092523Y-73084869D01*
X106187761Y-73263440D01*
X106187761Y-73453916D01*
X106187761Y-74120583D02*
X104187761Y-74370583D01*
X106187761Y-74977726D02*
X105140142Y-75108678D01*
X104949666Y-75037250D01*
X104854428Y-74858678D01*
X104854428Y-74572964D01*
X104949666Y-74370583D01*
X105044904Y-74263440D01*
X106092523Y-76703916D02*
X106187761Y-76501535D01*
X106187761Y-76120583D01*
X106092523Y-75942011D01*
X105902047Y-75870583D01*
X105140142Y-75965821D01*
X104949666Y-76084869D01*
X104854428Y-76287250D01*
X104854428Y-76668202D01*
X104949666Y-76846773D01*
X105140142Y-76918202D01*
X105330619Y-76894392D01*
X105521095Y-75918202D01*
X106187761Y-77644392D02*
X104854428Y-77811059D01*
X105235380Y-77763440D02*
X105044904Y-77882488D01*
X104949666Y-77989630D01*
X104854428Y-78192011D01*
X104854428Y-78382488D01*
X106092523Y-78799154D02*
X106187761Y-78977726D01*
X106187761Y-79358678D01*
X106092523Y-79561059D01*
X105902047Y-79680107D01*
X105806809Y-79692011D01*
X105616333Y-79620583D01*
X105521095Y-79442011D01*
X105521095Y-79156297D01*
X105425857Y-78977726D01*
X105235380Y-78906297D01*
X105140142Y-78918202D01*
X104949666Y-79037250D01*
X104854428Y-79239630D01*
X104854428Y-79525345D01*
X104949666Y-79703916D01*
X104854428Y-80382488D02*
X104854428Y-81144392D01*
X104187761Y-80751535D02*
X105902047Y-80537250D01*
X106092523Y-80608678D01*
X106187761Y-80787250D01*
X106187761Y-80977726D01*
X106187761Y-82501535D02*
X105140142Y-82632488D01*
X104949666Y-82561059D01*
X104854428Y-82382488D01*
X104854428Y-82001535D01*
X104949666Y-81799154D01*
X106092523Y-82513440D02*
X106187761Y-82311059D01*
X106187761Y-81834869D01*
X106092523Y-81656297D01*
X105902047Y-81584869D01*
X105711571Y-81608678D01*
X105521095Y-81727726D01*
X105425857Y-81930107D01*
X105425857Y-82406297D01*
X105330619Y-82608678D01*
X104854428Y-83334869D02*
X104854428Y-84096773D01*
X104187761Y-83703916D02*
X105902047Y-83489630D01*
X106092523Y-83561059D01*
X106187761Y-83739630D01*
X106187761Y-83930107D01*
X106187761Y-84596773D02*
X104854428Y-84763440D01*
X104187761Y-84846773D02*
X104283000Y-84739630D01*
X104378238Y-84822964D01*
X104283000Y-84930107D01*
X104187761Y-84846773D01*
X104378238Y-84822964D01*
X106187761Y-85834869D02*
X106092523Y-85656297D01*
X105997285Y-85572964D01*
X105806809Y-85501535D01*
X105235380Y-85572964D01*
X105044904Y-85692011D01*
X104949666Y-85799154D01*
X104854428Y-86001535D01*
X104854428Y-86287250D01*
X104949666Y-86465821D01*
X105044904Y-86549154D01*
X105235380Y-86620583D01*
X105806809Y-86549154D01*
X105997285Y-86430107D01*
X106092523Y-86322964D01*
X106187761Y-86120583D01*
X106187761Y-85834869D01*
X104854428Y-87525345D02*
X106187761Y-87358678D01*
X105044904Y-87501535D02*
X104949666Y-87608678D01*
X104854428Y-87811059D01*
X104854428Y-88096773D01*
X104949666Y-88275345D01*
X105140142Y-88346773D01*
X106187761Y-88215821D01*
X104854428Y-89334869D02*
X106854428Y-89084869D01*
X104949666Y-89322964D02*
X104854428Y-89525345D01*
X104854428Y-89906297D01*
X104949666Y-90084869D01*
X105044904Y-90168202D01*
X105235380Y-90239630D01*
X105806809Y-90168202D01*
X105997285Y-90049154D01*
X106092523Y-89942011D01*
X106187761Y-89739630D01*
X106187761Y-89358678D01*
X106092523Y-89180107D01*
X106187761Y-90977726D02*
X104854428Y-91144392D01*
X105235380Y-91096773D02*
X105044904Y-91215821D01*
X104949666Y-91322964D01*
X104854428Y-91525345D01*
X104854428Y-91715821D01*
X106187761Y-92501535D02*
X106092523Y-92322964D01*
X105997285Y-92239630D01*
X105806809Y-92168202D01*
X105235380Y-92239630D01*
X105044904Y-92358678D01*
X104949666Y-92465821D01*
X104854428Y-92668202D01*
X104854428Y-92953916D01*
X104949666Y-93132488D01*
X105044904Y-93215821D01*
X105235380Y-93287250D01*
X105806809Y-93215821D01*
X105997285Y-93096773D01*
X106092523Y-92989630D01*
X106187761Y-92787249D01*
X106187761Y-92501535D01*
X104854428Y-94192011D02*
X106568714Y-93977726D01*
X106759190Y-93858678D01*
X106854428Y-93656297D01*
X106854428Y-93561059D01*
X104187761Y-94275345D02*
X104283000Y-94168202D01*
X104378238Y-94251535D01*
X104283000Y-94358678D01*
X104187761Y-94275345D01*
X104378238Y-94251535D01*
X106092523Y-95751535D02*
X106187761Y-95549154D01*
X106187761Y-95168202D01*
X106092523Y-94989630D01*
X105902047Y-94918202D01*
X105140142Y-95013440D01*
X104949666Y-95132488D01*
X104854428Y-95334869D01*
X104854428Y-95715821D01*
X104949666Y-95894392D01*
X105140142Y-95965821D01*
X105330619Y-95942011D01*
X105521095Y-94965821D01*
X106092523Y-97561059D02*
X106187761Y-97358678D01*
X106187761Y-96977726D01*
X106092523Y-96799154D01*
X105997285Y-96715821D01*
X105806809Y-96644392D01*
X105235380Y-96715821D01*
X105044904Y-96834869D01*
X104949666Y-96942011D01*
X104854428Y-97144392D01*
X104854428Y-97525345D01*
X104949666Y-97703916D01*
X104854428Y-98287249D02*
X104854428Y-99049154D01*
X104187761Y-98656297D02*
X105902047Y-98442011D01*
X106092523Y-98513440D01*
X106187761Y-98692011D01*
X106187761Y-98882488D01*
X105997285Y-99572964D02*
X106092523Y-99656297D01*
X106187761Y-99549154D01*
X106092523Y-99465821D01*
X105997285Y-99572964D01*
X106187761Y-99549154D01*
X106092523Y-101370583D02*
X106187761Y-101168202D01*
X106187761Y-100787250D01*
X106092523Y-100608678D01*
X105997285Y-100525345D01*
X105806809Y-100453916D01*
X105235380Y-100525345D01*
X105044904Y-100644392D01*
X104949666Y-100751535D01*
X104854428Y-100953916D01*
X104854428Y-101334869D01*
X104949666Y-101513440D01*
X106187761Y-102501535D02*
X106092523Y-102322964D01*
X105997285Y-102239630D01*
X105806809Y-102168202D01*
X105235380Y-102239630D01*
X105044904Y-102358678D01*
X104949666Y-102465821D01*
X104854428Y-102668202D01*
X104854428Y-102953916D01*
X104949666Y-103132488D01*
X105044904Y-103215821D01*
X105235380Y-103287249D01*
X105806809Y-103215821D01*
X105997285Y-103096773D01*
X106092523Y-102989630D01*
X106187761Y-102787250D01*
X106187761Y-102501535D01*
X106187761Y-104025345D02*
X104854428Y-104192011D01*
X105044904Y-104168202D02*
X104949666Y-104275345D01*
X104854428Y-104477726D01*
X104854428Y-104763440D01*
X104949666Y-104942011D01*
X105140142Y-105013440D01*
X106187761Y-104882488D01*
X105140142Y-105013440D02*
X104949666Y-105132488D01*
X104854428Y-105334869D01*
X104854428Y-105620583D01*
X104949666Y-105799154D01*
X105140142Y-105870583D01*
X106187761Y-105739630D01*
D12*
%TO.C,G\u002A\u002A\u002A*%
G36*
X95371625Y-94231095D02*
G01*
X95499548Y-94219631D01*
X95603648Y-94195341D01*
X95708233Y-94153998D01*
X95739857Y-94139292D01*
X96013774Y-93971699D01*
X96236413Y-93754625D01*
X96400738Y-93497941D01*
X96457788Y-93375699D01*
X96493087Y-93275141D01*
X96511779Y-93170920D01*
X96519007Y-93037691D01*
X96520000Y-92910208D01*
X96517461Y-92737302D01*
X96506863Y-92612612D01*
X96483735Y-92511876D01*
X96443604Y-92410828D01*
X96418121Y-92357391D01*
X96258024Y-92105616D01*
X96051726Y-91896799D01*
X95810254Y-91736213D01*
X95544633Y-91629130D01*
X95265888Y-91580823D01*
X94985047Y-91596562D01*
X94878096Y-91620985D01*
X94646866Y-91700827D01*
X94460510Y-91803915D01*
X94291667Y-91946499D01*
X94239640Y-92000153D01*
X94060506Y-92223865D01*
X93944801Y-92451268D01*
X93884957Y-92701090D01*
X93872192Y-92909572D01*
X93875038Y-93075207D01*
X93889059Y-93198482D01*
X93920471Y-93309436D01*
X93975491Y-93438109D01*
X93986328Y-93461140D01*
X94154346Y-93735697D01*
X94373615Y-93959024D01*
X94633171Y-94125103D01*
X94745474Y-94177544D01*
X94842381Y-94209888D01*
X94948394Y-94226877D01*
X95088014Y-94233255D01*
X95195571Y-94233961D01*
X95371625Y-94231095D01*
G37*
X95371625Y-94231095D02*
X95499548Y-94219631D01*
X95603648Y-94195341D01*
X95708233Y-94153998D01*
X95739857Y-94139292D01*
X96013774Y-93971699D01*
X96236413Y-93754625D01*
X96400738Y-93497941D01*
X96457788Y-93375699D01*
X96493087Y-93275141D01*
X96511779Y-93170920D01*
X96519007Y-93037691D01*
X96520000Y-92910208D01*
X96517461Y-92737302D01*
X96506863Y-92612612D01*
X96483735Y-92511876D01*
X96443604Y-92410828D01*
X96418121Y-92357391D01*
X96258024Y-92105616D01*
X96051726Y-91896799D01*
X95810254Y-91736213D01*
X95544633Y-91629130D01*
X95265888Y-91580823D01*
X94985047Y-91596562D01*
X94878096Y-91620985D01*
X94646866Y-91700827D01*
X94460510Y-91803915D01*
X94291667Y-91946499D01*
X94239640Y-92000153D01*
X94060506Y-92223865D01*
X93944801Y-92451268D01*
X93884957Y-92701090D01*
X93872192Y-92909572D01*
X93875038Y-93075207D01*
X93889059Y-93198482D01*
X93920471Y-93309436D01*
X93975491Y-93438109D01*
X93986328Y-93461140D01*
X94154346Y-93735697D01*
X94373615Y-93959024D01*
X94633171Y-94125103D01*
X94745474Y-94177544D01*
X94842381Y-94209888D01*
X94948394Y-94226877D01*
X95088014Y-94233255D01*
X95195571Y-94233961D01*
X95371625Y-94231095D01*
G36*
X98951432Y-92782695D02*
G01*
X99222094Y-92701880D01*
X99462165Y-92560351D01*
X99654981Y-92383276D01*
X99830100Y-92157296D01*
X99940613Y-91922359D01*
X99993643Y-91660160D01*
X100000887Y-91494429D01*
X99969112Y-91172397D01*
X99875036Y-90887456D01*
X99719063Y-90640286D01*
X99501596Y-90431566D01*
X99289056Y-90295634D01*
X99171526Y-90236271D01*
X99071923Y-90198834D01*
X98965165Y-90177491D01*
X98826169Y-90166409D01*
X98715285Y-90162209D01*
X98530544Y-90160093D01*
X98393660Y-90169112D01*
X98280384Y-90192192D01*
X98180324Y-90226711D01*
X97963781Y-90345082D01*
X97757722Y-90518017D01*
X97580424Y-90727928D01*
X97473375Y-90906987D01*
X97414964Y-91032710D01*
X97379652Y-91135962D01*
X97361848Y-91243778D01*
X97355958Y-91383194D01*
X97355741Y-91475645D01*
X97377960Y-91764767D01*
X97447106Y-92009804D01*
X97570312Y-92227359D01*
X97754712Y-92434037D01*
X97776079Y-92454086D01*
X98016452Y-92637459D01*
X98271457Y-92752539D01*
X98551233Y-92803462D01*
X98640485Y-92806839D01*
X98951432Y-92782695D01*
G37*
X98951432Y-92782695D02*
X99222094Y-92701880D01*
X99462165Y-92560351D01*
X99654981Y-92383276D01*
X99830100Y-92157296D01*
X99940613Y-91922359D01*
X99993643Y-91660160D01*
X100000887Y-91494429D01*
X99969112Y-91172397D01*
X99875036Y-90887456D01*
X99719063Y-90640286D01*
X99501596Y-90431566D01*
X99289056Y-90295634D01*
X99171526Y-90236271D01*
X99071923Y-90198834D01*
X98965165Y-90177491D01*
X98826169Y-90166409D01*
X98715285Y-90162209D01*
X98530544Y-90160093D01*
X98393660Y-90169112D01*
X98280384Y-90192192D01*
X98180324Y-90226711D01*
X97963781Y-90345082D01*
X97757722Y-90518017D01*
X97580424Y-90727928D01*
X97473375Y-90906987D01*
X97414964Y-91032710D01*
X97379652Y-91135962D01*
X97361848Y-91243778D01*
X97355958Y-91383194D01*
X97355741Y-91475645D01*
X97377960Y-91764767D01*
X97447106Y-92009804D01*
X97570312Y-92227359D01*
X97754712Y-92434037D01*
X97776079Y-92454086D01*
X98016452Y-92637459D01*
X98271457Y-92752539D01*
X98551233Y-92803462D01*
X98640485Y-92806839D01*
X98951432Y-92782695D01*
G36*
X92103819Y-92757102D02*
G01*
X92363128Y-92649595D01*
X92597957Y-92486647D01*
X92798825Y-92269839D01*
X92934692Y-92046609D01*
X92982828Y-91940840D01*
X93012983Y-91846491D01*
X93029245Y-91740687D01*
X93035699Y-91600550D01*
X93036571Y-91476286D01*
X93034405Y-91300499D01*
X93025173Y-91174322D01*
X93004775Y-91074855D01*
X92969110Y-90979197D01*
X92934304Y-90905169D01*
X92772794Y-90653989D01*
X92558211Y-90438349D01*
X92307679Y-90275372D01*
X92301402Y-90272267D01*
X92181967Y-90219434D01*
X92070320Y-90187182D01*
X91939548Y-90169984D01*
X91766571Y-90162398D01*
X91608668Y-90162156D01*
X91469164Y-90168068D01*
X91370810Y-90178949D01*
X91349050Y-90184111D01*
X91095182Y-90298412D01*
X90861303Y-90464921D01*
X90666400Y-90668074D01*
X90558934Y-90831893D01*
X90444456Y-91117874D01*
X90396228Y-91412939D01*
X90412795Y-91706304D01*
X90492697Y-91987182D01*
X90634478Y-92244790D01*
X90771884Y-92407629D01*
X91011389Y-92601066D01*
X91273815Y-92731150D01*
X91549682Y-92799462D01*
X91829510Y-92807585D01*
X92103819Y-92757102D01*
G37*
X92103819Y-92757102D02*
X92363128Y-92649595D01*
X92597957Y-92486647D01*
X92798825Y-92269839D01*
X92934692Y-92046609D01*
X92982828Y-91940840D01*
X93012983Y-91846491D01*
X93029245Y-91740687D01*
X93035699Y-91600550D01*
X93036571Y-91476286D01*
X93034405Y-91300499D01*
X93025173Y-91174322D01*
X93004775Y-91074855D01*
X92969110Y-90979197D01*
X92934304Y-90905169D01*
X92772794Y-90653989D01*
X92558211Y-90438349D01*
X92307679Y-90275372D01*
X92301402Y-90272267D01*
X92181967Y-90219434D01*
X92070320Y-90187182D01*
X91939548Y-90169984D01*
X91766571Y-90162398D01*
X91608668Y-90162156D01*
X91469164Y-90168068D01*
X91370810Y-90178949D01*
X91349050Y-90184111D01*
X91095182Y-90298412D01*
X90861303Y-90464921D01*
X90666400Y-90668074D01*
X90558934Y-90831893D01*
X90444456Y-91117874D01*
X90396228Y-91412939D01*
X90412795Y-91706304D01*
X90492697Y-91987182D01*
X90634478Y-92244790D01*
X90771884Y-92407629D01*
X91011389Y-92601066D01*
X91273815Y-92731150D01*
X91549682Y-92799462D01*
X91829510Y-92807585D01*
X92103819Y-92757102D01*
G36*
X100425942Y-89296114D02*
G01*
X100711532Y-89198161D01*
X100962402Y-89039869D01*
X101171898Y-88825266D01*
X101311355Y-88603793D01*
X101360355Y-88500973D01*
X101391677Y-88411784D01*
X101409222Y-88314668D01*
X101416886Y-88188067D01*
X101418571Y-88011000D01*
X101416617Y-87831031D01*
X101408342Y-87702158D01*
X101390126Y-87602958D01*
X101358349Y-87512006D01*
X101320435Y-87430185D01*
X101154101Y-87170410D01*
X100938373Y-86959681D01*
X100682118Y-86803774D01*
X100394203Y-86708465D01*
X100169492Y-86680487D01*
X99976537Y-86682137D01*
X99810124Y-86701791D01*
X99741664Y-86718923D01*
X99450833Y-86850074D01*
X99204087Y-87038671D01*
X99002762Y-87283517D01*
X98893405Y-87479584D01*
X98806240Y-87745091D01*
X98782467Y-88025114D01*
X98818505Y-88306214D01*
X98910773Y-88574956D01*
X99055692Y-88817901D01*
X99249680Y-89021614D01*
X99318266Y-89074026D01*
X99536872Y-89208160D01*
X99746515Y-89288908D01*
X99975252Y-89325303D01*
X100112285Y-89329699D01*
X100425942Y-89296114D01*
G37*
X100425942Y-89296114D02*
X100711532Y-89198161D01*
X100962402Y-89039869D01*
X101171898Y-88825266D01*
X101311355Y-88603793D01*
X101360355Y-88500973D01*
X101391677Y-88411784D01*
X101409222Y-88314668D01*
X101416886Y-88188067D01*
X101418571Y-88011000D01*
X101416617Y-87831031D01*
X101408342Y-87702158D01*
X101390126Y-87602958D01*
X101358349Y-87512006D01*
X101320435Y-87430185D01*
X101154101Y-87170410D01*
X100938373Y-86959681D01*
X100682118Y-86803774D01*
X100394203Y-86708465D01*
X100169492Y-86680487D01*
X99976537Y-86682137D01*
X99810124Y-86701791D01*
X99741664Y-86718923D01*
X99450833Y-86850074D01*
X99204087Y-87038671D01*
X99002762Y-87283517D01*
X98893405Y-87479584D01*
X98806240Y-87745091D01*
X98782467Y-88025114D01*
X98818505Y-88306214D01*
X98910773Y-88574956D01*
X99055692Y-88817901D01*
X99249680Y-89021614D01*
X99318266Y-89074026D01*
X99536872Y-89208160D01*
X99746515Y-89288908D01*
X99975252Y-89325303D01*
X100112285Y-89329699D01*
X100425942Y-89296114D01*
G36*
X90577009Y-89304369D02*
G01*
X90835691Y-89223050D01*
X91069703Y-89082344D01*
X91178347Y-88991395D01*
X91381567Y-88762467D01*
X91521526Y-88512384D01*
X91601265Y-88249495D01*
X91623826Y-87982148D01*
X91592250Y-87718695D01*
X91509579Y-87467483D01*
X91378854Y-87236862D01*
X91203118Y-87035180D01*
X90985411Y-86870788D01*
X90728776Y-86752035D01*
X90436253Y-86687268D01*
X90336064Y-86679332D01*
X90145212Y-86678839D01*
X89991674Y-86700413D01*
X89869682Y-86737760D01*
X89582575Y-86874288D01*
X89351183Y-87052835D01*
X89167554Y-87280590D01*
X89068190Y-87462360D01*
X89021008Y-87573472D01*
X88992231Y-87676611D01*
X88977572Y-87796371D01*
X88972745Y-87957343D01*
X88972571Y-88011000D01*
X88975028Y-88182911D01*
X88985500Y-88306932D01*
X89008635Y-88407666D01*
X89049085Y-88509716D01*
X89078497Y-88571452D01*
X89247499Y-88835148D01*
X89471341Y-89052661D01*
X89745431Y-89219610D01*
X89885340Y-89280586D01*
X90001933Y-89314990D01*
X90128059Y-89329737D01*
X90278857Y-89331904D01*
X90577009Y-89304369D01*
G37*
X90577009Y-89304369D02*
X90835691Y-89223050D01*
X91069703Y-89082344D01*
X91178347Y-88991395D01*
X91381567Y-88762467D01*
X91521526Y-88512384D01*
X91601265Y-88249495D01*
X91623826Y-87982148D01*
X91592250Y-87718695D01*
X91509579Y-87467483D01*
X91378854Y-87236862D01*
X91203118Y-87035180D01*
X90985411Y-86870788D01*
X90728776Y-86752035D01*
X90436253Y-86687268D01*
X90336064Y-86679332D01*
X90145212Y-86678839D01*
X89991674Y-86700413D01*
X89869682Y-86737760D01*
X89582575Y-86874288D01*
X89351183Y-87052835D01*
X89167554Y-87280590D01*
X89068190Y-87462360D01*
X89021008Y-87573472D01*
X88992231Y-87676611D01*
X88977572Y-87796371D01*
X88972745Y-87957343D01*
X88972571Y-88011000D01*
X88975028Y-88182911D01*
X88985500Y-88306932D01*
X89008635Y-88407666D01*
X89049085Y-88509716D01*
X89078497Y-88571452D01*
X89247499Y-88835148D01*
X89471341Y-89052661D01*
X89745431Y-89219610D01*
X89885340Y-89280586D01*
X90001933Y-89314990D01*
X90128059Y-89329737D01*
X90278857Y-89331904D01*
X90577009Y-89304369D01*
G36*
X95419758Y-90965311D02*
G01*
X95606339Y-90957861D01*
X95753875Y-90943325D01*
X95879066Y-90920260D01*
X95957571Y-90899662D01*
X96407645Y-90733393D01*
X96817029Y-90509886D01*
X97181660Y-90233372D01*
X97497479Y-89908084D01*
X97760424Y-89538253D01*
X97966436Y-89128111D01*
X98111453Y-88681891D01*
X98120010Y-88646000D01*
X98156496Y-88418778D01*
X98174532Y-88148747D01*
X98174108Y-87863288D01*
X98155210Y-87589784D01*
X98120576Y-87367980D01*
X97991196Y-86940890D01*
X97796462Y-86536803D01*
X97541892Y-86163105D01*
X97233004Y-85827182D01*
X96875314Y-85536421D01*
X96641266Y-85387690D01*
X96440909Y-85290693D01*
X96193308Y-85198605D01*
X95923736Y-85119204D01*
X95657465Y-85060271D01*
X95502319Y-85037099D01*
X95353916Y-85021006D01*
X95232220Y-85009492D01*
X95155770Y-85004236D01*
X95141142Y-85004352D01*
X95088653Y-85010595D01*
X94986564Y-85022587D01*
X94862112Y-85037131D01*
X94416236Y-85124143D01*
X93997406Y-85274673D01*
X93610632Y-85483097D01*
X93260924Y-85743788D01*
X92953292Y-86051119D01*
X92692744Y-86399466D01*
X92484291Y-86783203D01*
X92332942Y-87196703D01*
X92243706Y-87634340D01*
X92220397Y-88003837D01*
X92254738Y-88466208D01*
X92355947Y-88906513D01*
X92520335Y-89319684D01*
X92744218Y-89700652D01*
X93023908Y-90044346D01*
X93355720Y-90345697D01*
X93735966Y-90599636D01*
X94160960Y-90801093D01*
X94288428Y-90847733D01*
X94426694Y-90893883D01*
X94539873Y-90926207D01*
X94646478Y-90947190D01*
X94765024Y-90959318D01*
X94914023Y-90965077D01*
X95111988Y-90966955D01*
X95177428Y-90967121D01*
X95419758Y-90965311D01*
G37*
X95419758Y-90965311D02*
X95606339Y-90957861D01*
X95753875Y-90943325D01*
X95879066Y-90920260D01*
X95957571Y-90899662D01*
X96407645Y-90733393D01*
X96817029Y-90509886D01*
X97181660Y-90233372D01*
X97497479Y-89908084D01*
X97760424Y-89538253D01*
X97966436Y-89128111D01*
X98111453Y-88681891D01*
X98120010Y-88646000D01*
X98156496Y-88418778D01*
X98174532Y-88148747D01*
X98174108Y-87863288D01*
X98155210Y-87589784D01*
X98120576Y-87367980D01*
X97991196Y-86940890D01*
X97796462Y-86536803D01*
X97541892Y-86163105D01*
X97233004Y-85827182D01*
X96875314Y-85536421D01*
X96641266Y-85387690D01*
X96440909Y-85290693D01*
X96193308Y-85198605D01*
X95923736Y-85119204D01*
X95657465Y-85060271D01*
X95502319Y-85037099D01*
X95353916Y-85021006D01*
X95232220Y-85009492D01*
X95155770Y-85004236D01*
X95141142Y-85004352D01*
X95088653Y-85010595D01*
X94986564Y-85022587D01*
X94862112Y-85037131D01*
X94416236Y-85124143D01*
X93997406Y-85274673D01*
X93610632Y-85483097D01*
X93260924Y-85743788D01*
X92953292Y-86051119D01*
X92692744Y-86399466D01*
X92484291Y-86783203D01*
X92332942Y-87196703D01*
X92243706Y-87634340D01*
X92220397Y-88003837D01*
X92254738Y-88466208D01*
X92355947Y-88906513D01*
X92520335Y-89319684D01*
X92744218Y-89700652D01*
X93023908Y-90044346D01*
X93355720Y-90345697D01*
X93735966Y-90599636D01*
X94160960Y-90801093D01*
X94288428Y-90847733D01*
X94426694Y-90893883D01*
X94539873Y-90926207D01*
X94646478Y-90947190D01*
X94765024Y-90959318D01*
X94914023Y-90965077D01*
X95111988Y-90966955D01*
X95177428Y-90967121D01*
X95419758Y-90965311D01*
G36*
X98862768Y-85848334D02*
G01*
X98997370Y-85835050D01*
X99105961Y-85808520D01*
X99198956Y-85771094D01*
X99463099Y-85613093D01*
X99680016Y-85409910D01*
X99845888Y-85171257D01*
X99956893Y-84906845D01*
X100009212Y-84626384D01*
X99999025Y-84339586D01*
X99922510Y-84056160D01*
X99897043Y-83996633D01*
X99743986Y-83743533D01*
X99541098Y-83531269D01*
X99299863Y-83365800D01*
X99031770Y-83253083D01*
X98748304Y-83199076D01*
X98460952Y-83209737D01*
X98401187Y-83220750D01*
X98125732Y-83314521D01*
X97871775Y-83469934D01*
X97655050Y-83676289D01*
X97573320Y-83783714D01*
X97431717Y-84051268D01*
X97356125Y-84332355D01*
X97343807Y-84617256D01*
X97392029Y-84896252D01*
X97498053Y-85159627D01*
X97659145Y-85397660D01*
X97872569Y-85600634D01*
X98128359Y-85755465D01*
X98240112Y-85803033D01*
X98343175Y-85832059D01*
X98462221Y-85846866D01*
X98621924Y-85851781D01*
X98679000Y-85851973D01*
X98862768Y-85848334D01*
G37*
X98862768Y-85848334D02*
X98997370Y-85835050D01*
X99105961Y-85808520D01*
X99198956Y-85771094D01*
X99463099Y-85613093D01*
X99680016Y-85409910D01*
X99845888Y-85171257D01*
X99956893Y-84906845D01*
X100009212Y-84626384D01*
X99999025Y-84339586D01*
X99922510Y-84056160D01*
X99897043Y-83996633D01*
X99743986Y-83743533D01*
X99541098Y-83531269D01*
X99299863Y-83365800D01*
X99031770Y-83253083D01*
X98748304Y-83199076D01*
X98460952Y-83209737D01*
X98401187Y-83220750D01*
X98125732Y-83314521D01*
X97871775Y-83469934D01*
X97655050Y-83676289D01*
X97573320Y-83783714D01*
X97431717Y-84051268D01*
X97356125Y-84332355D01*
X97343807Y-84617256D01*
X97392029Y-84896252D01*
X97498053Y-85159627D01*
X97659145Y-85397660D01*
X97872569Y-85600634D01*
X98128359Y-85755465D01*
X98240112Y-85803033D01*
X98343175Y-85832059D01*
X98462221Y-85846866D01*
X98621924Y-85851781D01*
X98679000Y-85851973D01*
X98862768Y-85848334D01*
G36*
X91902295Y-85850134D02*
G01*
X92024553Y-85841851D01*
X92119851Y-85822563D01*
X92210981Y-85787763D01*
X92314055Y-85736436D01*
X92526340Y-85596590D01*
X92720754Y-85414919D01*
X92879277Y-85210934D01*
X92979581Y-85015946D01*
X93047211Y-84736374D01*
X93052775Y-84441164D01*
X92998738Y-84147878D01*
X92887563Y-83874081D01*
X92799593Y-83733497D01*
X92607550Y-83527086D01*
X92370775Y-83366187D01*
X92104042Y-83255997D01*
X91822123Y-83201712D01*
X91539791Y-83208530D01*
X91393922Y-83239008D01*
X91199241Y-83303387D01*
X91043638Y-83382143D01*
X90898170Y-83492415D01*
X90784490Y-83599919D01*
X90640442Y-83756847D01*
X90542101Y-83902417D01*
X90474327Y-84064648D01*
X90422214Y-84270450D01*
X90393367Y-84578624D01*
X90436787Y-84880453D01*
X90510665Y-85089297D01*
X90611914Y-85259953D01*
X90759774Y-85436712D01*
X90933538Y-85598568D01*
X91112502Y-85724511D01*
X91163884Y-85752040D01*
X91268269Y-85799354D01*
X91362421Y-85828968D01*
X91469088Y-85844895D01*
X91611015Y-85851147D01*
X91730285Y-85851922D01*
X91902295Y-85850134D01*
G37*
X91902295Y-85850134D02*
X92024553Y-85841851D01*
X92119851Y-85822563D01*
X92210981Y-85787763D01*
X92314055Y-85736436D01*
X92526340Y-85596590D01*
X92720754Y-85414919D01*
X92879277Y-85210934D01*
X92979581Y-85015946D01*
X93047211Y-84736374D01*
X93052775Y-84441164D01*
X92998738Y-84147878D01*
X92887563Y-83874081D01*
X92799593Y-83733497D01*
X92607550Y-83527086D01*
X92370775Y-83366187D01*
X92104042Y-83255997D01*
X91822123Y-83201712D01*
X91539791Y-83208530D01*
X91393922Y-83239008D01*
X91199241Y-83303387D01*
X91043638Y-83382143D01*
X90898170Y-83492415D01*
X90784490Y-83599919D01*
X90640442Y-83756847D01*
X90542101Y-83902417D01*
X90474327Y-84064648D01*
X90422214Y-84270450D01*
X90393367Y-84578624D01*
X90436787Y-84880453D01*
X90510665Y-85089297D01*
X90611914Y-85259953D01*
X90759774Y-85436712D01*
X90933538Y-85598568D01*
X91112502Y-85724511D01*
X91163884Y-85752040D01*
X91268269Y-85799354D01*
X91362421Y-85828968D01*
X91469088Y-85844895D01*
X91611015Y-85851147D01*
X91730285Y-85851922D01*
X91902295Y-85850134D01*
G36*
X95384898Y-84397782D02*
G01*
X95522255Y-84387472D01*
X95628098Y-84366729D01*
X95722883Y-84332640D01*
X95746231Y-84322162D01*
X95915252Y-84221487D01*
X96091436Y-84079774D01*
X96248373Y-83920323D01*
X96341401Y-83797099D01*
X96462578Y-83541257D01*
X96523227Y-83263533D01*
X96525050Y-82977746D01*
X96469749Y-82697717D01*
X96359027Y-82437266D01*
X96194584Y-82210213D01*
X96139118Y-82154479D01*
X95928216Y-81981905D01*
X95719092Y-81868148D01*
X95489119Y-81803684D01*
X95250000Y-81780103D01*
X95078644Y-81776476D01*
X94953223Y-81783916D01*
X94847473Y-81806121D01*
X94735132Y-81846789D01*
X94714067Y-81855561D01*
X94432650Y-82007163D01*
X94208373Y-82202410D01*
X94037584Y-82445313D01*
X93920677Y-82726670D01*
X93867395Y-83015036D01*
X93881182Y-83303532D01*
X93957360Y-83581406D01*
X94091246Y-83837903D01*
X94278161Y-84062269D01*
X94513425Y-84243750D01*
X94602478Y-84293209D01*
X94705407Y-84342270D01*
X94794626Y-84373634D01*
X94891700Y-84391202D01*
X95018195Y-84398880D01*
X95195571Y-84400572D01*
X95384898Y-84397782D01*
G37*
X95384898Y-84397782D02*
X95522255Y-84387472D01*
X95628098Y-84366729D01*
X95722883Y-84332640D01*
X95746231Y-84322162D01*
X95915252Y-84221487D01*
X96091436Y-84079774D01*
X96248373Y-83920323D01*
X96341401Y-83797099D01*
X96462578Y-83541257D01*
X96523227Y-83263533D01*
X96525050Y-82977746D01*
X96469749Y-82697717D01*
X96359027Y-82437266D01*
X96194584Y-82210213D01*
X96139118Y-82154479D01*
X95928216Y-81981905D01*
X95719092Y-81868148D01*
X95489119Y-81803684D01*
X95250000Y-81780103D01*
X95078644Y-81776476D01*
X94953223Y-81783916D01*
X94847473Y-81806121D01*
X94735132Y-81846789D01*
X94714067Y-81855561D01*
X94432650Y-82007163D01*
X94208373Y-82202410D01*
X94037584Y-82445313D01*
X93920677Y-82726670D01*
X93867395Y-83015036D01*
X93881182Y-83303532D01*
X93957360Y-83581406D01*
X94091246Y-83837903D01*
X94278161Y-84062269D01*
X94513425Y-84243750D01*
X94602478Y-84293209D01*
X94705407Y-84342270D01*
X94794626Y-84373634D01*
X94891700Y-84391202D01*
X95018195Y-84398880D01*
X95195571Y-84400572D01*
X95384898Y-84397782D01*
%TO.C,REF\u002A\u002A*%
G36*
X98631258Y-60184337D02*
G01*
X98631659Y-60223819D01*
X98634451Y-60339508D01*
X98642742Y-60436397D01*
X98657424Y-60517789D01*
X98679385Y-60586985D01*
X98709514Y-60647288D01*
X98748702Y-60702000D01*
X98765724Y-60721541D01*
X98805555Y-60753958D01*
X98859605Y-60783188D01*
X98919515Y-60805717D01*
X98976931Y-60818029D01*
X98998148Y-60819308D01*
X99056961Y-60811291D01*
X99121205Y-60789809D01*
X99182013Y-60758709D01*
X99230522Y-60721842D01*
X99236374Y-60715854D01*
X99277513Y-60665129D01*
X99309627Y-60609583D01*
X99333557Y-60546012D01*
X99350145Y-60471214D01*
X99360233Y-60381986D01*
X99364661Y-60275126D01*
X99365037Y-60226180D01*
X99364737Y-60163946D01*
X99363484Y-60120180D01*
X99360746Y-60090777D01*
X99355993Y-60071629D01*
X99348693Y-60058631D01*
X99342459Y-60051663D01*
X99334886Y-60045082D01*
X99325116Y-60039920D01*
X99310532Y-60036005D01*
X99288518Y-60033165D01*
X99256456Y-60031228D01*
X99211728Y-60030024D01*
X99151718Y-60029380D01*
X99073809Y-60029125D01*
X98998148Y-60029086D01*
X98897233Y-60028838D01*
X98816619Y-60028891D01*
X98778014Y-60029851D01*
X98778014Y-60175841D01*
X99218281Y-60175841D01*
X99218196Y-60268974D01*
X99216588Y-60325015D01*
X99212448Y-60383709D01*
X99206656Y-60432680D01*
X99206418Y-60434170D01*
X99187282Y-60513316D01*
X99157479Y-60574706D01*
X99115070Y-60621403D01*
X99069153Y-60651073D01*
X99018218Y-60669355D01*
X98970392Y-60667937D01*
X98919125Y-60646720D01*
X98866091Y-60605219D01*
X98826792Y-60547710D01*
X98800523Y-60472958D01*
X98791227Y-60423000D01*
X98784699Y-60366292D01*
X98779974Y-60306189D01*
X98778009Y-60255069D01*
X98778000Y-60252041D01*
X98778014Y-60175841D01*
X98778014Y-60029851D01*
X98754043Y-60030448D01*
X98707247Y-60034710D01*
X98673970Y-60042878D01*
X98651951Y-60056152D01*
X98638931Y-60075734D01*
X98632649Y-60102825D01*
X98630845Y-60138626D01*
X98631258Y-60184337D01*
G37*
X98631258Y-60184337D02*
X98631659Y-60223819D01*
X98634451Y-60339508D01*
X98642742Y-60436397D01*
X98657424Y-60517789D01*
X98679385Y-60586985D01*
X98709514Y-60647288D01*
X98748702Y-60702000D01*
X98765724Y-60721541D01*
X98805555Y-60753958D01*
X98859605Y-60783188D01*
X98919515Y-60805717D01*
X98976931Y-60818029D01*
X98998148Y-60819308D01*
X99056961Y-60811291D01*
X99121205Y-60789809D01*
X99182013Y-60758709D01*
X99230522Y-60721842D01*
X99236374Y-60715854D01*
X99277513Y-60665129D01*
X99309627Y-60609583D01*
X99333557Y-60546012D01*
X99350145Y-60471214D01*
X99360233Y-60381986D01*
X99364661Y-60275126D01*
X99365037Y-60226180D01*
X99364737Y-60163946D01*
X99363484Y-60120180D01*
X99360746Y-60090777D01*
X99355993Y-60071629D01*
X99348693Y-60058631D01*
X99342459Y-60051663D01*
X99334886Y-60045082D01*
X99325116Y-60039920D01*
X99310532Y-60036005D01*
X99288518Y-60033165D01*
X99256456Y-60031228D01*
X99211728Y-60030024D01*
X99151718Y-60029380D01*
X99073809Y-60029125D01*
X98998148Y-60029086D01*
X98897233Y-60028838D01*
X98816619Y-60028891D01*
X98778014Y-60029851D01*
X98778014Y-60175841D01*
X99218281Y-60175841D01*
X99218196Y-60268974D01*
X99216588Y-60325015D01*
X99212448Y-60383709D01*
X99206656Y-60432680D01*
X99206418Y-60434170D01*
X99187282Y-60513316D01*
X99157479Y-60574706D01*
X99115070Y-60621403D01*
X99069153Y-60651073D01*
X99018218Y-60669355D01*
X98970392Y-60667937D01*
X98919125Y-60646720D01*
X98866091Y-60605219D01*
X98826792Y-60547710D01*
X98800523Y-60472958D01*
X98791227Y-60423000D01*
X98784699Y-60366292D01*
X98779974Y-60306189D01*
X98778009Y-60255069D01*
X98778000Y-60252041D01*
X98778014Y-60175841D01*
X98778014Y-60029851D01*
X98754043Y-60030448D01*
X98707247Y-60034710D01*
X98673970Y-60042878D01*
X98651951Y-60056152D01*
X98638931Y-60075734D01*
X98632649Y-60102825D01*
X98630845Y-60138626D01*
X98631258Y-60184337D01*
G36*
X98631338Y-61592914D02*
G01*
X98631710Y-61662322D01*
X98632577Y-61714711D01*
X98634138Y-61752861D01*
X98636595Y-61779549D01*
X98640149Y-61797555D01*
X98645002Y-61809659D01*
X98651353Y-61818639D01*
X98654276Y-61821890D01*
X98685334Y-61841665D01*
X98721020Y-61845226D01*
X98752702Y-61832217D01*
X98759105Y-61826202D01*
X98765313Y-61816473D01*
X98770102Y-61800807D01*
X98773706Y-61776300D01*
X98776356Y-61740047D01*
X98778287Y-61689143D01*
X98779731Y-61620682D01*
X98780610Y-61558091D01*
X98783659Y-61310374D01*
X98848570Y-61306989D01*
X98913481Y-61303603D01*
X98913481Y-61471750D01*
X98914111Y-61544749D01*
X98916745Y-61598191D01*
X98922501Y-61635080D01*
X98932496Y-61658420D01*
X98947848Y-61671214D01*
X98969674Y-61676466D01*
X98989930Y-61677263D01*
X99014784Y-61674785D01*
X99033098Y-61665431D01*
X99045829Y-61646325D01*
X99053933Y-61614590D01*
X99058368Y-61567349D01*
X99060091Y-61501725D01*
X99060237Y-61465907D01*
X99060237Y-61304730D01*
X99218281Y-61304730D01*
X99218281Y-61553086D01*
X99218394Y-61634495D01*
X99218904Y-61696366D01*
X99220062Y-61741740D01*
X99222122Y-61773654D01*
X99225338Y-61795149D01*
X99229964Y-61809265D01*
X99236251Y-61819040D01*
X99240859Y-61824019D01*
X99267752Y-61841098D01*
X99291659Y-61846597D01*
X99320859Y-61838745D01*
X99342459Y-61824019D01*
X99349258Y-61816162D01*
X99354538Y-61806020D01*
X99358490Y-61790864D01*
X99361305Y-61767967D01*
X99363174Y-61734599D01*
X99364290Y-61688033D01*
X99364843Y-61625541D01*
X99365025Y-61544394D01*
X99365037Y-61502286D01*
X99364957Y-61412110D01*
X99364590Y-61341784D01*
X99363744Y-61288579D01*
X99362228Y-61249768D01*
X99359851Y-61222621D01*
X99356421Y-61204410D01*
X99351746Y-61192408D01*
X99345636Y-61183886D01*
X99342459Y-61180552D01*
X99334862Y-61173953D01*
X99325062Y-61168781D01*
X99310431Y-61164862D01*
X99288344Y-61162024D01*
X99256174Y-61160093D01*
X99211295Y-61158896D01*
X99151081Y-61158260D01*
X99072905Y-61158011D01*
X99000115Y-61157974D01*
X98906899Y-61158008D01*
X98833623Y-61158243D01*
X98777650Y-61158878D01*
X98736343Y-61160114D01*
X98707064Y-61162152D01*
X98687176Y-61165191D01*
X98674042Y-61169431D01*
X98665024Y-61175073D01*
X98657485Y-61182317D01*
X98655804Y-61184102D01*
X98648364Y-61192763D01*
X98642601Y-61202826D01*
X98638304Y-61217083D01*
X98635256Y-61238325D01*
X98633243Y-61269344D01*
X98632052Y-61312931D01*
X98631467Y-61371877D01*
X98631275Y-61448974D01*
X98631259Y-61503707D01*
X98631338Y-61592914D01*
G37*
X98631338Y-61592914D02*
X98631710Y-61662322D01*
X98632577Y-61714711D01*
X98634138Y-61752861D01*
X98636595Y-61779549D01*
X98640149Y-61797555D01*
X98645002Y-61809659D01*
X98651353Y-61818639D01*
X98654276Y-61821890D01*
X98685334Y-61841665D01*
X98721020Y-61845226D01*
X98752702Y-61832217D01*
X98759105Y-61826202D01*
X98765313Y-61816473D01*
X98770102Y-61800807D01*
X98773706Y-61776300D01*
X98776356Y-61740047D01*
X98778287Y-61689143D01*
X98779731Y-61620682D01*
X98780610Y-61558091D01*
X98783659Y-61310374D01*
X98848570Y-61306989D01*
X98913481Y-61303603D01*
X98913481Y-61471750D01*
X98914111Y-61544749D01*
X98916745Y-61598191D01*
X98922501Y-61635080D01*
X98932496Y-61658420D01*
X98947848Y-61671214D01*
X98969674Y-61676466D01*
X98989930Y-61677263D01*
X99014784Y-61674785D01*
X99033098Y-61665431D01*
X99045829Y-61646325D01*
X99053933Y-61614590D01*
X99058368Y-61567349D01*
X99060091Y-61501725D01*
X99060237Y-61465907D01*
X99060237Y-61304730D01*
X99218281Y-61304730D01*
X99218281Y-61553086D01*
X99218394Y-61634495D01*
X99218904Y-61696366D01*
X99220062Y-61741740D01*
X99222122Y-61773654D01*
X99225338Y-61795149D01*
X99229964Y-61809265D01*
X99236251Y-61819040D01*
X99240859Y-61824019D01*
X99267752Y-61841098D01*
X99291659Y-61846597D01*
X99320859Y-61838745D01*
X99342459Y-61824019D01*
X99349258Y-61816162D01*
X99354538Y-61806020D01*
X99358490Y-61790864D01*
X99361305Y-61767967D01*
X99363174Y-61734599D01*
X99364290Y-61688033D01*
X99364843Y-61625541D01*
X99365025Y-61544394D01*
X99365037Y-61502286D01*
X99364957Y-61412110D01*
X99364590Y-61341784D01*
X99363744Y-61288579D01*
X99362228Y-61249768D01*
X99359851Y-61222621D01*
X99356421Y-61204410D01*
X99351746Y-61192408D01*
X99345636Y-61183886D01*
X99342459Y-61180552D01*
X99334862Y-61173953D01*
X99325062Y-61168781D01*
X99310431Y-61164862D01*
X99288344Y-61162024D01*
X99256174Y-61160093D01*
X99211295Y-61158896D01*
X99151081Y-61158260D01*
X99072905Y-61158011D01*
X99000115Y-61157974D01*
X98906899Y-61158008D01*
X98833623Y-61158243D01*
X98777650Y-61158878D01*
X98736343Y-61160114D01*
X98707064Y-61162152D01*
X98687176Y-61165191D01*
X98674042Y-61169431D01*
X98665024Y-61175073D01*
X98657485Y-61182317D01*
X98655804Y-61184102D01*
X98648364Y-61192763D01*
X98642601Y-61202826D01*
X98638304Y-61217083D01*
X98635256Y-61238325D01*
X98633243Y-61269344D01*
X98632052Y-61312931D01*
X98631467Y-61371877D01*
X98631275Y-61448974D01*
X98631259Y-61503707D01*
X98631338Y-61592914D01*
G36*
X98632543Y-62614005D02*
G01*
X98637773Y-62688820D01*
X98645942Y-62758402D01*
X98656742Y-62818706D01*
X98669865Y-62865688D01*
X98685005Y-62895302D01*
X98689461Y-62899848D01*
X98724042Y-62915654D01*
X98759543Y-62910861D01*
X98789917Y-62886344D01*
X98790788Y-62885174D01*
X98800146Y-62870754D01*
X98805068Y-62855700D01*
X98805665Y-62834703D01*
X98802053Y-62802451D01*
X98794346Y-62753635D01*
X98793697Y-62749708D01*
X98784761Y-62676969D01*
X98780353Y-62598491D01*
X98780311Y-62519781D01*
X98784471Y-62446347D01*
X98792671Y-62383697D01*
X98804749Y-62337338D01*
X98805963Y-62334292D01*
X98824807Y-62300660D01*
X98843877Y-62288844D01*
X98862631Y-62298094D01*
X98880529Y-62327661D01*
X98897029Y-62376797D01*
X98911588Y-62444751D01*
X98918598Y-62490063D01*
X98932081Y-62584252D01*
X98944406Y-62659164D01*
X98956641Y-62717991D01*
X98969853Y-62763923D01*
X98985109Y-62800153D01*
X99003477Y-62829870D01*
X99026023Y-62856266D01*
X99048163Y-62877478D01*
X99079011Y-62902643D01*
X99105537Y-62915027D01*
X99138218Y-62918900D01*
X99150187Y-62919041D01*
X99189904Y-62916132D01*
X99219451Y-62904506D01*
X99245678Y-62884385D01*
X99285768Y-62843492D01*
X99316341Y-62797891D01*
X99338395Y-62744195D01*
X99352927Y-62679016D01*
X99360933Y-62598964D01*
X99363410Y-62500651D01*
X99363369Y-62484419D01*
X99362010Y-62418859D01*
X99358922Y-62353842D01*
X99354548Y-62296456D01*
X99349332Y-62253786D01*
X99348733Y-62250336D01*
X99338683Y-62207912D01*
X99325988Y-62171928D01*
X99314382Y-62151558D01*
X99283764Y-62132601D01*
X99248110Y-62131281D01*
X99216336Y-62147623D01*
X99212743Y-62151279D01*
X99202068Y-62166393D01*
X99197468Y-62185293D01*
X99198251Y-62214546D01*
X99202319Y-62250057D01*
X99205954Y-62289738D01*
X99209020Y-62345363D01*
X99211245Y-62410302D01*
X99212356Y-62477923D01*
X99212429Y-62495708D01*
X99212156Y-62563580D01*
X99210838Y-62613254D01*
X99208019Y-62649098D01*
X99203242Y-62675484D01*
X99196049Y-62696782D01*
X99190059Y-62709582D01*
X99173425Y-62737708D01*
X99158360Y-62755640D01*
X99154089Y-62758261D01*
X99136455Y-62752732D01*
X99119384Y-62726448D01*
X99103650Y-62681230D01*
X99090030Y-62618900D01*
X99086996Y-62600537D01*
X99071930Y-62504618D01*
X99059338Y-62428067D01*
X99048303Y-62367928D01*
X99037912Y-62321248D01*
X99027248Y-62285071D01*
X99015397Y-62256443D01*
X99001443Y-62232410D01*
X98984473Y-62210016D01*
X98963570Y-62186306D01*
X98956241Y-62178328D01*
X98928891Y-62150355D01*
X98907221Y-62135548D01*
X98882424Y-62129756D01*
X98851175Y-62128819D01*
X98789897Y-62139133D01*
X98737832Y-62169956D01*
X98695150Y-62221113D01*
X98662017Y-62292425D01*
X98647156Y-62343308D01*
X98637558Y-62398608D01*
X98632128Y-62464855D01*
X98630559Y-62538002D01*
X98632543Y-62614005D01*
G37*
X98632543Y-62614005D02*
X98637773Y-62688820D01*
X98645942Y-62758402D01*
X98656742Y-62818706D01*
X98669865Y-62865688D01*
X98685005Y-62895302D01*
X98689461Y-62899848D01*
X98724042Y-62915654D01*
X98759543Y-62910861D01*
X98789917Y-62886344D01*
X98790788Y-62885174D01*
X98800146Y-62870754D01*
X98805068Y-62855700D01*
X98805665Y-62834703D01*
X98802053Y-62802451D01*
X98794346Y-62753635D01*
X98793697Y-62749708D01*
X98784761Y-62676969D01*
X98780353Y-62598491D01*
X98780311Y-62519781D01*
X98784471Y-62446347D01*
X98792671Y-62383697D01*
X98804749Y-62337338D01*
X98805963Y-62334292D01*
X98824807Y-62300660D01*
X98843877Y-62288844D01*
X98862631Y-62298094D01*
X98880529Y-62327661D01*
X98897029Y-62376797D01*
X98911588Y-62444751D01*
X98918598Y-62490063D01*
X98932081Y-62584252D01*
X98944406Y-62659164D01*
X98956641Y-62717991D01*
X98969853Y-62763923D01*
X98985109Y-62800153D01*
X99003477Y-62829870D01*
X99026023Y-62856266D01*
X99048163Y-62877478D01*
X99079011Y-62902643D01*
X99105537Y-62915027D01*
X99138218Y-62918900D01*
X99150187Y-62919041D01*
X99189904Y-62916132D01*
X99219451Y-62904506D01*
X99245678Y-62884385D01*
X99285768Y-62843492D01*
X99316341Y-62797891D01*
X99338395Y-62744195D01*
X99352927Y-62679016D01*
X99360933Y-62598964D01*
X99363410Y-62500651D01*
X99363369Y-62484419D01*
X99362010Y-62418859D01*
X99358922Y-62353842D01*
X99354548Y-62296456D01*
X99349332Y-62253786D01*
X99348733Y-62250336D01*
X99338683Y-62207912D01*
X99325988Y-62171928D01*
X99314382Y-62151558D01*
X99283764Y-62132601D01*
X99248110Y-62131281D01*
X99216336Y-62147623D01*
X99212743Y-62151279D01*
X99202068Y-62166393D01*
X99197468Y-62185293D01*
X99198251Y-62214546D01*
X99202319Y-62250057D01*
X99205954Y-62289738D01*
X99209020Y-62345363D01*
X99211245Y-62410302D01*
X99212356Y-62477923D01*
X99212429Y-62495708D01*
X99212156Y-62563580D01*
X99210838Y-62613254D01*
X99208019Y-62649098D01*
X99203242Y-62675484D01*
X99196049Y-62696782D01*
X99190059Y-62709582D01*
X99173425Y-62737708D01*
X99158360Y-62755640D01*
X99154089Y-62758261D01*
X99136455Y-62752732D01*
X99119384Y-62726448D01*
X99103650Y-62681230D01*
X99090030Y-62618900D01*
X99086996Y-62600537D01*
X99071930Y-62504618D01*
X99059338Y-62428067D01*
X99048303Y-62367928D01*
X99037912Y-62321248D01*
X99027248Y-62285071D01*
X99015397Y-62256443D01*
X99001443Y-62232410D01*
X98984473Y-62210016D01*
X98963570Y-62186306D01*
X98956241Y-62178328D01*
X98928891Y-62150355D01*
X98907221Y-62135548D01*
X98882424Y-62129756D01*
X98851175Y-62128819D01*
X98789897Y-62139133D01*
X98737832Y-62169956D01*
X98695150Y-62221113D01*
X98662017Y-62292425D01*
X98647156Y-62343308D01*
X98637558Y-62398608D01*
X98632128Y-62464855D01*
X98630559Y-62538002D01*
X98632543Y-62614005D01*
G36*
X98653837Y-63381886D02*
G01*
X98661410Y-63388466D01*
X98671179Y-63393629D01*
X98685763Y-63397544D01*
X98707777Y-63400384D01*
X98739840Y-63402321D01*
X98784567Y-63403525D01*
X98844577Y-63404169D01*
X98922486Y-63404424D01*
X98998148Y-63404463D01*
X99091994Y-63404394D01*
X99165881Y-63404070D01*
X99222424Y-63403322D01*
X99264241Y-63401976D01*
X99293949Y-63399862D01*
X99314165Y-63396808D01*
X99327506Y-63392642D01*
X99336590Y-63387192D01*
X99342459Y-63381886D01*
X99362139Y-63348882D01*
X99360373Y-63313717D01*
X99338909Y-63282253D01*
X99330529Y-63275024D01*
X99320806Y-63269374D01*
X99307053Y-63265109D01*
X99286581Y-63262035D01*
X99256704Y-63259956D01*
X99214733Y-63258678D01*
X99157981Y-63258007D01*
X99083759Y-63257749D01*
X98999729Y-63257708D01*
X98686677Y-63257708D01*
X98658968Y-63285417D01*
X98635655Y-63319571D01*
X98634815Y-63352702D01*
X98653837Y-63381886D01*
G37*
X98653837Y-63381886D02*
X98661410Y-63388466D01*
X98671179Y-63393629D01*
X98685763Y-63397544D01*
X98707777Y-63400384D01*
X98739840Y-63402321D01*
X98784567Y-63403525D01*
X98844577Y-63404169D01*
X98922486Y-63404424D01*
X98998148Y-63404463D01*
X99091994Y-63404394D01*
X99165881Y-63404070D01*
X99222424Y-63403322D01*
X99264241Y-63401976D01*
X99293949Y-63399862D01*
X99314165Y-63396808D01*
X99327506Y-63392642D01*
X99336590Y-63387192D01*
X99342459Y-63381886D01*
X99362139Y-63348882D01*
X99360373Y-63313717D01*
X99338909Y-63282253D01*
X99330529Y-63275024D01*
X99320806Y-63269374D01*
X99307053Y-63265109D01*
X99286581Y-63262035D01*
X99256704Y-63259956D01*
X99214733Y-63258678D01*
X99157981Y-63258007D01*
X99083759Y-63257749D01*
X98999729Y-63257708D01*
X98686677Y-63257708D01*
X98658968Y-63285417D01*
X98635655Y-63319571D01*
X98634815Y-63352702D01*
X98653837Y-63381886D01*
G36*
X98636791Y-64355627D02*
G01*
X98648287Y-64424143D01*
X98666159Y-64476765D01*
X98689691Y-64511000D01*
X98703116Y-64520329D01*
X98734340Y-64529815D01*
X98762587Y-64523431D01*
X98789374Y-64503278D01*
X98801905Y-64471963D01*
X98800888Y-64426525D01*
X98794098Y-64391382D01*
X98781163Y-64313289D01*
X98779934Y-64233482D01*
X98790433Y-64144153D01*
X98794882Y-64119479D01*
X98818300Y-64036417D01*
X98853137Y-63971435D01*
X98898796Y-63925247D01*
X98954686Y-63898563D01*
X98983580Y-63893045D01*
X99042204Y-63896657D01*
X99094071Y-63919979D01*
X99138170Y-63960884D01*
X99173491Y-64017249D01*
X99199021Y-64086948D01*
X99213751Y-64167856D01*
X99216670Y-64257848D01*
X99206767Y-64354798D01*
X99205833Y-64360272D01*
X99198651Y-64398833D01*
X99191713Y-64420214D01*
X99181419Y-64429481D01*
X99164168Y-64431702D01*
X99155033Y-64431752D01*
X99116681Y-64431752D01*
X99116681Y-64363277D01*
X99112539Y-64302808D01*
X99099339Y-64261543D01*
X99075922Y-64237533D01*
X99041128Y-64228831D01*
X99036586Y-64228725D01*
X99006846Y-64233816D01*
X98985611Y-64251275D01*
X98971558Y-64283769D01*
X98963365Y-64333965D01*
X98960353Y-64382585D01*
X98958625Y-64453252D01*
X98961262Y-64504510D01*
X98970992Y-64539469D01*
X98990545Y-64561238D01*
X99022648Y-64572928D01*
X99070030Y-64577648D01*
X99132263Y-64578508D01*
X99201727Y-64577099D01*
X99248978Y-64572860D01*
X99274204Y-64565772D01*
X99276180Y-64564397D01*
X99307700Y-64525480D01*
X99332662Y-64468422D01*
X99350532Y-64396839D01*
X99360778Y-64314350D01*
X99362865Y-64224569D01*
X99356260Y-64131116D01*
X99348148Y-64076152D01*
X99323746Y-63989942D01*
X99283854Y-63909816D01*
X99232079Y-63842731D01*
X99221731Y-63832535D01*
X99178227Y-63799406D01*
X99124310Y-63769514D01*
X99067784Y-63746351D01*
X99016451Y-63733410D01*
X98996736Y-63731850D01*
X98955611Y-63738490D01*
X98904444Y-63756140D01*
X98850586Y-63781411D01*
X98801387Y-63810919D01*
X98768526Y-63836989D01*
X98719644Y-63897943D01*
X98680737Y-63976739D01*
X98652686Y-64070551D01*
X98636371Y-64176558D01*
X98632384Y-64273708D01*
X98636791Y-64355627D01*
G37*
X98636791Y-64355627D02*
X98648287Y-64424143D01*
X98666159Y-64476765D01*
X98689691Y-64511000D01*
X98703116Y-64520329D01*
X98734340Y-64529815D01*
X98762587Y-64523431D01*
X98789374Y-64503278D01*
X98801905Y-64471963D01*
X98800888Y-64426525D01*
X98794098Y-64391382D01*
X98781163Y-64313289D01*
X98779934Y-64233482D01*
X98790433Y-64144153D01*
X98794882Y-64119479D01*
X98818300Y-64036417D01*
X98853137Y-63971435D01*
X98898796Y-63925247D01*
X98954686Y-63898563D01*
X98983580Y-63893045D01*
X99042204Y-63896657D01*
X99094071Y-63919979D01*
X99138170Y-63960884D01*
X99173491Y-64017249D01*
X99199021Y-64086948D01*
X99213751Y-64167856D01*
X99216670Y-64257848D01*
X99206767Y-64354798D01*
X99205833Y-64360272D01*
X99198651Y-64398833D01*
X99191713Y-64420214D01*
X99181419Y-64429481D01*
X99164168Y-64431702D01*
X99155033Y-64431752D01*
X99116681Y-64431752D01*
X99116681Y-64363277D01*
X99112539Y-64302808D01*
X99099339Y-64261543D01*
X99075922Y-64237533D01*
X99041128Y-64228831D01*
X99036586Y-64228725D01*
X99006846Y-64233816D01*
X98985611Y-64251275D01*
X98971558Y-64283769D01*
X98963365Y-64333965D01*
X98960353Y-64382585D01*
X98958625Y-64453252D01*
X98961262Y-64504510D01*
X98970992Y-64539469D01*
X98990545Y-64561238D01*
X99022648Y-64572928D01*
X99070030Y-64577648D01*
X99132263Y-64578508D01*
X99201727Y-64577099D01*
X99248978Y-64572860D01*
X99274204Y-64565772D01*
X99276180Y-64564397D01*
X99307700Y-64525480D01*
X99332662Y-64468422D01*
X99350532Y-64396839D01*
X99360778Y-64314350D01*
X99362865Y-64224569D01*
X99356260Y-64131116D01*
X99348148Y-64076152D01*
X99323746Y-63989942D01*
X99283854Y-63909816D01*
X99232079Y-63842731D01*
X99221731Y-63832535D01*
X99178227Y-63799406D01*
X99124310Y-63769514D01*
X99067784Y-63746351D01*
X99016451Y-63733410D01*
X98996736Y-63731850D01*
X98955611Y-63738490D01*
X98904444Y-63756140D01*
X98850586Y-63781411D01*
X98801387Y-63810919D01*
X98768526Y-63836989D01*
X98719644Y-63897943D01*
X98680737Y-63976739D01*
X98652686Y-64070551D01*
X98636371Y-64176558D01*
X98632384Y-64273708D01*
X98636791Y-64355627D01*
G36*
X98635640Y-65005594D02*
G01*
X98649465Y-65029160D01*
X98672073Y-65059973D01*
X98704530Y-65099630D01*
X98747900Y-65149728D01*
X98803250Y-65211865D01*
X98871643Y-65287636D01*
X98950276Y-65374374D01*
X99114070Y-65554997D01*
X98894221Y-65560641D01*
X98818543Y-65562679D01*
X98762186Y-65564645D01*
X98721898Y-65566974D01*
X98694427Y-65570102D01*
X98676521Y-65574463D01*
X98664929Y-65580492D01*
X98656400Y-65588624D01*
X98652815Y-65592936D01*
X98633862Y-65627467D01*
X98636633Y-65660325D01*
X98652825Y-65686390D01*
X98674391Y-65713041D01*
X98989343Y-65716356D01*
X99081971Y-65717273D01*
X99154736Y-65717740D01*
X99210353Y-65717595D01*
X99251534Y-65716676D01*
X99280995Y-65714821D01*
X99301447Y-65711869D01*
X99315605Y-65707658D01*
X99326183Y-65702026D01*
X99334666Y-65695781D01*
X99350399Y-65682269D01*
X99360828Y-65668825D01*
X99364831Y-65653584D01*
X99361286Y-65634682D01*
X99349071Y-65610253D01*
X99327063Y-65578435D01*
X99294141Y-65537360D01*
X99249183Y-65485166D01*
X99191067Y-65419986D01*
X99124291Y-65346152D01*
X98883650Y-65080863D01*
X99102781Y-65075219D01*
X99178320Y-65073177D01*
X99234546Y-65071206D01*
X99274716Y-65068869D01*
X99302088Y-65065727D01*
X99319920Y-65061344D01*
X99331471Y-65055284D01*
X99339999Y-65047108D01*
X99343474Y-65042924D01*
X99362564Y-65005943D01*
X99359685Y-64971000D01*
X99335292Y-64940572D01*
X99325478Y-64933611D01*
X99314018Y-64928185D01*
X99298160Y-64924105D01*
X99275155Y-64921179D01*
X99242254Y-64919216D01*
X99196708Y-64918025D01*
X99135765Y-64917416D01*
X99056678Y-64917197D01*
X98998148Y-64917174D01*
X98906599Y-64917248D01*
X98834879Y-64917595D01*
X98780237Y-64918407D01*
X98739924Y-64919875D01*
X98711190Y-64922189D01*
X98691285Y-64925541D01*
X98677460Y-64930120D01*
X98666964Y-64936119D01*
X98661003Y-64940572D01*
X98646883Y-64951858D01*
X98636221Y-64962407D01*
X98630084Y-64973815D01*
X98629535Y-64987678D01*
X98635640Y-65005594D01*
G37*
X98635640Y-65005594D02*
X98649465Y-65029160D01*
X98672073Y-65059973D01*
X98704530Y-65099630D01*
X98747900Y-65149728D01*
X98803250Y-65211865D01*
X98871643Y-65287636D01*
X98950276Y-65374374D01*
X99114070Y-65554997D01*
X98894221Y-65560641D01*
X98818543Y-65562679D01*
X98762186Y-65564645D01*
X98721898Y-65566974D01*
X98694427Y-65570102D01*
X98676521Y-65574463D01*
X98664929Y-65580492D01*
X98656400Y-65588624D01*
X98652815Y-65592936D01*
X98633862Y-65627467D01*
X98636633Y-65660325D01*
X98652825Y-65686390D01*
X98674391Y-65713041D01*
X98989343Y-65716356D01*
X99081971Y-65717273D01*
X99154736Y-65717740D01*
X99210353Y-65717595D01*
X99251534Y-65716676D01*
X99280995Y-65714821D01*
X99301447Y-65711869D01*
X99315605Y-65707658D01*
X99326183Y-65702026D01*
X99334666Y-65695781D01*
X99350399Y-65682269D01*
X99360828Y-65668825D01*
X99364831Y-65653584D01*
X99361286Y-65634682D01*
X99349071Y-65610253D01*
X99327063Y-65578435D01*
X99294141Y-65537360D01*
X99249183Y-65485166D01*
X99191067Y-65419986D01*
X99124291Y-65346152D01*
X98883650Y-65080863D01*
X99102781Y-65075219D01*
X99178320Y-65073177D01*
X99234546Y-65071206D01*
X99274716Y-65068869D01*
X99302088Y-65065727D01*
X99319920Y-65061344D01*
X99331471Y-65055284D01*
X99339999Y-65047108D01*
X99343474Y-65042924D01*
X99362564Y-65005943D01*
X99359685Y-64971000D01*
X99335292Y-64940572D01*
X99325478Y-64933611D01*
X99314018Y-64928185D01*
X99298160Y-64924105D01*
X99275155Y-64921179D01*
X99242254Y-64919216D01*
X99196708Y-64918025D01*
X99135765Y-64917416D01*
X99056678Y-64917197D01*
X98998148Y-64917174D01*
X98906599Y-64917248D01*
X98834879Y-64917595D01*
X98780237Y-64918407D01*
X98739924Y-64919875D01*
X98711190Y-64922189D01*
X98691285Y-64925541D01*
X98677460Y-64930120D01*
X98666964Y-64936119D01*
X98661003Y-64940572D01*
X98646883Y-64951858D01*
X98636221Y-64962407D01*
X98630084Y-64973815D01*
X98629535Y-64987678D01*
X98635640Y-65005594D01*
G36*
X98631452Y-66536051D02*
G01*
X98632366Y-66612409D01*
X98634503Y-66670925D01*
X98638367Y-66713963D01*
X98644459Y-66743891D01*
X98653282Y-66763076D01*
X98665338Y-66773884D01*
X98681131Y-66778681D01*
X98701162Y-66779835D01*
X98703527Y-66779841D01*
X98726184Y-66778839D01*
X98743695Y-66774104D01*
X98756766Y-66763041D01*
X98766105Y-66743056D01*
X98772419Y-66711554D01*
X98776414Y-66665940D01*
X98778798Y-66603621D01*
X98780278Y-66522001D01*
X98780606Y-66496985D01*
X98783659Y-66254908D01*
X98848570Y-66251522D01*
X98913481Y-66248137D01*
X98913481Y-66416284D01*
X98913723Y-66481974D01*
X98914748Y-66528880D01*
X98917003Y-66560791D01*
X98920934Y-66581499D01*
X98926990Y-66594792D01*
X98935616Y-66604463D01*
X98935685Y-66604525D01*
X98969304Y-66622064D01*
X99005640Y-66621430D01*
X99036615Y-66603022D01*
X99039799Y-66599379D01*
X99048004Y-66586449D01*
X99053713Y-66568732D01*
X99057354Y-66542278D01*
X99059359Y-66503140D01*
X99060156Y-66447370D01*
X99060237Y-66411702D01*
X99060237Y-66249263D01*
X99218281Y-66249263D01*
X99218281Y-66495869D01*
X99218423Y-66577288D01*
X99219006Y-66639118D01*
X99220260Y-66684345D01*
X99222419Y-66715956D01*
X99225715Y-66736939D01*
X99230381Y-66750281D01*
X99236649Y-66758969D01*
X99238925Y-66761158D01*
X99270472Y-66777322D01*
X99306360Y-66778505D01*
X99337477Y-66765244D01*
X99347463Y-66754751D01*
X99352961Y-66743837D01*
X99357214Y-66726925D01*
X99360372Y-66701341D01*
X99362584Y-66664409D01*
X99363998Y-66613454D01*
X99364764Y-66545802D01*
X99365030Y-66458777D01*
X99365037Y-66439102D01*
X99364979Y-66350619D01*
X99364659Y-66281935D01*
X99363859Y-66230272D01*
X99362359Y-66192853D01*
X99359941Y-66166898D01*
X99356386Y-66149630D01*
X99351474Y-66138270D01*
X99344987Y-66130040D01*
X99340330Y-66125525D01*
X99332081Y-66118729D01*
X99321861Y-66113420D01*
X99306992Y-66109414D01*
X99284794Y-66106529D01*
X99252585Y-66104582D01*
X99207688Y-66103389D01*
X99147420Y-66102769D01*
X99069103Y-66102537D01*
X99003186Y-66102508D01*
X98910820Y-66102579D01*
X98838309Y-66102916D01*
X98782929Y-66103706D01*
X98741957Y-66105134D01*
X98712670Y-66107387D01*
X98692345Y-66110651D01*
X98678258Y-66115112D01*
X98667687Y-66120956D01*
X98661003Y-66125905D01*
X98631259Y-66149302D01*
X98631259Y-66439482D01*
X98631452Y-66536051D01*
G37*
X98631452Y-66536051D02*
X98632366Y-66612409D01*
X98634503Y-66670925D01*
X98638367Y-66713963D01*
X98644459Y-66743891D01*
X98653282Y-66763076D01*
X98665338Y-66773884D01*
X98681131Y-66778681D01*
X98701162Y-66779835D01*
X98703527Y-66779841D01*
X98726184Y-66778839D01*
X98743695Y-66774104D01*
X98756766Y-66763041D01*
X98766105Y-66743056D01*
X98772419Y-66711554D01*
X98776414Y-66665940D01*
X98778798Y-66603621D01*
X98780278Y-66522001D01*
X98780606Y-66496985D01*
X98783659Y-66254908D01*
X98848570Y-66251522D01*
X98913481Y-66248137D01*
X98913481Y-66416284D01*
X98913723Y-66481974D01*
X98914748Y-66528880D01*
X98917003Y-66560791D01*
X98920934Y-66581499D01*
X98926990Y-66594792D01*
X98935616Y-66604463D01*
X98935685Y-66604525D01*
X98969304Y-66622064D01*
X99005640Y-66621430D01*
X99036615Y-66603022D01*
X99039799Y-66599379D01*
X99048004Y-66586449D01*
X99053713Y-66568732D01*
X99057354Y-66542278D01*
X99059359Y-66503140D01*
X99060156Y-66447370D01*
X99060237Y-66411702D01*
X99060237Y-66249263D01*
X99218281Y-66249263D01*
X99218281Y-66495869D01*
X99218423Y-66577288D01*
X99219006Y-66639118D01*
X99220260Y-66684345D01*
X99222419Y-66715956D01*
X99225715Y-66736939D01*
X99230381Y-66750281D01*
X99236649Y-66758969D01*
X99238925Y-66761158D01*
X99270472Y-66777322D01*
X99306360Y-66778505D01*
X99337477Y-66765244D01*
X99347463Y-66754751D01*
X99352961Y-66743837D01*
X99357214Y-66726925D01*
X99360372Y-66701341D01*
X99362584Y-66664409D01*
X99363998Y-66613454D01*
X99364764Y-66545802D01*
X99365030Y-66458777D01*
X99365037Y-66439102D01*
X99364979Y-66350619D01*
X99364659Y-66281935D01*
X99363859Y-66230272D01*
X99362359Y-66192853D01*
X99359941Y-66166898D01*
X99356386Y-66149630D01*
X99351474Y-66138270D01*
X99344987Y-66130040D01*
X99340330Y-66125525D01*
X99332081Y-66118729D01*
X99321861Y-66113420D01*
X99306992Y-66109414D01*
X99284794Y-66106529D01*
X99252585Y-66104582D01*
X99207688Y-66103389D01*
X99147420Y-66102769D01*
X99069103Y-66102537D01*
X99003186Y-66102508D01*
X98910820Y-66102579D01*
X98838309Y-66102916D01*
X98782929Y-66103706D01*
X98741957Y-66105134D01*
X98712670Y-66107387D01*
X98692345Y-66110651D01*
X98678258Y-66115112D01*
X98667687Y-66120956D01*
X98661003Y-66125905D01*
X98631259Y-66149302D01*
X98631259Y-66439482D01*
X98631452Y-66536051D01*
G36*
X98631467Y-67324017D02*
G01*
X98635828Y-67452996D01*
X98649053Y-67562699D01*
X98671933Y-67654934D01*
X98705262Y-67731510D01*
X98749830Y-67794235D01*
X98806428Y-67844920D01*
X98875850Y-67885371D01*
X98877543Y-67886167D01*
X98939675Y-67910309D01*
X98994701Y-67918911D01*
X99050079Y-67911939D01*
X99113265Y-67889362D01*
X99122881Y-67885080D01*
X99179158Y-67855880D01*
X99222643Y-67823064D01*
X99259609Y-67780710D01*
X99296327Y-67722898D01*
X99298244Y-67719539D01*
X99322419Y-67669212D01*
X99340474Y-67612329D01*
X99353031Y-67545235D01*
X99360714Y-67464273D01*
X99364145Y-67365790D01*
X99364443Y-67330994D01*
X99365037Y-67165302D01*
X99335292Y-67141905D01*
X99325511Y-67134965D01*
X99314089Y-67129550D01*
X99298287Y-67125473D01*
X99275367Y-67122545D01*
X99242588Y-67120575D01*
X99218281Y-67119933D01*
X99218281Y-67276552D01*
X99218281Y-67370434D01*
X99216675Y-67425372D01*
X99212447Y-67481768D01*
X99206484Y-67528053D01*
X99205982Y-67530847D01*
X99183928Y-67613056D01*
X99150792Y-67676822D01*
X99105039Y-67724160D01*
X99045131Y-67757090D01*
X99029253Y-67762816D01*
X99004525Y-67768429D01*
X98980094Y-67765999D01*
X98947592Y-67754175D01*
X98931626Y-67747048D01*
X98889198Y-67723708D01*
X98859432Y-67695588D01*
X98838703Y-67664648D01*
X98811729Y-67602674D01*
X98792190Y-67523359D01*
X98780938Y-67430961D01*
X98778462Y-67364041D01*
X98778014Y-67276552D01*
X99218281Y-67276552D01*
X99218281Y-67119933D01*
X99197213Y-67119376D01*
X99136503Y-67118758D01*
X99057718Y-67118533D01*
X98996112Y-67118508D01*
X98686677Y-67118508D01*
X98658968Y-67146217D01*
X98647736Y-67158514D01*
X98640045Y-67171811D01*
X98635232Y-67190380D01*
X98632638Y-67218494D01*
X98631602Y-67260425D01*
X98631462Y-67320445D01*
X98631467Y-67324017D01*
G37*
X98631467Y-67324017D02*
X98635828Y-67452996D01*
X98649053Y-67562699D01*
X98671933Y-67654934D01*
X98705262Y-67731510D01*
X98749830Y-67794235D01*
X98806428Y-67844920D01*
X98875850Y-67885371D01*
X98877543Y-67886167D01*
X98939675Y-67910309D01*
X98994701Y-67918911D01*
X99050079Y-67911939D01*
X99113265Y-67889362D01*
X99122881Y-67885080D01*
X99179158Y-67855880D01*
X99222643Y-67823064D01*
X99259609Y-67780710D01*
X99296327Y-67722898D01*
X99298244Y-67719539D01*
X99322419Y-67669212D01*
X99340474Y-67612329D01*
X99353031Y-67545235D01*
X99360714Y-67464273D01*
X99364145Y-67365790D01*
X99364443Y-67330994D01*
X99365037Y-67165302D01*
X99335292Y-67141905D01*
X99325511Y-67134965D01*
X99314089Y-67129550D01*
X99298287Y-67125473D01*
X99275367Y-67122545D01*
X99242588Y-67120575D01*
X99218281Y-67119933D01*
X99218281Y-67276552D01*
X99218281Y-67370434D01*
X99216675Y-67425372D01*
X99212447Y-67481768D01*
X99206484Y-67528053D01*
X99205982Y-67530847D01*
X99183928Y-67613056D01*
X99150792Y-67676822D01*
X99105039Y-67724160D01*
X99045131Y-67757090D01*
X99029253Y-67762816D01*
X99004525Y-67768429D01*
X98980094Y-67765999D01*
X98947592Y-67754175D01*
X98931626Y-67747048D01*
X98889198Y-67723708D01*
X98859432Y-67695588D01*
X98838703Y-67664648D01*
X98811729Y-67602674D01*
X98792190Y-67523359D01*
X98780938Y-67430961D01*
X98778462Y-67364041D01*
X98778014Y-67276552D01*
X99218281Y-67276552D01*
X99218281Y-67119933D01*
X99197213Y-67119376D01*
X99136503Y-67118758D01*
X99057718Y-67118533D01*
X98996112Y-67118508D01*
X98686677Y-67118508D01*
X98658968Y-67146217D01*
X98647736Y-67158514D01*
X98640045Y-67171811D01*
X98635232Y-67190380D01*
X98632638Y-67218494D01*
X98631602Y-67260425D01*
X98631462Y-67320445D01*
X98631467Y-67324017D01*
G36*
X98633226Y-70050373D02*
G01*
X98640227Y-70069963D01*
X98640569Y-70070718D01*
X98660870Y-70097321D01*
X98681753Y-70111978D01*
X98691544Y-70114846D01*
X98704553Y-70114704D01*
X98723087Y-70110669D01*
X98749449Y-70101854D01*
X98785944Y-70087377D01*
X98834879Y-70066353D01*
X98898557Y-70037896D01*
X98979285Y-70001123D01*
X99023408Y-69980883D01*
X99102177Y-69944333D01*
X99174615Y-69910023D01*
X99238072Y-69879260D01*
X99289900Y-69853356D01*
X99327451Y-69833618D01*
X99348076Y-69821358D01*
X99350925Y-69818932D01*
X99363494Y-69787891D01*
X99361811Y-69752829D01*
X99346524Y-69724708D01*
X99345281Y-69723562D01*
X99328346Y-69712376D01*
X99295362Y-69693612D01*
X99250572Y-69669583D01*
X99198224Y-69642605D01*
X99178934Y-69632909D01*
X99032342Y-69559722D01*
X99191585Y-69479948D01*
X99246607Y-69451475D01*
X99294324Y-69425058D01*
X99331085Y-69402856D01*
X99353236Y-69387027D01*
X99357933Y-69381662D01*
X99364294Y-69339965D01*
X99350925Y-69305557D01*
X99336638Y-69295436D01*
X99304884Y-69277922D01*
X99258789Y-69254443D01*
X99201477Y-69226428D01*
X99136072Y-69195307D01*
X99065699Y-69162507D01*
X98993483Y-69129458D01*
X98922547Y-69097589D01*
X98856017Y-69068327D01*
X98797018Y-69043103D01*
X98748673Y-69023344D01*
X98714107Y-69010480D01*
X98696445Y-69005939D01*
X98695805Y-69005985D01*
X98673580Y-69017034D01*
X98650945Y-69039118D01*
X98649960Y-69040418D01*
X98634617Y-69067561D01*
X98634766Y-69092666D01*
X98637658Y-69102076D01*
X98643910Y-69113542D01*
X98656206Y-69125718D01*
X98677100Y-69140065D01*
X98709141Y-69158044D01*
X98754880Y-69181115D01*
X98816869Y-69210738D01*
X98874090Y-69237453D01*
X98940418Y-69268188D01*
X99000066Y-69295729D01*
X99049917Y-69318646D01*
X99086856Y-69335506D01*
X99107765Y-69344881D01*
X99111037Y-69346248D01*
X99105689Y-69352397D01*
X99083301Y-69366530D01*
X99047138Y-69386765D01*
X99000469Y-69411223D01*
X98981214Y-69420956D01*
X98916196Y-69453925D01*
X98868846Y-69479351D01*
X98836411Y-69499320D01*
X98816138Y-69515918D01*
X98805274Y-69531232D01*
X98801067Y-69547348D01*
X98800592Y-69557851D01*
X98802234Y-69576378D01*
X98809023Y-69592612D01*
X98823758Y-69608743D01*
X98849236Y-69626959D01*
X98888253Y-69649447D01*
X98943606Y-69678397D01*
X98975095Y-69694370D01*
X99025279Y-69720278D01*
X99066896Y-69742875D01*
X99096434Y-69760166D01*
X99110381Y-69770158D01*
X99110962Y-69771517D01*
X99099985Y-69777969D01*
X99071482Y-69792416D01*
X99028436Y-69813411D01*
X98973830Y-69839505D01*
X98910646Y-69869254D01*
X98879263Y-69883888D01*
X98798270Y-69921958D01*
X98735948Y-69952613D01*
X98690263Y-69977445D01*
X98659181Y-69998045D01*
X98640670Y-70016006D01*
X98632696Y-70032918D01*
X98633226Y-70050373D01*
G37*
X98633226Y-70050373D02*
X98640227Y-70069963D01*
X98640569Y-70070718D01*
X98660870Y-70097321D01*
X98681753Y-70111978D01*
X98691544Y-70114846D01*
X98704553Y-70114704D01*
X98723087Y-70110669D01*
X98749449Y-70101854D01*
X98785944Y-70087377D01*
X98834879Y-70066353D01*
X98898557Y-70037896D01*
X98979285Y-70001123D01*
X99023408Y-69980883D01*
X99102177Y-69944333D01*
X99174615Y-69910023D01*
X99238072Y-69879260D01*
X99289900Y-69853356D01*
X99327451Y-69833618D01*
X99348076Y-69821358D01*
X99350925Y-69818932D01*
X99363494Y-69787891D01*
X99361811Y-69752829D01*
X99346524Y-69724708D01*
X99345281Y-69723562D01*
X99328346Y-69712376D01*
X99295362Y-69693612D01*
X99250572Y-69669583D01*
X99198224Y-69642605D01*
X99178934Y-69632909D01*
X99032342Y-69559722D01*
X99191585Y-69479948D01*
X99246607Y-69451475D01*
X99294324Y-69425058D01*
X99331085Y-69402856D01*
X99353236Y-69387027D01*
X99357933Y-69381662D01*
X99364294Y-69339965D01*
X99350925Y-69305557D01*
X99336638Y-69295436D01*
X99304884Y-69277922D01*
X99258789Y-69254443D01*
X99201477Y-69226428D01*
X99136072Y-69195307D01*
X99065699Y-69162507D01*
X98993483Y-69129458D01*
X98922547Y-69097589D01*
X98856017Y-69068327D01*
X98797018Y-69043103D01*
X98748673Y-69023344D01*
X98714107Y-69010480D01*
X98696445Y-69005939D01*
X98695805Y-69005985D01*
X98673580Y-69017034D01*
X98650945Y-69039118D01*
X98649960Y-69040418D01*
X98634617Y-69067561D01*
X98634766Y-69092666D01*
X98637658Y-69102076D01*
X98643910Y-69113542D01*
X98656206Y-69125718D01*
X98677100Y-69140065D01*
X98709141Y-69158044D01*
X98754880Y-69181115D01*
X98816869Y-69210738D01*
X98874090Y-69237453D01*
X98940418Y-69268188D01*
X99000066Y-69295729D01*
X99049917Y-69318646D01*
X99086856Y-69335506D01*
X99107765Y-69344881D01*
X99111037Y-69346248D01*
X99105689Y-69352397D01*
X99083301Y-69366530D01*
X99047138Y-69386765D01*
X99000469Y-69411223D01*
X98981214Y-69420956D01*
X98916196Y-69453925D01*
X98868846Y-69479351D01*
X98836411Y-69499320D01*
X98816138Y-69515918D01*
X98805274Y-69531232D01*
X98801067Y-69547348D01*
X98800592Y-69557851D01*
X98802234Y-69576378D01*
X98809023Y-69592612D01*
X98823758Y-69608743D01*
X98849236Y-69626959D01*
X98888253Y-69649447D01*
X98943606Y-69678397D01*
X98975095Y-69694370D01*
X99025279Y-69720278D01*
X99066896Y-69742875D01*
X99096434Y-69760166D01*
X99110381Y-69770158D01*
X99110962Y-69771517D01*
X99099985Y-69777969D01*
X99071482Y-69792416D01*
X99028436Y-69813411D01*
X98973830Y-69839505D01*
X98910646Y-69869254D01*
X98879263Y-69883888D01*
X98798270Y-69921958D01*
X98735948Y-69952613D01*
X98690263Y-69977445D01*
X98659181Y-69998045D01*
X98640670Y-70016006D01*
X98632696Y-70032918D01*
X98633226Y-70050373D01*
G36*
X98638069Y-70494322D02*
G01*
X98652839Y-70518035D01*
X98674419Y-70544686D01*
X98995965Y-70544686D01*
X99090022Y-70544601D01*
X99164124Y-70544237D01*
X99220896Y-70543432D01*
X99262960Y-70542021D01*
X99292940Y-70539841D01*
X99313459Y-70536729D01*
X99327141Y-70532522D01*
X99336608Y-70527056D01*
X99341274Y-70523180D01*
X99361767Y-70491742D01*
X99360931Y-70455941D01*
X99343456Y-70424581D01*
X99321876Y-70397930D01*
X98674419Y-70397930D01*
X98652839Y-70424581D01*
X98637141Y-70450302D01*
X98631259Y-70471308D01*
X98638069Y-70494322D01*
G37*
X98638069Y-70494322D02*
X98652839Y-70518035D01*
X98674419Y-70544686D01*
X98995965Y-70544686D01*
X99090022Y-70544601D01*
X99164124Y-70544237D01*
X99220896Y-70543432D01*
X99262960Y-70542021D01*
X99292940Y-70539841D01*
X99313459Y-70536729D01*
X99327141Y-70532522D01*
X99336608Y-70527056D01*
X99341274Y-70523180D01*
X99361767Y-70491742D01*
X99360931Y-70455941D01*
X99343456Y-70424581D01*
X99321876Y-70397930D01*
X98674419Y-70397930D01*
X98652839Y-70424581D01*
X98637141Y-70450302D01*
X98631259Y-70471308D01*
X98638069Y-70494322D01*
G36*
X98631355Y-71268773D02*
G01*
X98631734Y-71347480D01*
X98632525Y-71408571D01*
X98633862Y-71454525D01*
X98635875Y-71487822D01*
X98638698Y-71510944D01*
X98642461Y-71526370D01*
X98647297Y-71536579D01*
X98651014Y-71541521D01*
X98683550Y-71567165D01*
X98717330Y-71570267D01*
X98748018Y-71554419D01*
X98760281Y-71544056D01*
X98768642Y-71532904D01*
X98773849Y-71516743D01*
X98776649Y-71491350D01*
X98777788Y-71452506D01*
X98778013Y-71395988D01*
X98778014Y-71384888D01*
X98778014Y-71238952D01*
X99048948Y-71238952D01*
X99134346Y-71238856D01*
X99200056Y-71238419D01*
X99248966Y-71237420D01*
X99283965Y-71235636D01*
X99307941Y-71232845D01*
X99323785Y-71228825D01*
X99334383Y-71223353D01*
X99342459Y-71216374D01*
X99362304Y-71183442D01*
X99360740Y-71149062D01*
X99338098Y-71117884D01*
X99335292Y-71115594D01*
X99324684Y-71108137D01*
X99312273Y-71102455D01*
X99295042Y-71098309D01*
X99269976Y-71095458D01*
X99234059Y-71093662D01*
X99184275Y-71092680D01*
X99117609Y-71092272D01*
X99041781Y-71092197D01*
X98778014Y-71092197D01*
X98778014Y-70952835D01*
X98777610Y-70893030D01*
X98776032Y-70851626D01*
X98772739Y-70824456D01*
X98767184Y-70807354D01*
X98758823Y-70796151D01*
X98757370Y-70794791D01*
X98724131Y-70778433D01*
X98686554Y-70779880D01*
X98653837Y-70798686D01*
X98647490Y-70805958D01*
X98642458Y-70815335D01*
X98638588Y-70829317D01*
X98635729Y-70850404D01*
X98633727Y-70881097D01*
X98632431Y-70923897D01*
X98631690Y-70981303D01*
X98631350Y-71055818D01*
X98631260Y-71149941D01*
X98631259Y-71169968D01*
X98631355Y-71268773D01*
G37*
X98631355Y-71268773D02*
X98631734Y-71347480D01*
X98632525Y-71408571D01*
X98633862Y-71454525D01*
X98635875Y-71487822D01*
X98638698Y-71510944D01*
X98642461Y-71526370D01*
X98647297Y-71536579D01*
X98651014Y-71541521D01*
X98683550Y-71567165D01*
X98717330Y-71570267D01*
X98748018Y-71554419D01*
X98760281Y-71544056D01*
X98768642Y-71532904D01*
X98773849Y-71516743D01*
X98776649Y-71491350D01*
X98777788Y-71452506D01*
X98778013Y-71395988D01*
X98778014Y-71384888D01*
X98778014Y-71238952D01*
X99048948Y-71238952D01*
X99134346Y-71238856D01*
X99200056Y-71238419D01*
X99248966Y-71237420D01*
X99283965Y-71235636D01*
X99307941Y-71232845D01*
X99323785Y-71228825D01*
X99334383Y-71223353D01*
X99342459Y-71216374D01*
X99362304Y-71183442D01*
X99360740Y-71149062D01*
X99338098Y-71117884D01*
X99335292Y-71115594D01*
X99324684Y-71108137D01*
X99312273Y-71102455D01*
X99295042Y-71098309D01*
X99269976Y-71095458D01*
X99234059Y-71093662D01*
X99184275Y-71092680D01*
X99117609Y-71092272D01*
X99041781Y-71092197D01*
X98778014Y-71092197D01*
X98778014Y-70952835D01*
X98777610Y-70893030D01*
X98776032Y-70851626D01*
X98772739Y-70824456D01*
X98767184Y-70807354D01*
X98758823Y-70796151D01*
X98757370Y-70794791D01*
X98724131Y-70778433D01*
X98686554Y-70779880D01*
X98653837Y-70798686D01*
X98647490Y-70805958D01*
X98642458Y-70815335D01*
X98638588Y-70829317D01*
X98635729Y-70850404D01*
X98633727Y-70881097D01*
X98632431Y-70923897D01*
X98631690Y-70981303D01*
X98631350Y-71055818D01*
X98631260Y-71149941D01*
X98631259Y-71169968D01*
X98631355Y-71268773D01*
G36*
X98636725Y-72534531D02*
G01*
X98658968Y-72565910D01*
X98686677Y-72593619D01*
X98996112Y-72593619D01*
X99087991Y-72593546D01*
X99160032Y-72593203D01*
X99214972Y-72592400D01*
X99255552Y-72590949D01*
X99284509Y-72588660D01*
X99304583Y-72585344D01*
X99318513Y-72580813D01*
X99329037Y-72574877D01*
X99335292Y-72570222D01*
X99359865Y-72539491D01*
X99362533Y-72504204D01*
X99347463Y-72471953D01*
X99338566Y-72461296D01*
X99326749Y-72454172D01*
X99307718Y-72449875D01*
X99277184Y-72447699D01*
X99230854Y-72446936D01*
X99195063Y-72446863D01*
X99060237Y-72446863D01*
X99060237Y-71950152D01*
X99182892Y-71950152D01*
X99238979Y-71949639D01*
X99277525Y-71947584D01*
X99303553Y-71943216D01*
X99322089Y-71935764D01*
X99335292Y-71926755D01*
X99359796Y-71895852D01*
X99362698Y-71860904D01*
X99345281Y-71827446D01*
X99336151Y-71818312D01*
X99324047Y-71811860D01*
X99305193Y-71807605D01*
X99275812Y-71805060D01*
X99232129Y-71803737D01*
X99170367Y-71803151D01*
X99156192Y-71803083D01*
X99039823Y-71802599D01*
X98943919Y-71802349D01*
X98866369Y-71802431D01*
X98805061Y-71802939D01*
X98757882Y-71803970D01*
X98722722Y-71805621D01*
X98697468Y-71807987D01*
X98680009Y-71811165D01*
X98668233Y-71815252D01*
X98660027Y-71820342D01*
X98653837Y-71825974D01*
X98634036Y-71857836D01*
X98636725Y-71891065D01*
X98658968Y-71922443D01*
X98673318Y-71935141D01*
X98689170Y-71943234D01*
X98711746Y-71947750D01*
X98746270Y-71949714D01*
X98797968Y-71950152D01*
X98913481Y-71950152D01*
X98913481Y-72446863D01*
X98794948Y-72446863D01*
X98740340Y-72447370D01*
X98703467Y-72449406D01*
X98679499Y-72453743D01*
X98663607Y-72461155D01*
X98653837Y-72469441D01*
X98634036Y-72501302D01*
X98636725Y-72534531D01*
G37*
X98636725Y-72534531D02*
X98658968Y-72565910D01*
X98686677Y-72593619D01*
X98996112Y-72593619D01*
X99087991Y-72593546D01*
X99160032Y-72593203D01*
X99214972Y-72592400D01*
X99255552Y-72590949D01*
X99284509Y-72588660D01*
X99304583Y-72585344D01*
X99318513Y-72580813D01*
X99329037Y-72574877D01*
X99335292Y-72570222D01*
X99359865Y-72539491D01*
X99362533Y-72504204D01*
X99347463Y-72471953D01*
X99338566Y-72461296D01*
X99326749Y-72454172D01*
X99307718Y-72449875D01*
X99277184Y-72447699D01*
X99230854Y-72446936D01*
X99195063Y-72446863D01*
X99060237Y-72446863D01*
X99060237Y-71950152D01*
X99182892Y-71950152D01*
X99238979Y-71949639D01*
X99277525Y-71947584D01*
X99303553Y-71943216D01*
X99322089Y-71935764D01*
X99335292Y-71926755D01*
X99359796Y-71895852D01*
X99362698Y-71860904D01*
X99345281Y-71827446D01*
X99336151Y-71818312D01*
X99324047Y-71811860D01*
X99305193Y-71807605D01*
X99275812Y-71805060D01*
X99232129Y-71803737D01*
X99170367Y-71803151D01*
X99156192Y-71803083D01*
X99039823Y-71802599D01*
X98943919Y-71802349D01*
X98866369Y-71802431D01*
X98805061Y-71802939D01*
X98757882Y-71803970D01*
X98722722Y-71805621D01*
X98697468Y-71807987D01*
X98680009Y-71811165D01*
X98668233Y-71815252D01*
X98660027Y-71820342D01*
X98653837Y-71825974D01*
X98634036Y-71857836D01*
X98636725Y-71891065D01*
X98658968Y-71922443D01*
X98673318Y-71935141D01*
X98689170Y-71943234D01*
X98711746Y-71947750D01*
X98746270Y-71949714D01*
X98797968Y-71950152D01*
X98913481Y-71950152D01*
X98913481Y-72446863D01*
X98794948Y-72446863D01*
X98740340Y-72447370D01*
X98703467Y-72449406D01*
X98679499Y-72453743D01*
X98663607Y-72461155D01*
X98653837Y-72469441D01*
X98634036Y-72501302D01*
X98636725Y-72534531D01*
G36*
X92032490Y-63567921D02*
G01*
X92068238Y-63671027D01*
X92124507Y-63767022D01*
X92201288Y-63852753D01*
X92298573Y-63925070D01*
X92359892Y-63957555D01*
X92445660Y-63985668D01*
X92544677Y-63999295D01*
X92646471Y-63997786D01*
X92738714Y-63981031D01*
X92851432Y-63935237D01*
X92949207Y-63868832D01*
X93030115Y-63785191D01*
X93092232Y-63687688D01*
X93133634Y-63579700D01*
X93152397Y-63464601D01*
X93146598Y-63345766D01*
X93134206Y-63287189D01*
X93089797Y-63173028D01*
X93022033Y-63071635D01*
X92933001Y-62985455D01*
X92824791Y-62916934D01*
X92812973Y-62911136D01*
X92768628Y-62891096D01*
X92731280Y-62878513D01*
X92691880Y-62871681D01*
X92641381Y-62868895D01*
X92586433Y-62868432D01*
X92520415Y-62869197D01*
X92472689Y-62872648D01*
X92434103Y-62880523D01*
X92395506Y-62894557D01*
X92357426Y-62911880D01*
X92249328Y-62976495D01*
X92161803Y-63056066D01*
X92094841Y-63147440D01*
X92048436Y-63247464D01*
X92022581Y-63352988D01*
X92017268Y-63460858D01*
X92032490Y-63567921D01*
G37*
X92032490Y-63567921D02*
X92068238Y-63671027D01*
X92124507Y-63767022D01*
X92201288Y-63852753D01*
X92298573Y-63925070D01*
X92359892Y-63957555D01*
X92445660Y-63985668D01*
X92544677Y-63999295D01*
X92646471Y-63997786D01*
X92738714Y-63981031D01*
X92851432Y-63935237D01*
X92949207Y-63868832D01*
X93030115Y-63785191D01*
X93092232Y-63687688D01*
X93133634Y-63579700D01*
X93152397Y-63464601D01*
X93146598Y-63345766D01*
X93134206Y-63287189D01*
X93089797Y-63173028D01*
X93022033Y-63071635D01*
X92933001Y-62985455D01*
X92824791Y-62916934D01*
X92812973Y-62911136D01*
X92768628Y-62891096D01*
X92731280Y-62878513D01*
X92691880Y-62871681D01*
X92641381Y-62868895D01*
X92586433Y-62868432D01*
X92520415Y-62869197D01*
X92472689Y-62872648D01*
X92434103Y-62880523D01*
X92395506Y-62894557D01*
X92357426Y-62911880D01*
X92249328Y-62976495D01*
X92161803Y-63056066D01*
X92094841Y-63147440D01*
X92048436Y-63247464D01*
X92022581Y-63352988D01*
X92017268Y-63460858D01*
X92032490Y-63567921D01*
G36*
X92952825Y-73136270D02*
G01*
X92953304Y-73253041D01*
X92953545Y-73292729D01*
X92957135Y-73838486D01*
X95050919Y-73845351D01*
X95334842Y-73846258D01*
X95592640Y-73847062D01*
X95825646Y-73847815D01*
X96035194Y-73848569D01*
X96222618Y-73849375D01*
X96389250Y-73850285D01*
X96536425Y-73851351D01*
X96665477Y-73852624D01*
X96777739Y-73854156D01*
X96874544Y-73855998D01*
X96957226Y-73858203D01*
X97027119Y-73860822D01*
X97085557Y-73863906D01*
X97133872Y-73867508D01*
X97173400Y-73871678D01*
X97205473Y-73876469D01*
X97231424Y-73881931D01*
X97252589Y-73888118D01*
X97270299Y-73895080D01*
X97285889Y-73902869D01*
X97300693Y-73911537D01*
X97316044Y-73921135D01*
X97333276Y-73931715D01*
X97336946Y-73933884D01*
X97399031Y-73970268D01*
X97395434Y-73444431D01*
X97391838Y-72918594D01*
X97276331Y-72911729D01*
X97220899Y-72907992D01*
X97188851Y-72904097D01*
X97176135Y-72898811D01*
X97178696Y-72890903D01*
X97186024Y-72884270D01*
X97212714Y-72855374D01*
X97247021Y-72808279D01*
X97284846Y-72749620D01*
X97322090Y-72686031D01*
X97354653Y-72624149D01*
X97376077Y-72576634D01*
X97411283Y-72465316D01*
X97436222Y-72337596D01*
X97449941Y-72202901D01*
X97451486Y-72070663D01*
X97439906Y-71950308D01*
X97439574Y-71948326D01*
X97398250Y-71783641D01*
X97332412Y-71629479D01*
X97243474Y-71487328D01*
X97132852Y-71358675D01*
X97001961Y-71245007D01*
X96852216Y-71147810D01*
X96685033Y-71068572D01*
X96561190Y-71025430D01*
X96457581Y-70996979D01*
X96357252Y-70975880D01*
X96254109Y-70961488D01*
X96142057Y-70953158D01*
X96015001Y-70950245D01*
X95911252Y-70951535D01*
X95911252Y-71964650D01*
X96085222Y-71969444D01*
X96234895Y-71984568D01*
X96361597Y-72010485D01*
X96466658Y-72047663D01*
X96551406Y-72096565D01*
X96617169Y-72157658D01*
X96663659Y-72228177D01*
X96681014Y-72264871D01*
X96691419Y-72296696D01*
X96696179Y-72332177D01*
X96696601Y-72379841D01*
X96694748Y-72431189D01*
X96685841Y-72532169D01*
X96668398Y-72612035D01*
X96659661Y-72637135D01*
X96633857Y-72694448D01*
X96601453Y-72754897D01*
X96585233Y-72781297D01*
X96540205Y-72849946D01*
X95112982Y-72849946D01*
X95067718Y-72774432D01*
X95016572Y-72669121D01*
X94986324Y-72561525D01*
X94976795Y-72455581D01*
X94987807Y-72355224D01*
X95019181Y-72264387D01*
X95070740Y-72187007D01*
X95095488Y-72162039D01*
X95176577Y-72101856D01*
X95274734Y-72053145D01*
X95391643Y-72015499D01*
X95528985Y-71988512D01*
X95688444Y-71971775D01*
X95871700Y-71964883D01*
X95911252Y-71964650D01*
X95911252Y-70951535D01*
X95868067Y-70952073D01*
X95642053Y-70963647D01*
X95438192Y-70986920D01*
X95253513Y-71022504D01*
X95085048Y-71071013D01*
X94929826Y-71133060D01*
X94883808Y-71155201D01*
X94733739Y-71244385D01*
X94600377Y-71352159D01*
X94485877Y-71475990D01*
X94392389Y-71613342D01*
X94322068Y-71761683D01*
X94293060Y-71850604D01*
X94275840Y-71937933D01*
X94265594Y-72043011D01*
X94262318Y-72157029D01*
X94266009Y-72271177D01*
X94276660Y-72376648D01*
X94293370Y-72461334D01*
X94326140Y-72562128D01*
X94368279Y-72659822D01*
X94415519Y-72745296D01*
X94447581Y-72790789D01*
X94471422Y-72822169D01*
X94485939Y-72844142D01*
X94488000Y-72849141D01*
X94474718Y-72850690D01*
X94436663Y-72852135D01*
X94376519Y-72853443D01*
X94296973Y-72854583D01*
X94200711Y-72855521D01*
X94090419Y-72856226D01*
X93968781Y-72856667D01*
X93844885Y-72856811D01*
X93686196Y-72856730D01*
X93552408Y-72856335D01*
X93440960Y-72855395D01*
X93349295Y-72853680D01*
X93274853Y-72850957D01*
X93215075Y-72846997D01*
X93167402Y-72841569D01*
X93129274Y-72834441D01*
X93098134Y-72825384D01*
X93071421Y-72814167D01*
X93046577Y-72800558D01*
X93021043Y-72784328D01*
X93017881Y-72782240D01*
X92984810Y-72761306D01*
X92962069Y-72748667D01*
X92957272Y-72746973D01*
X92955759Y-72760216D01*
X92954528Y-72798002D01*
X92953599Y-72857416D01*
X92952992Y-72935542D01*
X92952727Y-73029465D01*
X92952825Y-73136270D01*
G37*
X92952825Y-73136270D02*
X92953304Y-73253041D01*
X92953545Y-73292729D01*
X92957135Y-73838486D01*
X95050919Y-73845351D01*
X95334842Y-73846258D01*
X95592640Y-73847062D01*
X95825646Y-73847815D01*
X96035194Y-73848569D01*
X96222618Y-73849375D01*
X96389250Y-73850285D01*
X96536425Y-73851351D01*
X96665477Y-73852624D01*
X96777739Y-73854156D01*
X96874544Y-73855998D01*
X96957226Y-73858203D01*
X97027119Y-73860822D01*
X97085557Y-73863906D01*
X97133872Y-73867508D01*
X97173400Y-73871678D01*
X97205473Y-73876469D01*
X97231424Y-73881931D01*
X97252589Y-73888118D01*
X97270299Y-73895080D01*
X97285889Y-73902869D01*
X97300693Y-73911537D01*
X97316044Y-73921135D01*
X97333276Y-73931715D01*
X97336946Y-73933884D01*
X97399031Y-73970268D01*
X97395434Y-73444431D01*
X97391838Y-72918594D01*
X97276331Y-72911729D01*
X97220899Y-72907992D01*
X97188851Y-72904097D01*
X97176135Y-72898811D01*
X97178696Y-72890903D01*
X97186024Y-72884270D01*
X97212714Y-72855374D01*
X97247021Y-72808279D01*
X97284846Y-72749620D01*
X97322090Y-72686031D01*
X97354653Y-72624149D01*
X97376077Y-72576634D01*
X97411283Y-72465316D01*
X97436222Y-72337596D01*
X97449941Y-72202901D01*
X97451486Y-72070663D01*
X97439906Y-71950308D01*
X97439574Y-71948326D01*
X97398250Y-71783641D01*
X97332412Y-71629479D01*
X97243474Y-71487328D01*
X97132852Y-71358675D01*
X97001961Y-71245007D01*
X96852216Y-71147810D01*
X96685033Y-71068572D01*
X96561190Y-71025430D01*
X96457581Y-70996979D01*
X96357252Y-70975880D01*
X96254109Y-70961488D01*
X96142057Y-70953158D01*
X96015001Y-70950245D01*
X95911252Y-70951535D01*
X95911252Y-71964650D01*
X96085222Y-71969444D01*
X96234895Y-71984568D01*
X96361597Y-72010485D01*
X96466658Y-72047663D01*
X96551406Y-72096565D01*
X96617169Y-72157658D01*
X96663659Y-72228177D01*
X96681014Y-72264871D01*
X96691419Y-72296696D01*
X96696179Y-72332177D01*
X96696601Y-72379841D01*
X96694748Y-72431189D01*
X96685841Y-72532169D01*
X96668398Y-72612035D01*
X96659661Y-72637135D01*
X96633857Y-72694448D01*
X96601453Y-72754897D01*
X96585233Y-72781297D01*
X96540205Y-72849946D01*
X95112982Y-72849946D01*
X95067718Y-72774432D01*
X95016572Y-72669121D01*
X94986324Y-72561525D01*
X94976795Y-72455581D01*
X94987807Y-72355224D01*
X95019181Y-72264387D01*
X95070740Y-72187007D01*
X95095488Y-72162039D01*
X95176577Y-72101856D01*
X95274734Y-72053145D01*
X95391643Y-72015499D01*
X95528985Y-71988512D01*
X95688444Y-71971775D01*
X95871700Y-71964883D01*
X95911252Y-71964650D01*
X95911252Y-70951535D01*
X95868067Y-70952073D01*
X95642053Y-70963647D01*
X95438192Y-70986920D01*
X95253513Y-71022504D01*
X95085048Y-71071013D01*
X94929826Y-71133060D01*
X94883808Y-71155201D01*
X94733739Y-71244385D01*
X94600377Y-71352159D01*
X94485877Y-71475990D01*
X94392389Y-71613342D01*
X94322068Y-71761683D01*
X94293060Y-71850604D01*
X94275840Y-71937933D01*
X94265594Y-72043011D01*
X94262318Y-72157029D01*
X94266009Y-72271177D01*
X94276660Y-72376648D01*
X94293370Y-72461334D01*
X94326140Y-72562128D01*
X94368279Y-72659822D01*
X94415519Y-72745296D01*
X94447581Y-72790789D01*
X94471422Y-72822169D01*
X94485939Y-72844142D01*
X94488000Y-72849141D01*
X94474718Y-72850690D01*
X94436663Y-72852135D01*
X94376519Y-72853443D01*
X94296973Y-72854583D01*
X94200711Y-72855521D01*
X94090419Y-72856226D01*
X93968781Y-72856667D01*
X93844885Y-72856811D01*
X93686196Y-72856730D01*
X93552408Y-72856335D01*
X93440960Y-72855395D01*
X93349295Y-72853680D01*
X93274853Y-72850957D01*
X93215075Y-72846997D01*
X93167402Y-72841569D01*
X93129274Y-72834441D01*
X93098134Y-72825384D01*
X93071421Y-72814167D01*
X93046577Y-72800558D01*
X93021043Y-72784328D01*
X93017881Y-72782240D01*
X92984810Y-72761306D01*
X92962069Y-72748667D01*
X92957272Y-72746973D01*
X92955759Y-72760216D01*
X92954528Y-72798002D01*
X92953599Y-72857416D01*
X92952992Y-72935542D01*
X92952727Y-73029465D01*
X92952825Y-73136270D01*
G36*
X94260229Y-69461505D02*
G01*
X94265378Y-69529531D01*
X94291273Y-69724163D01*
X94332575Y-69896529D01*
X94389853Y-70047470D01*
X94463674Y-70177825D01*
X94554608Y-70288434D01*
X94663222Y-70380135D01*
X94790085Y-70453770D01*
X94927352Y-70507539D01*
X94971137Y-70521187D01*
X95012141Y-70533073D01*
X95052569Y-70543334D01*
X95094630Y-70552113D01*
X95140531Y-70559548D01*
X95192480Y-70565780D01*
X95252685Y-70570950D01*
X95323352Y-70575196D01*
X95406689Y-70578660D01*
X95504905Y-70581481D01*
X95620205Y-70583800D01*
X95754799Y-70585757D01*
X95910893Y-70587491D01*
X96090695Y-70589143D01*
X96231676Y-70590324D01*
X97199622Y-70598270D01*
X97292770Y-70649756D01*
X97337645Y-70674137D01*
X97372501Y-70692280D01*
X97391054Y-70700935D01*
X97392311Y-70701243D01*
X97393749Y-70688014D01*
X97395074Y-70650326D01*
X97396249Y-70591183D01*
X97397237Y-70513586D01*
X97397999Y-70420536D01*
X97398500Y-70315035D01*
X97398701Y-70200084D01*
X97398703Y-70186378D01*
X97398703Y-69671513D01*
X97282000Y-69671513D01*
X97229260Y-69670635D01*
X97188926Y-69668292D01*
X97167300Y-69664921D01*
X97165298Y-69663431D01*
X97173683Y-69649804D01*
X97195692Y-69621757D01*
X97226601Y-69585303D01*
X97227316Y-69584485D01*
X97276843Y-69517962D01*
X97326575Y-69433948D01*
X97371626Y-69341937D01*
X97407110Y-69251421D01*
X97419236Y-69211567D01*
X97434637Y-69132255D01*
X97444465Y-69034935D01*
X97448580Y-68928516D01*
X97446841Y-68821907D01*
X97439108Y-68724017D01*
X97427981Y-68655513D01*
X97378648Y-68487520D01*
X97308342Y-68336281D01*
X97217933Y-68202782D01*
X97108295Y-68088006D01*
X96980299Y-67992937D01*
X96834818Y-67918560D01*
X96746541Y-67886474D01*
X96660739Y-67866365D01*
X96557736Y-67853038D01*
X96447034Y-67846872D01*
X96430925Y-67847074D01*
X96430925Y-68775648D01*
X96513184Y-68783348D01*
X96581546Y-68808989D01*
X96644970Y-68856378D01*
X96663567Y-68874579D01*
X96713846Y-68939282D01*
X96746056Y-69014066D01*
X96761648Y-69103662D01*
X96762796Y-69198012D01*
X96755216Y-69287501D01*
X96740389Y-69356018D01*
X96729253Y-69385775D01*
X96698904Y-69439408D01*
X96656221Y-69496235D01*
X96608317Y-69548082D01*
X96562301Y-69586778D01*
X96545421Y-69597054D01*
X96521782Y-69605042D01*
X96484168Y-69610721D01*
X96428985Y-69614356D01*
X96352640Y-69616211D01*
X96279981Y-69616594D01*
X96195270Y-69616335D01*
X96134018Y-69615287D01*
X96092227Y-69613045D01*
X96065899Y-69609206D01*
X96051035Y-69603365D01*
X96043639Y-69595118D01*
X96042461Y-69592567D01*
X96038833Y-69570400D01*
X96035866Y-69526680D01*
X96033827Y-69467311D01*
X96032983Y-69398196D01*
X96032982Y-69383189D01*
X96034457Y-69290805D01*
X96038842Y-69219432D01*
X96046738Y-69162719D01*
X96058270Y-69115872D01*
X96102215Y-68999669D01*
X96156243Y-68908543D01*
X96221219Y-68841705D01*
X96298005Y-68798365D01*
X96387467Y-68777734D01*
X96430925Y-68775648D01*
X96430925Y-67847074D01*
X96338133Y-67848244D01*
X96240536Y-67857532D01*
X96201105Y-67864777D01*
X96054701Y-67911039D01*
X95919995Y-67981384D01*
X95798280Y-68074484D01*
X95690847Y-68189012D01*
X95598988Y-68323640D01*
X95523996Y-68477040D01*
X95478458Y-68607459D01*
X95454533Y-68694623D01*
X95435943Y-68777996D01*
X95422084Y-68862976D01*
X95412351Y-68954965D01*
X95406141Y-69059362D01*
X95402851Y-69181568D01*
X95401924Y-69292055D01*
X95401027Y-69619677D01*
X95302547Y-69613401D01*
X95195695Y-69595579D01*
X95103852Y-69557667D01*
X95029310Y-69501280D01*
X94974364Y-69428031D01*
X94947552Y-69363535D01*
X94930654Y-69271123D01*
X94928227Y-69161111D01*
X94939378Y-69038656D01*
X94963210Y-68908914D01*
X94998830Y-68777042D01*
X95045343Y-68648198D01*
X95087883Y-68554566D01*
X95109728Y-68509517D01*
X95124984Y-68475156D01*
X95130937Y-68457681D01*
X95130746Y-68456733D01*
X95117412Y-68450703D01*
X95082068Y-68435645D01*
X95028101Y-68412977D01*
X94958896Y-68384115D01*
X94877840Y-68350477D01*
X94795118Y-68316284D01*
X94463803Y-68179586D01*
X94447833Y-68276820D01*
X94439820Y-68318964D01*
X94426361Y-68382319D01*
X94408679Y-68461457D01*
X94387996Y-68550951D01*
X94365532Y-68645373D01*
X94356403Y-68682973D01*
X94318674Y-68845637D01*
X94290388Y-68988050D01*
X94270972Y-69115527D01*
X94259854Y-69233384D01*
X94256464Y-69346938D01*
X94260229Y-69461505D01*
G37*
X94260229Y-69461505D02*
X94265378Y-69529531D01*
X94291273Y-69724163D01*
X94332575Y-69896529D01*
X94389853Y-70047470D01*
X94463674Y-70177825D01*
X94554608Y-70288434D01*
X94663222Y-70380135D01*
X94790085Y-70453770D01*
X94927352Y-70507539D01*
X94971137Y-70521187D01*
X95012141Y-70533073D01*
X95052569Y-70543334D01*
X95094630Y-70552113D01*
X95140531Y-70559548D01*
X95192480Y-70565780D01*
X95252685Y-70570950D01*
X95323352Y-70575196D01*
X95406689Y-70578660D01*
X95504905Y-70581481D01*
X95620205Y-70583800D01*
X95754799Y-70585757D01*
X95910893Y-70587491D01*
X96090695Y-70589143D01*
X96231676Y-70590324D01*
X97199622Y-70598270D01*
X97292770Y-70649756D01*
X97337645Y-70674137D01*
X97372501Y-70692280D01*
X97391054Y-70700935D01*
X97392311Y-70701243D01*
X97393749Y-70688014D01*
X97395074Y-70650326D01*
X97396249Y-70591183D01*
X97397237Y-70513586D01*
X97397999Y-70420536D01*
X97398500Y-70315035D01*
X97398701Y-70200084D01*
X97398703Y-70186378D01*
X97398703Y-69671513D01*
X97282000Y-69671513D01*
X97229260Y-69670635D01*
X97188926Y-69668292D01*
X97167300Y-69664921D01*
X97165298Y-69663431D01*
X97173683Y-69649804D01*
X97195692Y-69621757D01*
X97226601Y-69585303D01*
X97227316Y-69584485D01*
X97276843Y-69517962D01*
X97326575Y-69433948D01*
X97371626Y-69341937D01*
X97407110Y-69251421D01*
X97419236Y-69211567D01*
X97434637Y-69132255D01*
X97444465Y-69034935D01*
X97448580Y-68928516D01*
X97446841Y-68821907D01*
X97439108Y-68724017D01*
X97427981Y-68655513D01*
X97378648Y-68487520D01*
X97308342Y-68336281D01*
X97217933Y-68202782D01*
X97108295Y-68088006D01*
X96980299Y-67992937D01*
X96834818Y-67918560D01*
X96746541Y-67886474D01*
X96660739Y-67866365D01*
X96557736Y-67853038D01*
X96447034Y-67846872D01*
X96430925Y-67847074D01*
X96430925Y-68775648D01*
X96513184Y-68783348D01*
X96581546Y-68808989D01*
X96644970Y-68856378D01*
X96663567Y-68874579D01*
X96713846Y-68939282D01*
X96746056Y-69014066D01*
X96761648Y-69103662D01*
X96762796Y-69198012D01*
X96755216Y-69287501D01*
X96740389Y-69356018D01*
X96729253Y-69385775D01*
X96698904Y-69439408D01*
X96656221Y-69496235D01*
X96608317Y-69548082D01*
X96562301Y-69586778D01*
X96545421Y-69597054D01*
X96521782Y-69605042D01*
X96484168Y-69610721D01*
X96428985Y-69614356D01*
X96352640Y-69616211D01*
X96279981Y-69616594D01*
X96195270Y-69616335D01*
X96134018Y-69615287D01*
X96092227Y-69613045D01*
X96065899Y-69609206D01*
X96051035Y-69603365D01*
X96043639Y-69595118D01*
X96042461Y-69592567D01*
X96038833Y-69570400D01*
X96035866Y-69526680D01*
X96033827Y-69467311D01*
X96032983Y-69398196D01*
X96032982Y-69383189D01*
X96034457Y-69290805D01*
X96038842Y-69219432D01*
X96046738Y-69162719D01*
X96058270Y-69115872D01*
X96102215Y-68999669D01*
X96156243Y-68908543D01*
X96221219Y-68841705D01*
X96298005Y-68798365D01*
X96387467Y-68777734D01*
X96430925Y-68775648D01*
X96430925Y-67847074D01*
X96338133Y-67848244D01*
X96240536Y-67857532D01*
X96201105Y-67864777D01*
X96054701Y-67911039D01*
X95919995Y-67981384D01*
X95798280Y-68074484D01*
X95690847Y-68189012D01*
X95598988Y-68323640D01*
X95523996Y-68477040D01*
X95478458Y-68607459D01*
X95454533Y-68694623D01*
X95435943Y-68777996D01*
X95422084Y-68862976D01*
X95412351Y-68954965D01*
X95406141Y-69059362D01*
X95402851Y-69181568D01*
X95401924Y-69292055D01*
X95401027Y-69619677D01*
X95302547Y-69613401D01*
X95195695Y-69595579D01*
X95103852Y-69557667D01*
X95029310Y-69501280D01*
X94974364Y-69428031D01*
X94947552Y-69363535D01*
X94930654Y-69271123D01*
X94928227Y-69161111D01*
X94939378Y-69038656D01*
X94963210Y-68908914D01*
X94998830Y-68777042D01*
X95045343Y-68648198D01*
X95087883Y-68554566D01*
X95109728Y-68509517D01*
X95124984Y-68475156D01*
X95130937Y-68457681D01*
X95130746Y-68456733D01*
X95117412Y-68450703D01*
X95082068Y-68435645D01*
X95028101Y-68412977D01*
X94958896Y-68384115D01*
X94877840Y-68350477D01*
X94795118Y-68316284D01*
X94463803Y-68179586D01*
X94447833Y-68276820D01*
X94439820Y-68318964D01*
X94426361Y-68382319D01*
X94408679Y-68461457D01*
X94387996Y-68550951D01*
X94365532Y-68645373D01*
X94356403Y-68682973D01*
X94318674Y-68845637D01*
X94290388Y-68988050D01*
X94270972Y-69115527D01*
X94259854Y-69233384D01*
X94256464Y-69346938D01*
X94260229Y-69461505D01*
G36*
X93156499Y-66733962D02*
G01*
X93172707Y-66882014D01*
X93201718Y-67025452D01*
X93245045Y-67170110D01*
X93304201Y-67321824D01*
X93380700Y-67486428D01*
X93395517Y-67516071D01*
X93429031Y-67584098D01*
X93459208Y-67648256D01*
X93483166Y-67702215D01*
X93498024Y-67739640D01*
X93499895Y-67745389D01*
X93516402Y-67800486D01*
X93875201Y-67553851D01*
X93962893Y-67493552D01*
X94043012Y-67438422D01*
X94112836Y-67390336D01*
X94169647Y-67351168D01*
X94210723Y-67322794D01*
X94233346Y-67307087D01*
X94236928Y-67304536D01*
X94229438Y-67294171D01*
X94206918Y-67268660D01*
X94173461Y-67232563D01*
X94154550Y-67212642D01*
X94064778Y-67099773D01*
X93996561Y-66973014D01*
X93959195Y-66863783D01*
X93947460Y-66798214D01*
X93940308Y-66716116D01*
X93937874Y-66627144D01*
X93940288Y-66540956D01*
X93947683Y-66467205D01*
X93953347Y-66437776D01*
X93998982Y-66305133D01*
X94068663Y-66185606D01*
X94162260Y-66079283D01*
X94279649Y-65986253D01*
X94420700Y-65906605D01*
X94585286Y-65840426D01*
X94773280Y-65787806D01*
X94934217Y-65756533D01*
X95005263Y-65748374D01*
X95097046Y-65742815D01*
X95202968Y-65739802D01*
X95316434Y-65739281D01*
X95430849Y-65741200D01*
X95539617Y-65745503D01*
X95636143Y-65752137D01*
X95713831Y-65761049D01*
X95725817Y-65762979D01*
X95918892Y-65805499D01*
X96089773Y-65863433D01*
X96239224Y-65937133D01*
X96368011Y-66026951D01*
X96437639Y-66090707D01*
X96532173Y-66205286D01*
X96602246Y-66330942D01*
X96647477Y-66465557D01*
X96667484Y-66607011D01*
X96661885Y-66753183D01*
X96630300Y-66901955D01*
X96599394Y-66989911D01*
X96537506Y-67111629D01*
X96448729Y-67237080D01*
X96388694Y-67307353D01*
X96353947Y-67346811D01*
X96328454Y-67377812D01*
X96316170Y-67395458D01*
X96315795Y-67397648D01*
X96328347Y-67405524D01*
X96361516Y-67425932D01*
X96412458Y-67457132D01*
X96478331Y-67497386D01*
X96556289Y-67544957D01*
X96643490Y-67598104D01*
X96692067Y-67627687D01*
X97063215Y-67853648D01*
X97202639Y-67571527D01*
X97252719Y-67469522D01*
X97292210Y-67386889D01*
X97323073Y-67318578D01*
X97347268Y-67259537D01*
X97366758Y-67204714D01*
X97383503Y-67149060D01*
X97399465Y-67087523D01*
X97413482Y-67028540D01*
X97424329Y-66976115D01*
X97432526Y-66921288D01*
X97438528Y-66858572D01*
X97442790Y-66782477D01*
X97445767Y-66687516D01*
X97447052Y-66623513D01*
X97447930Y-66532192D01*
X97447487Y-66444627D01*
X97445852Y-66366612D01*
X97443149Y-66303942D01*
X97439505Y-66262413D01*
X97439142Y-66259952D01*
X97392487Y-66044303D01*
X97321729Y-65841793D01*
X97226914Y-65652495D01*
X97108089Y-65476479D01*
X96965300Y-65313816D01*
X96798594Y-65164578D01*
X96650433Y-65056496D01*
X96456502Y-64941434D01*
X96251699Y-64848423D01*
X96034383Y-64777013D01*
X95802912Y-64726756D01*
X95555643Y-64697201D01*
X95304559Y-64687889D01*
X95061670Y-64695548D01*
X94837570Y-64719613D01*
X94628477Y-64760852D01*
X94430613Y-64820027D01*
X94240196Y-64897904D01*
X94220468Y-64907203D01*
X94036059Y-65009648D01*
X93860576Y-65135472D01*
X93697650Y-65281112D01*
X93550914Y-65443001D01*
X93424001Y-65617576D01*
X93330905Y-65780244D01*
X93257991Y-65944573D01*
X93205174Y-66109251D01*
X93171015Y-66280652D01*
X93154078Y-66465153D01*
X93151580Y-66575459D01*
X93156499Y-66733962D01*
G37*
X93156499Y-66733962D02*
X93172707Y-66882014D01*
X93201718Y-67025452D01*
X93245045Y-67170110D01*
X93304201Y-67321824D01*
X93380700Y-67486428D01*
X93395517Y-67516071D01*
X93429031Y-67584098D01*
X93459208Y-67648256D01*
X93483166Y-67702215D01*
X93498024Y-67739640D01*
X93499895Y-67745389D01*
X93516402Y-67800486D01*
X93875201Y-67553851D01*
X93962893Y-67493552D01*
X94043012Y-67438422D01*
X94112836Y-67390336D01*
X94169647Y-67351168D01*
X94210723Y-67322794D01*
X94233346Y-67307087D01*
X94236928Y-67304536D01*
X94229438Y-67294171D01*
X94206918Y-67268660D01*
X94173461Y-67232563D01*
X94154550Y-67212642D01*
X94064778Y-67099773D01*
X93996561Y-66973014D01*
X93959195Y-66863783D01*
X93947460Y-66798214D01*
X93940308Y-66716116D01*
X93937874Y-66627144D01*
X93940288Y-66540956D01*
X93947683Y-66467205D01*
X93953347Y-66437776D01*
X93998982Y-66305133D01*
X94068663Y-66185606D01*
X94162260Y-66079283D01*
X94279649Y-65986253D01*
X94420700Y-65906605D01*
X94585286Y-65840426D01*
X94773280Y-65787806D01*
X94934217Y-65756533D01*
X95005263Y-65748374D01*
X95097046Y-65742815D01*
X95202968Y-65739802D01*
X95316434Y-65739281D01*
X95430849Y-65741200D01*
X95539617Y-65745503D01*
X95636143Y-65752137D01*
X95713831Y-65761049D01*
X95725817Y-65762979D01*
X95918892Y-65805499D01*
X96089773Y-65863433D01*
X96239224Y-65937133D01*
X96368011Y-66026951D01*
X96437639Y-66090707D01*
X96532173Y-66205286D01*
X96602246Y-66330942D01*
X96647477Y-66465557D01*
X96667484Y-66607011D01*
X96661885Y-66753183D01*
X96630300Y-66901955D01*
X96599394Y-66989911D01*
X96537506Y-67111629D01*
X96448729Y-67237080D01*
X96388694Y-67307353D01*
X96353947Y-67346811D01*
X96328454Y-67377812D01*
X96316170Y-67395458D01*
X96315795Y-67397648D01*
X96328347Y-67405524D01*
X96361516Y-67425932D01*
X96412458Y-67457132D01*
X96478331Y-67497386D01*
X96556289Y-67544957D01*
X96643490Y-67598104D01*
X96692067Y-67627687D01*
X97063215Y-67853648D01*
X97202639Y-67571527D01*
X97252719Y-67469522D01*
X97292210Y-67386889D01*
X97323073Y-67318578D01*
X97347268Y-67259537D01*
X97366758Y-67204714D01*
X97383503Y-67149060D01*
X97399465Y-67087523D01*
X97413482Y-67028540D01*
X97424329Y-66976115D01*
X97432526Y-66921288D01*
X97438528Y-66858572D01*
X97442790Y-66782477D01*
X97445767Y-66687516D01*
X97447052Y-66623513D01*
X97447930Y-66532192D01*
X97447487Y-66444627D01*
X97445852Y-66366612D01*
X97443149Y-66303942D01*
X97439505Y-66262413D01*
X97439142Y-66259952D01*
X97392487Y-66044303D01*
X97321729Y-65841793D01*
X97226914Y-65652495D01*
X97108089Y-65476479D01*
X96965300Y-65313816D01*
X96798594Y-65164578D01*
X96650433Y-65056496D01*
X96456502Y-64941434D01*
X96251699Y-64848423D01*
X96034383Y-64777013D01*
X95802912Y-64726756D01*
X95555643Y-64697201D01*
X95304559Y-64687889D01*
X95061670Y-64695548D01*
X94837570Y-64719613D01*
X94628477Y-64760852D01*
X94430613Y-64820027D01*
X94240196Y-64897904D01*
X94220468Y-64907203D01*
X94036059Y-65009648D01*
X93860576Y-65135472D01*
X93697650Y-65281112D01*
X93550914Y-65443001D01*
X93424001Y-65617576D01*
X93330905Y-65780244D01*
X93257991Y-65944573D01*
X93205174Y-66109251D01*
X93171015Y-66280652D01*
X93154078Y-66465153D01*
X93151580Y-66575459D01*
X93156499Y-66733962D01*
G36*
X92469689Y-60338257D02*
G01*
X92469725Y-60602780D01*
X92469730Y-60725912D01*
X92469730Y-62696811D01*
X92585910Y-62696811D01*
X92727291Y-62709211D01*
X92857684Y-62746636D01*
X92977862Y-62809423D01*
X93088602Y-62897906D01*
X93118511Y-62927843D01*
X93203348Y-63035534D01*
X93265221Y-63154275D01*
X93304159Y-63280540D01*
X93320190Y-63410803D01*
X93313342Y-63541535D01*
X93283643Y-63669212D01*
X93231120Y-63790305D01*
X93155803Y-63901288D01*
X93110363Y-63951132D01*
X92998952Y-64044017D01*
X92876435Y-64112127D01*
X92744215Y-64154871D01*
X92603692Y-64171653D01*
X92589867Y-64171876D01*
X92469734Y-64172756D01*
X92469732Y-64225557D01*
X92476089Y-64272396D01*
X92491556Y-64315183D01*
X92493154Y-64318011D01*
X92498168Y-64327675D01*
X92502073Y-64336549D01*
X92506007Y-64344665D01*
X92511106Y-64352057D01*
X92518508Y-64358755D01*
X92529351Y-64364792D01*
X92544772Y-64370199D01*
X92565909Y-64375010D01*
X92593899Y-64379255D01*
X92629879Y-64382968D01*
X92674987Y-64386179D01*
X92730360Y-64388922D01*
X92797137Y-64391228D01*
X92876453Y-64393129D01*
X92969447Y-64394658D01*
X93077257Y-64395846D01*
X93201019Y-64396726D01*
X93341871Y-64397330D01*
X93500950Y-64397689D01*
X93679395Y-64397835D01*
X93878342Y-64397802D01*
X94098929Y-64397620D01*
X94342293Y-64397323D01*
X94609572Y-64396941D01*
X94901903Y-64396508D01*
X95220424Y-64396055D01*
X95259230Y-64396002D01*
X95579782Y-64395596D01*
X95874012Y-64395251D01*
X96143056Y-64394931D01*
X96388052Y-64394600D01*
X96610137Y-64394221D01*
X96810447Y-64393757D01*
X96990119Y-64393172D01*
X97150290Y-64392430D01*
X97292098Y-64391494D01*
X97416679Y-64390327D01*
X97525170Y-64388893D01*
X97618707Y-64387156D01*
X97698429Y-64385078D01*
X97765472Y-64382624D01*
X97820973Y-64379756D01*
X97866068Y-64376439D01*
X97901895Y-64372636D01*
X97929591Y-64368310D01*
X97950293Y-64363425D01*
X97965137Y-64357945D01*
X97975260Y-64351832D01*
X97981800Y-64345050D01*
X97985893Y-64337563D01*
X97988676Y-64329334D01*
X97991287Y-64320327D01*
X97994862Y-64310505D01*
X97995950Y-64308106D01*
X97998396Y-64300565D01*
X98000642Y-64287944D01*
X98002698Y-64269141D01*
X98004572Y-64243053D01*
X98006271Y-64208578D01*
X98007803Y-64164615D01*
X98009177Y-64110061D01*
X98010400Y-64043815D01*
X98011481Y-63964774D01*
X98012427Y-63871837D01*
X98013247Y-63763901D01*
X98013947Y-63639864D01*
X98014538Y-63498624D01*
X98015025Y-63339079D01*
X98015419Y-63160128D01*
X98015725Y-62960668D01*
X98015953Y-62739596D01*
X98016110Y-62495812D01*
X98016205Y-62228213D01*
X98016245Y-61935697D01*
X98016238Y-61617161D01*
X98016228Y-61513979D01*
X98016176Y-61188377D01*
X98016091Y-60889119D01*
X98015963Y-60615091D01*
X98015785Y-60365176D01*
X98015548Y-60138260D01*
X98015242Y-59933227D01*
X98014860Y-59748962D01*
X98014392Y-59584350D01*
X98013830Y-59438275D01*
X98013165Y-59309624D01*
X98012388Y-59197279D01*
X98011491Y-59100126D01*
X98010465Y-59017050D01*
X98009301Y-58946936D01*
X98007991Y-58888668D01*
X98006525Y-58841131D01*
X98004896Y-58803210D01*
X98003093Y-58773790D01*
X98001110Y-58751755D01*
X97998936Y-58735990D01*
X97996563Y-58725380D01*
X97994391Y-58719596D01*
X97990056Y-58709316D01*
X97986859Y-58699878D01*
X97983665Y-58691245D01*
X97979338Y-58683381D01*
X97972744Y-58676252D01*
X97962747Y-58669821D01*
X97948212Y-58664053D01*
X97928003Y-58658911D01*
X97900985Y-58654360D01*
X97866023Y-58650365D01*
X97821981Y-58646889D01*
X97767724Y-58643898D01*
X97702117Y-58641354D01*
X97624024Y-58639223D01*
X97532310Y-58637468D01*
X97425840Y-58636055D01*
X97384973Y-58635685D01*
X97384973Y-59002116D01*
X97384973Y-60297266D01*
X97347217Y-60272345D01*
X97308417Y-60247553D01*
X97271469Y-60226560D01*
X97233788Y-60209065D01*
X97192788Y-60194770D01*
X97145883Y-60183377D01*
X97090487Y-60174587D01*
X97024016Y-60168102D01*
X96943883Y-60163623D01*
X96847502Y-60160850D01*
X96732289Y-60159487D01*
X96595657Y-60159233D01*
X96435020Y-60159791D01*
X96375382Y-60160107D01*
X95736041Y-60163675D01*
X96287449Y-60568702D01*
X96443876Y-60683446D01*
X96580088Y-60782857D01*
X96697890Y-60868010D01*
X96799084Y-60939978D01*
X96885477Y-60999834D01*
X96958874Y-61048652D01*
X97021077Y-61087505D01*
X97073893Y-61117466D01*
X97119125Y-61139609D01*
X97158578Y-61155007D01*
X97194058Y-61164734D01*
X97227368Y-61169863D01*
X97260313Y-61171468D01*
X97294697Y-61170621D01*
X97299019Y-61170405D01*
X97385031Y-61165946D01*
X97384973Y-62585308D01*
X97278522Y-62479735D01*
X97249406Y-62451087D01*
X97221076Y-62423910D01*
X97191968Y-62397011D01*
X97160520Y-62369197D01*
X97125169Y-62339275D01*
X97084354Y-62306054D01*
X97036511Y-62268339D01*
X96980079Y-62224940D01*
X96913494Y-62174662D01*
X96835195Y-62116312D01*
X96743619Y-62048700D01*
X96637204Y-61970631D01*
X96514387Y-61880912D01*
X96373605Y-61778352D01*
X96213297Y-61661758D01*
X96081798Y-61566191D01*
X95916596Y-61446251D01*
X95772152Y-61341620D01*
X95647094Y-61251352D01*
X95540052Y-61174497D01*
X95449654Y-61110109D01*
X95374529Y-61057239D01*
X95313304Y-61014940D01*
X95264610Y-60982264D01*
X95227074Y-60958262D01*
X95199325Y-60941987D01*
X95179992Y-60932492D01*
X95167703Y-60928827D01*
X95161242Y-60929929D01*
X95144048Y-60943276D01*
X95107655Y-60972134D01*
X95054224Y-61014760D01*
X94985919Y-61069415D01*
X94904903Y-61134356D01*
X94813340Y-61207842D01*
X94713392Y-61288132D01*
X94607224Y-61373485D01*
X94496997Y-61462160D01*
X94384876Y-61552414D01*
X94323244Y-61602056D01*
X94323244Y-62834627D01*
X94415919Y-62885854D01*
X94508595Y-62937081D01*
X97199622Y-62937081D01*
X97292298Y-62885854D01*
X97384973Y-62834627D01*
X97384973Y-63440604D01*
X97384931Y-63585266D01*
X97384741Y-63704756D01*
X97384308Y-63801358D01*
X97383536Y-63877358D01*
X97382330Y-63935043D01*
X97380594Y-63976699D01*
X97378232Y-64004611D01*
X97375150Y-64021065D01*
X97371251Y-64028348D01*
X97366440Y-64028745D01*
X97360622Y-64024542D01*
X97360574Y-64024499D01*
X97335532Y-64007187D01*
X97294815Y-63984264D01*
X97254168Y-63964019D01*
X97172162Y-63925621D01*
X94323244Y-63917789D01*
X94323244Y-62834627D01*
X94323244Y-61602056D01*
X94273024Y-61642507D01*
X94163604Y-61730698D01*
X94058778Y-61815246D01*
X93960711Y-61894408D01*
X93871566Y-61966444D01*
X93793505Y-62029613D01*
X93728692Y-62082173D01*
X93679290Y-62122383D01*
X93650487Y-62146000D01*
X93542778Y-62237710D01*
X93445580Y-62325940D01*
X93362076Y-62407597D01*
X93295448Y-62479590D01*
X93254599Y-62530681D01*
X93211135Y-62591093D01*
X93211135Y-61201702D01*
X93292666Y-61202092D01*
X93352606Y-61198209D01*
X93408177Y-61183610D01*
X93460855Y-61161012D01*
X93490615Y-61146322D01*
X93520103Y-61130528D01*
X93551276Y-61112186D01*
X93586093Y-61089855D01*
X93626510Y-61062091D01*
X93674486Y-61027451D01*
X93731978Y-60984493D01*
X93800943Y-60931773D01*
X93883339Y-60867849D01*
X93981124Y-60791279D01*
X94096255Y-60700619D01*
X94230690Y-60594426D01*
X94245859Y-60582432D01*
X94775412Y-60163675D01*
X94188922Y-60159622D01*
X94013251Y-60158805D01*
X93864532Y-60158979D01*
X93742275Y-60160151D01*
X93645989Y-60162331D01*
X93575183Y-60165526D01*
X93529369Y-60169744D01*
X93520679Y-60171162D01*
X93429135Y-60193409D01*
X93346608Y-60222557D01*
X93280253Y-60255818D01*
X93252110Y-60275800D01*
X93211135Y-60310278D01*
X93211135Y-59656086D01*
X93211269Y-59500031D01*
X93211703Y-59369533D01*
X93212489Y-59262690D01*
X93213676Y-59177602D01*
X93215317Y-59112365D01*
X93217461Y-59065079D01*
X93220159Y-59033843D01*
X93223462Y-59016754D01*
X93227421Y-59011912D01*
X93228298Y-59012247D01*
X93249231Y-59026115D01*
X93282412Y-59049268D01*
X93299193Y-59061246D01*
X93315940Y-59073631D01*
X93330915Y-59084763D01*
X93345594Y-59094712D01*
X93361449Y-59103549D01*
X93379955Y-59111343D01*
X93402585Y-59118165D01*
X93430813Y-59124084D01*
X93466113Y-59129171D01*
X93509958Y-59133496D01*
X93563822Y-59137129D01*
X93629180Y-59140140D01*
X93707504Y-59142599D01*
X93800268Y-59144577D01*
X93908947Y-59146142D01*
X94035013Y-59147366D01*
X94179942Y-59148319D01*
X94345206Y-59149070D01*
X94532279Y-59149689D01*
X94742635Y-59150248D01*
X94977748Y-59150815D01*
X95193741Y-59151345D01*
X95434535Y-59151845D01*
X95664274Y-59152105D01*
X95881493Y-59152132D01*
X96084722Y-59151933D01*
X96272496Y-59151514D01*
X96443345Y-59150882D01*
X96595803Y-59150044D01*
X96728403Y-59149008D01*
X96839676Y-59147780D01*
X96928156Y-59146367D01*
X96992375Y-59144775D01*
X97030865Y-59143013D01*
X97034933Y-59142679D01*
X97128248Y-59130534D01*
X97203190Y-59111573D01*
X97268594Y-59082698D01*
X97333293Y-59040810D01*
X97340352Y-59035571D01*
X97384973Y-59002116D01*
X97384973Y-58635685D01*
X97303479Y-58634946D01*
X97164090Y-58634107D01*
X97006539Y-58633502D01*
X96829691Y-58633095D01*
X96632410Y-58632850D01*
X96413560Y-58632733D01*
X96172007Y-58632705D01*
X95906615Y-58632733D01*
X95616249Y-58632780D01*
X95299773Y-58632810D01*
X95236946Y-58632811D01*
X94917137Y-58632828D01*
X94623661Y-58632888D01*
X94355390Y-58632998D01*
X94111198Y-58633167D01*
X93889957Y-58633403D01*
X93690540Y-58633716D01*
X93511820Y-58634115D01*
X93352671Y-58634607D01*
X93211966Y-58635203D01*
X93088576Y-58635910D01*
X92981376Y-58636737D01*
X92889238Y-58637693D01*
X92811035Y-58638787D01*
X92745641Y-58640027D01*
X92691928Y-58641422D01*
X92648769Y-58642982D01*
X92615037Y-58644714D01*
X92589605Y-58646628D01*
X92571347Y-58648732D01*
X92559134Y-58651034D01*
X92551841Y-58653545D01*
X92551659Y-58653637D01*
X92540518Y-58658808D01*
X92530431Y-58663115D01*
X92521346Y-58667879D01*
X92513212Y-58674422D01*
X92505976Y-58684065D01*
X92499586Y-58698129D01*
X92493989Y-58717937D01*
X92489133Y-58744809D01*
X92484966Y-58780067D01*
X92481436Y-58825032D01*
X92478491Y-58881026D01*
X92476077Y-58949371D01*
X92474144Y-59031386D01*
X92472638Y-59128395D01*
X92471508Y-59241718D01*
X92470702Y-59372677D01*
X92470166Y-59522593D01*
X92469849Y-59692787D01*
X92469699Y-59884582D01*
X92469663Y-60099298D01*
X92469689Y-60338257D01*
G37*
X92469689Y-60338257D02*
X92469725Y-60602780D01*
X92469730Y-60725912D01*
X92469730Y-62696811D01*
X92585910Y-62696811D01*
X92727291Y-62709211D01*
X92857684Y-62746636D01*
X92977862Y-62809423D01*
X93088602Y-62897906D01*
X93118511Y-62927843D01*
X93203348Y-63035534D01*
X93265221Y-63154275D01*
X93304159Y-63280540D01*
X93320190Y-63410803D01*
X93313342Y-63541535D01*
X93283643Y-63669212D01*
X93231120Y-63790305D01*
X93155803Y-63901288D01*
X93110363Y-63951132D01*
X92998952Y-64044017D01*
X92876435Y-64112127D01*
X92744215Y-64154871D01*
X92603692Y-64171653D01*
X92589867Y-64171876D01*
X92469734Y-64172756D01*
X92469732Y-64225557D01*
X92476089Y-64272396D01*
X92491556Y-64315183D01*
X92493154Y-64318011D01*
X92498168Y-64327675D01*
X92502073Y-64336549D01*
X92506007Y-64344665D01*
X92511106Y-64352057D01*
X92518508Y-64358755D01*
X92529351Y-64364792D01*
X92544772Y-64370199D01*
X92565909Y-64375010D01*
X92593899Y-64379255D01*
X92629879Y-64382968D01*
X92674987Y-64386179D01*
X92730360Y-64388922D01*
X92797137Y-64391228D01*
X92876453Y-64393129D01*
X92969447Y-64394658D01*
X93077257Y-64395846D01*
X93201019Y-64396726D01*
X93341871Y-64397330D01*
X93500950Y-64397689D01*
X93679395Y-64397835D01*
X93878342Y-64397802D01*
X94098929Y-64397620D01*
X94342293Y-64397323D01*
X94609572Y-64396941D01*
X94901903Y-64396508D01*
X95220424Y-64396055D01*
X95259230Y-64396002D01*
X95579782Y-64395596D01*
X95874012Y-64395251D01*
X96143056Y-64394931D01*
X96388052Y-64394600D01*
X96610137Y-64394221D01*
X96810447Y-64393757D01*
X96990119Y-64393172D01*
X97150290Y-64392430D01*
X97292098Y-64391494D01*
X97416679Y-64390327D01*
X97525170Y-64388893D01*
X97618707Y-64387156D01*
X97698429Y-64385078D01*
X97765472Y-64382624D01*
X97820973Y-64379756D01*
X97866068Y-64376439D01*
X97901895Y-64372636D01*
X97929591Y-64368310D01*
X97950293Y-64363425D01*
X97965137Y-64357945D01*
X97975260Y-64351832D01*
X97981800Y-64345050D01*
X97985893Y-64337563D01*
X97988676Y-64329334D01*
X97991287Y-64320327D01*
X97994862Y-64310505D01*
X97995950Y-64308106D01*
X97998396Y-64300565D01*
X98000642Y-64287944D01*
X98002698Y-64269141D01*
X98004572Y-64243053D01*
X98006271Y-64208578D01*
X98007803Y-64164615D01*
X98009177Y-64110061D01*
X98010400Y-64043815D01*
X98011481Y-63964774D01*
X98012427Y-63871837D01*
X98013247Y-63763901D01*
X98013947Y-63639864D01*
X98014538Y-63498624D01*
X98015025Y-63339079D01*
X98015419Y-63160128D01*
X98015725Y-62960668D01*
X98015953Y-62739596D01*
X98016110Y-62495812D01*
X98016205Y-62228213D01*
X98016245Y-61935697D01*
X98016238Y-61617161D01*
X98016228Y-61513979D01*
X98016176Y-61188377D01*
X98016091Y-60889119D01*
X98015963Y-60615091D01*
X98015785Y-60365176D01*
X98015548Y-60138260D01*
X98015242Y-59933227D01*
X98014860Y-59748962D01*
X98014392Y-59584350D01*
X98013830Y-59438275D01*
X98013165Y-59309624D01*
X98012388Y-59197279D01*
X98011491Y-59100126D01*
X98010465Y-59017050D01*
X98009301Y-58946936D01*
X98007991Y-58888668D01*
X98006525Y-58841131D01*
X98004896Y-58803210D01*
X98003093Y-58773790D01*
X98001110Y-58751755D01*
X97998936Y-58735990D01*
X97996563Y-58725380D01*
X97994391Y-58719596D01*
X97990056Y-58709316D01*
X97986859Y-58699878D01*
X97983665Y-58691245D01*
X97979338Y-58683381D01*
X97972744Y-58676252D01*
X97962747Y-58669821D01*
X97948212Y-58664053D01*
X97928003Y-58658911D01*
X97900985Y-58654360D01*
X97866023Y-58650365D01*
X97821981Y-58646889D01*
X97767724Y-58643898D01*
X97702117Y-58641354D01*
X97624024Y-58639223D01*
X97532310Y-58637468D01*
X97425840Y-58636055D01*
X97384973Y-58635685D01*
X97384973Y-59002116D01*
X97384973Y-60297266D01*
X97347217Y-60272345D01*
X97308417Y-60247553D01*
X97271469Y-60226560D01*
X97233788Y-60209065D01*
X97192788Y-60194770D01*
X97145883Y-60183377D01*
X97090487Y-60174587D01*
X97024016Y-60168102D01*
X96943883Y-60163623D01*
X96847502Y-60160850D01*
X96732289Y-60159487D01*
X96595657Y-60159233D01*
X96435020Y-60159791D01*
X96375382Y-60160107D01*
X95736041Y-60163675D01*
X96287449Y-60568702D01*
X96443876Y-60683446D01*
X96580088Y-60782857D01*
X96697890Y-60868010D01*
X96799084Y-60939978D01*
X96885477Y-60999834D01*
X96958874Y-61048652D01*
X97021077Y-61087505D01*
X97073893Y-61117466D01*
X97119125Y-61139609D01*
X97158578Y-61155007D01*
X97194058Y-61164734D01*
X97227368Y-61169863D01*
X97260313Y-61171468D01*
X97294697Y-61170621D01*
X97299019Y-61170405D01*
X97385031Y-61165946D01*
X97384973Y-62585308D01*
X97278522Y-62479735D01*
X97249406Y-62451087D01*
X97221076Y-62423910D01*
X97191968Y-62397011D01*
X97160520Y-62369197D01*
X97125169Y-62339275D01*
X97084354Y-62306054D01*
X97036511Y-62268339D01*
X96980079Y-62224940D01*
X96913494Y-62174662D01*
X96835195Y-62116312D01*
X96743619Y-62048700D01*
X96637204Y-61970631D01*
X96514387Y-61880912D01*
X96373605Y-61778352D01*
X96213297Y-61661758D01*
X96081798Y-61566191D01*
X95916596Y-61446251D01*
X95772152Y-61341620D01*
X95647094Y-61251352D01*
X95540052Y-61174497D01*
X95449654Y-61110109D01*
X95374529Y-61057239D01*
X95313304Y-61014940D01*
X95264610Y-60982264D01*
X95227074Y-60958262D01*
X95199325Y-60941987D01*
X95179992Y-60932492D01*
X95167703Y-60928827D01*
X95161242Y-60929929D01*
X95144048Y-60943276D01*
X95107655Y-60972134D01*
X95054224Y-61014760D01*
X94985919Y-61069415D01*
X94904903Y-61134356D01*
X94813340Y-61207842D01*
X94713392Y-61288132D01*
X94607224Y-61373485D01*
X94496997Y-61462160D01*
X94384876Y-61552414D01*
X94323244Y-61602056D01*
X94323244Y-62834627D01*
X94415919Y-62885854D01*
X94508595Y-62937081D01*
X97199622Y-62937081D01*
X97292298Y-62885854D01*
X97384973Y-62834627D01*
X97384973Y-63440604D01*
X97384931Y-63585266D01*
X97384741Y-63704756D01*
X97384308Y-63801358D01*
X97383536Y-63877358D01*
X97382330Y-63935043D01*
X97380594Y-63976699D01*
X97378232Y-64004611D01*
X97375150Y-64021065D01*
X97371251Y-64028348D01*
X97366440Y-64028745D01*
X97360622Y-64024542D01*
X97360574Y-64024499D01*
X97335532Y-64007187D01*
X97294815Y-63984264D01*
X97254168Y-63964019D01*
X97172162Y-63925621D01*
X94323244Y-63917789D01*
X94323244Y-62834627D01*
X94323244Y-61602056D01*
X94273024Y-61642507D01*
X94163604Y-61730698D01*
X94058778Y-61815246D01*
X93960711Y-61894408D01*
X93871566Y-61966444D01*
X93793505Y-62029613D01*
X93728692Y-62082173D01*
X93679290Y-62122383D01*
X93650487Y-62146000D01*
X93542778Y-62237710D01*
X93445580Y-62325940D01*
X93362076Y-62407597D01*
X93295448Y-62479590D01*
X93254599Y-62530681D01*
X93211135Y-62591093D01*
X93211135Y-61201702D01*
X93292666Y-61202092D01*
X93352606Y-61198209D01*
X93408177Y-61183610D01*
X93460855Y-61161012D01*
X93490615Y-61146322D01*
X93520103Y-61130528D01*
X93551276Y-61112186D01*
X93586093Y-61089855D01*
X93626510Y-61062091D01*
X93674486Y-61027451D01*
X93731978Y-60984493D01*
X93800943Y-60931773D01*
X93883339Y-60867849D01*
X93981124Y-60791279D01*
X94096255Y-60700619D01*
X94230690Y-60594426D01*
X94245859Y-60582432D01*
X94775412Y-60163675D01*
X94188922Y-60159622D01*
X94013251Y-60158805D01*
X93864532Y-60158979D01*
X93742275Y-60160151D01*
X93645989Y-60162331D01*
X93575183Y-60165526D01*
X93529369Y-60169744D01*
X93520679Y-60171162D01*
X93429135Y-60193409D01*
X93346608Y-60222557D01*
X93280253Y-60255818D01*
X93252110Y-60275800D01*
X93211135Y-60310278D01*
X93211135Y-59656086D01*
X93211269Y-59500031D01*
X93211703Y-59369533D01*
X93212489Y-59262690D01*
X93213676Y-59177602D01*
X93215317Y-59112365D01*
X93217461Y-59065079D01*
X93220159Y-59033843D01*
X93223462Y-59016754D01*
X93227421Y-59011912D01*
X93228298Y-59012247D01*
X93249231Y-59026115D01*
X93282412Y-59049268D01*
X93299193Y-59061246D01*
X93315940Y-59073631D01*
X93330915Y-59084763D01*
X93345594Y-59094712D01*
X93361449Y-59103549D01*
X93379955Y-59111343D01*
X93402585Y-59118165D01*
X93430813Y-59124084D01*
X93466113Y-59129171D01*
X93509958Y-59133496D01*
X93563822Y-59137129D01*
X93629180Y-59140140D01*
X93707504Y-59142599D01*
X93800268Y-59144577D01*
X93908947Y-59146142D01*
X94035013Y-59147366D01*
X94179942Y-59148319D01*
X94345206Y-59149070D01*
X94532279Y-59149689D01*
X94742635Y-59150248D01*
X94977748Y-59150815D01*
X95193741Y-59151345D01*
X95434535Y-59151845D01*
X95664274Y-59152105D01*
X95881493Y-59152132D01*
X96084722Y-59151933D01*
X96272496Y-59151514D01*
X96443345Y-59150882D01*
X96595803Y-59150044D01*
X96728403Y-59149008D01*
X96839676Y-59147780D01*
X96928156Y-59146367D01*
X96992375Y-59144775D01*
X97030865Y-59143013D01*
X97034933Y-59142679D01*
X97128248Y-59130534D01*
X97203190Y-59111573D01*
X97268594Y-59082698D01*
X97333293Y-59040810D01*
X97340352Y-59035571D01*
X97384973Y-59002116D01*
X97384973Y-58635685D01*
X97303479Y-58634946D01*
X97164090Y-58634107D01*
X97006539Y-58633502D01*
X96829691Y-58633095D01*
X96632410Y-58632850D01*
X96413560Y-58632733D01*
X96172007Y-58632705D01*
X95906615Y-58632733D01*
X95616249Y-58632780D01*
X95299773Y-58632810D01*
X95236946Y-58632811D01*
X94917137Y-58632828D01*
X94623661Y-58632888D01*
X94355390Y-58632998D01*
X94111198Y-58633167D01*
X93889957Y-58633403D01*
X93690540Y-58633716D01*
X93511820Y-58634115D01*
X93352671Y-58634607D01*
X93211966Y-58635203D01*
X93088576Y-58635910D01*
X92981376Y-58636737D01*
X92889238Y-58637693D01*
X92811035Y-58638787D01*
X92745641Y-58640027D01*
X92691928Y-58641422D01*
X92648769Y-58642982D01*
X92615037Y-58644714D01*
X92589605Y-58646628D01*
X92571347Y-58648732D01*
X92559134Y-58651034D01*
X92551841Y-58653545D01*
X92551659Y-58653637D01*
X92540518Y-58658808D01*
X92530431Y-58663115D01*
X92521346Y-58667879D01*
X92513212Y-58674422D01*
X92505976Y-58684065D01*
X92499586Y-58698129D01*
X92493989Y-58717937D01*
X92489133Y-58744809D01*
X92484966Y-58780067D01*
X92481436Y-58825032D01*
X92478491Y-58881026D01*
X92476077Y-58949371D01*
X92474144Y-59031386D01*
X92472638Y-59128395D01*
X92471508Y-59241718D01*
X92470702Y-59372677D01*
X92470166Y-59522593D01*
X92469849Y-59692787D01*
X92469699Y-59884582D01*
X92469663Y-60099298D01*
X92469689Y-60338257D01*
G36*
X90337998Y-106127014D02*
G01*
X90338863Y-106285006D01*
X90341205Y-106399347D01*
X90345762Y-106477407D01*
X90353270Y-106526554D01*
X90364466Y-106554159D01*
X90380088Y-106567592D01*
X90400873Y-106574221D01*
X90403563Y-106574865D01*
X90452113Y-106584935D01*
X90547905Y-106603575D01*
X90680743Y-106628845D01*
X90840431Y-106658807D01*
X91016774Y-106691522D01*
X91022967Y-106692664D01*
X91195782Y-106725433D01*
X91348469Y-106756093D01*
X91471871Y-106782664D01*
X91556831Y-106803167D01*
X91594190Y-106815626D01*
X91594852Y-106816220D01*
X91613095Y-106852919D01*
X91643497Y-106928586D01*
X91679493Y-107026878D01*
X91679685Y-107027425D01*
X91726222Y-107151233D01*
X91785504Y-107297196D01*
X91845109Y-107434781D01*
X91848056Y-107441293D01*
X91949765Y-107665390D01*
X91610897Y-108161619D01*
X91507592Y-108313846D01*
X91415237Y-108451741D01*
X91339084Y-108567315D01*
X91284385Y-108652579D01*
X91256393Y-108699544D01*
X91254317Y-108704004D01*
X91263560Y-108738134D01*
X91308156Y-108801881D01*
X91390209Y-108897731D01*
X91511821Y-109028169D01*
X91641205Y-109161328D01*
X91768702Y-109289694D01*
X91885046Y-109404581D01*
X91983052Y-109499073D01*
X92055536Y-109566253D01*
X92095313Y-109599206D01*
X92097361Y-109600432D01*
X92124656Y-109604074D01*
X92169234Y-109590350D01*
X92237112Y-109555869D01*
X92334311Y-109497239D01*
X92466851Y-109411070D01*
X92637476Y-109296200D01*
X92787655Y-109194254D01*
X92922350Y-109103123D01*
X93033740Y-109028073D01*
X93114005Y-108974369D01*
X93155325Y-108947280D01*
X93158130Y-108945574D01*
X93197721Y-108948882D01*
X93274669Y-108973953D01*
X93374432Y-109015798D01*
X93406291Y-109030712D01*
X93548226Y-109095786D01*
X93709273Y-109165212D01*
X93848621Y-109221609D01*
X93952044Y-109262247D01*
X94030642Y-109294526D01*
X94071720Y-109313178D01*
X94074885Y-109315497D01*
X94080128Y-109349803D01*
X94094494Y-109430669D01*
X94115937Y-109547343D01*
X94142413Y-109689075D01*
X94171877Y-109845110D01*
X94202283Y-110004698D01*
X94231588Y-110157085D01*
X94257745Y-110291521D01*
X94278710Y-110397252D01*
X94292439Y-110463526D01*
X94296320Y-110479782D01*
X94305900Y-110496573D01*
X94327536Y-110509249D01*
X94368531Y-110518378D01*
X94436189Y-110524531D01*
X94537812Y-110528280D01*
X94680703Y-110530192D01*
X94872165Y-110530840D01*
X94950645Y-110530874D01*
X95588906Y-110530874D01*
X95619160Y-110377598D01*
X95635564Y-110292322D01*
X95659509Y-110165070D01*
X95688107Y-110011315D01*
X95718467Y-109846534D01*
X95726806Y-109800989D01*
X95756370Y-109648932D01*
X95785442Y-109516468D01*
X95811329Y-109414714D01*
X95831337Y-109354788D01*
X95837301Y-109344805D01*
X95879534Y-109320293D01*
X95961370Y-109285148D01*
X96066683Y-109246173D01*
X96089368Y-109238442D01*
X96230018Y-109187360D01*
X96388714Y-109123954D01*
X96531225Y-109061904D01*
X96531886Y-109061598D01*
X96755440Y-108958267D01*
X97755232Y-109637961D01*
X98192300Y-109201621D01*
X98322381Y-109069649D01*
X98437048Y-108949279D01*
X98530181Y-108847273D01*
X98595658Y-108770391D01*
X98627357Y-108725393D01*
X98629368Y-108718938D01*
X98613529Y-108681040D01*
X98569496Y-108603708D01*
X98502490Y-108495389D01*
X98417734Y-108364532D01*
X98322816Y-108223052D01*
X98225998Y-108079461D01*
X98141751Y-107951435D01*
X98075258Y-107847105D01*
X98031702Y-107774600D01*
X98016264Y-107742158D01*
X98029328Y-107702576D01*
X98063750Y-107627519D01*
X98112380Y-107532468D01*
X98117785Y-107522392D01*
X98181980Y-107394391D01*
X98213463Y-107306618D01*
X98213798Y-107252028D01*
X98184548Y-107223575D01*
X98184138Y-107223410D01*
X98149498Y-107209188D01*
X98067269Y-107175269D01*
X97943814Y-107124284D01*
X97785498Y-107058862D01*
X97598686Y-106981634D01*
X97389742Y-106895229D01*
X97187446Y-106811551D01*
X96964200Y-106719588D01*
X96757392Y-106635150D01*
X96573362Y-106560769D01*
X96418451Y-106498974D01*
X96298996Y-106452297D01*
X96221339Y-106423268D01*
X96192356Y-106414322D01*
X96159110Y-106436756D01*
X96106123Y-106495439D01*
X96047704Y-106573689D01*
X95862952Y-106796534D01*
X95651182Y-106970718D01*
X95416856Y-107094154D01*
X95164434Y-107164754D01*
X94898377Y-107180431D01*
X94775575Y-107169036D01*
X94520793Y-107106950D01*
X94295801Y-107000023D01*
X94102817Y-106854889D01*
X93944061Y-106678178D01*
X93821750Y-106476522D01*
X93738105Y-106256554D01*
X93695344Y-106024906D01*
X93695687Y-105788209D01*
X93741352Y-105553095D01*
X93834559Y-105326196D01*
X93977527Y-105114144D01*
X94058383Y-105025636D01*
X94266007Y-104855889D01*
X94492895Y-104737699D01*
X94732433Y-104670278D01*
X94978007Y-104652840D01*
X95223003Y-104684598D01*
X95460808Y-104764765D01*
X95684807Y-104892555D01*
X95888387Y-105067180D01*
X96047704Y-105262312D01*
X96108602Y-105343591D01*
X96161015Y-105401009D01*
X96192406Y-105421678D01*
X96226639Y-105410856D01*
X96308419Y-105380077D01*
X96431407Y-105331874D01*
X96589263Y-105268778D01*
X96775649Y-105193322D01*
X96984226Y-105108038D01*
X97187496Y-105024219D01*
X97410933Y-104931745D01*
X97617984Y-104846089D01*
X97802286Y-104769882D01*
X97957475Y-104705753D01*
X98077188Y-104656332D01*
X98155061Y-104624248D01*
X98184138Y-104612359D01*
X98213677Y-104584274D01*
X98213591Y-104529949D01*
X98182326Y-104442395D01*
X98118329Y-104314619D01*
X98117785Y-104313608D01*
X98068121Y-104217402D01*
X98031945Y-104139631D01*
X98016408Y-104095777D01*
X98016264Y-104093842D01*
X98032024Y-104060829D01*
X98075850Y-103987946D01*
X98142557Y-103883322D01*
X98226964Y-103755090D01*
X98322816Y-103612948D01*
X98419867Y-103468233D01*
X98504270Y-103337804D01*
X98570801Y-103230110D01*
X98614238Y-103153598D01*
X98629368Y-103117062D01*
X98609482Y-103083418D01*
X98553903Y-103015776D01*
X98468754Y-102920893D01*
X98360153Y-102805530D01*
X98234221Y-102676445D01*
X98192149Y-102634229D01*
X97754931Y-102197739D01*
X97267340Y-102529977D01*
X97117605Y-102630946D01*
X96983220Y-102719562D01*
X96871969Y-102790854D01*
X96791639Y-102839850D01*
X96750014Y-102861578D01*
X96747053Y-102862215D01*
X96707818Y-102850760D01*
X96628895Y-102819949D01*
X96523509Y-102775116D01*
X96452954Y-102743647D01*
X96317876Y-102684808D01*
X96181409Y-102629396D01*
X96066103Y-102586436D01*
X96030977Y-102574766D01*
X95937174Y-102541611D01*
X95864694Y-102509201D01*
X95837301Y-102491399D01*
X95820536Y-102452114D01*
X95796770Y-102366374D01*
X95768697Y-102245303D01*
X95739009Y-102100027D01*
X95726806Y-102035012D01*
X95696468Y-101869913D01*
X95667093Y-101711552D01*
X95641569Y-101575404D01*
X95622785Y-101476943D01*
X95619160Y-101458402D01*
X95588906Y-101305127D01*
X94950645Y-101305127D01*
X94740770Y-101305471D01*
X94581980Y-101306884D01*
X94466973Y-101309936D01*
X94388446Y-101315197D01*
X94339096Y-101323237D01*
X94311619Y-101334627D01*
X94298713Y-101349937D01*
X94296320Y-101356218D01*
X94287833Y-101394104D01*
X94270900Y-101477805D01*
X94247566Y-101596567D01*
X94219875Y-101739639D01*
X94189873Y-101896268D01*
X94159604Y-102055703D01*
X94131115Y-102207191D01*
X94106449Y-102339981D01*
X94087651Y-102443319D01*
X94076767Y-102506455D01*
X94074885Y-102520503D01*
X94049704Y-102533230D01*
X93982622Y-102561400D01*
X93886333Y-102599748D01*
X93848621Y-102614391D01*
X93702921Y-102673452D01*
X93541951Y-102743000D01*
X93406291Y-102805288D01*
X93302561Y-102851121D01*
X93217326Y-102881613D01*
X93165126Y-102891792D01*
X93158130Y-102890169D01*
X93125102Y-102868657D01*
X93051643Y-102819535D01*
X92945577Y-102748077D01*
X92814726Y-102659555D01*
X92666912Y-102559241D01*
X92637734Y-102539406D01*
X92464863Y-102423012D01*
X92333226Y-102337452D01*
X92236761Y-102279316D01*
X92169408Y-102245192D01*
X92125106Y-102231669D01*
X92097794Y-102235336D01*
X92097620Y-102235430D01*
X92061746Y-102264293D01*
X91992391Y-102328133D01*
X91896745Y-102420031D01*
X91781999Y-102533067D01*
X91655341Y-102660321D01*
X91641205Y-102674672D01*
X91485903Y-102835043D01*
X91371870Y-102958805D01*
X91297002Y-103048445D01*
X91259196Y-103106448D01*
X91254317Y-103131996D01*
X91275603Y-103169282D01*
X91324773Y-103246657D01*
X91396575Y-103356133D01*
X91485755Y-103489720D01*
X91587063Y-103639430D01*
X91610897Y-103674382D01*
X91949765Y-104170610D01*
X91848056Y-104394707D01*
X91788783Y-104530989D01*
X91729170Y-104677276D01*
X91681640Y-104803035D01*
X91679685Y-104808575D01*
X91643677Y-104906943D01*
X91613229Y-104982771D01*
X91594905Y-105019718D01*
X91594852Y-105019780D01*
X91561729Y-105031504D01*
X91480267Y-105051432D01*
X91359625Y-105077587D01*
X91208959Y-105107990D01*
X91037428Y-105140663D01*
X91022967Y-105143336D01*
X90846235Y-105176110D01*
X90685810Y-105206198D01*
X90551888Y-105231661D01*
X90454663Y-105250559D01*
X90404332Y-105260953D01*
X90403563Y-105261135D01*
X90382153Y-105267461D01*
X90365988Y-105279761D01*
X90354331Y-105305406D01*
X90346445Y-105351765D01*
X90341593Y-105426208D01*
X90339039Y-105536105D01*
X90338045Y-105688825D01*
X90337874Y-105891738D01*
X90337874Y-105918000D01*
X90337998Y-106127014D01*
G37*
X90337998Y-106127014D02*
X90338863Y-106285006D01*
X90341205Y-106399347D01*
X90345762Y-106477407D01*
X90353270Y-106526554D01*
X90364466Y-106554159D01*
X90380088Y-106567592D01*
X90400873Y-106574221D01*
X90403563Y-106574865D01*
X90452113Y-106584935D01*
X90547905Y-106603575D01*
X90680743Y-106628845D01*
X90840431Y-106658807D01*
X91016774Y-106691522D01*
X91022967Y-106692664D01*
X91195782Y-106725433D01*
X91348469Y-106756093D01*
X91471871Y-106782664D01*
X91556831Y-106803167D01*
X91594190Y-106815626D01*
X91594852Y-106816220D01*
X91613095Y-106852919D01*
X91643497Y-106928586D01*
X91679493Y-107026878D01*
X91679685Y-107027425D01*
X91726222Y-107151233D01*
X91785504Y-107297196D01*
X91845109Y-107434781D01*
X91848056Y-107441293D01*
X91949765Y-107665390D01*
X91610897Y-108161619D01*
X91507592Y-108313846D01*
X91415237Y-108451741D01*
X91339084Y-108567315D01*
X91284385Y-108652579D01*
X91256393Y-108699544D01*
X91254317Y-108704004D01*
X91263560Y-108738134D01*
X91308156Y-108801881D01*
X91390209Y-108897731D01*
X91511821Y-109028169D01*
X91641205Y-109161328D01*
X91768702Y-109289694D01*
X91885046Y-109404581D01*
X91983052Y-109499073D01*
X92055536Y-109566253D01*
X92095313Y-109599206D01*
X92097361Y-109600432D01*
X92124656Y-109604074D01*
X92169234Y-109590350D01*
X92237112Y-109555869D01*
X92334311Y-109497239D01*
X92466851Y-109411070D01*
X92637476Y-109296200D01*
X92787655Y-109194254D01*
X92922350Y-109103123D01*
X93033740Y-109028073D01*
X93114005Y-108974369D01*
X93155325Y-108947280D01*
X93158130Y-108945574D01*
X93197721Y-108948882D01*
X93274669Y-108973953D01*
X93374432Y-109015798D01*
X93406291Y-109030712D01*
X93548226Y-109095786D01*
X93709273Y-109165212D01*
X93848621Y-109221609D01*
X93952044Y-109262247D01*
X94030642Y-109294526D01*
X94071720Y-109313178D01*
X94074885Y-109315497D01*
X94080128Y-109349803D01*
X94094494Y-109430669D01*
X94115937Y-109547343D01*
X94142413Y-109689075D01*
X94171877Y-109845110D01*
X94202283Y-110004698D01*
X94231588Y-110157085D01*
X94257745Y-110291521D01*
X94278710Y-110397252D01*
X94292439Y-110463526D01*
X94296320Y-110479782D01*
X94305900Y-110496573D01*
X94327536Y-110509249D01*
X94368531Y-110518378D01*
X94436189Y-110524531D01*
X94537812Y-110528280D01*
X94680703Y-110530192D01*
X94872165Y-110530840D01*
X94950645Y-110530874D01*
X95588906Y-110530874D01*
X95619160Y-110377598D01*
X95635564Y-110292322D01*
X95659509Y-110165070D01*
X95688107Y-110011315D01*
X95718467Y-109846534D01*
X95726806Y-109800989D01*
X95756370Y-109648932D01*
X95785442Y-109516468D01*
X95811329Y-109414714D01*
X95831337Y-109354788D01*
X95837301Y-109344805D01*
X95879534Y-109320293D01*
X95961370Y-109285148D01*
X96066683Y-109246173D01*
X96089368Y-109238442D01*
X96230018Y-109187360D01*
X96388714Y-109123954D01*
X96531225Y-109061904D01*
X96531886Y-109061598D01*
X96755440Y-108958267D01*
X97755232Y-109637961D01*
X98192300Y-109201621D01*
X98322381Y-109069649D01*
X98437048Y-108949279D01*
X98530181Y-108847273D01*
X98595658Y-108770391D01*
X98627357Y-108725393D01*
X98629368Y-108718938D01*
X98613529Y-108681040D01*
X98569496Y-108603708D01*
X98502490Y-108495389D01*
X98417734Y-108364532D01*
X98322816Y-108223052D01*
X98225998Y-108079461D01*
X98141751Y-107951435D01*
X98075258Y-107847105D01*
X98031702Y-107774600D01*
X98016264Y-107742158D01*
X98029328Y-107702576D01*
X98063750Y-107627519D01*
X98112380Y-107532468D01*
X98117785Y-107522392D01*
X98181980Y-107394391D01*
X98213463Y-107306618D01*
X98213798Y-107252028D01*
X98184548Y-107223575D01*
X98184138Y-107223410D01*
X98149498Y-107209188D01*
X98067269Y-107175269D01*
X97943814Y-107124284D01*
X97785498Y-107058862D01*
X97598686Y-106981634D01*
X97389742Y-106895229D01*
X97187446Y-106811551D01*
X96964200Y-106719588D01*
X96757392Y-106635150D01*
X96573362Y-106560769D01*
X96418451Y-106498974D01*
X96298996Y-106452297D01*
X96221339Y-106423268D01*
X96192356Y-106414322D01*
X96159110Y-106436756D01*
X96106123Y-106495439D01*
X96047704Y-106573689D01*
X95862952Y-106796534D01*
X95651182Y-106970718D01*
X95416856Y-107094154D01*
X95164434Y-107164754D01*
X94898377Y-107180431D01*
X94775575Y-107169036D01*
X94520793Y-107106950D01*
X94295801Y-107000023D01*
X94102817Y-106854889D01*
X93944061Y-106678178D01*
X93821750Y-106476522D01*
X93738105Y-106256554D01*
X93695344Y-106024906D01*
X93695687Y-105788209D01*
X93741352Y-105553095D01*
X93834559Y-105326196D01*
X93977527Y-105114144D01*
X94058383Y-105025636D01*
X94266007Y-104855889D01*
X94492895Y-104737699D01*
X94732433Y-104670278D01*
X94978007Y-104652840D01*
X95223003Y-104684598D01*
X95460808Y-104764765D01*
X95684807Y-104892555D01*
X95888387Y-105067180D01*
X96047704Y-105262312D01*
X96108602Y-105343591D01*
X96161015Y-105401009D01*
X96192406Y-105421678D01*
X96226639Y-105410856D01*
X96308419Y-105380077D01*
X96431407Y-105331874D01*
X96589263Y-105268778D01*
X96775649Y-105193322D01*
X96984226Y-105108038D01*
X97187496Y-105024219D01*
X97410933Y-104931745D01*
X97617984Y-104846089D01*
X97802286Y-104769882D01*
X97957475Y-104705753D01*
X98077188Y-104656332D01*
X98155061Y-104624248D01*
X98184138Y-104612359D01*
X98213677Y-104584274D01*
X98213591Y-104529949D01*
X98182326Y-104442395D01*
X98118329Y-104314619D01*
X98117785Y-104313608D01*
X98068121Y-104217402D01*
X98031945Y-104139631D01*
X98016408Y-104095777D01*
X98016264Y-104093842D01*
X98032024Y-104060829D01*
X98075850Y-103987946D01*
X98142557Y-103883322D01*
X98226964Y-103755090D01*
X98322816Y-103612948D01*
X98419867Y-103468233D01*
X98504270Y-103337804D01*
X98570801Y-103230110D01*
X98614238Y-103153598D01*
X98629368Y-103117062D01*
X98609482Y-103083418D01*
X98553903Y-103015776D01*
X98468754Y-102920893D01*
X98360153Y-102805530D01*
X98234221Y-102676445D01*
X98192149Y-102634229D01*
X97754931Y-102197739D01*
X97267340Y-102529977D01*
X97117605Y-102630946D01*
X96983220Y-102719562D01*
X96871969Y-102790854D01*
X96791639Y-102839850D01*
X96750014Y-102861578D01*
X96747053Y-102862215D01*
X96707818Y-102850760D01*
X96628895Y-102819949D01*
X96523509Y-102775116D01*
X96452954Y-102743647D01*
X96317876Y-102684808D01*
X96181409Y-102629396D01*
X96066103Y-102586436D01*
X96030977Y-102574766D01*
X95937174Y-102541611D01*
X95864694Y-102509201D01*
X95837301Y-102491399D01*
X95820536Y-102452114D01*
X95796770Y-102366374D01*
X95768697Y-102245303D01*
X95739009Y-102100027D01*
X95726806Y-102035012D01*
X95696468Y-101869913D01*
X95667093Y-101711552D01*
X95641569Y-101575404D01*
X95622785Y-101476943D01*
X95619160Y-101458402D01*
X95588906Y-101305127D01*
X94950645Y-101305127D01*
X94740770Y-101305471D01*
X94581980Y-101306884D01*
X94466973Y-101309936D01*
X94388446Y-101315197D01*
X94339096Y-101323237D01*
X94311619Y-101334627D01*
X94298713Y-101349937D01*
X94296320Y-101356218D01*
X94287833Y-101394104D01*
X94270900Y-101477805D01*
X94247566Y-101596567D01*
X94219875Y-101739639D01*
X94189873Y-101896268D01*
X94159604Y-102055703D01*
X94131115Y-102207191D01*
X94106449Y-102339981D01*
X94087651Y-102443319D01*
X94076767Y-102506455D01*
X94074885Y-102520503D01*
X94049704Y-102533230D01*
X93982622Y-102561400D01*
X93886333Y-102599748D01*
X93848621Y-102614391D01*
X93702921Y-102673452D01*
X93541951Y-102743000D01*
X93406291Y-102805288D01*
X93302561Y-102851121D01*
X93217326Y-102881613D01*
X93165126Y-102891792D01*
X93158130Y-102890169D01*
X93125102Y-102868657D01*
X93051643Y-102819535D01*
X92945577Y-102748077D01*
X92814726Y-102659555D01*
X92666912Y-102559241D01*
X92637734Y-102539406D01*
X92464863Y-102423012D01*
X92333226Y-102337452D01*
X92236761Y-102279316D01*
X92169408Y-102245192D01*
X92125106Y-102231669D01*
X92097794Y-102235336D01*
X92097620Y-102235430D01*
X92061746Y-102264293D01*
X91992391Y-102328133D01*
X91896745Y-102420031D01*
X91781999Y-102533067D01*
X91655341Y-102660321D01*
X91641205Y-102674672D01*
X91485903Y-102835043D01*
X91371870Y-102958805D01*
X91297002Y-103048445D01*
X91259196Y-103106448D01*
X91254317Y-103131996D01*
X91275603Y-103169282D01*
X91324773Y-103246657D01*
X91396575Y-103356133D01*
X91485755Y-103489720D01*
X91587063Y-103639430D01*
X91610897Y-103674382D01*
X91949765Y-104170610D01*
X91848056Y-104394707D01*
X91788783Y-104530989D01*
X91729170Y-104677276D01*
X91681640Y-104803035D01*
X91679685Y-104808575D01*
X91643677Y-104906943D01*
X91613229Y-104982771D01*
X91594905Y-105019718D01*
X91594852Y-105019780D01*
X91561729Y-105031504D01*
X91480267Y-105051432D01*
X91359625Y-105077587D01*
X91208959Y-105107990D01*
X91037428Y-105140663D01*
X91022967Y-105143336D01*
X90846235Y-105176110D01*
X90685810Y-105206198D01*
X90551888Y-105231661D01*
X90454663Y-105250559D01*
X90404332Y-105260953D01*
X90403563Y-105261135D01*
X90382153Y-105267461D01*
X90365988Y-105279761D01*
X90354331Y-105305406D01*
X90346445Y-105351765D01*
X90341593Y-105426208D01*
X90339039Y-105536105D01*
X90338045Y-105688825D01*
X90337874Y-105891738D01*
X90337874Y-105918000D01*
X90337998Y-106127014D01*
G36*
X99841540Y-112261439D02*
G01*
X99917034Y-112376950D01*
X99984617Y-112432664D01*
X100107255Y-112476804D01*
X100204298Y-112480309D01*
X100334056Y-112472368D01*
X100465039Y-112173115D01*
X100531958Y-112027611D01*
X100585790Y-111932537D01*
X100632416Y-111883101D01*
X100677720Y-111874511D01*
X100727582Y-111901972D01*
X100760632Y-111932253D01*
X100813633Y-112020363D01*
X100817347Y-112116196D01*
X100776041Y-112204212D01*
X100693983Y-112268869D01*
X100665008Y-112280433D01*
X100574509Y-112335825D01*
X100535940Y-112399553D01*
X100502946Y-112486966D01*
X100628034Y-112486966D01*
X100713156Y-112479238D01*
X100784938Y-112448966D01*
X100867356Y-112385518D01*
X100878066Y-112376088D01*
X100951391Y-112305513D01*
X100990742Y-112244847D01*
X101008845Y-112168950D01*
X101014774Y-112106030D01*
X101016251Y-111993487D01*
X100997535Y-111913370D01*
X100969747Y-111863390D01*
X100908641Y-111784838D01*
X100842554Y-111730463D01*
X100759441Y-111696052D01*
X100647254Y-111677388D01*
X100493946Y-111670256D01*
X100416136Y-111669687D01*
X100322853Y-111671622D01*
X100322853Y-111847899D01*
X100372896Y-111849944D01*
X100381092Y-111855039D01*
X100369958Y-111888666D01*
X100340493Y-111961030D01*
X100298601Y-112057747D01*
X100289597Y-112077973D01*
X100227442Y-112200203D01*
X100172815Y-112267547D01*
X100121649Y-112282348D01*
X100069876Y-112246947D01*
X100047000Y-112217711D01*
X100001250Y-112112216D01*
X100008808Y-112013476D01*
X100064651Y-111930812D01*
X100163753Y-111873548D01*
X100242414Y-111855188D01*
X100322853Y-111847899D01*
X100322853Y-111671622D01*
X100234351Y-111673459D01*
X100099853Y-111687359D01*
X100001916Y-111714894D01*
X99929811Y-111759572D01*
X99872813Y-111824901D01*
X99854393Y-111853383D01*
X99806422Y-111982763D01*
X99803403Y-112124412D01*
X99841540Y-112261439D01*
G37*
X99841540Y-112261439D02*
X99917034Y-112376950D01*
X99984617Y-112432664D01*
X100107255Y-112476804D01*
X100204298Y-112480309D01*
X100334056Y-112472368D01*
X100465039Y-112173115D01*
X100531958Y-112027611D01*
X100585790Y-111932537D01*
X100632416Y-111883101D01*
X100677720Y-111874511D01*
X100727582Y-111901972D01*
X100760632Y-111932253D01*
X100813633Y-112020363D01*
X100817347Y-112116196D01*
X100776041Y-112204212D01*
X100693983Y-112268869D01*
X100665008Y-112280433D01*
X100574509Y-112335825D01*
X100535940Y-112399553D01*
X100502946Y-112486966D01*
X100628034Y-112486966D01*
X100713156Y-112479238D01*
X100784938Y-112448966D01*
X100867356Y-112385518D01*
X100878066Y-112376088D01*
X100951391Y-112305513D01*
X100990742Y-112244847D01*
X101008845Y-112168950D01*
X101014774Y-112106030D01*
X101016251Y-111993487D01*
X100997535Y-111913370D01*
X100969747Y-111863390D01*
X100908641Y-111784838D01*
X100842554Y-111730463D01*
X100759441Y-111696052D01*
X100647254Y-111677388D01*
X100493946Y-111670256D01*
X100416136Y-111669687D01*
X100322853Y-111671622D01*
X100322853Y-111847899D01*
X100372896Y-111849944D01*
X100381092Y-111855039D01*
X100369958Y-111888666D01*
X100340493Y-111961030D01*
X100298601Y-112057747D01*
X100289597Y-112077973D01*
X100227442Y-112200203D01*
X100172815Y-112267547D01*
X100121649Y-112282348D01*
X100069876Y-112246947D01*
X100047000Y-112217711D01*
X100001250Y-112112216D01*
X100008808Y-112013476D01*
X100064651Y-111930812D01*
X100163753Y-111873548D01*
X100242414Y-111855188D01*
X100322853Y-111847899D01*
X100322853Y-111671622D01*
X100234351Y-111673459D01*
X100099853Y-111687359D01*
X100001916Y-111714894D01*
X99929811Y-111759572D01*
X99872813Y-111824901D01*
X99854393Y-111853383D01*
X99806422Y-111982763D01*
X99803403Y-112124412D01*
X99841540Y-112261439D01*
G36*
X99825018Y-111253690D02*
G01*
X99840269Y-111288585D01*
X99906235Y-111371877D01*
X100001618Y-111443103D01*
X100103406Y-111487153D01*
X100153587Y-111494322D01*
X100223647Y-111470285D01*
X100260717Y-111417561D01*
X100283164Y-111361031D01*
X100287300Y-111335146D01*
X100257283Y-111322542D01*
X100191961Y-111297654D01*
X100162445Y-111286735D01*
X100060348Y-111225508D01*
X100009423Y-111136861D01*
X100010989Y-111023193D01*
X100012994Y-111014774D01*
X100041767Y-110954088D01*
X100097859Y-110909474D01*
X100188163Y-110879002D01*
X100319571Y-110860744D01*
X100498974Y-110852771D01*
X100594433Y-110852023D01*
X100744913Y-110851652D01*
X100847495Y-110849223D01*
X100912672Y-110842760D01*
X100950938Y-110830288D01*
X100972785Y-110809833D01*
X100988707Y-110779419D01*
X100989509Y-110777661D01*
X101014272Y-110719091D01*
X101023391Y-110690075D01*
X100995822Y-110685616D01*
X100919620Y-110681799D01*
X100804541Y-110678899D01*
X100660341Y-110677191D01*
X100554814Y-110676851D01*
X100350613Y-110678588D01*
X100195697Y-110685382D01*
X100081024Y-110699607D01*
X99997551Y-110723638D01*
X99936236Y-110759848D01*
X99888034Y-110810612D01*
X99854393Y-110860739D01*
X99809619Y-110981275D01*
X99799521Y-111121557D01*
X99825018Y-111253690D01*
G37*
X99825018Y-111253690D02*
X99840269Y-111288585D01*
X99906235Y-111371877D01*
X100001618Y-111443103D01*
X100103406Y-111487153D01*
X100153587Y-111494322D01*
X100223647Y-111470285D01*
X100260717Y-111417561D01*
X100283164Y-111361031D01*
X100287300Y-111335146D01*
X100257283Y-111322542D01*
X100191961Y-111297654D01*
X100162445Y-111286735D01*
X100060348Y-111225508D01*
X100009423Y-111136861D01*
X100010989Y-111023193D01*
X100012994Y-111014774D01*
X100041767Y-110954088D01*
X100097859Y-110909474D01*
X100188163Y-110879002D01*
X100319571Y-110860744D01*
X100498974Y-110852771D01*
X100594433Y-110852023D01*
X100744913Y-110851652D01*
X100847495Y-110849223D01*
X100912672Y-110842760D01*
X100950938Y-110830288D01*
X100972785Y-110809833D01*
X100988707Y-110779419D01*
X100989509Y-110777661D01*
X101014272Y-110719091D01*
X101023391Y-110690075D01*
X100995822Y-110685616D01*
X100919620Y-110681799D01*
X100804541Y-110678899D01*
X100660341Y-110677191D01*
X100554814Y-110676851D01*
X100350613Y-110678588D01*
X100195697Y-110685382D01*
X100081024Y-110699607D01*
X99997551Y-110723638D01*
X99936236Y-110759848D01*
X99888034Y-110810612D01*
X99854393Y-110860739D01*
X99809619Y-110981275D01*
X99799521Y-111121557D01*
X99825018Y-111253690D01*
G36*
X99820156Y-110232406D02*
G01*
X99858393Y-110316469D01*
X99904726Y-110382450D01*
X99956532Y-110430794D01*
X100023363Y-110464172D01*
X100114769Y-110485253D01*
X100240301Y-110496707D01*
X100409508Y-110501203D01*
X100520933Y-110501678D01*
X100955627Y-110501678D01*
X100989509Y-110427316D01*
X101014272Y-110368746D01*
X101023391Y-110339730D01*
X100996257Y-110334179D01*
X100923094Y-110329775D01*
X100816263Y-110327078D01*
X100731437Y-110326506D01*
X100608887Y-110324046D01*
X100511668Y-110317412D01*
X100452134Y-110307726D01*
X100439483Y-110300032D01*
X100452402Y-110248311D01*
X100485539Y-110167117D01*
X100530461Y-110073102D01*
X100578735Y-109982917D01*
X100621928Y-109913215D01*
X100651608Y-109880648D01*
X100651929Y-109880519D01*
X100706857Y-109883320D01*
X100759292Y-109908439D01*
X100801881Y-109952541D01*
X100816126Y-110016909D01*
X100814466Y-110071921D01*
X100813245Y-110149835D01*
X100831498Y-110190732D01*
X100879726Y-110215295D01*
X100888820Y-110218392D01*
X100957598Y-110229040D01*
X100999360Y-110200565D01*
X101019263Y-110126344D01*
X101022944Y-110046168D01*
X100995658Y-109901890D01*
X100956690Y-109827203D01*
X100865148Y-109734963D01*
X100752782Y-109686043D01*
X100634051Y-109681654D01*
X100523411Y-109723001D01*
X100454080Y-109785197D01*
X100415265Y-109847294D01*
X100366125Y-109944895D01*
X100316292Y-110058632D01*
X100308677Y-110077590D01*
X100253545Y-110202521D01*
X100204954Y-110274539D01*
X100156647Y-110297700D01*
X100102370Y-110276064D01*
X100059943Y-110238920D01*
X100007702Y-110151127D01*
X100003784Y-110054530D01*
X100044041Y-109965944D01*
X100124326Y-109902186D01*
X100145040Y-109893817D01*
X100221225Y-109845096D01*
X100277785Y-109773965D01*
X100324201Y-109684207D01*
X100192584Y-109684207D01*
X100112168Y-109689490D01*
X100048786Y-109712142D01*
X99981163Y-109762367D01*
X99929076Y-109810582D01*
X99855322Y-109885554D01*
X99815702Y-109943806D01*
X99799810Y-110006372D01*
X99797184Y-110077193D01*
X99820156Y-110232406D01*
G37*
X99820156Y-110232406D02*
X99858393Y-110316469D01*
X99904726Y-110382450D01*
X99956532Y-110430794D01*
X100023363Y-110464172D01*
X100114769Y-110485253D01*
X100240301Y-110496707D01*
X100409508Y-110501203D01*
X100520933Y-110501678D01*
X100955627Y-110501678D01*
X100989509Y-110427316D01*
X101014272Y-110368746D01*
X101023391Y-110339730D01*
X100996257Y-110334179D01*
X100923094Y-110329775D01*
X100816263Y-110327078D01*
X100731437Y-110326506D01*
X100608887Y-110324046D01*
X100511668Y-110317412D01*
X100452134Y-110307726D01*
X100439483Y-110300032D01*
X100452402Y-110248311D01*
X100485539Y-110167117D01*
X100530461Y-110073102D01*
X100578735Y-109982917D01*
X100621928Y-109913215D01*
X100651608Y-109880648D01*
X100651929Y-109880519D01*
X100706857Y-109883320D01*
X100759292Y-109908439D01*
X100801881Y-109952541D01*
X100816126Y-110016909D01*
X100814466Y-110071921D01*
X100813245Y-110149835D01*
X100831498Y-110190732D01*
X100879726Y-110215295D01*
X100888820Y-110218392D01*
X100957598Y-110229040D01*
X100999360Y-110200565D01*
X101019263Y-110126344D01*
X101022944Y-110046168D01*
X100995658Y-109901890D01*
X100956690Y-109827203D01*
X100865148Y-109734963D01*
X100752782Y-109686043D01*
X100634051Y-109681654D01*
X100523411Y-109723001D01*
X100454080Y-109785197D01*
X100415265Y-109847294D01*
X100366125Y-109944895D01*
X100316292Y-110058632D01*
X100308677Y-110077590D01*
X100253545Y-110202521D01*
X100204954Y-110274539D01*
X100156647Y-110297700D01*
X100102370Y-110276064D01*
X100059943Y-110238920D01*
X100007702Y-110151127D01*
X100003784Y-110054530D01*
X100044041Y-109965944D01*
X100124326Y-109902186D01*
X100145040Y-109893817D01*
X100221225Y-109845096D01*
X100277785Y-109773965D01*
X100324201Y-109684207D01*
X100192584Y-109684207D01*
X100112168Y-109689490D01*
X100048786Y-109712142D01*
X99981163Y-109762367D01*
X99929076Y-109810582D01*
X99855322Y-109885554D01*
X99815702Y-109943806D01*
X99799810Y-110006372D01*
X99797184Y-110077193D01*
X99820156Y-110232406D01*
G36*
X99824840Y-109498124D02*
G01*
X99901653Y-109502579D01*
X100018391Y-109506071D01*
X100165821Y-109508315D01*
X100320455Y-109509035D01*
X100843727Y-109509035D01*
X100936117Y-109416645D01*
X100993047Y-109352978D01*
X101016107Y-109297089D01*
X101014647Y-109220702D01*
X101010934Y-109190380D01*
X101000126Y-109095610D01*
X100993933Y-109017222D01*
X100993361Y-108998115D01*
X100997102Y-108933699D01*
X101006494Y-108841571D01*
X101010934Y-108805850D01*
X101017801Y-108718114D01*
X101002885Y-108659153D01*
X100956835Y-108600690D01*
X100936117Y-108579585D01*
X100843727Y-108487195D01*
X99864947Y-108487195D01*
X99831066Y-108561558D01*
X99805970Y-108625590D01*
X99797184Y-108663052D01*
X99824950Y-108672657D01*
X99902530Y-108681635D01*
X100021348Y-108689386D01*
X100172828Y-108695314D01*
X100300805Y-108698173D01*
X100804425Y-108706161D01*
X100814278Y-108775848D01*
X100807389Y-108839229D01*
X100785083Y-108870286D01*
X100743379Y-108878967D01*
X100654544Y-108886378D01*
X100529834Y-108891931D01*
X100380507Y-108895036D01*
X100303661Y-108895484D01*
X99861287Y-108895931D01*
X99829235Y-108987874D01*
X99807443Y-109052949D01*
X99797281Y-109088347D01*
X99797184Y-109089368D01*
X99824809Y-109092920D01*
X99901411Y-109096823D01*
X100017579Y-109100751D01*
X100163904Y-109104376D01*
X100300805Y-109106908D01*
X100804425Y-109114897D01*
X100804425Y-109290069D01*
X100344965Y-109298107D01*
X99885505Y-109306146D01*
X99841344Y-109391543D01*
X99811019Y-109454593D01*
X99797258Y-109491910D01*
X99797184Y-109492987D01*
X99824840Y-109498124D01*
G37*
X99824840Y-109498124D02*
X99901653Y-109502579D01*
X100018391Y-109506071D01*
X100165821Y-109508315D01*
X100320455Y-109509035D01*
X100843727Y-109509035D01*
X100936117Y-109416645D01*
X100993047Y-109352978D01*
X101016107Y-109297089D01*
X101014647Y-109220702D01*
X101010934Y-109190380D01*
X101000126Y-109095610D01*
X100993933Y-109017222D01*
X100993361Y-108998115D01*
X100997102Y-108933699D01*
X101006494Y-108841571D01*
X101010934Y-108805850D01*
X101017801Y-108718114D01*
X101002885Y-108659153D01*
X100956835Y-108600690D01*
X100936117Y-108579585D01*
X100843727Y-108487195D01*
X99864947Y-108487195D01*
X99831066Y-108561558D01*
X99805970Y-108625590D01*
X99797184Y-108663052D01*
X99824950Y-108672657D01*
X99902530Y-108681635D01*
X100021348Y-108689386D01*
X100172828Y-108695314D01*
X100300805Y-108698173D01*
X100804425Y-108706161D01*
X100814278Y-108775848D01*
X100807389Y-108839229D01*
X100785083Y-108870286D01*
X100743379Y-108878967D01*
X100654544Y-108886378D01*
X100529834Y-108891931D01*
X100380507Y-108895036D01*
X100303661Y-108895484D01*
X99861287Y-108895931D01*
X99829235Y-108987874D01*
X99807443Y-109052949D01*
X99797281Y-109088347D01*
X99797184Y-109089368D01*
X99824809Y-109092920D01*
X99901411Y-109096823D01*
X100017579Y-109100751D01*
X100163904Y-109104376D01*
X100300805Y-109106908D01*
X100804425Y-109114897D01*
X100804425Y-109290069D01*
X100344965Y-109298107D01*
X99885505Y-109306146D01*
X99841344Y-109391543D01*
X99811019Y-109454593D01*
X99797258Y-109491910D01*
X99797184Y-109492987D01*
X99824840Y-109498124D01*
G36*
X100039455Y-108311914D02*
G01*
X100257661Y-108311543D01*
X100425519Y-108310108D01*
X100551070Y-108307002D01*
X100642355Y-108301622D01*
X100707415Y-108293362D01*
X100754291Y-108281616D01*
X100791024Y-108265781D01*
X100811991Y-108253790D01*
X100925694Y-108154490D01*
X100996965Y-108028588D01*
X101022538Y-107889291D01*
X100999150Y-107749805D01*
X100957119Y-107666743D01*
X100884411Y-107579545D01*
X100795612Y-107520117D01*
X100679320Y-107484261D01*
X100524135Y-107467781D01*
X100410287Y-107465447D01*
X100402106Y-107465761D01*
X100402106Y-107669724D01*
X100532657Y-107670970D01*
X100619080Y-107676678D01*
X100675618Y-107689804D01*
X100716514Y-107713306D01*
X100747362Y-107741386D01*
X100806905Y-107835688D01*
X100811992Y-107936940D01*
X100762279Y-108032636D01*
X100755543Y-108040084D01*
X100720502Y-108071874D01*
X100678811Y-108091808D01*
X100616762Y-108102600D01*
X100520644Y-108106965D01*
X100414379Y-108107655D01*
X100280880Y-108106159D01*
X100191822Y-108099964D01*
X100133293Y-108086514D01*
X100091382Y-108063251D01*
X100069123Y-108044175D01*
X100012985Y-107955563D01*
X100006235Y-107853508D01*
X100049114Y-107756095D01*
X100065032Y-107737296D01*
X100100382Y-107705293D01*
X100142502Y-107685318D01*
X100205251Y-107674593D01*
X100302487Y-107670339D01*
X100402106Y-107669724D01*
X100402106Y-107465761D01*
X100226947Y-107472504D01*
X100089195Y-107496472D01*
X99985632Y-107541548D01*
X99904856Y-107611928D01*
X99863455Y-107666743D01*
X99818728Y-107766376D01*
X99797967Y-107881855D01*
X99803525Y-107989199D01*
X99825943Y-108049264D01*
X99832323Y-108072835D01*
X99808535Y-108088477D01*
X99744788Y-108099395D01*
X99647687Y-108107655D01*
X99539541Y-108116699D01*
X99474475Y-108129261D01*
X99437268Y-108152119D01*
X99412699Y-108192051D01*
X99401819Y-108217138D01*
X99362072Y-108312023D01*
X100039455Y-108311914D01*
G37*
X100039455Y-108311914D02*
X100257661Y-108311543D01*
X100425519Y-108310108D01*
X100551070Y-108307002D01*
X100642355Y-108301622D01*
X100707415Y-108293362D01*
X100754291Y-108281616D01*
X100791024Y-108265781D01*
X100811991Y-108253790D01*
X100925694Y-108154490D01*
X100996965Y-108028588D01*
X101022538Y-107889291D01*
X100999150Y-107749805D01*
X100957119Y-107666743D01*
X100884411Y-107579545D01*
X100795612Y-107520117D01*
X100679320Y-107484261D01*
X100524135Y-107467781D01*
X100410287Y-107465447D01*
X100402106Y-107465761D01*
X100402106Y-107669724D01*
X100532657Y-107670970D01*
X100619080Y-107676678D01*
X100675618Y-107689804D01*
X100716514Y-107713306D01*
X100747362Y-107741386D01*
X100806905Y-107835688D01*
X100811992Y-107936940D01*
X100762279Y-108032636D01*
X100755543Y-108040084D01*
X100720502Y-108071874D01*
X100678811Y-108091808D01*
X100616762Y-108102600D01*
X100520644Y-108106965D01*
X100414379Y-108107655D01*
X100280880Y-108106159D01*
X100191822Y-108099964D01*
X100133293Y-108086514D01*
X100091382Y-108063251D01*
X100069123Y-108044175D01*
X100012985Y-107955563D01*
X100006235Y-107853508D01*
X100049114Y-107756095D01*
X100065032Y-107737296D01*
X100100382Y-107705293D01*
X100142502Y-107685318D01*
X100205251Y-107674593D01*
X100302487Y-107670339D01*
X100402106Y-107669724D01*
X100402106Y-107465761D01*
X100226947Y-107472504D01*
X100089195Y-107496472D01*
X99985632Y-107541548D01*
X99904856Y-107611928D01*
X99863455Y-107666743D01*
X99818728Y-107766376D01*
X99797967Y-107881855D01*
X99803525Y-107989199D01*
X99825943Y-108049264D01*
X99832323Y-108072835D01*
X99808535Y-108088477D01*
X99744788Y-108099395D01*
X99647687Y-108107655D01*
X99539541Y-108116699D01*
X99474475Y-108129261D01*
X99437268Y-108152119D01*
X99412699Y-108192051D01*
X99401819Y-108217138D01*
X99362072Y-108312023D01*
X100039455Y-108311914D01*
G36*
X99806920Y-106983943D02*
G01*
X99855859Y-107116565D01*
X99942419Y-107224010D01*
X100003352Y-107266032D01*
X100115161Y-107311843D01*
X100196006Y-107310891D01*
X100250378Y-107262808D01*
X100259624Y-107245017D01*
X100288450Y-107168204D01*
X100281065Y-107128976D01*
X100232658Y-107115689D01*
X100205920Y-107115012D01*
X100107548Y-107090686D01*
X100038734Y-107027281D01*
X100005498Y-106939154D01*
X100013861Y-106840663D01*
X100057296Y-106760602D01*
X100082072Y-106733561D01*
X100112129Y-106714394D01*
X100157565Y-106701446D01*
X100228476Y-106693064D01*
X100334960Y-106687593D01*
X100487112Y-106683378D01*
X100535287Y-106682287D01*
X100700095Y-106678307D01*
X100816088Y-106673781D01*
X100892833Y-106666995D01*
X100939893Y-106656231D01*
X100966835Y-106639773D01*
X100983223Y-106615906D01*
X100990463Y-106600626D01*
X101015220Y-106535733D01*
X101023391Y-106497534D01*
X100996103Y-106484912D01*
X100913603Y-106477208D01*
X100774941Y-106474380D01*
X100579162Y-106476386D01*
X100548965Y-106477011D01*
X100370349Y-106481421D01*
X100239923Y-106486635D01*
X100147492Y-106494055D01*
X100082858Y-106505082D01*
X100035825Y-106521117D01*
X99996196Y-106543561D01*
X99979215Y-106555302D01*
X99904080Y-106622619D01*
X99845638Y-106697910D01*
X99840536Y-106707128D01*
X99800260Y-106842133D01*
X99806920Y-106983943D01*
G37*
X99806920Y-106983943D02*
X99855859Y-107116565D01*
X99942419Y-107224010D01*
X100003352Y-107266032D01*
X100115161Y-107311843D01*
X100196006Y-107310891D01*
X100250378Y-107262808D01*
X100259624Y-107245017D01*
X100288450Y-107168204D01*
X100281065Y-107128976D01*
X100232658Y-107115689D01*
X100205920Y-107115012D01*
X100107548Y-107090686D01*
X100038734Y-107027281D01*
X100005498Y-106939154D01*
X100013861Y-106840663D01*
X100057296Y-106760602D01*
X100082072Y-106733561D01*
X100112129Y-106714394D01*
X100157565Y-106701446D01*
X100228476Y-106693064D01*
X100334960Y-106687593D01*
X100487112Y-106683378D01*
X100535287Y-106682287D01*
X100700095Y-106678307D01*
X100816088Y-106673781D01*
X100892833Y-106666995D01*
X100939893Y-106656231D01*
X100966835Y-106639773D01*
X100983223Y-106615906D01*
X100990463Y-106600626D01*
X101015220Y-106535733D01*
X101023391Y-106497534D01*
X100996103Y-106484912D01*
X100913603Y-106477208D01*
X100774941Y-106474380D01*
X100579162Y-106476386D01*
X100548965Y-106477011D01*
X100370349Y-106481421D01*
X100239923Y-106486635D01*
X100147492Y-106494055D01*
X100082858Y-106505082D01*
X100035825Y-106521117D01*
X99996196Y-106543561D01*
X99979215Y-106555302D01*
X99904080Y-106622619D01*
X99845638Y-106697910D01*
X99840536Y-106707128D01*
X99800260Y-106842133D01*
X99806920Y-106983943D01*
G36*
X99809360Y-105997944D02*
G01*
X99851842Y-106112343D01*
X99852658Y-106113652D01*
X99904730Y-106184403D01*
X99965584Y-106236636D01*
X100044887Y-106273371D01*
X100152309Y-106297634D01*
X100297517Y-106312445D01*
X100490179Y-106320829D01*
X100517628Y-106321564D01*
X100931521Y-106332120D01*
X100977456Y-106243291D01*
X101008498Y-106179018D01*
X101023206Y-106140210D01*
X101023391Y-106138415D01*
X100996250Y-106131700D01*
X100923041Y-106126365D01*
X100816081Y-106123083D01*
X100729469Y-106122368D01*
X100589162Y-106122351D01*
X100501051Y-106115937D01*
X100459025Y-106093580D01*
X100456975Y-106045732D01*
X100488790Y-105962849D01*
X100547272Y-105837713D01*
X100595845Y-105745697D01*
X100637986Y-105698371D01*
X100683916Y-105684458D01*
X100686189Y-105684437D01*
X100765311Y-105707395D01*
X100808055Y-105775370D01*
X100814246Y-105879398D01*
X100813172Y-105954330D01*
X100834753Y-105993839D01*
X100886591Y-106018478D01*
X100952632Y-106032659D01*
X100990104Y-106012223D01*
X100995467Y-106004528D01*
X101017006Y-105932083D01*
X101020055Y-105830633D01*
X101005778Y-105726157D01*
X100979688Y-105652125D01*
X100892785Y-105549772D01*
X100771816Y-105491591D01*
X100677308Y-105480069D01*
X100592062Y-105488862D01*
X100522476Y-105520680D01*
X100460672Y-105583684D01*
X100398772Y-105686031D01*
X100328897Y-105835882D01*
X100324948Y-105845012D01*
X100262588Y-105979997D01*
X100211446Y-106063294D01*
X100165488Y-106098997D01*
X100118683Y-106091203D01*
X100064998Y-106044007D01*
X100052644Y-106029894D01*
X100004741Y-105935359D01*
X100006758Y-105837406D01*
X100053724Y-105752097D01*
X100140669Y-105695496D01*
X100157734Y-105690237D01*
X100240504Y-105639023D01*
X100280372Y-105574037D01*
X100319882Y-105480069D01*
X100217658Y-105480069D01*
X100069072Y-105508653D01*
X99932784Y-105593495D01*
X99887191Y-105637645D01*
X99828674Y-105738005D01*
X99802184Y-105865635D01*
X99809360Y-105997944D01*
G37*
X99809360Y-105997944D02*
X99851842Y-106112343D01*
X99852658Y-106113652D01*
X99904730Y-106184403D01*
X99965584Y-106236636D01*
X100044887Y-106273371D01*
X100152309Y-106297634D01*
X100297517Y-106312445D01*
X100490179Y-106320829D01*
X100517628Y-106321564D01*
X100931521Y-106332120D01*
X100977456Y-106243291D01*
X101008498Y-106179018D01*
X101023206Y-106140210D01*
X101023391Y-106138415D01*
X100996250Y-106131700D01*
X100923041Y-106126365D01*
X100816081Y-106123083D01*
X100729469Y-106122368D01*
X100589162Y-106122351D01*
X100501051Y-106115937D01*
X100459025Y-106093580D01*
X100456975Y-106045732D01*
X100488790Y-105962849D01*
X100547272Y-105837713D01*
X100595845Y-105745697D01*
X100637986Y-105698371D01*
X100683916Y-105684458D01*
X100686189Y-105684437D01*
X100765311Y-105707395D01*
X100808055Y-105775370D01*
X100814246Y-105879398D01*
X100813172Y-105954330D01*
X100834753Y-105993839D01*
X100886591Y-106018478D01*
X100952632Y-106032659D01*
X100990104Y-106012223D01*
X100995467Y-106004528D01*
X101017006Y-105932083D01*
X101020055Y-105830633D01*
X101005778Y-105726157D01*
X100979688Y-105652125D01*
X100892785Y-105549772D01*
X100771816Y-105491591D01*
X100677308Y-105480069D01*
X100592062Y-105488862D01*
X100522476Y-105520680D01*
X100460672Y-105583684D01*
X100398772Y-105686031D01*
X100328897Y-105835882D01*
X100324948Y-105845012D01*
X100262588Y-105979997D01*
X100211446Y-106063294D01*
X100165488Y-106098997D01*
X100118683Y-106091203D01*
X100064998Y-106044007D01*
X100052644Y-106029894D01*
X100004741Y-105935359D01*
X100006758Y-105837406D01*
X100053724Y-105752097D01*
X100140669Y-105695496D01*
X100157734Y-105690237D01*
X100240504Y-105639023D01*
X100280372Y-105574037D01*
X100319882Y-105480069D01*
X100217658Y-105480069D01*
X100069072Y-105508653D01*
X99932784Y-105593495D01*
X99887191Y-105637645D01*
X99828674Y-105738005D01*
X99802184Y-105865635D01*
X99809360Y-105997944D01*
G36*
X99608857Y-104662598D02*
G01*
X99728188Y-104671154D01*
X99798506Y-104680981D01*
X99829179Y-104694599D01*
X99829571Y-104714527D01*
X99825910Y-104720989D01*
X99799398Y-104806940D01*
X99800946Y-104918745D01*
X99828199Y-105032414D01*
X99863455Y-105103510D01*
X99919778Y-105176405D01*
X99983519Y-105229693D01*
X100064510Y-105266275D01*
X100172586Y-105289050D01*
X100317580Y-105300919D01*
X100509326Y-105304782D01*
X100546109Y-105304851D01*
X100959288Y-105304897D01*
X100991339Y-105212954D01*
X101013144Y-105147652D01*
X101023297Y-105111824D01*
X101023391Y-105110770D01*
X100995860Y-105107242D01*
X100919923Y-105104239D01*
X100805565Y-105101990D01*
X100662769Y-105100724D01*
X100575951Y-105100529D01*
X100404773Y-105100123D01*
X100282088Y-105098032D01*
X100198000Y-105092947D01*
X100142614Y-105083560D01*
X100106032Y-105068561D01*
X100078359Y-105046642D01*
X100065032Y-105032957D01*
X100011328Y-104938949D01*
X100007307Y-104836364D01*
X100052725Y-104743290D01*
X100069123Y-104726078D01*
X100099957Y-104700832D01*
X100136531Y-104683320D01*
X100189415Y-104672142D01*
X100269177Y-104665896D01*
X100386385Y-104663182D01*
X100547991Y-104662598D01*
X100959288Y-104662598D01*
X100991339Y-104570655D01*
X101013144Y-104505353D01*
X101023297Y-104469525D01*
X101023391Y-104468471D01*
X100995448Y-104465775D01*
X100916630Y-104463345D01*
X100794453Y-104461278D01*
X100636432Y-104459671D01*
X100450083Y-104458623D01*
X100242920Y-104458231D01*
X100233706Y-104458230D01*
X99444020Y-104458230D01*
X99403997Y-104553115D01*
X99363973Y-104648000D01*
X99608857Y-104662598D01*
G37*
X99608857Y-104662598D02*
X99728188Y-104671154D01*
X99798506Y-104680981D01*
X99829179Y-104694599D01*
X99829571Y-104714527D01*
X99825910Y-104720989D01*
X99799398Y-104806940D01*
X99800946Y-104918745D01*
X99828199Y-105032414D01*
X99863455Y-105103510D01*
X99919778Y-105176405D01*
X99983519Y-105229693D01*
X100064510Y-105266275D01*
X100172586Y-105289050D01*
X100317580Y-105300919D01*
X100509326Y-105304782D01*
X100546109Y-105304851D01*
X100959288Y-105304897D01*
X100991339Y-105212954D01*
X101013144Y-105147652D01*
X101023297Y-105111824D01*
X101023391Y-105110770D01*
X100995860Y-105107242D01*
X100919923Y-105104239D01*
X100805565Y-105101990D01*
X100662769Y-105100724D01*
X100575951Y-105100529D01*
X100404773Y-105100123D01*
X100282088Y-105098032D01*
X100198000Y-105092947D01*
X100142614Y-105083560D01*
X100106032Y-105068561D01*
X100078359Y-105046642D01*
X100065032Y-105032957D01*
X100011328Y-104938949D01*
X100007307Y-104836364D01*
X100052725Y-104743290D01*
X100069123Y-104726078D01*
X100099957Y-104700832D01*
X100136531Y-104683320D01*
X100189415Y-104672142D01*
X100269177Y-104665896D01*
X100386385Y-104663182D01*
X100547991Y-104662598D01*
X100959288Y-104662598D01*
X100991339Y-104570655D01*
X101013144Y-104505353D01*
X101023297Y-104469525D01*
X101023391Y-104468471D01*
X100995448Y-104465775D01*
X100916630Y-104463345D01*
X100794453Y-104461278D01*
X100636432Y-104459671D01*
X100450083Y-104458623D01*
X100242920Y-104458231D01*
X100233706Y-104458230D01*
X99444020Y-104458230D01*
X99403997Y-104553115D01*
X99363973Y-104648000D01*
X99608857Y-104662598D01*
G36*
X99769676Y-102233552D02*
G01*
X99847111Y-102348658D01*
X99958949Y-102437611D01*
X100101265Y-102490749D01*
X100206015Y-102501497D01*
X100249726Y-102500276D01*
X100283194Y-102490056D01*
X100313179Y-102461961D01*
X100346440Y-102407116D01*
X100389738Y-102316645D01*
X100449833Y-102181672D01*
X100450134Y-102180989D01*
X100507037Y-102056751D01*
X100557565Y-101954873D01*
X100596280Y-101885767D01*
X100617740Y-101859846D01*
X100617913Y-101859839D01*
X100664644Y-101882685D01*
X100716154Y-101936109D01*
X100753261Y-101997442D01*
X100760632Y-102028515D01*
X100735138Y-102113289D01*
X100671291Y-102186293D01*
X100601094Y-102221913D01*
X100549343Y-102256180D01*
X100490409Y-102323303D01*
X100439496Y-102402208D01*
X100411809Y-102471821D01*
X100410287Y-102486377D01*
X100435321Y-102502763D01*
X100499311Y-102503750D01*
X100585593Y-102491708D01*
X100677501Y-102469007D01*
X100758369Y-102438014D01*
X100761509Y-102436448D01*
X100891734Y-102343181D01*
X100980311Y-102222304D01*
X101023786Y-102085027D01*
X101018706Y-101942560D01*
X100961616Y-101806112D01*
X100957602Y-101800045D01*
X100860326Y-101692710D01*
X100733409Y-101622132D01*
X100566526Y-101583074D01*
X100519639Y-101577832D01*
X100298329Y-101568548D01*
X100195124Y-101579678D01*
X100195124Y-101859839D01*
X100259503Y-101863479D01*
X100278291Y-101883389D01*
X100264235Y-101933026D01*
X100231009Y-102011267D01*
X100189359Y-102098726D01*
X100188256Y-102100899D01*
X100149265Y-102175030D01*
X100123244Y-102204781D01*
X100095965Y-102197445D01*
X100060121Y-102166553D01*
X100008251Y-102087960D01*
X100004439Y-102003323D01*
X100042189Y-101927403D01*
X100115001Y-101874965D01*
X100195124Y-101859839D01*
X100195124Y-101579678D01*
X100121261Y-101587644D01*
X99980829Y-101636634D01*
X99882447Y-101704836D01*
X99783030Y-101827935D01*
X99733711Y-101963528D01*
X99730568Y-102101955D01*
X99769676Y-102233552D01*
G37*
X99769676Y-102233552D02*
X99847111Y-102348658D01*
X99958949Y-102437611D01*
X100101265Y-102490749D01*
X100206015Y-102501497D01*
X100249726Y-102500276D01*
X100283194Y-102490056D01*
X100313179Y-102461961D01*
X100346440Y-102407116D01*
X100389738Y-102316645D01*
X100449833Y-102181672D01*
X100450134Y-102180989D01*
X100507037Y-102056751D01*
X100557565Y-101954873D01*
X100596280Y-101885767D01*
X100617740Y-101859846D01*
X100617913Y-101859839D01*
X100664644Y-101882685D01*
X100716154Y-101936109D01*
X100753261Y-101997442D01*
X100760632Y-102028515D01*
X100735138Y-102113289D01*
X100671291Y-102186293D01*
X100601094Y-102221913D01*
X100549343Y-102256180D01*
X100490409Y-102323303D01*
X100439496Y-102402208D01*
X100411809Y-102471821D01*
X100410287Y-102486377D01*
X100435321Y-102502763D01*
X100499311Y-102503750D01*
X100585593Y-102491708D01*
X100677501Y-102469007D01*
X100758369Y-102438014D01*
X100761509Y-102436448D01*
X100891734Y-102343181D01*
X100980311Y-102222304D01*
X101023786Y-102085027D01*
X101018706Y-101942560D01*
X100961616Y-101806112D01*
X100957602Y-101800045D01*
X100860326Y-101692710D01*
X100733409Y-101622132D01*
X100566526Y-101583074D01*
X100519639Y-101577832D01*
X100298329Y-101568548D01*
X100195124Y-101579678D01*
X100195124Y-101859839D01*
X100259503Y-101863479D01*
X100278291Y-101883389D01*
X100264235Y-101933026D01*
X100231009Y-102011267D01*
X100189359Y-102098726D01*
X100188256Y-102100899D01*
X100149265Y-102175030D01*
X100123244Y-102204781D01*
X100095965Y-102197445D01*
X100060121Y-102166553D01*
X100008251Y-102087960D01*
X100004439Y-102003323D01*
X100042189Y-101927403D01*
X100115001Y-101874965D01*
X100195124Y-101859839D01*
X100195124Y-101579678D01*
X100121261Y-101587644D01*
X99980829Y-101636634D01*
X99882447Y-101704836D01*
X99783030Y-101827935D01*
X99733711Y-101963528D01*
X99730568Y-102101955D01*
X99769676Y-102233552D01*
G36*
X99751015Y-99966221D02*
G01*
X99822968Y-100103061D01*
X99938766Y-100204051D01*
X100013213Y-100239925D01*
X100124992Y-100267839D01*
X100266227Y-100282129D01*
X100420371Y-100283484D01*
X100570879Y-100272595D01*
X100701205Y-100250153D01*
X100794803Y-100216850D01*
X100810922Y-100206615D01*
X100931249Y-100085382D01*
X101003317Y-99941387D01*
X101024408Y-99785139D01*
X100991802Y-99627148D01*
X100972253Y-99583180D01*
X100912012Y-99497556D01*
X100832135Y-99422408D01*
X100822004Y-99415306D01*
X100773181Y-99386439D01*
X100720990Y-99367357D01*
X100652285Y-99356084D01*
X100553918Y-99350645D01*
X100412744Y-99349062D01*
X100381092Y-99349035D01*
X100371019Y-99349107D01*
X100371019Y-99640989D01*
X100504256Y-99642687D01*
X100592674Y-99649372D01*
X100649785Y-99663425D01*
X100689102Y-99687229D01*
X100702241Y-99699379D01*
X100752172Y-99769236D01*
X100749895Y-99837059D01*
X100706584Y-99905635D01*
X100660346Y-99946535D01*
X100592857Y-99970758D01*
X100486433Y-99984361D01*
X100474020Y-99985294D01*
X100281147Y-99987616D01*
X100137900Y-99963350D01*
X100045160Y-99912824D01*
X100003807Y-99836368D01*
X100001552Y-99809076D01*
X100012893Y-99737411D01*
X100052184Y-99688390D01*
X100127326Y-99658418D01*
X100246222Y-99643899D01*
X100371019Y-99640989D01*
X100371019Y-99349107D01*
X100230659Y-99350122D01*
X100125549Y-99354688D01*
X100052714Y-99364688D01*
X99999108Y-99382079D01*
X99951681Y-99408816D01*
X99942864Y-99414724D01*
X99824007Y-99514032D01*
X99755008Y-99622242D01*
X99727619Y-99753981D01*
X99726281Y-99798717D01*
X99751015Y-99966221D01*
G37*
X99751015Y-99966221D02*
X99822968Y-100103061D01*
X99938766Y-100204051D01*
X100013213Y-100239925D01*
X100124992Y-100267839D01*
X100266227Y-100282129D01*
X100420371Y-100283484D01*
X100570879Y-100272595D01*
X100701205Y-100250153D01*
X100794803Y-100216850D01*
X100810922Y-100206615D01*
X100931249Y-100085382D01*
X101003317Y-99941387D01*
X101024408Y-99785139D01*
X100991802Y-99627148D01*
X100972253Y-99583180D01*
X100912012Y-99497556D01*
X100832135Y-99422408D01*
X100822004Y-99415306D01*
X100773181Y-99386439D01*
X100720990Y-99367357D01*
X100652285Y-99356084D01*
X100553918Y-99350645D01*
X100412744Y-99349062D01*
X100381092Y-99349035D01*
X100371019Y-99349107D01*
X100371019Y-99640989D01*
X100504256Y-99642687D01*
X100592674Y-99649372D01*
X100649785Y-99663425D01*
X100689102Y-99687229D01*
X100702241Y-99699379D01*
X100752172Y-99769236D01*
X100749895Y-99837059D01*
X100706584Y-99905635D01*
X100660346Y-99946535D01*
X100592857Y-99970758D01*
X100486433Y-99984361D01*
X100474020Y-99985294D01*
X100281147Y-99987616D01*
X100137900Y-99963350D01*
X100045160Y-99912824D01*
X100003807Y-99836368D01*
X100001552Y-99809076D01*
X100012893Y-99737411D01*
X100052184Y-99688390D01*
X100127326Y-99658418D01*
X100246222Y-99643899D01*
X100371019Y-99640989D01*
X100371019Y-99349107D01*
X100230659Y-99350122D01*
X100125549Y-99354688D01*
X100052714Y-99364688D01*
X99999108Y-99382079D01*
X99951681Y-99408816D01*
X99942864Y-99414724D01*
X99824007Y-99514032D01*
X99755008Y-99622242D01*
X99727619Y-99753981D01*
X99726281Y-99798717D01*
X99751015Y-99966221D01*
G36*
X99762719Y-103335429D02*
G01*
X99816914Y-103429123D01*
X99870707Y-103494264D01*
X99927066Y-103541907D01*
X99995987Y-103574728D01*
X100087468Y-103595406D01*
X100211506Y-103606620D01*
X100378098Y-103611049D01*
X100497851Y-103611563D01*
X100938659Y-103611563D01*
X100994283Y-103487483D01*
X101049907Y-103363402D01*
X100567095Y-103348805D01*
X100386779Y-103342773D01*
X100255901Y-103336445D01*
X100165511Y-103328606D01*
X100106664Y-103318037D01*
X100070413Y-103303523D01*
X100047810Y-103283848D01*
X100042917Y-103277535D01*
X100004706Y-103181888D01*
X100019827Y-103085207D01*
X100059943Y-103027655D01*
X100088370Y-103004245D01*
X100125672Y-102988039D01*
X100182223Y-102977741D01*
X100268394Y-102972049D01*
X100394558Y-102969664D01*
X100526042Y-102969264D01*
X100690999Y-102969186D01*
X100807761Y-102966361D01*
X100886510Y-102956907D01*
X100937431Y-102936940D01*
X100970706Y-102902576D01*
X100996520Y-102849932D01*
X101023344Y-102779617D01*
X101052542Y-102702820D01*
X100534346Y-102711962D01*
X100347539Y-102715643D01*
X100209490Y-102719950D01*
X100110568Y-102726123D01*
X100041145Y-102735402D01*
X99991590Y-102749027D01*
X99952273Y-102768239D01*
X99917584Y-102791402D01*
X99806770Y-102903152D01*
X99742689Y-103039513D01*
X99727339Y-103187825D01*
X99762719Y-103335429D01*
G37*
X99762719Y-103335429D02*
X99816914Y-103429123D01*
X99870707Y-103494264D01*
X99927066Y-103541907D01*
X99995987Y-103574728D01*
X100087468Y-103595406D01*
X100211506Y-103606620D01*
X100378098Y-103611049D01*
X100497851Y-103611563D01*
X100938659Y-103611563D01*
X100994283Y-103487483D01*
X101049907Y-103363402D01*
X100567095Y-103348805D01*
X100386779Y-103342773D01*
X100255901Y-103336445D01*
X100165511Y-103328606D01*
X100106664Y-103318037D01*
X100070413Y-103303523D01*
X100047810Y-103283848D01*
X100042917Y-103277535D01*
X100004706Y-103181888D01*
X100019827Y-103085207D01*
X100059943Y-103027655D01*
X100088370Y-103004245D01*
X100125672Y-102988039D01*
X100182223Y-102977741D01*
X100268394Y-102972049D01*
X100394558Y-102969664D01*
X100526042Y-102969264D01*
X100690999Y-102969186D01*
X100807761Y-102966361D01*
X100886510Y-102956907D01*
X100937431Y-102936940D01*
X100970706Y-102902576D01*
X100996520Y-102849932D01*
X101023344Y-102779617D01*
X101052542Y-102702820D01*
X100534346Y-102711962D01*
X100347539Y-102715643D01*
X100209490Y-102719950D01*
X100110568Y-102726123D01*
X100041145Y-102735402D01*
X99991590Y-102749027D01*
X99952273Y-102768239D01*
X99917584Y-102791402D01*
X99806770Y-102903152D01*
X99742689Y-103039513D01*
X99727339Y-103187825D01*
X99762719Y-103335429D01*
G36*
X99746903Y-101089900D02*
G01*
X99802522Y-101201450D01*
X99904931Y-101299908D01*
X99942864Y-101327023D01*
X99992500Y-101356562D01*
X100046412Y-101375728D01*
X100118364Y-101386693D01*
X100222122Y-101391629D01*
X100359101Y-101392713D01*
X100546815Y-101387818D01*
X100687758Y-101370804D01*
X100792908Y-101338177D01*
X100873243Y-101286442D01*
X100939741Y-101212104D01*
X100943678Y-101206642D01*
X100983953Y-101133380D01*
X101003880Y-101045160D01*
X101008793Y-100932962D01*
X101008793Y-100750567D01*
X101185857Y-100750491D01*
X101284470Y-100748793D01*
X101342314Y-100738450D01*
X101377006Y-100711422D01*
X101406164Y-100659668D01*
X101412121Y-100647239D01*
X101440039Y-100589077D01*
X101457672Y-100544044D01*
X101459194Y-100510559D01*
X101438781Y-100487038D01*
X101390607Y-100471900D01*
X101308846Y-100463563D01*
X101187672Y-100460444D01*
X101021260Y-100460960D01*
X100803785Y-100463529D01*
X100738736Y-100464332D01*
X100514502Y-100467222D01*
X100367821Y-100469812D01*
X100367821Y-100750414D01*
X100492326Y-100751991D01*
X100573787Y-100759000D01*
X100627515Y-100774858D01*
X100668823Y-100802981D01*
X100688971Y-100822075D01*
X100747921Y-100900135D01*
X100752720Y-100969247D01*
X100704038Y-101040560D01*
X100702241Y-101042368D01*
X100664618Y-101071383D01*
X100613484Y-101089033D01*
X100534738Y-101097936D01*
X100414276Y-101100709D01*
X100387588Y-101100759D01*
X100221583Y-101094058D01*
X100106505Y-101072248D01*
X100036254Y-101032765D01*
X100004729Y-100973044D01*
X100001552Y-100938528D01*
X100016460Y-100856611D01*
X100065548Y-100800421D01*
X100155362Y-100766598D01*
X100292445Y-100751780D01*
X100367821Y-100750414D01*
X100367821Y-100469812D01*
X100340952Y-100470287D01*
X100210382Y-100474247D01*
X100115087Y-100479826D01*
X100047364Y-100487746D01*
X99999507Y-100498731D01*
X99963813Y-100513501D01*
X99932578Y-100532782D01*
X99920824Y-100541049D01*
X99809797Y-100650712D01*
X99746847Y-100789365D01*
X99729297Y-100949754D01*
X99746903Y-101089900D01*
G37*
X99746903Y-101089900D02*
X99802522Y-101201450D01*
X99904931Y-101299908D01*
X99942864Y-101327023D01*
X99992500Y-101356562D01*
X100046412Y-101375728D01*
X100118364Y-101386693D01*
X100222122Y-101391629D01*
X100359101Y-101392713D01*
X100546815Y-101387818D01*
X100687758Y-101370804D01*
X100792908Y-101338177D01*
X100873243Y-101286442D01*
X100939741Y-101212104D01*
X100943678Y-101206642D01*
X100983953Y-101133380D01*
X101003880Y-101045160D01*
X101008793Y-100932962D01*
X101008793Y-100750567D01*
X101185857Y-100750491D01*
X101284470Y-100748793D01*
X101342314Y-100738450D01*
X101377006Y-100711422D01*
X101406164Y-100659668D01*
X101412121Y-100647239D01*
X101440039Y-100589077D01*
X101457672Y-100544044D01*
X101459194Y-100510559D01*
X101438781Y-100487038D01*
X101390607Y-100471900D01*
X101308846Y-100463563D01*
X101187672Y-100460444D01*
X101021260Y-100460960D01*
X100803785Y-100463529D01*
X100738736Y-100464332D01*
X100514502Y-100467222D01*
X100367821Y-100469812D01*
X100367821Y-100750414D01*
X100492326Y-100751991D01*
X100573787Y-100759000D01*
X100627515Y-100774858D01*
X100668823Y-100802981D01*
X100688971Y-100822075D01*
X100747921Y-100900135D01*
X100752720Y-100969247D01*
X100704038Y-101040560D01*
X100702241Y-101042368D01*
X100664618Y-101071383D01*
X100613484Y-101089033D01*
X100534738Y-101097936D01*
X100414276Y-101100709D01*
X100387588Y-101100759D01*
X100221583Y-101094058D01*
X100106505Y-101072248D01*
X100036254Y-101032765D01*
X100004729Y-100973044D01*
X100001552Y-100938528D01*
X100016460Y-100856611D01*
X100065548Y-100800421D01*
X100155362Y-100766598D01*
X100292445Y-100751780D01*
X100367821Y-100750414D01*
X100367821Y-100469812D01*
X100340952Y-100470287D01*
X100210382Y-100474247D01*
X100115087Y-100479826D01*
X100047364Y-100487746D01*
X99999507Y-100498731D01*
X99963813Y-100513501D01*
X99932578Y-100532782D01*
X99920824Y-100541049D01*
X99809797Y-100650712D01*
X99746847Y-100789365D01*
X99729297Y-100949754D01*
X99746903Y-101089900D01*
%TD*%
M02*
